<?xml version="1.0" standalone="no"?>
<!DOCTYPE svg PUBLIC "-//W3C//DTD SVG 1.1//EN" "http://www.w3.org/Graphics/SVG/1.1/DTD/svg11.dtd" >
<svg xmlns="http://www.w3.org/2000/svg" xmlns:xlink="http://www.w3.org/1999/xlink" version="1.1">
<metadata>
Created by FontForge 20200427 at Tue Oct 30 04:30:48 2018
 By www
Copyright (c) 2018 by Designed by Alex Trochut and produced by Ale Paul for Sudtipos. All rights reserved.
</metadata>
<defs>
<font id="Utopian-OneBW" horiz-adv-x="814" >
  <font-face 
    font-family="Utopian One BW"
    font-weight="400"
    font-stretch="normal"
    units-per-em="1000"
    panose-1="0 0 5 0 0 0 0 0 0 0"
    ascent="844"
    descent="-156"
    x-height="705"
    cap-height="704"
    bbox="-372 -218 1268 961"
    underline-thickness="50"
    underline-position="-100"
    unicode-range="U+0020-FB02"
  />
<missing-glyph horiz-adv-x="500" 
d="M410 -156h-317v1000h317v-1000zM168 777v-33h65v-37h-66v-33h166v33h-66v37h66v33h-165zM167 648v-104h166v34h-66v70h-100zM233 578h-33v36h33v-36zM167 517v-33h66v-37h-66v-33h100v70h66v33h-166zM300 457v-66h-133v-34h166v100h-33zM233 335v-56h34v23h33v-47h-100
v80h-33v-113h166v113h-100zM167 162v-113h166v113h-166zM300 82h-100v47h100v-47zM167 26v-33h70l-70 -47v-33h166v33h-102l70 47h32v33h-166z" />
    <glyph glyph-name="fi" unicode="fi" horiz-adv-x="808" 
d="M529 705v-74h-441v74h441zM88 390h441v-74h-363v-316h-78v390zM641 704h79v-704h-79v704z" />
    <glyph glyph-name="fl" unicode="fl" horiz-adv-x="1053" 
d="M529 705v-74h-441v74h441zM88 390h441v-74h-363v-316h-78v390zM641 705h77v-631h322v-75h-399v706z" />
    <glyph glyph-name=".notdef" horiz-adv-x="500" 
d="M410 -156h-317v1000h317v-1000zM168 777v-33h65v-37h-66v-33h166v33h-66v37h66v33h-165zM167 648v-104h166v34h-66v70h-100zM233 578h-33v36h33v-36zM167 517v-33h66v-37h-66v-33h100v70h66v33h-166zM300 457v-66h-133v-34h166v100h-33zM233 335v-56h34v23h33v-47h-100
v80h-33v-113h166v113h-100zM167 162v-113h166v113h-166zM300 82h-100v47h100v-47zM167 26v-33h70l-70 -47v-33h166v33h-102l70 47h32v33h-166z" />
    <glyph glyph-name=".null" horiz-adv-x="0" 
 />
    <glyph glyph-name="nonmarkingreturn" horiz-adv-x="333" 
 />
    <glyph glyph-name="space" unicode=" " horiz-adv-x="215" 
 />
    <glyph glyph-name="exclam" unicode="!" horiz-adv-x="383" 
d="M82 749h220v-511h-220v511zM228 312v365h-74v-365h74zM112 19q-32 32 -32 77v4q0 45 32 77t77 32h5q45 0 77 -32t32 -77v-4q0 -45 -32 -77t-77 -32h-5q-45 0 -77 32zM221.5 69q12.5 12 12.5 29t-12.5 29.5t-29.5 12.5t-29.5 -12.5t-12.5 -29.5t12.5 -29t29.5 -12t29.5 12
z" />
    <glyph glyph-name="quotedbl" unicode="&#x22;" horiz-adv-x="333" 
d="M72 703h89l-74 -190h-60zM217 703h89l-74 -190h-60z" />
    <glyph glyph-name="numbersign" unicode="#" horiz-adv-x="683" 
d="M144 196h-134l20 75h133l41 159h-135l20 74h134l42 167h81l-42 -167h155l42 167h81l-43 -167h124l-20 -74h-122l-40 -159h122l-19 -75h-122l-41 -161h-81l41 161h-156l-40 -161h-82zM402 268l40 164h-159l-41 -164h160z" />
    <glyph glyph-name="dollar" unicode="$" horiz-adv-x="597" 
d="M254 0h-214v319h190q-52 0 -95.5 25.5t-69 69t-25.5 95.5v9q0 52 25.5 95.5t69 69t95.5 25.5h24v72h74v-72h185v-319h-153q52 0 95.5 -25.5t69 -69t25.5 -95.5v-9q0 -52 -25.5 -95.5t-69 -69t-95.5 -25.5h-32v-75h-74v75zM254 393v241h-24q-48 0 -82 -34t-34 -82v-9
q0 -48 34 -82t82 -34h24zM439 463v171h-111v-171h111zM360 74q48 0 82 34t34 82v9q0 48 -34 82.5t-82 34.5h-32v-242h32zM254 74v171h-140v-171h140z" />
    <glyph glyph-name="percent" unicode="%" horiz-adv-x="876" 
d="M120 375.5q-43 25.5 -68 68.5t-25 94t25 93.5t68 67.5t94 25t94 -25t68.5 -67.5t25.5 -93.5t-25.5 -94t-68.5 -68.5t-94 -25.5t-94 25.5zM619 709h80l-451 -708h-81zM300.5 451.5q35.5 35.5 35.5 86.5q0 50 -35.5 85.5t-86.5 35.5q-33 0 -61 -16.5t-44.5 -44.5t-16.5 -60
q0 -51 36 -86.5t86 -35.5q51 0 86.5 35.5zM558.5 11q-44.5 26 -70.5 70.5t-26 97.5t26 97t70.5 70t96.5 26q53 0 97.5 -26t70.5 -70t26 -97t-26 -97.5t-70.5 -70.5t-97.5 -26q-52 0 -96.5 26zM745.5 88.5q37.5 37.5 37.5 90.5q0 34 -17 63.5t-46.5 46.5t-64.5 17
q-34 0 -63.5 -17t-46.5 -46.5t-17 -63.5q0 -35 17 -64.5t46.5 -46.5t63.5 -17q53 0 90.5 37.5z" />
    <glyph glyph-name="ampersand" unicode="&#x26;" horiz-adv-x="701" 
d="M166 20.5q-56 32.5 -88.5 88.5t-32.5 122q0 69 36 127t96 89l-15 27q-28 49 -28 88q0 41 20.5 76t55.5 55.5t76 20.5t76.5 -20.5t56 -55.5t20.5 -76q0 -47 -28 -88h295l-140 -231l134 -241h-270l-11 20q-27 -16 -62 -25t-69 -9q-66 0 -122 32.5zM342 506q23 23 23 56
q0 32 -23 55t-56 23q-32 0 -55 -23t-23 -55q0 -33 23 -56t55 -23q33 0 56 23zM575 76l-187 325h-101l186 -325h102zM579 401h-107l52 -82zM338 68.5q26 6.5 45 17.5l-171 296q-42 -21 -67.5 -61.5t-25.5 -89.5q0 -46 23 -84.5t61.5 -61.5t84.5 -23q24 0 50 6.5z" />
    <glyph glyph-name="quotesingle" unicode="'" horiz-adv-x="185" 
d="M72 702h89l-74 -190h-60z" />
    <glyph glyph-name="parenleft" unicode="(" horiz-adv-x="283" 
d="M65.5 67.5q-28.5 118.5 -28.5 245.5q0 126 28.5 244t83.5 208h86q-59 -87 -89.5 -206t-30.5 -247q0 -129 31 -248t90 -205h-87q-55 90 -83.5 208.5z" />
    <glyph glyph-name="parenright" unicode=")" horiz-adv-x="283" 
d="M47 -141q59 86 90 205t31 248q0 128 -30.5 247t-89.5 206h86q55 -90 83.5 -208t28.5 -244q0 -127 -28.5 -245.5t-83.5 -208.5h-87z" />
    <glyph glyph-name="asterisk" unicode="*" horiz-adv-x="450" 
d="M198 451l-130 -97l-41 66l150 76l-150 76l41 67l130 -98l-12 164h78l-12 -164l130 98l41 -67l-150 -76l150 -76l-41 -66l-130 97l12 -163h-78z" />
    <glyph glyph-name="plus" unicode="+" horiz-adv-x="493" 
d="M209 320h-172v71h172v174h75v-174h172v-71h-172v-174h-75v174z" />
    <glyph glyph-name="comma" unicode="," horiz-adv-x="188" 
d="M72 88h89l-74 -190h-60z" />
    <glyph glyph-name="hyphen" unicode="-" horiz-adv-x="356" 
d="M30 304h296v-71h-296v71z" />
    <glyph glyph-name="period" unicode="." horiz-adv-x="165" 
d="M47.5 6.5q-14.5 14.5 -14.5 34.5t14.5 34.5t34.5 14.5t34.5 -14.5t14.5 -34.5t-14.5 -34.5t-34.5 -14.5t-34.5 14.5z" />
    <glyph glyph-name="slash" unicode="/" horiz-adv-x="394" 
d="M311 705h83l-312 -864h-82z" />
    <glyph glyph-name="zero" unicode="0" horiz-adv-x="811" 
d="M221 34.5q-85 49.5 -135 133.5t-50 184q0 101 49.5 185.5t134.5 133.5t186 49q100 0 185 -49t134.5 -133.5t49.5 -185.5q0 -100 -49.5 -184t-134.5 -133.5t-185 -49.5t-185 49.5zM694 392q-9 71 -50 129t-103.5 91t-134.5 33q-73 0 -135.5 -33t-103 -91t-49.5 -129h576z
M367 319h-250q7 -66 41.5 -121.5t89 -91t119.5 -43.5v256zM565 107.5q54 35.5 88.5 90.5t41.5 121h-249v-256q65 9 119 44.5z" />
    <glyph glyph-name="one" unicode="1" horiz-adv-x="438" 
d="M120 481h-100v227h330v-708h-230v481zM276 391v243h-182v-80h100v-163h82zM276 74v244h-82v-244h82z" />
    <glyph glyph-name="two" unicode="2" horiz-adv-x="619" 
d="M194 355h-122l-9 25q-12 39 -12 80q0 71 35.5 131.5t96.5 96t132 35.5q72 0 132.5 -35.5t96 -96t35.5 -131.5q0 -73 -37 -134.5t-98 -95.5h119v-230h-543zM278 428v218q-66 -13 -109.5 -65.5t-43.5 -120.5q0 -15 3 -32h150zM461.5 338.5q43.5 52.5 43.5 121.5
q0 68 -43.5 120.5t-109.5 65.5v-373q66 13 109.5 65.5zM489 74v82h-211v198h-3v-1l-137 -279h351z" />
    <glyph glyph-name="three" unicode="3" horiz-adv-x="601" 
d="M157.5 22q-63.5 37 -100.5 100t-37 138q0 14 3 51h236v151h-178v246h454l-94 -214q60 -38 95 -99.5t35 -134.5q0 -75 -37 -138t-100.5 -100t-137.5 -37q-75 0 -138.5 37zM379 536l43 98h-268v-98h225zM451 131.5q46 55.5 46 128.5q0 48 -21 90t-58 70.5t-83 37.5v-396
q70 14 116 69.5zM261 237h-166q7 -66 53.5 -115t112.5 -60v175z" />
    <glyph glyph-name="four" unicode="4" horiz-adv-x="609" 
d="M251 156h-235v76l231 476h274v-708h-270v156zM246 230v2l183 402h-136l-197 -404h150zM447 217v279l-127 -279h127zM447 74v69h-122v-69h122z" />
    <glyph glyph-name="five" unicode="5" horiz-adv-x="601" 
d="M147 22q-63 37 -100 100t-37 138q0 81 39 142l71 116l112 190h329v-246h-89q41 -38 64.5 -90.5t23.5 -111.5q0 -75 -37 -138t-100 -100t-138 -37t-138 37zM487 536v98h-213l-58 -98h271zM352 450q-32 12 -67 12h-112l-61 -98q-29 -46 -29 -104q0 -45 18.5 -84.5
t51.5 -67.5zM386 86q46 27 73.5 73t27.5 101q0 46 -19 86t-53 68l-198 -343q32 -12 68 -12q55 0 101 27z" />
    <glyph glyph-name="six" unicode="6" horiz-adv-x="606" 
d="M165 22q-63 37 -100 100t-37 138q0 81 39 142l71 116l112 192h282l-113 -200q72 -34 115.5 -101t43.5 -149q0 -75 -37 -138t-100 -100t-138 -37t-138 37zM350 538l56 98h-114l-58 -100zM261 462h-70l-61 -98q-29 -46 -29 -104q0 -72 45.5 -127.5t114.5 -69.5v399z
M421 96.5q39 28.5 61.5 71.5t22.5 92q0 50 -22.5 92.5t-61.5 71t-87 35.5v-398q48 7 87 35.5z" />
    <glyph glyph-name="seven" unicode="7" horiz-adv-x="512" 
d="M73 233l127 229h-180v246h482v-219l-148 -286v-203h-281v233zM241 535l55 99h-202v-99h147zM280 230l149 278v126h-48l-226 -404h125zM280 74v69h-134v-69h134z" />
    <glyph glyph-name="eight" unicode="8" horiz-adv-x="539" 
d="M150.5 16.5q-54.5 31.5 -86.5 86t-32 118.5q0 65 41 122t99 81q-30 17 -52 52.5t-22 72.5q0 47 23.5 86t63 62t85.5 23t85.5 -23t62.5 -62t23 -86q0 -37 -21 -71.5t-53 -53.5q59 -25 99.5 -81.5t40.5 -121.5q0 -64 -32 -118.5t-86.5 -86t-118.5 -31.5q-65 0 -119.5 31.5z
M338.5 475.5q28.5 28.5 28.5 70.5t-28.5 70.5t-68.5 28.5q-41 0 -69.5 -28.5t-28.5 -70.5t28.5 -70.5t69.5 -28.5q40 0 68.5 28.5zM233 375q-53 -12 -87.5 -55t-34.5 -101q0 -57 34.5 -100t87.5 -55v311zM394 119q35 43 35 100q0 58 -35 101t-88 55v-311q53 12 88 55z" />
    <glyph glyph-name="nine" unicode="9" horiz-adv-x="606" 
d="M187 195q-72 34 -115.5 101t-43.5 149q0 75 37 138t100 100t138 37t138 -37t100 -100t37 -138q0 -80 -39 -142l-71 -116l-112 -192h-282zM272 644q-48 -7 -87 -35.5t-61.5 -71.5t-22.5 -92q0 -50 22.5 -92.5t61.5 -71t87 -35.5v398zM415 243l61 98q29 46 29 104
q0 72 -45.5 127.5t-114.5 69.5v-399h70zM314 69l58 100l-116 -2l-56 -98h114z" />
    <glyph glyph-name="colon" unicode=":" horiz-adv-x="166" 
d="M117.5 544.5q14.5 -14.5 14.5 -34.5q0 -21 -14.5 -35t-34.5 -14q-21 0 -35.5 14t-14.5 35q0 20 15 34.5t35 14.5t34.5 -14.5zM117.5 76.5q14.5 -14.5 14.5 -34.5t-14.5 -34.5t-34.5 -14.5t-35 14.5t-15 34.5t15 34.5t35 14.5t34.5 -14.5z" />
    <glyph glyph-name="semicolon" unicode=";" horiz-adv-x="203" 
d="M82.5 473.5q-14.5 14.5 -14.5 34.5t14.5 35t34.5 15t34.5 -15t14.5 -35t-14.5 -34.5t-34.5 -14.5t-34.5 14.5zM72 87h89l-74 -190h-60z" />
    <glyph glyph-name="less" unicode="&#x3c;" horiz-adv-x="394" 
d="M357 464l-248 -112l248 -113v-83l-337 158v75l337 158v-83z" />
    <glyph glyph-name="equal" unicode="=" horiz-adv-x="493" 
d="M37 499h419v-71h-419v71zM37 287h419v-72h-419v72z" />
    <glyph glyph-name="greater" unicode="&#x3e;" horiz-adv-x="394" 
d="M374 389v-75l-337 -158v83l248 113l-248 112v83z" />
    <glyph glyph-name="question" unicode="?" horiz-adv-x="551" 
d="M136 391l68 66h-181q-3 18 -3 37q0 69 34.5 127.5t93 93t127.5 34.5t128 -34.5t93.5 -93t34.5 -127.5q0 -71 -34.5 -129.5t-94.5 -92.5t-132 -34h-133zM270 530l105 117q-41 30 -106 30q-48 0 -85.5 -24t-60 -58t-27.5 -65h174zM270 312q47 0 90 23.5t70 65.5t27 93
q0 55 -29 100l-219 -243v-39h61zM166 19q-32 32 -32 77v4q0 45 32 77t77 32h5q45 0 77 -32t32 -77v-4q0 -45 -32 -77t-77 -32h-5q-45 0 -77 32zM275.5 69q12.5 12 12.5 29t-12.5 29.5t-29.5 12.5t-29.5 -12.5t-12.5 -29.5t12.5 -29t29.5 -12t29.5 12z" />
    <glyph glyph-name="at" unicode="@" horiz-adv-x="811" 
d="M211.5 40q-82.5 49 -130.5 133t-48 183t48.5 183t130.5 133t178 49q97 0 179 -49t130 -133t48 -183v-213h-220v89h-4q-20 -35 -57.5 -55t-77.5 -20q-54 0 -100 27t-73 73t-27 101q0 54 27 100t73 73t100 27q55 0 101 -27t73 -73t27 -100v-146h89v144q0 84 -39 151.5
t-105 105.5t-144 38t-143.5 -38.5t-104.5 -105.5t-39 -151q0 -82 39 -149.5t105 -106.5t143 -39v-70q-96 0 -178.5 49zM458 237.5q32 18.5 51 50.5t19 70t-19 70t-51 50.5t-70 18.5q-37 0 -69 -18.5t-51 -50.5t-19 -70t19 -70t51 -50.5t69 -18.5q38 0 70 18.5z" />
    <glyph glyph-name="A" unicode="A" horiz-adv-x="625" 
d="M263 708h98l252 -708h-601zM426 289l-116 330l-112 -330h228zM502 74l-50 142h-280l-49 -142h379z" />
    <glyph glyph-name="B" unicode="B" horiz-adv-x="631" 
d="M88 705h282q53 0 98 -26.5t71 -70.5t26 -94q0 -51 -26.5 -93.5t-72.5 -62.5q55 -19 86 -64.5t31 -103.5q0 -50 -26 -93.5t-71 -70t-100 -26.5h-298v705zM364 390q51 0 85.5 35.5t34.5 84.5t-34.5 84.5t-85.5 35.5h-197v-240h197zM381 74q51 0 86 35t35 85q0 53 -35 87.5
t-98 34.5h-202v-242h214z" />
    <glyph glyph-name="C" unicode="C" horiz-adv-x="691" 
d="M495 351l172 -259q-50 -50 -117 -78.5t-140 -28.5q-101 0 -186 48.5t-134.5 132.5t-49.5 186q0 101 49.5 184t134.5 131t186 48q75 0 143.5 -29.5t118.5 -81.5zM274 607q-62 -32 -101.5 -89t-47.5 -129h307l143 203q-76 47 -165 47q-74 0 -136 -32zM430 315h-305
q8 -74 47.5 -131.5t101.5 -90t136 -32.5q87 0 160 46z" />
    <glyph glyph-name="D" unicode="D" horiz-adv-x="699" 
d="M88 705h218q96 0 177 -47.5t128.5 -128.5t47.5 -177t-47.5 -176.5t-128.5 -128t-177 -47.5h-218v705zM298 74v557h-132v-557h132zM481.5 138q46.5 39 72.5 94.5t26 119.5t-26 120t-72.5 95t-104.5 55v-539q58 16 104.5 55z" />
    <glyph glyph-name="E" unicode="E" horiz-adv-x="702" 
d="M88 706h554v-706h-554v706zM568 494v138h-406v-138h406zM568 284v138h-406v-138h406zM568 74v137h-406v-137h406z" />
    <glyph glyph-name="F" unicode="F" horiz-adv-x="597" 
d="M88 708h485v-391h-195v-317h-290v708zM499 392v242h-333v-242h333zM304 74v243h-138v-243h138z" />
    <glyph glyph-name="G" unicode="G" horiz-adv-x="798" 
d="M748 386v-386h-116l-29 38q-88 -53 -195 -53q-100 0 -184.5 49t-134 132.5t-49.5 182.5q0 101 49.5 185t134 132.5t184.5 48.5q13 0 37 -2v-327h303zM252.5 596.5q-54.5 -34.5 -89 -89.5t-42.5 -121h251v253q-65 -8 -119.5 -42.5zM559 96l-168 215h-269q9 -72 49 -129.5
t102.5 -90t134.5 -32.5q87 0 151 37zM675 311h-191l184 -237h7v237z" />
    <glyph glyph-name="H" unicode="H" horiz-adv-x="713" 
d="M88 704h537v-704h-537v704zM548 389v241h-381v-241h381zM548 74v241h-381v-241h381z" />
    <glyph glyph-name="I" unicode="I" horiz-adv-x="465" 
d="M88 704h289v-704h-289v704zM300 389v241h-133v-241h133zM300 74v241h-133v-241h133z" />
    <glyph glyph-name="J" unicode="J" horiz-adv-x="528" 
d="M123 13.5q-49 28.5 -76.5 77.5t-27.5 107v74h140v432h290v-506q0 -61 -29 -109.5t-78.5 -76t-108.5 -27.5q-61 0 -110 28.5zM371 272v358h-133v-358h133zM332 97.5q39 37.5 39 97.5v3h-274q0 -58 38.5 -98t97.5 -40q60 0 99 37.5z" />
    <glyph glyph-name="K" unicode="K" horiz-adv-x="592" 
d="M88 705h501l-210 -359l200 -346h-491v705zM312 383l146 247h-292v-247h146zM448 75l-136 233h-146v-233h282z" />
    <glyph glyph-name="L" unicode="L" horiz-adv-x="564" 
d="M88 708h290v-437h166v-271h-456v708zM304 271v363h-142v-363h142zM471 74v124h-309v-124h309z" />
    <glyph glyph-name="M" unicode="M" horiz-adv-x="921" 
d="M88 704h277l96 -258l95 258h277v-704h-745v704zM421 335l-108 294h-134l175 -479zM541 75l201 554h-133l-202 -554h134zM301 75l-138 382v-382h138zM758 75v382l-137 -382h137z" />
    <glyph glyph-name="N" unicode="N" horiz-adv-x="719" 
d="M88 704h543v-704h-543v704zM543 75l-210 554h-153l210 -554h153zM556 629h-143l143 -375v375zM310 75l-147 386v-386h147z" />
    <glyph glyph-name="O" unicode="O" 
d="M223.5 33.5q-84.5 49.5 -134 134t-49.5 184.5t49.5 184t134 133t183.5 49q100 0 184.5 -49t133.5 -133t49 -184t-49 -184.5t-133.5 -134t-184.5 -49.5q-99 0 -183.5 49.5zM695 389q-9 71 -49 129t-102.5 91.5t-136.5 33.5t-136 -33.5t-101.5 -91.5t-48.5 -129h574z
M543.5 92.5q62.5 33.5 102.5 91.5t49 130h-574q8 -72 48 -130t102 -91.5t136 -33.5t136.5 33.5z" />
    <glyph glyph-name="P" unicode="P" horiz-adv-x="711" 
d="M556 674q57 -33 90 -89.5t33 -124.5q0 -66 -33.5 -122.5t-90 -90t-123.5 -33.5h-55v-214h-289v707h344q67 0 124 -33zM303 634h-142v-560h142v560zM516.5 311.5q38.5 22.5 61 62t22.5 86.5q0 48 -22.5 88t-61 63t-84.5 23h-55v-345h55q46 0 84.5 22.5z" />
    <glyph glyph-name="Q" unicode="Q" horiz-adv-x="847" 
d="M223 46q-84 46 -133.5 126.5t-49.5 179.5q0 100 49.5 184t134 133t183.5 49q100 0 184.5 -49t133.5 -133t49 -184q0 -32 -6 -64h29v-288h-390q-100 0 -184 46zM367 641q-71 -9 -128 -49.5t-89 -103t-32 -136.5t32 -133t88.5 -96t128.5 -45v563zM689 288q7 28 7 64
q0 73 -32.5 135.5t-89.5 103.5t-128 50v-353h243zM718 75v138h-272v-138h272z" />
    <glyph glyph-name="R" unicode="R" horiz-adv-x="693" 
d="M88 707h316q68 0 124.5 -32.5t89.5 -88.5t33 -124q0 -81 -49 -144.5t-125 -84.5l159 -233h-548v707zM404 290q46 0 84.5 23t61 62t22.5 87t-22.5 87.5t-61 62.5t-84.5 23h-27v-345h27zM304 74v560h-142v-560h142zM493 74l-97 141h-19v-141h116z" />
    <glyph glyph-name="S" unicode="S" horiz-adv-x="606" 
d="M58 272h204v47h-24q-52 0 -95.5 25.5t-69 69t-25.5 95.5v9q0 52 25.5 95.5t69 69t95.5 25.5h286v-272h-182v-47h25q52 0 96 -25.5t69.5 -69t25.5 -95.5v-9q0 -52 -25.5 -95.5t-69.5 -69t-96 -25.5h-309v272zM262 392v242h-24q-48 0 -82 -34t-34 -82v-9q0 -48 34 -82.5
t82 -34.5h24zM450 510v124h-108v-124h108zM367 74q49 0 83 34t34 82v9q0 48 -34 82t-83 34h-25v-241h25zM262 74v124h-130v-124h130z" />
    <glyph glyph-name="T" unicode="T" horiz-adv-x="541" 
d="M134 437h-104v272h481v-272h-105v-437h-272v437zM437 511v124h-334v-124h334zM332 74v363h-124v-363h124z" />
    <glyph glyph-name="U" unicode="U" horiz-adv-x="671" 
d="M203.5 19q-59.5 34 -94 93t-34.5 130v463h521v-463q0 -72 -34 -130.5t-93.5 -92.5t-132.5 -34t-132.5 34zM296 632h-142v-394q0 -67 39 -114.5t103 -59.5v568zM478.5 124q39.5 48 39.5 114v394h-143v-568q64 12 103.5 60z" />
    <glyph glyph-name="V" unicode="V" horiz-adv-x="622" 
d="M12 708h601l-252 -708h-98zM424 412l78 222h-377l77 -222h222zM398 339h-171l85 -250z" />
    <glyph glyph-name="W" unicode="W" horiz-adv-x="956" 
d="M33 705h890l-194 -705h-502zM423 630h-289l145 -535zM822 630h-290l146 -535zM613 75l-136 501l-136 -501h272z" />
    <glyph glyph-name="X" unicode="X" horiz-adv-x="653" 
d="M163 358l-142 348h612l-143 -348l150 -358h-627zM529 74l-234 558h-165l229 -558h170zM523 632h-149l76 -178zM279 74l-76 188l-79 -188h155z" />
    <glyph glyph-name="Y" unicode="Y" horiz-adv-x="648" 
d="M180 272l-175 436h638l-175 -436v-272h-288v272zM418 345l116 289h-420l116 -289h188zM394 74v198h-141v-198h141z" />
    <glyph glyph-name="Z" unicode="Z" horiz-adv-x="681" 
d="M211 436h-181v272h621l-181 -436h181v-272h-621zM242 510l52 124h-190v-124h138zM308 74l233 560h-168l-232 -560h167zM578 74v124h-138l-52 -124h190z" />
    <glyph glyph-name="bracketleft" unicode="[" horiz-adv-x="302" 
d="M258 -151h-177v909h177v-72h-99v-765h99v-72z" />
    <glyph glyph-name="backslash" unicode="\" horiz-adv-x="394" 
d="M312 -159l-312 864h83l311 -864h-82z" />
    <glyph glyph-name="bracketright" unicode="]" horiz-adv-x="302" 
d="M143 -79v765h-99v72h177v-909h-177v72h99z" />
    <glyph glyph-name="underscore" unicode="_" horiz-adv-x="563" 
d="M0 -22h564v-71h-564v71z" />
    <glyph glyph-name="grave" unicode="`" horiz-adv-x="175" 
d="M17 790h87l54 -162h-60z" />
    <glyph glyph-name="a" unicode="a" horiz-adv-x="622" 
d="M262 706h97l251 -706h-84l-216 618l-214 -618h-84z" />
    <glyph glyph-name="b" unicode="b" horiz-adv-x="631" 
d="M364 390q51 0 85.5 35.5t34.5 84.5t-34.5 84.5t-85.5 35.5h-276v75h282q53 0 98 -26.5t71 -70.5t26 -94q0 -51 -26.5 -93.5t-72.5 -62.5q55 -19 86 -64.5t31 -103.5q0 -50 -26 -93.5t-71 -70t-100 -26.5h-298v74h293q51 0 86 35t35 85q0 53 -35 87.5t-98 34.5h-281v74
h276z" />
    <glyph glyph-name="c" unicode="c" horiz-adv-x="496" 
d="M223 34.5q-84 49.5 -133.5 134t-49.5 186.5q0 100 49.5 184t133.5 132.5t185 48.5v-76q-79 0 -144.5 -38t-103.5 -104t-38 -147q0 -83 38 -150t103.5 -105.5t144.5 -38.5v-76q-101 0 -185 49.5z" />
    <glyph glyph-name="d" unicode="d" horiz-adv-x="548" 
d="M88 74h67q74 0 137 37t100 101t37 140t-37 140t-100 101.5t-137 37.5h-67v74h67q96 0 177 -47.5t128.5 -128.5t47.5 -177t-47.5 -176.5t-128.5 -128t-177 -47.5h-67v74z" />
    <glyph glyph-name="e" unicode="e" horiz-adv-x="570" 
d="M529 705v-74h-441v74h441zM529 390v-74h-441v74h441zM529 74v-74h-441v74h441z" />
    <glyph glyph-name="f" unicode="f" horiz-adv-x="553" 
d="M529 705v-74h-441v74h441zM88 390h441v-74h-363v-316h-78v390z" />
    <glyph glyph-name="g" unicode="g" horiz-adv-x="748" 
d="M698 390v-390h-79v49q-93 -64 -211 -64q-100 0 -184.5 49.5t-134 134.5t-49.5 184q0 101 49.5 186t134 134.5t184.5 49.5v-73q-72 0 -134.5 -33.5t-103 -92.5t-49.5 -132v-2h577zM170.5 184.5q40.5 -58.5 103 -92t134.5 -33.5q63 0 115.5 20t95.5 65v171h-498
q9 -72 49.5 -130.5z" />
    <glyph glyph-name="h" unicode="h" horiz-adv-x="713" 
d="M88 704h79v-315h381v315h77v-704h-77v315h-381v-315h-79v704z" />
    <glyph glyph-name="i" unicode="i" horiz-adv-x="255" 
d="M88 704h79v-704h-79v704z" />
    <glyph glyph-name="j" unicode="j" horiz-adv-x="528" 
d="M123 13.5q-49 28.5 -76.5 77.5t-27.5 107h78q0 -58 38.5 -98t97.5 -40q60 0 99 37.5t39 97.5v510h78v-507q0 -61 -29 -109.5t-78.5 -76t-108.5 -27.5q-61 0 -110 28.5z" />
    <glyph glyph-name="k" unicode="k" horiz-adv-x="592" 
d="M88 705h78v-705h-78v705zM290 346l212 359h87l-210 -359l200 -346h-87z" />
    <glyph glyph-name="l" unicode="l" horiz-adv-x="500" 
d="M88 705h77v-631h322v-75h-399v706z" />
    <glyph glyph-name="m" unicode="m" horiz-adv-x="856" 
d="M88 705h113l226 -605h2l226 605h113v-706h-78v585l-222 -584h-80l-222 584v-585h-78v706z" />
    <glyph glyph-name="n" unicode="n" horiz-adv-x="709" 
d="M88 705h84l370 -590v590h79v-705h-88l-367 585v-585h-78v705z" />
    <glyph glyph-name="o" unicode="o" 
d="M223.5 33.5q-84.5 49.5 -134 134t-49.5 184.5t49.5 184t134 133t183.5 49q100 0 184.5 -49t133.5 -133t49 -184t-49 -184.5t-133.5 -134t-184.5 -49.5q-99 0 -183.5 49.5zM553.5 99q66.5 39 105 106t38.5 147t-38.5 147t-105 106t-146.5 39t-146 -39t-104 -106t-38 -147
t38 -147t104 -106t146 -39t146.5 39z" />
    <glyph glyph-name="p" unicode="p" horiz-adv-x="571" 
d="M88 705h205q67 0 123.5 -32.5t89.5 -89t33 -124.5q0 -66 -33 -122.5t-89.5 -89.5t-123.5 -33h-126v-214h-79v705zM293 288q46 0 84.5 22.5t61 62t22.5 86.5q0 48 -22.5 87.5t-61 62.5t-84.5 23h-126v-344h126z" />
    <glyph glyph-name="q" unicode="q" horiz-adv-x="826" 
d="M223 34.5q-84 49.5 -133.5 134t-49.5 184.5q0 99 49.5 183.5t133.5 134t184 49.5q101 0 186 -49.5t134.5 -134t49.5 -183.5q0 -70 -25.5 -132.5t-71.5 -111.5l85 -110h-99l-43 57q-99 -71 -216 -71q-100 0 -184 49.5zM556.5 100q66.5 40 104 107.5t37.5 145.5
q0 80 -38.5 147.5t-105 106.5t-147.5 39t-147 -39t-104 -106.5t-38 -147.5q0 -81 38 -148t104 -106t147 -39q83 0 149.5 40z" />
    <glyph glyph-name="r" unicode="r" horiz-adv-x="583" 
d="M88 705h207q68 0 124 -32.5t89 -88.5t33 -124q0 -81 -49 -144t-124 -84l158 -232h-92l-147 214h-119v-214h-79zM295 289q45 0 83.5 22.5t61 62t22.5 86.5q0 48 -22.5 87.5t-61 62.5t-83.5 23h-127v-344h127z" />
    <glyph glyph-name="s" unicode="s" horiz-adv-x="524" 
d="M251 74h23q54 0 91.5 37.5t37.5 91.5q0 53 -37.5 90.5t-91.5 37.5h-39q-53 0 -98 26.5t-71 71.5t-26 98t26 98t71 71.5t98 26.5h16v-74h-16q-50 0 -86 -36t-36 -86t36 -86t86 -36h39q55 0 101.5 -27.5t74 -73.5t27.5 -101t-27.5 -101.5t-74 -74t-101.5 -27.5h-23v74z" />
    <glyph glyph-name="t" unicode="t" horiz-adv-x="471" 
d="M197 632h-184v73h445v-73h-182v-633h-79v633z" />
    <glyph glyph-name="u" unicode="u" horiz-adv-x="671" 
d="M203.5 19q-59.5 34 -94 93t-34.5 130v463h79v-467q0 -50 23.5 -91t65 -64t93.5 -23t93.5 23t65 64t23.5 91v467h78v-463q0 -72 -34 -130.5t-93.5 -92.5t-132.5 -34t-132.5 34z" />
    <glyph glyph-name="v" unicode="v" horiz-adv-x="622" 
d="M12 705h84l213 -617l217 617h84l-251 -705h-97z" />
    <glyph glyph-name="w" unicode="w" horiz-adv-x="956" 
d="M33 705h81l165 -610l164 610h69l166 -610l164 610h81l-194 -705h-96l-156 576l-156 -576h-94z" />
    <glyph glyph-name="x" unicode="x" horiz-adv-x="579" 
d="M248 359l-223 346h93l172 -278l171 278h93l-222 -346l235 -359h-93l-184 292l-184 -292h-93z" />
    <glyph glyph-name="y" unicode="y" horiz-adv-x="583" 
d="M252 283l-246 422h89l196 -338l197 338h89l-246 -422v-283h-79v283z" />
    <glyph glyph-name="z" unicode="z" horiz-adv-x="539" 
d="M31 76l386 554h-386v75h476v-83l-382 -547h382v-75h-476v76z" />
    <glyph glyph-name="braceleft" unicode="{" horiz-adv-x="290" 
d="M127 -128.5q-28 27.5 -28 67.5v305q0 11 -8 19t-19 8h-32v70h31q11 0 19 8.5t8 19.5v305q0 39 27.5 66.5t67.5 27.5h40v-70h-39q-11 0 -18.5 -7.5t-7.5 -18.5v-309q0 -16 -6.5 -31.5t-18.5 -24.5q13 -9 20 -25t7 -33v-309q0 -11 8 -18.5t18 -7.5h37v-70h-39
q-39 0 -67 27.5z" />
    <glyph glyph-name="bar" unicode="|" horiz-adv-x="247" 
d="M88 805h71v-906h-71v906z" />
    <glyph glyph-name="braceright" unicode="}" horiz-adv-x="290" 
d="M57 -156v70h37q11 0 18.5 7.5t7.5 18.5v309q0 17 7 33t20 25q-12 9 -18.5 24.5t-6.5 31.5v309q0 11 -7.5 18.5t-18.5 7.5h-39v70h40q40 0 67.5 -27.5t27.5 -66.5v-305q0 -11 8 -19.5t19 -8.5h31v-70h-32q-11 0 -19 -8t-8 -19v-305q0 -40 -28 -67.5t-67 -27.5h-39z" />
    <glyph glyph-name="exclamdown" unicode="&#xa1;" horiz-adv-x="383" 
d="M112 529q-32 32 -32 77v4q0 45 32 77t77 32h5q45 0 77 -32t32 -77v-4q0 -45 -32 -77t-77 -32h-5q-45 0 -77 32zM221.5 578.5q12.5 12.5 12.5 29.5t-12.5 29t-29.5 12t-29.5 -12t-12.5 -29t12.5 -29.5t29.5 -12.5t29.5 12.5zM82 468h220v-511h-220v511zM228 29v365h-74
v-365h74z" />
    <glyph glyph-name="cent" unicode="&#xa2;" horiz-adv-x="500" 
d="M142 185q-40 27 -62.5 70t-22.5 93q0 55 27 101t73 73t101 27q40 0 73 -13l22 41h50l-33 -62q53 -36 73 -96h-72q-13 21 -34 35l-122 -227q24 -9 48 -8q32 1 59.5 16.5t45.5 41.5h75q-20 -57 -70.5 -93t-114.5 -36q-42 0 -78 15l-30 -55h-49zM295 471q-18 6 -37 6
q-36 0 -66 -17t-47.5 -46.5t-17.5 -65.5q0 -30 13.5 -56t36.5 -43z" />
    <glyph glyph-name="sterling" unicode="&#xa3;" horiz-adv-x="508" 
d="M363.5 693q47.5 -26 75 -71.5t24.5 -98.5l-132 -169h129v-221h-249q-30 -33 -61 -58v-2h310v-73h-433v77q43 22 85 56h-85v221h114q-6 6 -33 35.5t-42 64.5t-15 75q0 54 27 97.5t72.5 68t100.5 24.5h10q55 0 102.5 -26zM387 551q-11 41 -45.5 67.5t-80.5 26.5h-10
q-54 0 -91.5 -35t-37.5 -86q0 -39 18.5 -67t55.5 -65q22 -20 37 -38h4zM101 279v-71h286v71h-286z" />
    <glyph glyph-name="yen" unicode="&#xa5;" horiz-adv-x="596" 
d="M259 218h-218v220h172l-186 266h542l-185 -266h173v-220h-220v-222h-78v222zM428 630h-260l131 -191zM484 293v70h-370v-70h370z" />
    <glyph glyph-name="brokenbar" unicode="&#xa6;" horiz-adv-x="247" 
d="M88 805h71v-386h-71v386zM88 286h71v-387h-71v387z" />
    <glyph glyph-name="section" unicode="&#xa7;" horiz-adv-x="558" 
d="M470 148q41 -43 41 -112q0 -57 -32 -103.5t-86 -73.5t-119 -27q-63 0 -117 27.5t-86 74t-32 101.5h78q0 -35 21.5 -64t57.5 -46t78 -17q44 0 80.5 17t57.5 46.5t21 64.5q0 42 -23.5 66t-57.5 35t-93 23q-68 14 -108 28.5t-68 46.5t-28 89q0 52 45 91q-45 40 -45 110
q0 53 30.5 98t83.5 71t115 26t114.5 -26.5t82.5 -71.5t30 -98h-78q0 34 -20 62.5t-54.5 44.5t-74.5 16q-42 0 -76 -15.5t-53.5 -43t-19.5 -60.5q0 -37 22 -59t55 -33t89 -23q68 -14 110 -29t71 -49.5t29 -94.5q0 -55 -41 -92zM156.5 273.5q21.5 -21.5 53 -32t88.5 -23.5
q45 -10 71 -17t50 -18q14 22 14 47q0 41 -23 65t-57 35.5t-92 23.5q-28 6 -57.5 13.5t-51.5 16.5q-17 -23 -17 -52q0 -37 21.5 -58.5z" />
    <glyph glyph-name="dieresis" unicode="&#xa8;" horiz-adv-x="260" 
d="M30 649q-13 13 -13 31q0 19 13 31.5t31 12.5t30.5 -12.5t12.5 -31.5q0 -18 -12.5 -31t-30.5 -13t-31 13zM169 649q-13 13 -13 31q0 19 13 31.5t31 12.5t30.5 -12.5t12.5 -31.5q0 -18 -12.5 -31t-30.5 -13t-31 13z" />
    <glyph glyph-name="copyright" unicode="&#xa9;" horiz-adv-x="531" 
d="M151.5 294q-52.5 31 -83.5 83.5t-31 114.5q0 61 31 113.5t83.5 83.5t113.5 31q62 0 114.5 -31t83.5 -83.5t31 -113.5q0 -62 -31 -114.5t-83.5 -83.5t-114.5 -31q-61 0 -113.5 31zM357.5 332q42.5 25 67 67.5t24.5 92.5t-24.5 92t-67 66.5t-92.5 24.5t-92 -24.5
t-66.5 -66.5t-24.5 -92t24.5 -92.5t66.5 -67.5t92 -25t92.5 25zM184.5 405.5q-34.5 34.5 -34.5 83.5t34.5 83.5t83.5 34.5q41 0 72 -24.5t40 -60.5h-46q-7 18 -25 30.5t-41 12.5q-31 0 -53.5 -22t-22.5 -54t22 -54t54 -22q41 0 64 36h47q-12 -33 -42 -55.5t-69 -22.5
q-49 0 -83.5 34.5z" />
    <glyph glyph-name="ordfeminine" unicode="&#xaa;" horiz-adv-x="456" 
d="M409 712v-352h-72v78q-19 -41 -54 -64t-82 -23q-49 0 -89 25t-62.5 68t-22.5 94t22.5 93.5t62.5 67t89 24.5q47 0 82 -23t54 -63v75h72zM298.5 452q34.5 35 34.5 86q0 50 -34.5 84.5t-84.5 34.5q-49 0 -83.5 -35t-34.5 -84q0 -51 34.5 -86t83.5 -35q50 0 84.5 35z" />
    <glyph glyph-name="guillemotleft" unicode="&#xab;" horiz-adv-x="414" 
d="M27 267l90 171h89l-96 -171l96 -172h-89zM205 267l90 171h89l-96 -171l96 -172h-89z" />
    <glyph glyph-name="registered" unicode="&#xae;" horiz-adv-x="531" 
d="M150.5 294q-52.5 31 -83 83.5t-30.5 114.5t30.5 114t83 83t114.5 31t114.5 -31t83.5 -83.5t31 -113.5q0 -62 -31 -114.5t-83.5 -83.5t-114.5 -31t-114.5 31zM357.5 332q42.5 25 67 67.5t24.5 92.5t-24.5 92t-67 66.5t-92.5 24.5t-92 -24.5t-66.5 -66.5t-24.5 -92
t24.5 -92.5t66.5 -67.5t92 -25t92.5 25zM193 609h79q37 0 61 -22t24 -62q0 -31 -15.5 -49t-39.5 -25l48 -79h-48l-45 76h-24v-76h-40v237zM273 481q20 0 32 11t12 34t-12 34t-32 12h-40v-91h40z" />
    <glyph glyph-name="macron" unicode="&#xaf;" horiz-adv-x="389" 
d="M372 710v-60h-355v60h355z" />
    <glyph glyph-name="degree" unicode="&#xb0;" horiz-adv-x="357" 
d="M107.5 453.5q-32.5 18.5 -51.5 51t-19 72.5q0 60 40.5 100t101.5 40q60 0 100.5 -40t40.5 -100q0 -61 -40.5 -101.5t-100.5 -40.5q-39 0 -71.5 18.5zM235 520.5q22 22.5 22 56.5q0 33 -22 55t-56 22t-56.5 -22t-22.5 -55q0 -34 22.5 -56.5t56.5 -22.5t56 22.5z" />
    <glyph glyph-name="plusminus" unicode="&#xb1;" horiz-adv-x="493" 
d="M209 329h-172v72h172v151h75v-151h172v-72h-172v-146h-75v146zM37 107h419v-72h-419v72z" />
    <glyph glyph-name="uni00B2" unicode="&#xb2;" horiz-adv-x="343" 
d="M32 385l152 127q23 21 34 39t11 41q0 31 -17 47t-48 16q-64 0 -64 -65h-65q0 58 35.5 94t99.5 36q58 0 93.5 -33.5t35.5 -89.5q0 -67 -65 -117l-118 -101v-3h185v-65h-269v74z" />
    <glyph glyph-name="uni00B3" unicode="&#xb3;" horiz-adv-x="345" 
d="M293 362.5q-20 -31.5 -53 -49t-71 -17.5q-65 0 -106.5 41t-41.5 103l68 1q0 -34 21.5 -56t57.5 -22q34 0 55 22t21 55q-1 38 -21 59t-57 21h-79l96 124h-130v62h240l-108 -137v-1h7q55 -4 88 -40.5t33 -92.5q0 -41 -20 -72.5z" />
    <glyph glyph-name="acute" unicode="&#xb4;" horiz-adv-x="175" 
d="M70 790h88l-81 -162h-60z" />
    <glyph glyph-name="paragraph" unicode="&#xb6;" horiz-adv-x="652" 
d="M300 262h-49q-61 0 -111.5 28t-79.5 78.5t-29 116.5q0 67 29 117t79 76.5t112 26.5h125v-866h-76v423zM488 705h76v-866h-76v866zM300 338v293h-49q-63 0 -103.5 -39t-40.5 -107t40.5 -107.5t103.5 -39.5h49z" />
    <glyph glyph-name="periodcentered" unicode="&#xb7;" horiz-adv-x="165" 
d="M47.5 291.5q-14.5 14.5 -14.5 34.5t14.5 34.5t34.5 14.5t34.5 -14.5t14.5 -34.5t-14.5 -34.5t-34.5 -14.5t-34.5 14.5z" />
    <glyph glyph-name="cedilla" unicode="&#xb8;" horiz-adv-x="135" 
d="M17 -106q22 0 35 10.5t13 30.5q0 16 -11.5 26t-30.5 10v31q42 0 68.5 -18t26.5 -57q0 -44 -27 -64t-74 -20v51z" />
    <glyph glyph-name="uni00B9" unicode="&#xb9;" horiz-adv-x="187" 
d="M74 641h-57v64l128 1v-401h-71v336z" />
    <glyph glyph-name="ordmasculine" unicode="&#xba;" horiz-adv-x="428" 
d="M120 375.5q-43 25.5 -68 68.5t-25 94t25 93.5t68 67.5t94 25t94 -25t68.5 -67.5t25.5 -93.5t-25.5 -94t-68.5 -68.5t-94 -25.5t-94 25.5zM298.5 452q34.5 35 34.5 86q0 50 -34.5 84.5t-84.5 34.5t-84 -34.5t-34 -84.5q0 -51 34 -86t84 -35t84.5 35z" />
    <glyph glyph-name="guillemotright" unicode="&#xbb;" horiz-adv-x="414" 
d="M30 95l96 172l-96 171h89l90 -171l-90 -172h-89zM208 95l96 172l-96 171h89l90 -171l-90 -172h-89z" />
    <glyph glyph-name="onequarter" unicode="&#xbc;" horiz-adv-x="644" 
d="M482 709h77l-452 -708h-77zM84 641h-57v65h128v-401h-71v336zM512 82h-208v54l175 265h101v-259h37v-60h-37v-82h-68v82zM513 142v203h-3l-139 -203h142z" />
    <glyph glyph-name="onehalf" unicode="&#xbd;" horiz-adv-x="679" 
d="M482 709h77l-452 -708h-77zM84 641h-57v65h128v-401h-71v336zM383 74l152 128q23 20 33.5 38t10.5 42q0 31 -16.5 47t-47.5 16q-32 0 -48.5 -16.5t-16.5 -48.5h-64q0 58 35.5 93.5t99.5 35.5q58 0 93 -33.5t35 -89.5q0 -35 -16 -63t-49 -54l-117 -100v-4h185v-64h-269v73
z" />
    <glyph glyph-name="threequarters" unicode="&#xbe;" horiz-adv-x="741" 
d="M659 709l-452 -708h-77l452 708h77zM293.5 363q-19.5 -32 -52.5 -49.5t-72 -17.5q-63 0 -104 41t-41 103l68 1q0 -34 21.5 -56t57.5 -22q34 0 55 22t21 55q-1 38 -21 58.5t-57 20.5h-79l94 125h-138v62h250l-108 -137v-1h7q53 -3 85.5 -40t32.5 -94q0 -39 -19.5 -71z
M714 142v-60h-37v-82h-68v82h-208v54l175 265h101v-259h37zM609 345h-2l-140 -203h142v203z" />
    <glyph glyph-name="questiondown" unicode="&#xbf;" horiz-adv-x="551" 
d="M226 525q-32 32 -32 77v4q0 45 32 77t77 32h5q45 0 77 -32t32 -77v-4q0 -45 -32 -77t-77 -32h-5q-45 0 -77 32zM334.5 574.5q12.5 12.5 12.5 29.5t-12.5 29t-29.5 12t-29.5 -12t-12.5 -29t12.5 -29.5t29.5 -12.5t29.5 12.5zM148 -12.5q-59 34.5 -93.5 93t-34.5 127.5
q0 71 34.5 129.5t94.5 92.5t132 34h133l1 -153l-68 -66h181q3 -18 3 -37q0 -69 -34.5 -127.5t-93 -93t-127.5 -34.5t-128 34.5zM342 351v39h-61q-47 0 -90 -23.5t-70 -65.5t-27 -93q0 -55 29 -100zM367.5 49q37.5 24 60 58t27.5 65h-174l-105 -117q41 -30 106 -30
q48 0 85.5 24z" />
    <glyph glyph-name="Agrave" unicode="&#xc0;" horiz-adv-x="625" 
d="M201 949h87l54 -162h-60zM263 708h98l252 -708h-601zM426 289l-116 330l-112 -330h228zM502 74l-50 142h-280l-49 -142h379z" />
    <glyph glyph-name="Aacute" unicode="&#xc1;" horiz-adv-x="625" 
d="M337 949h88l-81 -162h-60zM263 708h98l252 -708h-601zM426 289l-116 330l-112 -330h228zM502 74l-50 142h-280l-49 -142h379z" />
    <glyph glyph-name="Acircumflex" unicode="&#xc2;" horiz-adv-x="625" 
d="M285 920h56l84 -130h-70l-42 83l-44 -83h-69zM263 708h98l252 -708h-601zM426 289l-116 330l-112 -330h228zM502 74l-50 142h-280l-49 -142h379z" />
    <glyph glyph-name="Atilde" unicode="&#xc3;" horiz-adv-x="625" 
d="M336.5 805q-16.5 6 -37.5 17q-18 10 -29 14.5t-23 4.5q-26 0 -43 -26l-54 36q36 55 97 55q21 -1 37 -6.5t38 -17.5q15 -9 26.5 -13.5t23.5 -4.5q9 0 24.5 6t28.5 24l52 -38q-22 -32 -51.5 -44.5t-53.5 -12.5q-19 0 -35.5 6zM263 708h98l252 -708h-601zM426 289l-116 330
l-112 -330h228zM502 74l-50 142h-280l-49 -142h379z" />
    <glyph glyph-name="Adieresis" unicode="&#xc4;" horiz-adv-x="625" 
d="M213 808q-13 13 -13 31q0 19 13 31.5t31 12.5t30.5 -12.5t12.5 -31.5q0 -18 -12.5 -31t-30.5 -13t-31 13zM352 808q-13 13 -13 31q0 19 13 31.5t31 12.5t30.5 -12.5t12.5 -31.5q0 -18 -12.5 -31t-30.5 -13t-31 13zM263 708h98l252 -708h-601zM426 289l-116 330l-112 -330
h228zM502 74l-50 142h-280l-49 -142h379z" />
    <glyph glyph-name="Aring" unicode="&#xc5;" horiz-adv-x="625" 
d="M243.5 793q-28.5 29 -28.5 70q0 40 28.5 69t69.5 29q40 0 69 -29t29 -69q0 -41 -29 -70t-69 -29q-41 0 -69.5 29zM349 826q15 15 15 37q0 21 -15 36t-36 15t-36 -15t-15 -36q0 -22 15 -37t36 -15t36 15zM263 708h98l252 -708h-601zM426 289l-116 330l-112 -330h228z
M502 74l-50 142h-280l-49 -142h379z" />
    <glyph glyph-name="AE" unicode="&#xc6;" horiz-adv-x="1081" 
d="M421 706h600v-706h-1009zM947 494v137h-405v-137h405zM463 285v335l-194 -335h194zM947 284v138h-405v-138h405zM947 74v137h-405v-136h328v-1h77zM463 75v135h-237l-79 -135h316z" />
    <glyph glyph-name="Ccedilla" unicode="&#xc7;" horiz-adv-x="691" 
d="M667 92q-47 -47 -108.5 -75t-129.5 -31q44 -19 44 -67q0 -44 -27 -64t-74 -20v51q22 0 35 10.5t13 30.5q0 16 -11.5 26t-30.5 10v23q-94 8 -171.5 58t-122 131t-44.5 177q0 101 49.5 184t134.5 131t186 48q75 0 143.5 -29.5t118.5 -81.5l-177 -253zM274 607
q-62 -32 -101.5 -89t-47.5 -129h307l143 203q-76 47 -165 47q-74 0 -136 -32zM172.5 183.5q39.5 -57.5 101.5 -90t136 -32.5q87 0 160 46l-140 208h-305q8 -74 47.5 -131.5z" />
    <glyph glyph-name="Egrave" unicode="&#xc8;" horiz-adv-x="702" 
d="M253 951h87l54 -162h-60zM88 706h554v-706h-554v706zM568 494v138h-406v-138h406zM568 284v138h-406v-138h406zM568 74v137h-406v-137h406z" />
    <glyph glyph-name="Eacute" unicode="&#xc9;" horiz-adv-x="702" 
d="M389 951h88l-81 -162h-60zM88 706h554v-706h-554v706zM568 494v138h-406v-138h406zM568 284v138h-406v-138h406zM568 74v137h-406v-137h406z" />
    <glyph glyph-name="Ecircumflex" unicode="&#xca;" horiz-adv-x="702" 
d="M337 922h56l84 -130h-70l-42 83l-44 -83h-69zM88 706h554v-706h-554v706zM568 494v138h-406v-138h406zM568 284v138h-406v-138h406zM568 74v137h-406v-137h406z" />
    <glyph glyph-name="Edieresis" unicode="&#xcb;" horiz-adv-x="702" 
d="M265 810q-13 13 -13 31q0 19 13 31.5t31 12.5t30.5 -12.5t12.5 -31.5q0 -18 -12.5 -31t-30.5 -13t-31 13zM404 810q-13 13 -13 31q0 19 13 31.5t31 12.5t30.5 -12.5t12.5 -31.5q0 -18 -12.5 -31t-30.5 -13t-31 13zM88 706h554v-706h-554v706zM568 494v138h-406v-138h406z
M568 284v138h-406v-138h406zM568 74v137h-406v-137h406z" />
    <glyph glyph-name="Igrave" unicode="&#xcc;" horiz-adv-x="465" 
d="M121 940h87l54 -162h-60zM88 704h289v-704h-289v704zM300 389v241h-133v-241h133zM300 74v241h-133v-241h133z" />
    <glyph glyph-name="Iacute" unicode="&#xcd;" horiz-adv-x="465" 
d="M257 940h88l-81 -162h-60zM88 704h289v-704h-289v704zM300 389v241h-133v-241h133zM300 74v241h-133v-241h133z" />
    <glyph glyph-name="Icircumflex" unicode="&#xce;" horiz-adv-x="465" 
d="M205 911h56l84 -130h-70l-42 83l-44 -83h-69zM88 704h289v-704h-289v704zM300 389v241h-133v-241h133zM300 74v241h-133v-241h133z" />
    <glyph glyph-name="Idieresis" unicode="&#xcf;" horiz-adv-x="465" 
d="M133 799q-13 13 -13 31q0 19 13 31.5t31 12.5t30.5 -12.5t12.5 -31.5q0 -18 -12.5 -31t-30.5 -13t-31 13zM272 799q-13 13 -13 31q0 19 13 31.5t31 12.5t30.5 -12.5t12.5 -31.5q0 -18 -12.5 -31t-30.5 -13t-31 13zM88 704h289v-704h-289v704zM300 389v241h-133v-241h133z
M300 74v241h-133v-241h133z" />
    <glyph glyph-name="Eth" unicode="&#xd0;" horiz-adv-x="706" 
d="M15 390h80v315h218q96 0 177 -47.5t128.5 -128.5t47.5 -177t-47.5 -176.5t-128.5 -128t-177 -47.5h-218v316h-80v74zM305 390v241h-132v-241h132zM488.5 138q46.5 39 72.5 94.5t26 119.5t-26 120t-72.5 95t-104.5 55v-539q58 16 104.5 55zM305 74v242h-132v-242h132z" />
    <glyph glyph-name="Ntilde" unicode="&#xd1;" horiz-adv-x="719" 
d="M88 704h543v-704h-543v704zM543 75l-210 554h-153l210 -554h153zM556 629h-143l143 -375v375zM310 75l-147 386v-386h147zM378.5 796q-16.5 6 -37.5 17q-18 10 -29 14.5t-23 4.5q-26 0 -43 -26l-54 36q36 55 97 55q21 -1 37 -6.5t38 -17.5q15 -9 26.5 -13.5t23.5 -4.5
q9 0 24.5 6t28.5 24l52 -38q-22 -32 -51.5 -44.5t-53.5 -12.5q-19 0 -35.5 6z" />
    <glyph glyph-name="Ograve" unicode="&#xd2;" 
d="M295 945h87l54 -162h-60zM223.5 33.5q-84.5 49.5 -134 134t-49.5 184.5t49.5 184t134 133t183.5 49q100 0 184.5 -49t133.5 -133t49 -184t-49 -184.5t-133.5 -134t-184.5 -49.5q-99 0 -183.5 49.5zM695 389q-9 71 -49 129t-102.5 91.5t-136.5 33.5t-136 -33.5
t-101.5 -91.5t-48.5 -129h574zM543.5 92.5q62.5 33.5 102.5 91.5t49 130h-574q8 -72 48 -130t102 -91.5t136 -33.5t136.5 33.5z" />
    <glyph glyph-name="Oacute" unicode="&#xd3;" 
d="M431 945h88l-81 -162h-60zM223.5 33.5q-84.5 49.5 -134 134t-49.5 184.5t49.5 184t134 133t183.5 49q100 0 184.5 -49t133.5 -133t49 -184t-49 -184.5t-133.5 -134t-184.5 -49.5q-99 0 -183.5 49.5zM695 389q-9 71 -49 129t-102.5 91.5t-136.5 33.5t-136 -33.5
t-101.5 -91.5t-48.5 -129h574zM543.5 92.5q62.5 33.5 102.5 91.5t49 130h-574q8 -72 48 -130t102 -91.5t136 -33.5t136.5 33.5z" />
    <glyph glyph-name="Ocircumflex" unicode="&#xd4;" 
d="M379 916h56l84 -130h-70l-42 83l-44 -83h-69zM223.5 33.5q-84.5 49.5 -134 134t-49.5 184.5t49.5 184t134 133t183.5 49q100 0 184.5 -49t133.5 -133t49 -184t-49 -184.5t-133.5 -134t-184.5 -49.5q-99 0 -183.5 49.5zM695 389q-9 71 -49 129t-102.5 91.5t-136.5 33.5
t-136 -33.5t-101.5 -91.5t-48.5 -129h574zM543.5 92.5q62.5 33.5 102.5 91.5t49 130h-574q8 -72 48 -130t102 -91.5t136 -33.5t136.5 33.5z" />
    <glyph glyph-name="Otilde" unicode="&#xd5;" 
d="M430.5 801q-16.5 6 -37.5 17q-18 10 -29 14.5t-23 4.5q-26 0 -43 -26l-54 36q36 55 97 55q21 -1 37 -6.5t38 -17.5q15 -9 26.5 -13.5t23.5 -4.5q9 0 24.5 6t28.5 24l52 -38q-22 -32 -52 -44.5t-53 -12.5q-19 0 -35.5 6zM223.5 33.5q-84.5 49.5 -134 134t-49.5 184.5
t49.5 184t134 133t183.5 49q100 0 184.5 -49t133.5 -133t49 -184t-49 -184.5t-133.5 -134t-184.5 -49.5q-99 0 -183.5 49.5zM695 389q-9 71 -49 129t-102.5 91.5t-136.5 33.5t-136 -33.5t-101.5 -91.5t-48.5 -129h574zM543.5 92.5q62.5 33.5 102.5 91.5t49 130h-574
q8 -72 48 -130t102 -91.5t136 -33.5t136.5 33.5z" />
    <glyph glyph-name="Odieresis" unicode="&#xd6;" 
d="M307 804q-13 13 -13 31q0 19 13 31.5t31 12.5t30.5 -12.5t12.5 -31.5q0 -18 -12.5 -31t-30.5 -13t-31 13zM446 804q-13 13 -13 31q0 19 13 31.5t31 12.5t30.5 -12.5t12.5 -31.5q0 -18 -12.5 -31t-30.5 -13t-31 13zM223.5 33.5q-84.5 49.5 -134 134t-49.5 184.5t49.5 184
t134 133t183.5 49q100 0 184.5 -49t133.5 -133t49 -184t-49 -184.5t-133.5 -134t-184.5 -49.5q-99 0 -183.5 49.5zM695 389q-9 71 -49 129t-102.5 91.5t-136.5 33.5t-136 -33.5t-101.5 -91.5t-48.5 -129h574zM543.5 92.5q62.5 33.5 102.5 91.5t49 130h-574q8 -72 48 -130
t102 -91.5t136 -33.5t136.5 33.5z" />
    <glyph glyph-name="multiply" unicode="&#xd7;" horiz-adv-x="425" 
d="M37 240l120 121l-120 120l55 55l120 -119l121 119l56 -55l-121 -120l121 -121l-56 -55l-121 120l-120 -120z" />
    <glyph glyph-name="Oslash" unicode="&#xd8;" 
d="M214 39l-38 -50l-50 40l37 49q-58 51 -90.5 122t-32.5 152q0 100 49.5 184t134 133t183.5 49q105 0 194 -54l38 51l50 -41l-37 -49q57 -51 89.5 -122t32.5 -151q0 -100 -49 -184.5t-133.5 -134t-184.5 -49.5q-105 0 -193 55zM556 604q-69 40 -149 40t-146 -39t-104 -106
t-38 -147q0 -63 23.5 -117.5t65.5 -95.5zM553.5 99q66.5 39 105 106t38.5 147q0 62 -23.5 117.5t-66.5 95.5l-348 -465q69 -40 148 -40q80 0 146.5 39z" />
    <glyph glyph-name="Ugrave" unicode="&#xd9;" horiz-adv-x="671" 
d="M224 940h87l54 -162h-60zM203.5 19q-59.5 34 -94 93t-34.5 130v463h521v-463q0 -72 -34 -130.5t-93.5 -92.5t-132.5 -34t-132.5 34zM296 632h-142v-394q0 -67 39 -114.5t103 -59.5v568zM478.5 124q39.5 48 39.5 114v394h-143v-568q64 12 103.5 60z" />
    <glyph glyph-name="Uacute" unicode="&#xda;" horiz-adv-x="671" 
d="M360 940h88l-81 -162h-60zM203.5 19q-59.5 34 -94 93t-34.5 130v463h521v-463q0 -72 -34 -130.5t-93.5 -92.5t-132.5 -34t-132.5 34zM296 632h-142v-394q0 -67 39 -114.5t103 -59.5v568zM478.5 124q39.5 48 39.5 114v394h-143v-568q64 12 103.5 60z" />
    <glyph glyph-name="Ucircumflex" unicode="&#xdb;" horiz-adv-x="671" 
d="M308 911h56l84 -130h-70l-42 83l-44 -83h-69zM203.5 19q-59.5 34 -94 93t-34.5 130v463h521v-463q0 -72 -34 -130.5t-93.5 -92.5t-132.5 -34t-132.5 34zM296 632h-142v-394q0 -67 39 -114.5t103 -59.5v568zM478.5 124q39.5 48 39.5 114v394h-143v-568q64 12 103.5 60z
" />
    <glyph glyph-name="Udieresis" unicode="&#xdc;" horiz-adv-x="671" 
d="M236 799q-13 13 -13 31q0 19 13 31.5t31 12.5t30.5 -12.5t12.5 -31.5q0 -18 -12.5 -31t-30.5 -13t-31 13zM375 799q-13 13 -13 31q0 19 13 31.5t31 12.5t30.5 -12.5t12.5 -31.5q0 -18 -12.5 -31t-30.5 -13t-31 13zM203.5 19q-59.5 34 -94 93t-34.5 130v463h521v-463
q0 -72 -34 -130.5t-93.5 -92.5t-132.5 -34t-132.5 34zM296 632h-142v-394q0 -67 39 -114.5t103 -59.5v568zM478.5 124q39.5 48 39.5 114v394h-143v-568q64 12 103.5 60z" />
    <glyph glyph-name="Yacute" unicode="&#xdd;" horiz-adv-x="648" 
d="M348 940h88l-81 -162h-60zM180 272l-175 436h638l-175 -436v-272h-288v272zM418 345l116 289h-420l116 -289h188zM394 74v198h-141v-198h141z" />
    <glyph glyph-name="Thorn" unicode="&#xde;" horiz-adv-x="695" 
d="M88 707h289v-100h55q67 0 124 -33t90 -89.5t33 -124.5q0 -66 -33.5 -122.5t-90 -90t-123.5 -33.5h-55v-114h-289v707zM303 74v560h-142v-560h142zM432 189q46 0 84.5 22.5t61 62t22.5 86.5q0 48 -22.5 88t-61 63t-84.5 23h-55v-345h55z" />
    <glyph glyph-name="germandbls" unicode="&#xdf;" horiz-adv-x="586" 
d="M75 512q0 56 25 102.5t70 73.5t102 27q52 0 98 -26t73 -71.5t27 -99.5q0 -39 -13 -75.5t-36 -61.5q57 -21 92.5 -71.5t35.5 -113.5q0 -53 -26 -97.5t-70 -71t-96 -27.5h-45v79h45q49 2 81 37t32 81q0 51 -33.5 84.5t-79.5 33.5h-46v79q42 14 61.5 46.5t19.5 78.5
q0 50 -35 83t-83 35q-55 0 -87.5 -34t-32.5 -93v-510h-79v512z" />
    <glyph glyph-name="agrave" unicode="&#xe0;" horiz-adv-x="622" 
d="M199 945h87l54 -162h-60zM96 0h-84l250 706h97l251 -706h-84l-216 618z" />
    <glyph glyph-name="aacute" unicode="&#xe1;" horiz-adv-x="622" 
d="M335 945h88l-81 -162h-60zM96 0h-84l250 706h97l251 -706h-84l-216 618z" />
    <glyph glyph-name="acircumflex" unicode="&#xe2;" horiz-adv-x="622" 
d="M283 916h56l84 -130h-70l-42 83l-44 -83h-69zM96 0h-84l250 706h97l251 -706h-84l-216 618z" />
    <glyph glyph-name="atilde" unicode="&#xe3;" horiz-adv-x="622" 
d="M334.5 801q-16.5 6 -37.5 17q-18 10 -29 14.5t-23 4.5q-26 0 -43 -26l-54 36q36 55 97 55q21 -1 37 -6.5t38 -17.5q15 -9 26.5 -13.5t23.5 -4.5q9 0 24.5 6t28.5 24l52 -38q-22 -32 -52 -44.5t-53 -12.5q-19 0 -35.5 6zM96 0h-84l250 706h97l251 -706h-84l-216 618z" />
    <glyph glyph-name="adieresis" unicode="&#xe4;" horiz-adv-x="622" 
d="M211 804q-13 13 -13 31q0 19 13 31.5t31 12.5t30.5 -12.5t12.5 -31.5q0 -18 -12.5 -31t-30.5 -13t-31 13zM350 804q-13 13 -13 31q0 19 13 31.5t31 12.5t30.5 -12.5t12.5 -31.5q0 -18 -12.5 -31t-30.5 -13t-31 13zM96 0h-84l250 706h97l251 -706h-84l-216 618z" />
    <glyph glyph-name="aring" unicode="&#xe5;" horiz-adv-x="622" 
d="M241.5 789q-28.5 29 -28.5 70q0 40 28.5 69t69.5 29q40 0 69 -29t29 -69q0 -41 -29 -70t-69 -29q-41 0 -69.5 29zM347 822q15 15 15 37q0 21 -15 36t-36 15t-36 -15t-15 -36q0 -22 15 -37t36 -15t36 15zM96 0h-84l250 706h97l251 -706h-84l-216 618z" />
    <glyph glyph-name="ae" unicode="&#xe6;" horiz-adv-x="911" 
d="M421 705h449v-75h-401l-365 -630h-92zM469 392h401v-75h-401v75zM463 75h407v-75h-407v75z" />
    <glyph glyph-name="ccedilla" unicode="&#xe7;" horiz-adv-x="496" 
d="M263.5 606q-65.5 -38 -103.5 -104t-38 -147q0 -83 38 -150t103.5 -105.5t144.5 -38.5v-76q-25 0 -51 3q30 -18 30 -59q0 -44 -27 -64t-74 -20v51q22 0 35 10.5t13 30.5q0 16 -11.5 26t-30.5 10v30q-73 24 -130.5 76t-89.5 123.5t-32 152.5q0 100 49.5 184t133.5 132.5
t185 48.5v-76q-79 0 -144.5 -38z" />
    <glyph glyph-name="egrave" unicode="&#xe8;" horiz-adv-x="570" 
d="M205 945h87l54 -162h-60zM529 705v-74h-441v74h441zM529 390v-74h-441v74h441zM529 74v-74h-441v74h441z" />
    <glyph glyph-name="eacute" unicode="&#xe9;" horiz-adv-x="570" 
d="M341 945h88l-81 -162h-60zM529 705v-74h-441v74h441zM529 390v-74h-441v74h441zM529 74v-74h-441v74h441z" />
    <glyph glyph-name="ecircumflex" unicode="&#xea;" horiz-adv-x="570" 
d="M289 916h56l84 -130h-70l-42 83l-44 -83h-69zM529 705v-74h-441v74h441zM529 390v-74h-441v74h441zM529 74v-74h-441v74h441z" />
    <glyph glyph-name="edieresis" unicode="&#xeb;" horiz-adv-x="570" 
d="M217 804q-13 13 -13 31q0 19 13 31.5t31 12.5t30.5 -12.5t12.5 -31.5q0 -18 -12.5 -31t-30.5 -13t-31 13zM356 804q-13 13 -13 31q0 19 13 31.5t31 12.5t30.5 -12.5t12.5 -31.5q0 -18 -12.5 -31t-30.5 -13t-31 13zM529 705v-74h-441v74h441zM529 390v-74h-441v74h441z
M529 74v-74h-441v74h441z" />
    <glyph glyph-name="igrave" unicode="&#xec;" horiz-adv-x="255" 
d="M16 945h87l54 -162h-60zM88 704h79v-704h-79v704z" />
    <glyph glyph-name="iacute" unicode="&#xed;" horiz-adv-x="255" 
d="M152 945h88l-81 -162h-60zM88 704h79v-704h-79v704z" />
    <glyph glyph-name="icircumflex" unicode="&#xee;" horiz-adv-x="255" 
d="M100 916h56l84 -130h-70l-42 83l-44 -83h-69zM88 704h79v-704h-79v704z" />
    <glyph glyph-name="idieresis" unicode="&#xef;" horiz-adv-x="255" 
d="M28 804q-13 13 -13 31q0 19 13 31.5t31 12.5t30.5 -12.5t12.5 -31.5q0 -18 -12.5 -31t-30.5 -13t-31 13zM167 804q-13 13 -13 31q0 19 13 31.5t31 12.5t30.5 -12.5t12.5 -31.5q0 -18 -12.5 -31t-30.5 -13t-31 13zM88 704h79v-704h-79v704z" />
    <glyph glyph-name="eth" unicode="&#xf0;" horiz-adv-x="555" 
d="M95 74h67q74 0 137 37t100 101t37 140t-37 140t-100 101.5t-137 37.5h-67v74h67q96 0 177 -47.5t128.5 -128.5t47.5 -177t-47.5 -176.5t-128.5 -128t-177 -47.5h-67v74zM15 391h247v-74h-247v74z" />
    <glyph glyph-name="ntilde" unicode="&#xf1;" horiz-adv-x="709" 
d="M378.5 796q-16.5 6 -37.5 17q-18 10 -29 14.5t-23 4.5q-26 0 -43 -26l-54 36q36 55 97 55q21 -1 37 -6.5t38 -17.5q15 -9 26.5 -13.5t23.5 -4.5q9 0 24.5 6t28.5 24l52 -38q-22 -32 -51.5 -44.5t-53.5 -12.5q-19 0 -35.5 6zM88 705h84l370 -590v590h79v-705h-88l-367 585
v-585h-78v705z" />
    <glyph glyph-name="ograve" unicode="&#xf2;" 
d="M295 945h87l54 -162h-60zM223.5 33.5q-84.5 49.5 -134 134t-49.5 184.5t49.5 184t134 133t183.5 49q100 0 184.5 -49t133.5 -133t49 -184t-49 -184.5t-133.5 -134t-184.5 -49.5q-99 0 -183.5 49.5zM553.5 99q66.5 39 105 106t38.5 147t-38.5 147t-105 106t-146.5 39
t-146 -39t-104 -106t-38 -147t38 -147t104 -106t146 -39t146.5 39z" />
    <glyph glyph-name="oacute" unicode="&#xf3;" 
d="M431 945h88l-81 -162h-60zM223.5 33.5q-84.5 49.5 -134 134t-49.5 184.5t49.5 184t134 133t183.5 49q100 0 184.5 -49t133.5 -133t49 -184t-49 -184.5t-133.5 -134t-184.5 -49.5q-99 0 -183.5 49.5zM553.5 99q66.5 39 105 106t38.5 147t-38.5 147t-105 106t-146.5 39
t-146 -39t-104 -106t-38 -147t38 -147t104 -106t146 -39t146.5 39z" />
    <glyph glyph-name="ocircumflex" unicode="&#xf4;" 
d="M379 916h56l84 -130h-70l-42 83l-44 -83h-69zM223.5 33.5q-84.5 49.5 -134 134t-49.5 184.5t49.5 184t134 133t183.5 49q100 0 184.5 -49t133.5 -133t49 -184t-49 -184.5t-133.5 -134t-184.5 -49.5q-99 0 -183.5 49.5zM553.5 99q66.5 39 105 106t38.5 147t-38.5 147
t-105 106t-146.5 39t-146 -39t-104 -106t-38 -147t38 -147t104 -106t146 -39t146.5 39z" />
    <glyph glyph-name="otilde" unicode="&#xf5;" 
d="M430.5 801q-16.5 6 -37.5 17q-18 10 -29 14.5t-23 4.5q-26 0 -43 -26l-54 36q36 55 97 55q21 -1 37 -6.5t38 -17.5q15 -9 26.5 -13.5t23.5 -4.5q9 0 24.5 6t28.5 24l52 -38q-22 -32 -52 -44.5t-53 -12.5q-19 0 -35.5 6zM223.5 33.5q-84.5 49.5 -134 134t-49.5 184.5
t49.5 184t134 133t183.5 49q100 0 184.5 -49t133.5 -133t49 -184t-49 -184.5t-133.5 -134t-184.5 -49.5q-99 0 -183.5 49.5zM553.5 99q66.5 39 105 106t38.5 147t-38.5 147t-105 106t-146.5 39t-146 -39t-104 -106t-38 -147t38 -147t104 -106t146 -39t146.5 39z" />
    <glyph glyph-name="odieresis" unicode="&#xf6;" 
d="M307 804q-13 13 -13 31q0 19 13 31.5t31 12.5t30.5 -12.5t12.5 -31.5q0 -18 -12.5 -31t-30.5 -13t-31 13zM446 804q-13 13 -13 31q0 19 13 31.5t31 12.5t30.5 -12.5t12.5 -31.5q0 -18 -12.5 -31t-30.5 -13t-31 13zM223.5 33.5q-84.5 49.5 -134 134t-49.5 184.5t49.5 184
t134 133t183.5 49q100 0 184.5 -49t133.5 -133t49 -184t-49 -184.5t-133.5 -134t-184.5 -49.5q-99 0 -183.5 49.5zM553.5 99q66.5 39 105 106t38.5 147t-38.5 147t-105 106t-146.5 39t-146 -39t-104 -106t-38 -147t38 -147t104 -106t146 -39t146.5 39z" />
    <glyph glyph-name="divide" unicode="&#xf7;" horiz-adv-x="493" 
d="M213.5 506.5q-14.5 14.5 -14.5 34.5t14.5 34.5t34.5 14.5t34.5 -14.5t14.5 -34.5t-14.5 -34.5t-34.5 -14.5t-34.5 14.5zM37 391h419v-71h-419v71zM213.5 124.5q-14.5 14.5 -14.5 34.5t14.5 34.5t34.5 14.5t34.5 -14.5t14.5 -34.5t-14.5 -34.5t-34.5 -14.5t-34.5 14.5z
" />
    <glyph glyph-name="oslash" unicode="&#xf8;" 
d="M89.5 536q49.5 84 134 133t183.5 49q105 0 194 -54l38 51l50 -41l-37 -49q57 -51 89.5 -122t32.5 -151q0 -100 -49 -184.5t-133.5 -134t-184.5 -49.5q-105 0 -193 55l-38 -50l-50 40l37 49q-58 51 -90.5 122t-32.5 152q0 100 49.5 184zM142.5 234.5
q23.5 -54.5 65.5 -95.5l348 465q-69 40 -149 40t-146 -39t-104 -106t-38 -147q0 -63 23.5 -117.5zM407 60q80 0 146.5 39t105 106t38.5 147q0 62 -23.5 117.5t-66.5 95.5l-348 -465q69 -40 148 -40z" />
    <glyph glyph-name="ugrave" unicode="&#xf9;" horiz-adv-x="671" 
d="M224 943h87l54 -162h-60zM203.5 19q-59.5 34 -94 93t-34.5 130v463h79v-467q0 -50 23.5 -91t65 -64t93.5 -23t93.5 23t65 64t23.5 91v467h78v-463q0 -72 -34 -130.5t-93.5 -92.5t-132.5 -34t-132.5 34z" />
    <glyph glyph-name="uacute" unicode="&#xfa;" horiz-adv-x="671" 
d="M360 943h88l-81 -162h-60zM203.5 19q-59.5 34 -94 93t-34.5 130v463h79v-467q0 -50 23.5 -91t65 -64t93.5 -23t93.5 23t65 64t23.5 91v467h78v-463q0 -72 -34 -130.5t-93.5 -92.5t-132.5 -34t-132.5 34z" />
    <glyph glyph-name="ucircumflex" unicode="&#xfb;" horiz-adv-x="671" 
d="M308 914h56l84 -130h-70l-42 83l-44 -83h-69zM203.5 19q-59.5 34 -94 93t-34.5 130v463h79v-467q0 -50 23.5 -91t65 -64t93.5 -23t93.5 23t65 64t23.5 91v467h78v-463q0 -72 -34 -130.5t-93.5 -92.5t-132.5 -34t-132.5 34z" />
    <glyph glyph-name="udieresis" unicode="&#xfc;" horiz-adv-x="671" 
d="M236 802q-13 13 -13 31q0 19 13 31.5t31 12.5t30.5 -12.5t12.5 -31.5q0 -18 -12.5 -31t-30.5 -13t-31 13zM375 802q-13 13 -13 31q0 19 13 31.5t31 12.5t30.5 -12.5t12.5 -31.5q0 -18 -12.5 -31t-30.5 -13t-31 13zM203.5 19q-59.5 34 -94 93t-34.5 130v463h79v-467
q0 -50 23.5 -91t65 -64t93.5 -23t93.5 23t65 64t23.5 91v467h78v-463q0 -72 -34 -130.5t-93.5 -92.5t-132.5 -34t-132.5 34z" />
    <glyph glyph-name="yacute" unicode="&#xfd;" horiz-adv-x="583" 
d="M316 945h88l-81 -162h-60zM252 283l-246 422h89l196 -338l197 338h89l-246 -422v-283h-79v283z" />
    <glyph glyph-name="thorn" unicode="&#xfe;" horiz-adv-x="571" 
d="M472 523.5q67 -59.5 67 -161.5q0 -67 -30.5 -117t-86 -77.5t-129.5 -27.5h-126v-140h-79v705h79v-122h126q112 0 179 -59.5zM416.5 254q44.5 39 44.5 108q0 70 -44.5 109.5t-123.5 39.5h-126v-296h126q79 0 123.5 39z" />
    <glyph glyph-name="ydieresis" unicode="&#xff;" horiz-adv-x="583" 
d="M192 804q-13 13 -13 31q0 19 13 31.5t31 12.5t30.5 -12.5t12.5 -31.5q0 -18 -12.5 -31t-30.5 -13t-31 13zM331 804q-13 13 -13 31q0 19 13 31.5t31 12.5t30.5 -12.5t12.5 -31.5q0 -18 -12.5 -31t-30.5 -13t-31 13zM252 283l-246 422h89l196 -338l197 338h89l-246 -422
v-283h-79v283z" />
    <glyph glyph-name="Amacron" unicode="&#x100;" horiz-adv-x="625" 
d="M491 869v-60h-355v60h355zM263 708h98l252 -708h-601zM426 289l-116 330l-112 -330h228zM502 74l-50 142h-280l-49 -142h379z" />
    <glyph glyph-name="amacron" unicode="&#x101;" horiz-adv-x="622" 
d="M489 865v-60h-355v60h355zM96 0h-84l250 706h97l251 -706h-84l-216 618z" />
    <glyph glyph-name="Abreve" unicode="&#x102;" horiz-adv-x="625" 
d="M240.5 817q-29.5 32 -29.5 82h53q0 -27 13.5 -42t35.5 -15t35.5 15t13.5 42h54q0 -50 -30 -82t-73 -32t-72.5 32zM263 708h98l252 -708h-601zM426 289l-116 330l-112 -330h228zM502 74l-50 142h-280l-49 -142h379z" />
    <glyph glyph-name="abreve" unicode="&#x103;" horiz-adv-x="622" 
d="M238.5 813q-29.5 32 -29.5 82h53q0 -27 13.5 -42t35.5 -15t35.5 15t13.5 42h54q0 -50 -30 -82t-73 -32t-72.5 32zM96 0h-84l250 706h97l251 -706h-84l-216 618z" />
    <glyph glyph-name="Aogonek" unicode="&#x104;" horiz-adv-x="625" 
d="M578 -93v-48q-48 0 -76.5 19.5t-28.5 59.5q0 36 26 62h-487l251 708h98l252 -708h-42q-20 0 -33.5 -14.5t-13.5 -36.5q0 -42 54 -42zM198 289h228l-116 330zM123 74h379l-50 142h-280z" />
    <glyph glyph-name="aogonek" unicode="&#x105;" horiz-adv-x="622" 
d="M604 -93v-48q-48 0 -76.5 19.5t-28.5 59.5q0 38 27 63l-216 617l-214 -618h-84l250 706h97l251 -706h-13q-20 0 -33.5 -14.5t-13.5 -36.5q0 -42 54 -42z" />
    <glyph glyph-name="Cacute" unicode="&#x106;" horiz-adv-x="691" 
d="M437 955h88l-81 -162h-60zM495 351l172 -259q-50 -50 -117 -78.5t-140 -28.5q-101 0 -186 48.5t-134.5 132.5t-49.5 186q0 101 49.5 184t134.5 131t186 48q75 0 143.5 -29.5t118.5 -81.5zM274 607q-62 -32 -101.5 -89t-47.5 -129h307l143 203q-76 47 -165 47
q-74 0 -136 -32zM430 315h-305q8 -74 47.5 -131.5t101.5 -90t136 -32.5q87 0 160 46z" />
    <glyph glyph-name="cacute" unicode="&#x107;" horiz-adv-x="496" 
d="M376 945h88l-81 -162h-60zM223 34.5q-84 49.5 -133.5 134t-49.5 186.5q0 100 49.5 184t133.5 132.5t185 48.5v-76q-79 0 -144.5 -38t-103.5 -104t-38 -147q0 -83 38 -150t103.5 -105.5t144.5 -38.5v-76q-101 0 -185 49.5z" />
    <glyph glyph-name="Ccircumflex" unicode="&#x108;" horiz-adv-x="691" 
d="M385 926h56l84 -130h-70l-42 83l-44 -83h-69zM495 351l172 -259q-50 -50 -117 -78.5t-140 -28.5q-101 0 -186 48.5t-134.5 132.5t-49.5 186q0 101 49.5 184t134.5 131t186 48q75 0 143.5 -29.5t118.5 -81.5zM274 607q-62 -32 -101.5 -89t-47.5 -129h307l143 203
q-76 47 -165 47q-74 0 -136 -32zM430 315h-305q8 -74 47.5 -131.5t101.5 -90t136 -32.5q87 0 160 46z" />
    <glyph glyph-name="ccircumflex" unicode="&#x109;" horiz-adv-x="496" 
d="M324 916h56l84 -130h-70l-42 83l-44 -83h-69zM223 34.5q-84 49.5 -133.5 134t-49.5 186.5q0 100 49.5 184t133.5 132.5t185 48.5v-76q-79 0 -144.5 -38t-103.5 -104t-38 -147q0 -83 38 -150t103.5 -105.5t144.5 -38.5v-76q-101 0 -185 49.5z" />
    <glyph glyph-name="Cdotaccent" unicode="&#x10a;" horiz-adv-x="691" 
d="M378.5 829.5q-14.5 14.5 -14.5 34.5t14.5 34.5t34.5 14.5t34.5 -14.5t14.5 -34.5t-14.5 -34.5t-34.5 -14.5t-34.5 14.5zM495 351l172 -259q-50 -50 -117 -78.5t-140 -28.5q-101 0 -186 48.5t-134.5 132.5t-49.5 186q0 101 49.5 184t134.5 131t186 48q75 0 143.5 -29.5
t118.5 -81.5zM274 607q-62 -32 -101.5 -89t-47.5 -129h307l143 203q-76 47 -165 47q-74 0 -136 -32zM430 315h-305q8 -74 47.5 -131.5t101.5 -90t136 -32.5q87 0 160 46z" />
    <glyph glyph-name="cdotaccent" unicode="&#x10b;" horiz-adv-x="496" 
d="M317.5 819.5q-14.5 14.5 -14.5 34.5t14.5 34.5t34.5 14.5t34.5 -14.5t14.5 -34.5t-14.5 -34.5t-34.5 -14.5t-34.5 14.5zM223 34.5q-84 49.5 -133.5 134t-49.5 186.5q0 100 49.5 184t133.5 132.5t185 48.5v-76q-79 0 -144.5 -38t-103.5 -104t-38 -147q0 -83 38 -150
t103.5 -105.5t144.5 -38.5v-76q-101 0 -185 49.5z" />
    <glyph glyph-name="Ccaron" unicode="&#x10c;" horiz-adv-x="691" 
d="M300 926h69l44 -83l42 83h70l-84 -130h-56zM495 351l172 -259q-50 -50 -117 -78.5t-140 -28.5q-101 0 -186 48.5t-134.5 132.5t-49.5 186q0 101 49.5 184t134.5 131t186 48q75 0 143.5 -29.5t118.5 -81.5zM274 607q-62 -32 -101.5 -89t-47.5 -129h307l143 203
q-76 47 -165 47q-74 0 -136 -32zM430 315h-305q8 -74 47.5 -131.5t101.5 -90t136 -32.5q87 0 160 46z" />
    <glyph glyph-name="ccaron" unicode="&#x10d;" horiz-adv-x="496" 
d="M239 916h69l44 -83l42 83h70l-84 -130h-56zM223 34.5q-84 49.5 -133.5 134t-49.5 186.5q0 100 49.5 184t133.5 132.5t185 48.5v-76q-79 0 -144.5 -38t-103.5 -104t-38 -147q0 -83 38 -150t103.5 -105.5t144.5 -38.5v-76q-101 0 -185 49.5z" />
    <glyph glyph-name="Dcaron" unicode="&#x10e;" horiz-adv-x="699" 
d="M205 910h69l44 -83l42 83h70l-84 -130h-56zM88 705h218q96 0 177 -47.5t128.5 -128.5t47.5 -177t-47.5 -176.5t-128.5 -128t-177 -47.5h-218v705zM298 74v557h-132v-557h132zM481.5 138q46.5 39 72.5 94.5t26 119.5t-26 120t-72.5 95t-104.5 55v-539q58 16 104.5 55z" />
    <glyph glyph-name="dcaron" unicode="&#x10f;" horiz-adv-x="548" 
d="M62 896h69l44 -83l42 83h70l-84 -130h-56zM155 705q96 0 177 -47.5t128.5 -128.5t47.5 -177t-47.5 -176.5t-128.5 -128t-177 -47.5h-67v74h67q74 0 137 37t100 101t37 140t-37 140t-100 101.5t-137 37.5h-67v74h67z" />
    <glyph glyph-name="Dcroat" unicode="&#x110;" horiz-adv-x="706" 
d="M15 390h80v315h218q96 0 177 -47.5t128.5 -128.5t47.5 -177t-47.5 -176.5t-128.5 -128t-177 -47.5h-218v316h-80v74zM305 390v241h-132v-241h132zM488.5 138q46.5 39 72.5 94.5t26 119.5t-26 120t-72.5 95t-104.5 55v-539q58 16 104.5 55zM305 74v242h-132v-242h132z" />
    <glyph glyph-name="dcroat" unicode="&#x111;" horiz-adv-x="555" 
d="M95 74h67q74 0 137 37t100 101t37 140t-37 140t-100 101.5t-137 37.5h-67v74h67q96 0 177 -47.5t128.5 -128.5t47.5 -177t-47.5 -176.5t-128.5 -128t-177 -47.5h-67v74zM15 390h247v-74h-247v74z" />
    <glyph glyph-name="Emacron" unicode="&#x112;" horiz-adv-x="702" 
d="M543 871v-60h-355v60h355zM88 706h554v-706h-554v706zM568 494v138h-406v-138h406zM568 284v138h-406v-138h406zM568 74v137h-406v-137h406z" />
    <glyph glyph-name="emacron" unicode="&#x113;" horiz-adv-x="570" 
d="M495 865v-60h-355v60h355zM529 705v-74h-441v74h441zM529 390v-74h-441v74h441zM529 74v-74h-441v74h441z" />
    <glyph glyph-name="Ebreve" unicode="&#x114;" horiz-adv-x="702" 
d="M292.5 819q-29.5 32 -29.5 82h53q0 -27 13.5 -42t35.5 -15t35.5 15t13.5 42h54q0 -50 -30 -82t-73 -32t-72.5 32zM88 706h554v-706h-554v706zM568 494v138h-406v-138h406zM568 284v138h-406v-138h406zM568 74v137h-406v-137h406z" />
    <glyph glyph-name="ebreve" unicode="&#x115;" horiz-adv-x="570" 
d="M244.5 813q-29.5 32 -29.5 82h53q0 -27 13.5 -42t35.5 -15t35.5 15t13.5 42h54q0 -50 -30 -82t-73 -32t-72.5 32zM529 705v-74h-441v74h441zM529 390v-74h-441v74h441zM529 74v-74h-441v74h441z" />
    <glyph glyph-name="Edotaccent" unicode="&#x116;" horiz-adv-x="702" 
d="M330.5 825.5q-14.5 14.5 -14.5 34.5t14.5 34.5t34.5 14.5t34.5 -14.5t14.5 -34.5t-14.5 -34.5t-34.5 -14.5t-34.5 14.5zM88 706h554v-706h-554v706zM568 494v138h-406v-138h406zM568 284v138h-406v-138h406zM568 74v137h-406v-137h406z" />
    <glyph glyph-name="edotaccent" unicode="&#x117;" horiz-adv-x="570" 
d="M282.5 819.5q-14.5 14.5 -14.5 34.5t14.5 34.5t34.5 14.5t34.5 -14.5t14.5 -34.5t-14.5 -34.5t-34.5 -14.5t-34.5 14.5zM529 705v-74h-441v74h441zM529 390v-74h-441v74h441zM529 74v-74h-441v74h441z" />
    <glyph glyph-name="Eogonek" unicode="&#x118;" horiz-adv-x="702" 
d="M520.5 -14.5q-13.5 -14.5 -13.5 -36.5q0 -42 54 -42v-48q-48 0 -76.5 19.5t-28.5 59.5q0 36 26 62h-394v706h554v-706h-88q-20 0 -33.5 -14.5zM162 494h406v138h-406v-138zM162 284h406v138h-406v-138zM162 74h406v137h-406v-137z" />
    <glyph glyph-name="eogonek" unicode="&#x119;" horiz-adv-x="570" 
d="M529 705v-74h-441v74h441zM88 390h441v-74h-441v74zM88 74h441v-74h-22q-20 0 -33.5 -14.5t-13.5 -36.5q0 -42 54 -42v-48q-48 0 -76.5 19.5t-28.5 59.5q0 36 26 62h-347v74z" />
    <glyph glyph-name="Ecaron" unicode="&#x11a;" horiz-adv-x="702" 
d="M252 922h69l44 -83l42 83h70l-84 -130h-56zM88 706h554v-706h-554v706zM568 494v138h-406v-138h406zM568 284v138h-406v-138h406zM568 74v137h-406v-137h406z" />
    <glyph glyph-name="ecaron" unicode="&#x11b;" horiz-adv-x="570" 
d="M204 916h69l44 -83l42 83h70l-84 -130h-56zM529 705v-74h-441v74h441zM529 390v-74h-441v74h441zM529 74v-74h-441v74h441z" />
    <glyph glyph-name="Gcircumflex" unicode="&#x11c;" horiz-adv-x="798" 
d="M385 916h56l84 -130h-70l-42 83l-44 -83h-69zM748 386v-386h-116l-29 38q-88 -53 -195 -53q-100 0 -184.5 49t-134 132.5t-49.5 182.5q0 101 49.5 185t134 132.5t184.5 48.5q13 0 37 -2v-327h303zM252.5 596.5q-54.5 -34.5 -89 -89.5t-42.5 -121h251v253
q-65 -8 -119.5 -42.5zM559 96l-168 215h-269q9 -72 49 -129.5t102.5 -90t134.5 -32.5q87 0 151 37zM675 311h-191l184 -237h7v237z" />
    <glyph glyph-name="gcircumflex" unicode="&#x11d;" horiz-adv-x="748" 
d="M383 916h56l84 -130h-70l-42 83l-44 -83h-69zM698 390v-390h-79v49q-93 -64 -211 -64q-100 0 -184.5 49.5t-134 134.5t-49.5 184q0 101 49.5 186t134 134.5t184.5 49.5v-73q-72 0 -134.5 -33.5t-103 -92.5t-49.5 -132v-2h577zM170.5 184.5q40.5 -58.5 103 -92
t134.5 -33.5q63 0 115.5 20t95.5 65v171h-498q9 -72 49.5 -130.5z" />
    <glyph glyph-name="Gbreve" unicode="&#x11e;" horiz-adv-x="798" 
d="M340.5 813q-29.5 32 -29.5 82h53q0 -27 13.5 -42t35.5 -15t35.5 15t13.5 42h54q0 -50 -30 -82t-73 -32t-72.5 32zM748 386v-386h-116l-29 38q-88 -53 -195 -53q-100 0 -184.5 49t-134 132.5t-49.5 182.5q0 101 49.5 185t134 132.5t184.5 48.5q13 0 37 -2v-327h303z
M252.5 596.5q-54.5 -34.5 -89 -89.5t-42.5 -121h251v253q-65 -8 -119.5 -42.5zM559 96l-168 215h-269q9 -72 49 -129.5t102.5 -90t134.5 -32.5q87 0 151 37zM675 311h-191l184 -237h7v237z" />
    <glyph glyph-name="gbreve" unicode="&#x11f;" horiz-adv-x="748" 
d="M338.5 813q-29.5 32 -29.5 82h53q0 -27 13.5 -42t35.5 -15t35.5 15t13.5 42h54q0 -50 -30 -82t-73 -32t-72.5 32zM698 390v-390h-79v49q-93 -64 -211 -64q-100 0 -184.5 49.5t-134 134.5t-49.5 184q0 101 49.5 186t134 134.5t184.5 49.5v-73q-72 0 -134.5 -33.5
t-103 -92.5t-49.5 -132v-2h577zM170.5 184.5q40.5 -58.5 103 -92t134.5 -33.5q63 0 115.5 20t95.5 65v171h-498q9 -72 49.5 -130.5z" />
    <glyph glyph-name="Gdotaccent" unicode="&#x120;" horiz-adv-x="798" 
d="M378.5 819.5q-14.5 14.5 -14.5 34.5t14.5 34.5t34.5 14.5t34.5 -14.5t14.5 -34.5t-14.5 -34.5t-34.5 -14.5t-34.5 14.5zM748 386v-386h-116l-29 38q-88 -53 -195 -53q-100 0 -184.5 49t-134 132.5t-49.5 182.5q0 101 49.5 185t134 132.5t184.5 48.5q13 0 37 -2v-327h303z
M252.5 596.5q-54.5 -34.5 -89 -89.5t-42.5 -121h251v253q-65 -8 -119.5 -42.5zM559 96l-168 215h-269q9 -72 49 -129.5t102.5 -90t134.5 -32.5q87 0 151 37zM675 311h-191l184 -237h7v237z" />
    <glyph glyph-name="gdotaccent" unicode="&#x121;" horiz-adv-x="748" 
d="M376.5 819.5q-14.5 14.5 -14.5 34.5t14.5 34.5t34.5 14.5t34.5 -14.5t14.5 -34.5t-14.5 -34.5t-34.5 -14.5t-34.5 14.5zM698 390v-390h-79v49q-93 -64 -211 -64q-100 0 -184.5 49.5t-134 134.5t-49.5 184q0 101 49.5 186t134 134.5t184.5 49.5v-73q-72 0 -134.5 -33.5
t-103 -92.5t-49.5 -132v-2h577zM170.5 184.5q40.5 -58.5 103 -92t134.5 -33.5q63 0 115.5 20t95.5 65v171h-498q9 -72 49.5 -130.5z" />
    <glyph glyph-name="uni0122" unicode="&#x122;" horiz-adv-x="798" 
d="M748 386v-386h-116l-29 38q-88 -53 -195 -53q-100 0 -184.5 49t-134 132.5t-49.5 182.5q0 101 49.5 185t134 132.5t184.5 48.5q13 0 37 -2v-327h303zM252.5 596.5q-54.5 -34.5 -89 -89.5t-42.5 -121h251v253q-65 -8 -119.5 -42.5zM559 96l-168 215h-269q9 -72 49 -129.5
t102.5 -90t134.5 -32.5q87 0 151 37zM675 311h-191l184 -237h7v237zM379 -50h79l-65 -168h-53z" />
    <glyph glyph-name="uni0123" unicode="&#x123;" horiz-adv-x="748" 
d="M698 390v-390h-79v49q-93 -64 -211 -64q-100 0 -184.5 49.5t-134 134.5t-49.5 184q0 101 49.5 186t134 134.5t184.5 49.5v-73q-72 0 -134.5 -33.5t-103 -92.5t-49.5 -132v-2h577zM170.5 184.5q40.5 -58.5 103 -92t134.5 -33.5q63 0 115.5 20t95.5 65v171h-498
q9 -72 49.5 -130.5zM376 -48h79l-65 -168h-53z" />
    <glyph glyph-name="Hcircumflex" unicode="&#x124;" horiz-adv-x="713" 
d="M329 913h56l84 -130h-70l-42 83l-44 -83h-69zM88 704h537v-704h-537v704zM548 389v241h-381v-241h381zM548 74v241h-381v-241h381z" />
    <glyph glyph-name="hcircumflex" unicode="&#x125;" horiz-adv-x="713" 
d="M329 913h56l84 -130h-70l-42 83l-44 -83h-69zM88 704h79v-315h381v315h77v-704h-77v315h-381v-315h-79v704z" />
    <glyph glyph-name="Hbar" unicode="&#x126;" horiz-adv-x="715" 
d="M88 448h-61v70h61v186h537v-186h63v-70h-63v-448h-537v448zM548 518v112h-381v-112h381zM548 349v99h-381v-99h381zM548 74v201h-381v-201h381z" />
    <glyph glyph-name="hbar" unicode="&#x127;" horiz-adv-x="713" 
d="M88 514h-61v70h61v120h79v-120h381v120h77v-120h63v-70h-63v-514h-77v284h-381v-284h-79v514zM548 358v156h-381v-156h381z" />
    <glyph glyph-name="Itilde" unicode="&#x128;" horiz-adv-x="465" 
d="M252.5 796q-13.5 6 -30.5 17q-15 10 -24 14.5t-19 4.5q-22 0 -35 -26l-44 36q30 55 79 55q17 -1 30 -7t31 -17q2 -1 10.5 -7t16 -8.5t14.5 -2.5t19.5 6t23.5 24l43 -38q-18 -32 -42.5 -44.5t-43.5 -12.5q-15 0 -28.5 6zM88 704h289v-704h-289v704zM300 389v241h-133v-241
h133zM300 74v241h-133v-241h133z" />
    <glyph glyph-name="itilde" unicode="&#x129;" horiz-adv-x="255" 
d="M150.5 801q-15.5 6 -35.5 17q-18 10 -29 14.5t-22 4.5q-26 0 -41 -26l-53 36q35 55 94 55q20 -1 36 -7t36 -17q12 -7 25 -12.5t24 -5.5q9 0 23.5 6t27.5 24l51 -38q-22 -32 -50.5 -44.5t-51.5 -12.5q-19 0 -34.5 6zM88 704h79v-704h-79v704z" />
    <glyph glyph-name="Imacron" unicode="&#x12a;" horiz-adv-x="465" 
d="M361 860v-60h-255v60h255zM88 704h289v-704h-289v704zM300 389v241h-133v-241h133zM300 74v241h-133v-241h133z" />
    <glyph glyph-name="imacron" unicode="&#x12b;" horiz-adv-x="255" 
d="M300 865v-60h-344v60h344zM88 704h79v-704h-79v704z" />
    <glyph glyph-name="ibreve" unicode="&#x12d;" horiz-adv-x="255" 
d="M55.5 813q-29.5 32 -29.5 82h53q0 -27 13.5 -42t35.5 -15t35.5 15t13.5 42h54q0 -50 -30 -82t-73 -32t-72.5 32zM88 704h79v-704h-79v704z" />
    <glyph glyph-name="Iogonek" unicode="&#x12e;" horiz-adv-x="465" 
d="M198.5 814.5q-14.5 14.5 -14.5 34.5t14.5 34.5t34.5 14.5t34.5 -14.5t14.5 -34.5t-14.5 -34.5t-34.5 -14.5t-34.5 14.5zM300.5 -14.5q-13.5 -14.5 -13.5 -36.5q0 -42 54 -42v-48q-48 0 -76.5 19.5t-28.5 59.5q0 36 26 62h-174v704h289v-704h-43q-20 0 -33.5 -14.5z
M167 389h133v241h-133v-241zM167 74h133v241h-133v-241z" />
    <glyph glyph-name="iogonek" unicode="&#x12f;" horiz-adv-x="255" 
d="M125.5 -14.5q-13.5 -14.5 -13.5 -36.5q0 -42 54 -42v-48q-48 0 -76.5 19.5t-28.5 59.5q0 38 27 63v703h79v-704h-8q-20 0 -33.5 -14.5z" />
    <glyph glyph-name="dotlessi" unicode="&#x131;" horiz-adv-x="255" 
d="M88 704h79v-704h-79v704z" />
    <glyph glyph-name="IJ" unicode="&#x132;" horiz-adv-x="993" 
d="M88 704h289v-704h-289v704zM588 13.5q-49 28.5 -76.5 77.5t-27.5 107v74h140v432h290v-506q0 -61 -29 -109.5t-78.5 -76t-108.5 -27.5q-61 0 -110 28.5zM300 389v241h-133v-241h133zM836 272v358h-133v-358h133zM300 74v241h-133v-241h133zM797 97.5q39 37.5 39 97.5v3
h-274q0 -58 38.5 -98t97.5 -40q60 0 99 37.5z" />
    <glyph glyph-name="ij" unicode="&#x133;" horiz-adv-x="783" 
d="M378 13.5q-49 28.5 -76.5 77.5t-27.5 107h78q0 -58 38.5 -98t97.5 -40q60 0 99 37.5t39 97.5v510h78v-507q0 -61 -29 -109.5t-78.5 -76t-108.5 -27.5q-61 0 -110 28.5zM88 704h79v-704h-79v704z" />
    <glyph glyph-name="Jcircumflex" unicode="&#x134;" horiz-adv-x="528" 
d="M278 911h56l84 -130h-70l-42 83l-44 -83h-69zM123 13.5q-49 28.5 -76.5 77.5t-27.5 107v74h140v432h290v-506q0 -61 -29 -109.5t-78.5 -76t-108.5 -27.5q-61 0 -110 28.5zM371 272v358h-133v-358h133zM332 97.5q39 37.5 39 97.5v3h-274q0 -58 38.5 -98t97.5 -40
q60 0 99 37.5z" />
    <glyph glyph-name="jcircumflex" unicode="&#x135;" horiz-adv-x="528" 
d="M379 916h56l84 -130h-70l-42 83l-44 -83h-69zM123 13.5q-49 28.5 -76.5 77.5t-27.5 107h78q0 -58 38.5 -98t97.5 -40q60 0 99 37.5t39 97.5v510h78v-507q0 -61 -29 -109.5t-78.5 -76t-108.5 -27.5q-61 0 -110 28.5z" />
    <glyph glyph-name="uni0136" unicode="&#x136;" horiz-adv-x="592" 
d="M88 705h501l-210 -359l200 -346h-491v705zM312 383l146 247h-292v-247h146zM448 75l-136 233h-146v-233h282zM264 -48h79l-65 -168h-53z" />
    <glyph glyph-name="uni0137" unicode="&#x137;" horiz-adv-x="592" 
d="M88 705h78v-705h-78v705zM290 346l212 359h87l-210 -359l200 -346h-87zM254 -48h79l-65 -168h-53z" />
    <glyph glyph-name="kgreenlandic" unicode="&#x138;" horiz-adv-x="592" 
d="M88 705h78v-705h-78v705zM290 346l212 359h87l-210 -359l200 -346h-87z" />
    <glyph glyph-name="Lacute" unicode="&#x139;" horiz-adv-x="564" 
d="M255 940h88l-81 -162h-60zM88 708h290v-437h166v-271h-456v708zM304 271v363h-142v-363h142zM471 74v124h-309v-124h309z" />
    <glyph glyph-name="lacute" unicode="&#x13a;" horiz-adv-x="500" 
d="M152 945h88l-81 -162h-60zM88 705h77v-631h322v-75h-399v706z" />
    <glyph glyph-name="uni013B" unicode="&#x13b;" horiz-adv-x="564" 
d="M88 708h290v-437h166v-271h-456v708zM304 271v363h-142v-363h142zM471 74v124h-309v-124h309zM264 -48h79l-65 -168h-53z" />
    <glyph glyph-name="uni013C" unicode="&#x13c;" horiz-adv-x="500" 
d="M88 705h77v-631h322v-75h-399v706zM246 -48h79l-65 -168h-53z" />
    <glyph glyph-name="Lcaron" unicode="&#x13d;" horiz-adv-x="594" 
d="M507 626q-10 6 -15.5 16.5t-5.5 22.5q0 20 14.5 35t34.5 15t34.5 -15t14.5 -35q0 -10 -5 -22l-43 -118h-50zM88 708h290v-437h166v-271h-456v708zM304 271v363h-142v-363h142zM471 74v124h-309v-124h309z" />
    <glyph glyph-name="lcaron" unicode="&#x13e;" horiz-adv-x="552" 
d="M417 624q-10 6 -15.5 16.5t-5.5 22.5q0 20 14.5 35t34.5 15t34.5 -15t14.5 -35q0 -10 -5 -22l-43 -118h-50zM88 705h77v-631h322v-75h-399v706z" />
    <glyph glyph-name="Ldot" unicode="&#x13f;" horiz-adv-x="564" 
d="M88 708h290v-437h166v-271h-456v708zM304 271v363h-142v-363h142zM467.5 371.5q-14.5 14.5 -14.5 34.5t14.5 34.5t34.5 14.5t34.5 -14.5t14.5 -34.5t-14.5 -34.5t-34.5 -14.5t-34.5 14.5zM471 74v124h-309v-124h309z" />
    <glyph glyph-name="ldot" unicode="&#x140;" horiz-adv-x="500" 
d="M88 705h77v-631h322v-75h-399v706zM326.5 328.5q-14.5 14.5 -14.5 34.5t14.5 34.5t34.5 14.5t34.5 -14.5t14.5 -34.5t-14.5 -34.5t-34.5 -14.5t-34.5 14.5z" />
    <glyph glyph-name="Lslash" unicode="&#x141;" horiz-adv-x="564" 
d="M20 309l68 38v361h290v-198l55 31v-76l-55 -31v-163h166v-271h-456v271l-68 -38v76zM304 469v165h-142v-245zM162 271h142v122l-142 -80v-42zM471 74v124h-309v-124h309z" />
    <glyph glyph-name="lslash" unicode="&#x142;" horiz-adv-x="500" 
d="M487 74v-75h-399v248l-78 -55v74l78 55v384h77v-330l119 84v-74l-119 -84v-227h322z" />
    <glyph glyph-name="Nacute" unicode="&#x143;" horiz-adv-x="719" 
d="M88 704h543v-704h-543v704zM543 75l-210 554h-153l210 -554h153zM556 629h-143l143 -375v375zM310 75l-147 386v-386h147zM379 940h88l-81 -162h-60z" />
    <glyph glyph-name="nacute" unicode="&#x144;" horiz-adv-x="709" 
d="M379 940h88l-81 -162h-60zM88 705h84l370 -590v590h79v-705h-88l-367 585v-585h-78v705z" />
    <glyph glyph-name="uni0145" unicode="&#x145;" horiz-adv-x="719" 
d="M88 704h543v-704h-543v704zM543 75l-210 554h-153l210 -554h153zM556 629h-143l143 -375v375zM310 75l-147 386v-386h147zM327 -48h79l-65 -168h-53z" />
    <glyph glyph-name="uni0146" unicode="&#x146;" horiz-adv-x="709" 
d="M88 705h84l370 -590v590h79v-705h-88l-367 585v-585h-78v705zM327 -48h79l-65 -168h-53z" />
    <glyph glyph-name="Ncaron" unicode="&#x147;" horiz-adv-x="719" 
d="M88 704h543v-704h-543v704zM543 75l-210 554h-153l210 -554h153zM556 629h-143l143 -375v375zM310 75l-147 386v-386h147zM242 911h69l44 -83l42 83h70l-84 -130h-56z" />
    <glyph glyph-name="ncaron" unicode="&#x148;" horiz-adv-x="709" 
d="M242 911h69l44 -83l42 83h70l-84 -130h-56zM88 705h84l370 -590v590h79v-705h-88l-367 585v-585h-78v705z" />
    <glyph glyph-name="Eng" unicode="&#x14a;" horiz-adv-x="719" 
d="M88 704h543v-861h-175v71h97v86h-465v704zM390 75h153l-210 554h-153zM556 254v375h-143zM310 75l-147 386v-386h147z" />
    <glyph glyph-name="eng" unicode="&#x14b;" horiz-adv-x="709" 
d="M88 705h84l370 -577v577h79v-862h-175v71h97v80l-377 588v-582h-78v705z" />
    <glyph glyph-name="Omacron" unicode="&#x14c;" 
d="M585 865v-60h-355v60h355zM223.5 33.5q-84.5 49.5 -134 134t-49.5 184.5t49.5 184t134 133t183.5 49q100 0 184.5 -49t133.5 -133t49 -184t-49 -184.5t-133.5 -134t-184.5 -49.5q-99 0 -183.5 49.5zM695 389q-9 71 -49 129t-102.5 91.5t-136.5 33.5t-136 -33.5
t-101.5 -91.5t-48.5 -129h574zM543.5 92.5q62.5 33.5 102.5 91.5t49 130h-574q8 -72 48 -130t102 -91.5t136 -33.5t136.5 33.5z" />
    <glyph glyph-name="omacron" unicode="&#x14d;" 
d="M585 865v-60h-355v60h355zM223.5 33.5q-84.5 49.5 -134 134t-49.5 184.5t49.5 184t134 133t183.5 49q100 0 184.5 -49t133.5 -133t49 -184t-49 -184.5t-133.5 -134t-184.5 -49.5q-99 0 -183.5 49.5zM553.5 99q66.5 39 105 106t38.5 147t-38.5 147t-105 106t-146.5 39
t-146 -39t-104 -106t-38 -147t38 -147t104 -106t146 -39t146.5 39z" />
    <glyph glyph-name="Obreve" unicode="&#x14e;" 
d="M334.5 813q-29.5 32 -29.5 82h53q0 -27 13.5 -42t35.5 -15t35.5 15t13.5 42h54q0 -50 -30 -82t-73 -32t-72.5 32zM223.5 33.5q-84.5 49.5 -134 134t-49.5 184.5t49.5 184t134 133t183.5 49q100 0 184.5 -49t133.5 -133t49 -184t-49 -184.5t-133.5 -134t-184.5 -49.5
q-99 0 -183.5 49.5zM695 389q-9 71 -49 129t-102.5 91.5t-136.5 33.5t-136 -33.5t-101.5 -91.5t-48.5 -129h574zM543.5 92.5q62.5 33.5 102.5 91.5t49 130h-574q8 -72 48 -130t102 -91.5t136 -33.5t136.5 33.5z" />
    <glyph glyph-name="obreve" unicode="&#x14f;" 
d="M334.5 813q-29.5 32 -29.5 82h53q0 -27 13.5 -42t35.5 -15t35.5 15t13.5 42h54q0 -50 -30 -82t-73 -32t-72.5 32zM223.5 33.5q-84.5 49.5 -134 134t-49.5 184.5t49.5 184t134 133t183.5 49q100 0 184.5 -49t133.5 -133t49 -184t-49 -184.5t-133.5 -134t-184.5 -49.5
q-99 0 -183.5 49.5zM553.5 99q66.5 39 105 106t38.5 147t-38.5 147t-105 106t-146.5 39t-146 -39t-104 -106t-38 -147t38 -147t104 -106t146 -39t146.5 39z" />
    <glyph glyph-name="Ohungarumlaut" unicode="&#x150;" 
d="M332 945h78l-75 -162h-56zM464 945h84l-82 -162h-60zM223.5 33.5q-84.5 49.5 -134 134t-49.5 184.5t49.5 184t134 133t183.5 49q100 0 184.5 -49t133.5 -133t49 -184t-49 -184.5t-133.5 -134t-184.5 -49.5q-99 0 -183.5 49.5zM695 389q-9 71 -49 129t-102.5 91.5
t-136.5 33.5t-136 -33.5t-101.5 -91.5t-48.5 -129h574zM543.5 92.5q62.5 33.5 102.5 91.5t49 130h-574q8 -72 48 -130t102 -91.5t136 -33.5t136.5 33.5z" />
    <glyph glyph-name="ohungarumlaut" unicode="&#x151;" 
d="M332 945h78l-75 -162h-56zM464 945h84l-82 -162h-60zM223.5 33.5q-84.5 49.5 -134 134t-49.5 184.5t49.5 184t134 133t183.5 49q100 0 184.5 -49t133.5 -133t49 -184t-49 -184.5t-133.5 -134t-184.5 -49.5q-99 0 -183.5 49.5zM553.5 99q66.5 39 105 106t38.5 147
t-38.5 147t-105 106t-146.5 39t-146 -39t-104 -106t-38 -147t38 -147t104 -106t146 -39t146.5 39z" />
    <glyph glyph-name="OE" unicode="&#x152;" horiz-adv-x="1293" 
d="M223.5 33.5q-84.5 49.5 -134 134t-49.5 184.5t49.5 184t134 133t183.5 49q91 0 167.5 -40.5t124.5 -111.5v140h554v-706h-554v138q-48 -71 -124.5 -112.5t-167.5 -41.5q-99 0 -183.5 49.5zM695 389q-9 71 -49 129t-102.5 91.5t-136.5 33.5t-136 -33.5t-101.5 -91.5
t-48.5 -129h574zM1179 494v138h-406v-138h406zM1179 284v138h-406v-138h406zM543.5 92.5q62.5 33.5 102.5 91.5t49 130h-574q8 -72 48 -130t102 -91.5t136 -33.5t136.5 33.5zM1179 74v137h-406v-137h406z" />
    <glyph glyph-name="oe" unicode="&#x153;" horiz-adv-x="1145" 
d="M765 631v-241h339v-74h-339v-242h339v-74h-417v153q-42 -78 -116 -123.5t-171 -45.5q-98 0 -180.5 48.5t-131 133t-48.5 186.5q0 103 48.5 186.5t131 131.5t180.5 48q97 0 171 -45t116 -123v155h417v-74h-339zM548.5 99q63.5 39 99.5 105.5t36 147.5q0 80 -36 147
t-99.5 106t-141.5 39q-79 0 -144.5 -39t-103.5 -106t-38 -147t38 -147t103.5 -106t144.5 -39q78 0 141.5 39z" />
    <glyph glyph-name="Racute" unicode="&#x154;" horiz-adv-x="693" 
d="M356 940h88l-81 -162h-60zM88 707h316q68 0 124.5 -32.5t89.5 -88.5t33 -124q0 -81 -49 -144.5t-125 -84.5l159 -233h-548v707zM404 290q46 0 84.5 23t61 62t22.5 87t-22.5 87.5t-61 62.5t-84.5 23h-27v-345h27zM304 74v560h-142v-560h142zM493 74l-97 141h-19v-141h116z
" />
    <glyph glyph-name="racute" unicode="&#x155;" horiz-adv-x="583" 
d="M295 941h88l-81 -162h-60zM88 705h207q68 0 124 -32.5t89 -88.5t33 -124q0 -81 -49 -144t-124 -84l158 -232h-92l-147 214h-119v-214h-79zM295 289q45 0 83.5 22.5t61 62t22.5 86.5q0 48 -22.5 87.5t-61 62.5t-83.5 23h-127v-344h127z" />
    <glyph glyph-name="uni0156" unicode="&#x156;" horiz-adv-x="693" 
d="M88 707h316q68 0 124.5 -32.5t89.5 -88.5t33 -124q0 -81 -49 -144.5t-125 -84.5l159 -233h-548v707zM404 290q46 0 84.5 23t61 62t22.5 87t-22.5 87.5t-61 62.5t-84.5 23h-27v-345h27zM304 74v560h-142v-560h142zM493 74l-97 141h-19v-141h116zM299 -48h79l-65 -168h-53z
" />
    <glyph glyph-name="uni0157" unicode="&#x157;" horiz-adv-x="583" 
d="M88 705h207q68 0 124 -32.5t89 -88.5t33 -124q0 -81 -49 -144t-124 -84l158 -232h-92l-147 214h-119v-214h-79zM295 289q45 0 83.5 22.5t61 62t22.5 86.5q0 48 -22.5 87.5t-61 62.5t-83.5 23h-127v-344h127zM267 -48h79l-65 -168h-53z" />
    <glyph glyph-name="Rcaron" unicode="&#x158;" horiz-adv-x="693" 
d="M219 911h69l44 -83l42 83h70l-84 -130h-56zM88 707h316q68 0 124.5 -32.5t89.5 -88.5t33 -124q0 -81 -49 -144.5t-125 -84.5l159 -233h-548v707zM404 290q46 0 84.5 23t61 62t22.5 87t-22.5 87.5t-61 62.5t-84.5 23h-27v-345h27zM304 74v560h-142v-560h142zM493 74
l-97 141h-19v-141h116z" />
    <glyph glyph-name="rcaron" unicode="&#x159;" horiz-adv-x="583" 
d="M158 912h69l44 -83l42 83h70l-84 -130h-56zM88 705h207q68 0 124 -32.5t89 -88.5t33 -124q0 -81 -49 -144t-124 -84l158 -232h-92l-147 214h-119v-214h-79zM295 289q45 0 83.5 22.5t61 62t22.5 86.5q0 48 -22.5 87.5t-61 62.5t-83.5 23h-127v-344h127z" />
    <glyph glyph-name="Sacute" unicode="&#x15a;" horiz-adv-x="606" 
d="M347 940h88l-81 -162h-60zM58 272h204v47h-24q-52 0 -95.5 25.5t-69 69t-25.5 95.5v9q0 52 25.5 95.5t69 69t95.5 25.5h286v-272h-182v-47h25q52 0 96 -25.5t69.5 -69t25.5 -95.5v-9q0 -52 -25.5 -95.5t-69.5 -69t-96 -25.5h-309v272zM262 392v242h-24q-48 0 -82 -34
t-34 -82v-9q0 -48 34 -82.5t82 -34.5h24zM450 510v124h-108v-124h108zM367 74q49 0 83 34t34 82v9q0 48 -34 82t-83 34h-25v-241h25zM262 74v124h-130v-124h130z" />
    <glyph glyph-name="sacute" unicode="&#x15b;" horiz-adv-x="524" 
d="M282 945h88l-81 -162h-60zM251 74h23q54 0 91.5 37.5t37.5 91.5q0 53 -37.5 90.5t-91.5 37.5h-39q-53 0 -98 26.5t-71 71.5t-26 98t26 98t71 71.5t98 26.5h16v-74h-16q-50 0 -86 -36t-36 -86t36 -86t86 -36h39q55 0 101.5 -27.5t74 -73.5t27.5 -101t-27.5 -101.5t-74 -74
t-101.5 -27.5h-23v74z" />
    <glyph glyph-name="Scircumflex" unicode="&#x15c;" horiz-adv-x="606" 
d="M295 911h56l84 -130h-70l-42 83l-44 -83h-69zM58 272h204v47h-24q-52 0 -95.5 25.5t-69 69t-25.5 95.5v9q0 52 25.5 95.5t69 69t95.5 25.5h286v-272h-182v-47h25q52 0 96 -25.5t69.5 -69t25.5 -95.5v-9q0 -52 -25.5 -95.5t-69.5 -69t-96 -25.5h-309v272zM262 392v242h-24
q-48 0 -82 -34t-34 -82v-9q0 -48 34 -82.5t82 -34.5h24zM450 510v124h-108v-124h108zM367 74q49 0 83 34t34 82v9q0 48 -34 82t-83 34h-25v-241h25zM262 74v124h-130v-124h130z" />
    <glyph glyph-name="scircumflex" unicode="&#x15d;" horiz-adv-x="524" 
d="M230 916h56l84 -130h-70l-42 83l-44 -83h-69zM251 74h23q54 0 91.5 37.5t37.5 91.5q0 53 -37.5 90.5t-91.5 37.5h-39q-53 0 -98 26.5t-71 71.5t-26 98t26 98t71 71.5t98 26.5h16v-74h-16q-50 0 -86 -36t-36 -86t36 -86t86 -36h39q55 0 101.5 -27.5t74 -73.5t27.5 -101
t-27.5 -101.5t-74 -74t-101.5 -27.5h-23v74z" />
    <glyph glyph-name="Scedilla" unicode="&#x15e;" horiz-adv-x="606" 
d="M463 363.5q44 -25.5 69.5 -69t25.5 -95.5v-9q0 -52 -25.5 -95.5t-69.5 -69t-96 -25.5h-36q48 -17 48 -68q0 -44 -27 -64t-74 -20v51q22 0 35 10.5t13 30.5q0 16 -11.5 26t-30.5 10v24h-226v272h204v47h-24q-52 0 -95.5 25.5t-69 69t-25.5 95.5v9q0 52 25.5 95.5t69 69
t95.5 25.5h286v-272h-182v-47h25q52 0 96 -25.5zM262 634h-24q-48 0 -82 -34t-34 -82v-9q0 -48 34 -82.5t82 -34.5h24v242zM342 510h108v124h-108v-124zM484 199q0 48 -34 82t-83 34h-25v-241h25q49 0 83 34t34 82v9zM262 198h-130v-124h130v124z" />
    <glyph glyph-name="scedilla" unicode="&#x15f;" horiz-adv-x="524" 
d="M435 79.5q-42 -54.5 -107 -72.5q19 -19 19 -51q0 -44 -27 -64t-74 -20v51q22 0 35 10.5t13 30.5q0 16 -11.5 26t-30.5 10h-1v74h23q54 0 91.5 37.5t37.5 91.5q0 53 -37.5 90.5t-91.5 37.5h-39q-53 0 -98 26.5t-71 71.5t-26 98t26 98t71 71.5t98 26.5h16v-74h-16
q-50 0 -86 -36t-36 -86t36 -86t86 -36h39q55 0 101.5 -27.5t74 -73.5t27.5 -101q0 -69 -42 -123.5z" />
    <glyph glyph-name="Scaron" unicode="&#x160;" horiz-adv-x="606" 
d="M210 911h69l44 -83l42 83h70l-84 -130h-56zM58 272h204v47h-24q-52 0 -95.5 25.5t-69 69t-25.5 95.5v9q0 52 25.5 95.5t69 69t95.5 25.5h286v-272h-182v-47h25q52 0 96 -25.5t69.5 -69t25.5 -95.5v-9q0 -52 -25.5 -95.5t-69.5 -69t-96 -25.5h-309v272zM262 392v242h-24
q-48 0 -82 -34t-34 -82v-9q0 -48 34 -82.5t82 -34.5h24zM450 510v124h-108v-124h108zM367 74q49 0 83 34t34 82v9q0 48 -34 82t-83 34h-25v-241h25zM262 74v124h-130v-124h130z" />
    <glyph glyph-name="scaron" unicode="&#x161;" horiz-adv-x="524" 
d="M145 916h69l44 -83l42 83h70l-84 -130h-56zM251 74h23q54 0 91.5 37.5t37.5 91.5q0 53 -37.5 90.5t-91.5 37.5h-39q-53 0 -98 26.5t-71 71.5t-26 98t26 98t71 71.5t98 26.5h16v-74h-16q-50 0 -86 -36t-36 -86t36 -86t86 -36h39q55 0 101.5 -27.5t74 -73.5t27.5 -101
t-27.5 -101.5t-74 -74t-101.5 -27.5h-23v74z" />
    <glyph glyph-name="Tcaron" unicode="&#x164;" horiz-adv-x="507" 
d="M155 897h69l44 -83l42 83h70l-84 -130h-56zM117 437h-104v272h481v-272h-105v-437h-272v437zM420 511v124h-334v-124h334zM315 74v363h-124v-363h124z" />
    <glyph glyph-name="tcaron" unicode="&#x165;" horiz-adv-x="471" 
d="M123 907h69l44 -83l42 83h70l-84 -130h-56zM197 632h-184v73h445v-73h-182v-633h-79v633z" />
    <glyph glyph-name="Tbar" unicode="&#x166;" horiz-adv-x="541" 
d="M134 227h-56v68h56v142h-104v272h481v-272h-105v-142h56v-68h-56v-227h-272v227zM437 511v124h-334v-124h334zM332 295v142h-124v-142h124zM332 74v153h-124v-153h124z" />
    <glyph glyph-name="tbar" unicode="&#x167;" horiz-adv-x="471" 
d="M276 632v-250h123v-66h-123v-317h-79v317h-125v66h125v250h-184v73h445v-73h-182z" />
    <glyph glyph-name="Utilde" unicode="&#x168;" horiz-adv-x="671" 
d="M359.5 796q-16.5 6 -37.5 17q-18 10 -29 14.5t-23 4.5q-26 0 -43 -26l-54 36q36 55 97 55q21 -1 37 -6.5t38 -17.5q15 -9 26.5 -13.5t23.5 -4.5q9 0 24.5 6t28.5 24l52 -38q-22 -32 -51.5 -44.5t-53.5 -12.5q-19 0 -35.5 6zM203.5 19q-59.5 34 -94 93t-34.5 130v463h521
v-463q0 -72 -34 -130.5t-93.5 -92.5t-132.5 -34t-132.5 34zM296 632h-142v-394q0 -67 39 -114.5t103 -59.5v568zM478.5 124q39.5 48 39.5 114v394h-143v-568q64 12 103.5 60z" />
    <glyph glyph-name="utilde" unicode="&#x169;" horiz-adv-x="671" 
d="M359.5 799q-16.5 6 -37.5 17q-18 10 -29 14.5t-23 4.5q-26 0 -43 -26l-54 36q36 55 97 55q21 -1 37 -6.5t38 -17.5q15 -9 26.5 -13.5t23.5 -4.5q9 0 24.5 6t28.5 24l52 -38q-22 -32 -51.5 -44.5t-53.5 -12.5q-19 0 -35.5 6zM203.5 19q-59.5 34 -94 93t-34.5 130v463h79
v-467q0 -50 23.5 -91t65 -64t93.5 -23t93.5 23t65 64t23.5 91v467h78v-463q0 -72 -34 -130.5t-93.5 -92.5t-132.5 -34t-132.5 34z" />
    <glyph glyph-name="Umacron" unicode="&#x16a;" horiz-adv-x="671" 
d="M514 860v-60h-355v60h355zM203.5 19q-59.5 34 -94 93t-34.5 130v463h521v-463q0 -72 -34 -130.5t-93.5 -92.5t-132.5 -34t-132.5 34zM296 632h-142v-394q0 -67 39 -114.5t103 -59.5v568zM478.5 124q39.5 48 39.5 114v394h-143v-568q64 12 103.5 60z" />
    <glyph glyph-name="umacron" unicode="&#x16b;" horiz-adv-x="671" 
d="M514 863v-60h-355v60h355zM203.5 19q-59.5 34 -94 93t-34.5 130v463h79v-467q0 -50 23.5 -91t65 -64t93.5 -23t93.5 23t65 64t23.5 91v467h78v-463q0 -72 -34 -130.5t-93.5 -92.5t-132.5 -34t-132.5 34z" />
    <glyph glyph-name="Ubreve" unicode="&#x16c;" horiz-adv-x="671" 
d="M263.5 808q-29.5 32 -29.5 82h53q0 -27 13.5 -42t35.5 -15t35.5 15t13.5 42h54q0 -50 -30 -82t-73 -32t-72.5 32zM203.5 19q-59.5 34 -94 93t-34.5 130v463h521v-463q0 -72 -34 -130.5t-93.5 -92.5t-132.5 -34t-132.5 34zM296 632h-142v-394q0 -67 39 -114.5t103 -59.5
v568zM478.5 124q39.5 48 39.5 114v394h-143v-568q64 12 103.5 60z" />
    <glyph glyph-name="ubreve" unicode="&#x16d;" horiz-adv-x="671" 
d="M263.5 811q-29.5 32 -29.5 82h53q0 -27 13.5 -42t35.5 -15t35.5 15t13.5 42h54q0 -50 -30 -82t-73 -32t-72.5 32zM203.5 19q-59.5 34 -94 93t-34.5 130v463h79v-467q0 -50 23.5 -91t65 -64t93.5 -23t93.5 23t65 64t23.5 91v467h78v-463q0 -72 -34 -130.5t-93.5 -92.5
t-132.5 -34t-132.5 34z" />
    <glyph glyph-name="Uring" unicode="&#x16e;" horiz-adv-x="671" 
d="M266.5 784q-28.5 29 -28.5 70q0 40 28.5 69t69.5 29q40 0 69 -29t29 -69q0 -41 -29 -70t-69 -29q-41 0 -69.5 29zM372 817q15 15 15 37q0 21 -15 36t-36 15t-36 -15t-15 -36q0 -22 15 -37t36 -15t36 15zM203.5 19q-59.5 34 -94 93t-34.5 130v463h521v-463
q0 -72 -34 -130.5t-93.5 -92.5t-132.5 -34t-132.5 34zM296 632h-142v-394q0 -67 39 -114.5t103 -59.5v568zM478.5 124q39.5 48 39.5 114v394h-143v-568q64 12 103.5 60z" />
    <glyph glyph-name="uring" unicode="&#x16f;" horiz-adv-x="671" 
d="M266.5 787q-28.5 29 -28.5 70q0 40 28.5 69t69.5 29q40 0 69 -29t29 -69q0 -41 -29 -70t-69 -29q-41 0 -69.5 29zM372 820q15 15 15 37q0 21 -15 36t-36 15t-36 -15t-15 -36q0 -22 15 -37t36 -15t36 15zM203.5 19q-59.5 34 -94 93t-34.5 130v463h79v-467q0 -50 23.5 -91
t65 -64t93.5 -23t93.5 23t65 64t23.5 91v467h78v-463q0 -72 -34 -130.5t-93.5 -92.5t-132.5 -34t-132.5 34z" />
    <glyph glyph-name="Uhungarumlaut" unicode="&#x170;" horiz-adv-x="671" 
d="M261 940h78l-75 -162h-56zM393 940h84l-82 -162h-60zM203.5 19q-59.5 34 -94 93t-34.5 130v463h521v-463q0 -72 -34 -130.5t-93.5 -92.5t-132.5 -34t-132.5 34zM296 632h-142v-394q0 -67 39 -114.5t103 -59.5v568zM478.5 124q39.5 48 39.5 114v394h-143v-568
q64 12 103.5 60z" />
    <glyph glyph-name="uhungarumlaut" unicode="&#x171;" horiz-adv-x="671" 
d="M261 943h78l-75 -162h-56zM393 943h84l-82 -162h-60zM203.5 19q-59.5 34 -94 93t-34.5 130v463h79v-467q0 -50 23.5 -91t65 -64t93.5 -23t93.5 23t65 64t23.5 91v467h78v-463q0 -72 -34 -130.5t-93.5 -92.5t-132.5 -34t-132.5 34z" />
    <glyph glyph-name="Uogonek" unicode="&#x172;" horiz-adv-x="671" 
d="M596 705v-463q0 -90 -53 -158.5t-138 -89.5q-19 -16 -19 -42q0 -42 54 -42v-48q-48 0 -76.5 19.5t-28.5 59.5q0 24 12 44h-11q-73 0 -132.5 34t-94 93t-34.5 130v463h521zM296 632h-142v-394q0 -67 39 -114.5t103 -59.5v568zM518 632h-143v-568q64 12 103.5 60t39.5 114
v394z" />
    <glyph glyph-name="uogonek" unicode="&#x173;" horiz-adv-x="671" 
d="M596 705v-463q0 -84 -46.5 -150t-122.5 -92h-1q-6 -2 -24 -7q-10 -7 -16 -18.5t-6 -25.5q0 -42 54 -42v-48q-48 0 -76.5 19.5t-28.5 59.5q0 27 14 47h-7q-73 0 -132.5 34t-94 93t-34.5 130v463h79v-467q0 -50 23.5 -91t65 -64t93.5 -23t93.5 23t65 64t23.5 91v467h78z
" />
    <glyph glyph-name="Wcircumflex" unicode="&#x174;" horiz-adv-x="956" 
d="M450 905h56l84 -130h-70l-42 83l-44 -83h-69zM33 705h890l-194 -705h-502zM423 630h-289l145 -535zM822 630h-290l146 -535zM613 75l-136 501l-136 -501h272z" />
    <glyph glyph-name="wcircumflex" unicode="&#x175;" horiz-adv-x="956" 
d="M450 916h56l84 -130h-70l-42 83l-44 -83h-69zM33 705h81l165 -610l164 610h69l166 -610l164 610h81l-194 -705h-96l-156 576l-156 -576h-94z" />
    <glyph glyph-name="Ycircumflex" unicode="&#x176;" horiz-adv-x="648" 
d="M296 911h56l84 -130h-70l-42 83l-44 -83h-69zM180 272l-175 436h638l-175 -436v-272h-288v272zM418 345l116 289h-420l116 -289h188zM394 74v198h-141v-198h141z" />
    <glyph glyph-name="ycircumflex" unicode="&#x177;" horiz-adv-x="583" 
d="M264 916h56l84 -130h-70l-42 83l-44 -83h-69zM252 283l-246 422h89l196 -338l197 338h89l-246 -422v-283h-79v283z" />
    <glyph glyph-name="Ydieresis" unicode="&#x178;" horiz-adv-x="648" 
d="M224 799q-13 13 -13 31q0 19 13 31.5t31 12.5t30.5 -12.5t12.5 -31.5q0 -18 -12.5 -31t-30.5 -13t-31 13zM363 799q-13 13 -13 31q0 19 13 31.5t31 12.5t30.5 -12.5t12.5 -31.5q0 -18 -12.5 -31t-30.5 -13t-31 13zM180 272l-175 436h638l-175 -436v-272h-288v272z
M418 345l116 289h-420l116 -289h188zM394 74v198h-141v-198h141z" />
    <glyph glyph-name="Zacute" unicode="&#x179;" horiz-adv-x="681" 
d="M375 940h88l-81 -162h-60zM211 436h-181v272h621l-181 -436h181v-272h-621zM242 510l52 124h-190v-124h138zM308 74l233 560h-168l-232 -560h167zM578 74v124h-138l-52 -124h190z" />
    <glyph glyph-name="zacute" unicode="&#x17a;" horiz-adv-x="539" 
d="M295 945h88l-81 -162h-60zM31 76l386 554h-386v75h476v-83l-382 -547h382v-75h-476v76z" />
    <glyph glyph-name="Zdotaccent" unicode="&#x17b;" horiz-adv-x="681" 
d="M316.5 814.5q-14.5 14.5 -14.5 34.5t14.5 34.5t34.5 14.5t34.5 -14.5t14.5 -34.5t-14.5 -34.5t-34.5 -14.5t-34.5 14.5zM211 436h-181v272h621l-181 -436h181v-272h-621zM242 510l52 124h-190v-124h138zM308 74l233 560h-168l-232 -560h167zM578 74v124h-138l-52 -124
h190z" />
    <glyph glyph-name="zdotaccent" unicode="&#x17c;" horiz-adv-x="539" 
d="M236.5 819.5q-14.5 14.5 -14.5 34.5t14.5 34.5t34.5 14.5t34.5 -14.5t14.5 -34.5t-14.5 -34.5t-34.5 -14.5t-34.5 14.5zM31 76l386 554h-386v75h476v-83l-382 -547h382v-75h-476v76z" />
    <glyph glyph-name="Zcaron" unicode="&#x17d;" horiz-adv-x="681" 
d="M238 911h69l44 -83l42 83h70l-84 -130h-56zM211 436h-181v272h621l-181 -436h181v-272h-621zM242 510l52 124h-190v-124h138zM308 74l233 560h-168l-232 -560h167zM578 74v124h-138l-52 -124h190z" />
    <glyph glyph-name="zcaron" unicode="&#x17e;" horiz-adv-x="539" 
d="M158 916h69l44 -83l42 83h70l-84 -130h-56zM31 76l386 554h-386v75h476v-83l-382 -547h382v-75h-476v76z" />
    <glyph glyph-name="uni01EA" unicode="&#x1ea;" 
d="M741 199q-33 -72 -91 -123.5t-133 -74.5v-1h-2q-15 -4 -20 -5q-11 -7 -18 -19t-7 -27q0 -42 54 -42v-48q-48 0 -76.5 19.5t-28.5 59.5q0 26 13 47q-8 -1 -25 -1q-99 0 -183.5 49.5t-134 134t-49.5 184.5t49.5 184t134 133t183.5 49q100 0 184.5 -49t133.5 -133t49 -184
q0 -81 -33 -153zM271 609.5q-62 -33.5 -101.5 -91.5t-48.5 -129h574q-9 71 -49 129t-102.5 91.5t-136.5 33.5t-136 -33.5zM543.5 92.5q62.5 33.5 102.5 91.5t49 130h-574q8 -72 48 -130t102 -91.5t136 -33.5t136.5 33.5z" />
    <glyph glyph-name="uni01EB" unicode="&#x1eb;" 
d="M741 199q-33 -72 -91 -123.5t-133 -74.5v-1h-2q-15 -4 -20 -5q-11 -7 -18 -19t-7 -27q0 -42 54 -42v-48q-48 0 -76.5 19.5t-28.5 59.5q0 26 13 47q-8 -1 -25 -1q-99 0 -183.5 49.5t-134 134t-49.5 184.5t49.5 184t134 133t183.5 49q100 0 184.5 -49t133.5 -133t49 -184
q0 -81 -33 -153zM553.5 99q66.5 39 105 106t38.5 147t-38.5 147t-105 106t-146.5 39t-146 -39t-104 -106t-38 -147t38 -147t104 -106t146 -39t146.5 39z" />
    <glyph glyph-name="AEacute" unicode="&#x1fc;" horiz-adv-x="1081" 
d="M722 945h88l-81 -162h-60zM421 706h600v-706h-1009zM947 494v137h-405v-137h405zM463 285v335l-194 -335h194zM947 284v138h-405v-138h405zM947 74v137h-405v-136h328v-1h77zM463 75v135h-237l-79 -135h316z" />
    <glyph glyph-name="aeacute" unicode="&#x1fd;" horiz-adv-x="911" 
d="M652 945h88l-81 -162h-60zM421 705h449v-75h-401l-365 -630h-92zM469 392h401v-75h-401v75zM463 75h407v-75h-407v75z" />
    <glyph glyph-name="Oslashacute" unicode="&#x1fe;" 
d="M431 940h88l-81 -162h-60zM214 39l-38 -50l-50 40l37 49q-58 51 -90.5 122t-32.5 152q0 100 49.5 184t134 133t183.5 49q105 0 194 -54l38 51l50 -41l-37 -49q57 -51 89.5 -122t32.5 -151q0 -100 -49 -184.5t-133.5 -134t-184.5 -49.5q-105 0 -193 55zM556 604
q-69 40 -149 40t-146 -39t-104 -106t-38 -147q0 -63 23.5 -117.5t65.5 -95.5zM553.5 99q66.5 39 105 106t38.5 147q0 62 -23.5 117.5t-66.5 95.5l-348 -465q69 -40 148 -40q80 0 146.5 39z" />
    <glyph glyph-name="oslashacute" unicode="&#x1ff;" 
d="M431 943h88l-81 -162h-60zM89.5 536q49.5 84 134 133t183.5 49q105 0 194 -54l38 51l50 -41l-37 -49q57 -51 89.5 -122t32.5 -151q0 -100 -49 -184.5t-133.5 -134t-184.5 -49.5q-105 0 -193 55l-38 -50l-50 40l37 49q-58 51 -90.5 122t-32.5 152q0 100 49.5 184z
M142.5 234.5q23.5 -54.5 65.5 -95.5l348 465q-69 40 -149 40t-146 -39t-104 -106t-38 -147q0 -63 23.5 -117.5zM407 60q80 0 146.5 39t105 106t38.5 147q0 62 -23.5 117.5t-66.5 95.5l-348 -465q69 -40 148 -40z" />
    <glyph glyph-name="uni0218" unicode="&#x218;" horiz-adv-x="606" 
d="M58 272h204v47h-24q-52 0 -95.5 25.5t-69 69t-25.5 95.5v9q0 52 25.5 95.5t69 69t95.5 25.5h286v-272h-182v-47h25q52 0 96 -25.5t69.5 -69t25.5 -95.5v-9q0 -52 -25.5 -95.5t-69.5 -69t-96 -25.5h-309v272zM262 392v242h-24q-48 0 -82 -34t-34 -82v-9q0 -48 34 -82.5
t82 -34.5h24zM450 510v124h-108v-124h108zM367 74q49 0 83 34t34 82v9q0 48 -34 82t-83 34h-25v-241h25zM262 74v124h-130v-124h130zM275 -36h79l-65 -168h-53z" />
    <glyph glyph-name="uni0219" unicode="&#x219;" horiz-adv-x="524" 
d="M251 74h23q54 0 91.5 37.5t37.5 91.5q0 53 -37.5 90.5t-91.5 37.5h-39q-53 0 -98 26.5t-71 71.5t-26 98t26 98t71 71.5t98 26.5h16v-74h-16q-50 0 -86 -36t-36 -86t36 -86t86 -36h39q55 0 101.5 -27.5t74 -73.5t27.5 -101t-27.5 -101.5t-74 -74t-101.5 -27.5h-23v74z
M238 -48h79l-65 -168h-53z" />
    <glyph glyph-name="uni021A" unicode="&#x21a;" horiz-adv-x="541" 
d="M134 437h-104v272h481v-272h-105v-437h-272v437zM437 511v124h-334v-124h334zM332 74v363h-124v-363h124zM231 -48h79l-65 -168h-53z" />
    <glyph glyph-name="uni021B" unicode="&#x21b;" horiz-adv-x="471" 
d="M197 632h-184v73h445v-73h-182v-633h-79v633zM199 -48h79l-65 -168h-53z" />
    <glyph glyph-name="uni0237" unicode="&#x237;" horiz-adv-x="528" 
d="M123 13.5q-49 28.5 -76.5 77.5t-27.5 107h78q0 -58 38.5 -98t97.5 -40q60 0 99 37.5t39 97.5v510h78v-507q0 -61 -29 -109.5t-78.5 -76t-108.5 -27.5q-61 0 -110 28.5z" />
    <glyph glyph-name="circumflex" unicode="&#x2c6;" horiz-adv-x="258" 
d="M102 761h56l84 -130h-70l-42 83l-44 -83h-69z" />
    <glyph glyph-name="caron" unicode="&#x2c7;" horiz-adv-x="258" 
d="M17 761h69l44 -83l42 83h70l-84 -130h-56z" />
    <glyph glyph-name="breve" unicode="&#x2d8;" horiz-adv-x="238" 
d="M46.5 654q-29.5 32 -29.5 82h53q0 -27 13.5 -42t35.5 -15t35.5 15t13.5 42h54q0 -50 -30 -82t-73 -32t-72.5 32z" />
    <glyph glyph-name="dotaccent" unicode="&#x2d9;" horiz-adv-x="132" 
d="M31.5 664.5q-14.5 14.5 -14.5 34.5t14.5 34.5t34.5 14.5t34.5 -14.5t14.5 -34.5t-14.5 -34.5t-34.5 -14.5t-34.5 14.5z" />
    <glyph glyph-name="ring" unicode="&#x2da;" horiz-adv-x="230" 
d="M45.5 634q-28.5 29 -28.5 70q0 40 28.5 69t69.5 29q40 0 69 -29t29 -69q0 -41 -29 -70t-69 -29q-41 0 -69.5 29zM151 667q15 15 15 37q0 21 -15 36t-36 15t-36 -15t-15 -36q0 -22 15 -37t36 -15t36 15z" />
    <glyph glyph-name="ogonek" unicode="&#x2db;" horiz-adv-x="135" 
d="M43.5 -121.5q-28.5 19.5 -28.5 59.5q0 39 28 64.5t65 25.5l5 -28q-20 0 -33.5 -14.5t-13.5 -36.5q0 -42 54 -42v-48q-48 0 -76.5 19.5z" />
    <glyph glyph-name="tilde" unicode="&#x2dc;" horiz-adv-x="361" 
d="M203.5 646q-16.5 6 -37.5 17q-18 10 -29 14.5t-23 4.5q-26 0 -43 -26l-54 36q36 55 97 55q21 -1 37 -6.5t38 -17.5q15 -9 26.5 -13.5t23.5 -4.5q9 0 24.5 6t28.5 24l52 -38q-22 -32 -51.5 -44.5t-53.5 -12.5q-19 0 -35.5 6z" />
    <glyph glyph-name="hungarumlaut" unicode="&#x2dd;" horiz-adv-x="302" 
d="M70 790h78l-75 -162h-56zM202 790h84l-82 -162h-60z" />
    <glyph glyph-name="gravecomb" unicode="&#x300;" horiz-adv-x="0" 
d="M-158 790h87l54 -162h-60z" />
    <glyph glyph-name="acutecomb" unicode="&#x301;" horiz-adv-x="0" 
d="M-105 790h88l-81 -162h-60z" />
    <glyph glyph-name="uni0302" unicode="&#x302;" horiz-adv-x="0" 
d="M-156 761h56l84 -130h-70l-42 83l-44 -83h-69z" />
    <glyph glyph-name="tildecomb" unicode="&#x303;" horiz-adv-x="0" 
d="M-157.5 646q-16.5 6 -37.5 17q-18 10 -29 14.5t-23 4.5q-26 0 -43 -26l-54 36q36 55 97 55q21 -1 37 -6.5t38 -17.5q15 -9 26.5 -13.5t23.5 -4.5q9 0 24.5 6t28.5 24l52 -38q-22 -32 -51.5 -44.5t-53.5 -12.5q-19 0 -35.5 6z" />
    <glyph glyph-name="uni0304" unicode="&#x304;" horiz-adv-x="0" 
d="M-17 710v-60h-355v60h355z" />
    <glyph glyph-name="uni0306" unicode="&#x306;" horiz-adv-x="0" 
d="M-191.5 654q-29.5 32 -29.5 82h53q0 -27 13.5 -42t35.5 -15t35.5 15t13.5 42h54q0 -50 -30 -82t-73 -32t-72.5 32z" />
    <glyph glyph-name="uni0307" unicode="&#x307;" horiz-adv-x="0" 
d="M-100.5 664.5q-14.5 14.5 -14.5 34.5t14.5 34.5t34.5 14.5t34.5 -14.5t14.5 -34.5t-14.5 -34.5t-34.5 -14.5t-34.5 14.5z" />
    <glyph glyph-name="uni0308" unicode="&#x308;" horiz-adv-x="0" 
d="M-230 649q-13 13 -13 31q0 19 13 31.5t31 12.5t30.5 -12.5t12.5 -31.5q0 -18 -12.5 -31t-30.5 -13t-31 13zM-91 649q-13 13 -13 31q0 19 13 31.5t31 12.5t30.5 -12.5t12.5 -31.5q0 -18 -12.5 -31t-30.5 -13t-31 13z" />
    <glyph glyph-name="uni030A" unicode="&#x30a;" horiz-adv-x="0" 
d="M-184.5 634q-28.5 29 -28.5 70q0 40 28.5 69t69.5 29q40 0 69 -29t29 -69q0 -41 -29 -70t-69 -29q-41 0 -69.5 29zM-79 667q15 15 15 37q0 21 -15 36t-36 15t-36 -15t-15 -36q0 -22 15 -37t36 -15t36 15z" />
    <glyph glyph-name="uni030B" unicode="&#x30b;" horiz-adv-x="0" 
d="M-232 790h78l-75 -162h-56zM-100 790h84l-82 -162h-60z" />
    <glyph glyph-name="uni030C" unicode="&#x30c;" horiz-adv-x="0" 
d="M-241 761h69l44 -83l42 83h70l-84 -130h-56z" />
    <glyph glyph-name="uni0326" unicode="&#x326;" horiz-adv-x="0" 
d="M-92 -48h79l-65 -168h-53z" />
    <glyph glyph-name="uni0327" unicode="&#x327;" horiz-adv-x="0" 
d="M-111 -106q22 0 35 10.5t13 30.5q0 16 -11.5 26t-30.5 10v31q42 0 68.5 -18t26.5 -57q0 -44 -27 -64t-74 -20v51z" />
    <glyph glyph-name="uni0328" unicode="&#x328;" horiz-adv-x="0" 
d="M-91.5 -121.5q-28.5 19.5 -28.5 59.5q0 39 28 64.5t65 25.5l5 -28q-20 0 -33.5 -14.5t-13.5 -36.5q0 -42 54 -42v-48q-48 0 -76.5 19.5z" />
    <glyph glyph-name="Wgrave" unicode="&#x1e80;" horiz-adv-x="956" 
d="M366 934h87l54 -162h-60zM33 705h890l-194 -705h-502zM423 630h-289l145 -535zM822 630h-290l146 -535zM613 75l-136 501l-136 -501h272z" />
    <glyph glyph-name="wgrave" unicode="&#x1e81;" horiz-adv-x="956" 
d="M366 945h87l54 -162h-60zM33 705h81l165 -610l164 610h69l166 -610l164 610h81l-194 -705h-96l-156 576l-156 -576h-94z" />
    <glyph glyph-name="Wacute" unicode="&#x1e82;" horiz-adv-x="956" 
d="M502 934h88l-81 -162h-60zM33 705h890l-194 -705h-502zM423 630h-289l145 -535zM822 630h-290l146 -535zM613 75l-136 501l-136 -501h272z" />
    <glyph glyph-name="wacute" unicode="&#x1e83;" horiz-adv-x="956" 
d="M502 945h88l-81 -162h-60zM33 705h81l165 -610l164 610h69l166 -610l164 610h81l-194 -705h-96l-156 576l-156 -576h-94z" />
    <glyph glyph-name="Wdieresis" unicode="&#x1e84;" horiz-adv-x="956" 
d="M378 793q-13 13 -13 31q0 19 13 31.5t31 12.5t30.5 -12.5t12.5 -31.5q0 -18 -12.5 -31t-30.5 -13t-31 13zM517 793q-13 13 -13 31q0 19 13 31.5t31 12.5t30.5 -12.5t12.5 -31.5q0 -18 -12.5 -31t-30.5 -13t-31 13zM33 705h890l-194 -705h-502zM423 630h-289l145 -535z
M822 630h-290l146 -535zM613 75l-136 501l-136 -501h272z" />
    <glyph glyph-name="wdieresis" unicode="&#x1e85;" horiz-adv-x="956" 
d="M378 804q-13 13 -13 31q0 19 13 31.5t31 12.5t30.5 -12.5t12.5 -31.5q0 -18 -12.5 -31t-30.5 -13t-31 13zM517 804q-13 13 -13 31q0 19 13 31.5t31 12.5t30.5 -12.5t12.5 -31.5q0 -18 -12.5 -31t-30.5 -13t-31 13zM33 705h81l165 -610l164 610h69l166 -610l164 610h81
l-194 -705h-96l-156 576l-156 -576h-94z" />
    <glyph glyph-name="Ygrave" unicode="&#x1ef2;" horiz-adv-x="648" 
d="M212 940h87l54 -162h-60zM180 272l-175 436h638l-175 -436v-272h-288v272zM418 345l116 289h-420l116 -289h188zM394 74v198h-141v-198h141z" />
    <glyph glyph-name="ygrave" unicode="&#x1ef3;" horiz-adv-x="583" 
d="M180 945h87l54 -162h-60zM252 283l-246 422h89l196 -338l197 338h89l-246 -422v-283h-79v283z" />
    <glyph glyph-name="endash" unicode="&#x2013;" horiz-adv-x="550" 
d="M37 304h477v-71h-477v71z" />
    <glyph glyph-name="emdash" unicode="&#x2014;" horiz-adv-x="919" 
d="M37 304h845v-71h-845v71z" />
    <glyph glyph-name="quoteleft" unicode="&#x2018;" horiz-adv-x="168" 
d="M111 610q10 -6 15.5 -16.5t5.5 -22.5q0 -20 -14.5 -35t-34.5 -15t-34.5 15t-14.5 35q0 10 5 22l43 118h50z" />
    <glyph glyph-name="quoteright" unicode="&#x2019;" horiz-adv-x="168" 
d="M57 626q-10 6 -15.5 16.5t-5.5 22.5q0 20 14.5 35t34.5 15t34.5 -15t14.5 -35q0 -10 -5 -22l-43 -118h-50z" />
    <glyph glyph-name="quotesinglbase" unicode="&#x201a;" horiz-adv-x="168" 
d="M57 -3q-10 6 -15.5 16.5t-5.5 22.5q0 20 14.5 35t34.5 15t34.5 -15t14.5 -35q0 -10 -5 -22l-43 -118h-50z" />
    <glyph glyph-name="quotedblleft" unicode="&#x201c;" horiz-adv-x="319" 
d="M111 609q10 -6 15.5 -16.5t5.5 -22.5q0 -20 -14.5 -35t-34.5 -15t-34.5 15t-14.5 35q0 10 5 22l43 118h50zM262 609q10 -6 15.5 -16.5t5.5 -22.5q0 -20 -14.5 -35t-34.5 -15t-34.5 15t-14.5 35q0 10 5 22l43 118h50z" />
    <glyph glyph-name="quotedblright" unicode="&#x201d;" horiz-adv-x="319" 
d="M57 627q-10 6 -15.5 16.5t-5.5 22.5q0 20 14.5 35t34.5 15t34.5 -15t14.5 -35q0 -10 -5 -22l-43 -118h-50zM208 627q-10 6 -15.5 16.5t-5.5 22.5q0 20 14.5 35t34.5 15t34.5 -15t14.5 -35q0 -10 -5 -22l-43 -118h-50z" />
    <glyph glyph-name="quotedblbase" unicode="&#x201e;" horiz-adv-x="319" 
d="M57 -3q-10 6 -15.5 16.5t-5.5 22.5q0 20 14.5 35t34.5 15t34.5 -15t14.5 -35q0 -10 -5 -22l-43 -118h-50zM208 -3q-10 6 -15.5 16.5t-5.5 22.5q0 20 14.5 35t34.5 15t34.5 -15t14.5 -35q0 -10 -5 -22l-43 -118h-50z" />
    <glyph glyph-name="bullet" unicode="&#x2022;" horiz-adv-x="268" 
d="M57 252q-36 36 -36 88q0 51 36 87.5t88 36.5q33 0 61.5 -17t45.5 -45.5t17 -61.5q0 -52 -36.5 -88t-87.5 -36q-52 0 -88 36z" />
    <glyph glyph-name="ellipsis" unicode="&#x2026;" horiz-adv-x="561" 
d="M47.5 6.5q-14.5 14.5 -14.5 34.5t14.5 34.5t34.5 14.5t34.5 -14.5t14.5 -34.5t-14.5 -34.5t-34.5 -14.5t-34.5 14.5zM246.5 6.5q-14.5 14.5 -14.5 34.5t14.5 34.5t34.5 14.5t34.5 -14.5t14.5 -34.5t-14.5 -34.5t-34.5 -14.5t-34.5 14.5zM444.5 6.5q-14.5 14.5 -14.5 34.5
t14.5 34.5t34.5 14.5t34.5 -14.5t14.5 -34.5t-14.5 -34.5t-34.5 -14.5t-34.5 14.5z" />
    <glyph glyph-name="perthousand" unicode="&#x2030;" horiz-adv-x="1295" 
d="M120 375.5q-43 25.5 -68 68.5t-25 94t25 93.5t68 67.5t94 25t94 -25t68.5 -67.5t25.5 -93.5t-25.5 -94t-68.5 -68.5t-94 -25.5t-94 25.5zM619 709h80l-451 -708h-81zM299 452.5q35 35.5 35 85.5q0 49 -35 84t-85 35q-49 0 -84.5 -35t-35.5 -84q0 -50 35 -85.5t85 -35.5
t85 35.5zM558.5 11q-44.5 26 -70.5 70.5t-26 97.5t26 97t70.5 70t96.5 26q53 0 97.5 -26t70.5 -70t26 -97t-26 -97.5t-70.5 -70.5t-97.5 -26q-52 0 -96.5 26zM977.5 11q-44.5 26 -70.5 70.5t-26 97.5t26 97t70.5 70t97.5 26t97 -26t70 -70t26 -97t-26 -97.5t-70 -70.5
t-97 -26t-97.5 26zM745 90q37 37 37 89q0 34 -17 63t-46.5 46t-63.5 17t-63 -17t-46 -46t-17 -63t17 -63t46 -46t63 -17q53 0 90 37zM1138 70q29 17 46 46t17 63t-17 63t-46 46t-63 17t-63 -17t-46 -46t-17 -63q0 -52 37 -89t89 -37q34 0 63 17z" />
    <glyph glyph-name="guilsinglleft" unicode="&#x2039;" horiz-adv-x="236" 
d="M27 267l90 171h89l-96 -171l96 -172h-89z" />
    <glyph glyph-name="guilsinglright" unicode="&#x203a;" horiz-adv-x="236" 
d="M30 95l96 172l-96 171h89l90 -171l-90 -172h-89z" />
    <glyph glyph-name="fraction" unicode="&#x2044;" horiz-adv-x="532" 
d="M452 709h80l-452 -708h-80z" />
    <glyph glyph-name="Euro" unicode="&#x20ac;" horiz-adv-x="654" 
d="M287 17.5q-72 32.5 -124 90.5t-75 133h-71v221h70q23 75 75 133.5t124.5 91t154.5 32.5q45 0 91.5 -12t86.5 -34l-193 -613q4 -1 15 -1q57 0 113 24l25 -72q-66 -26 -138 -26q-82 0 -154 32.5zM474 462l53 168q-44 13 -86 13q-92 0 -166 -49.5t-102 -131.5h301zM428 316
l22 71h-359v-71h337zM405 241h-232q22 -60 69 -104t109 -64z" />
    <glyph glyph-name="trademark" unicode="&#x2122;" horiz-adv-x="787" 
d="M10 705h260v-52h-99v-364h-60v364h-101v52zM750 705v-416h-59v332h-2q-6 -22 -11 -36l-115 -295h-46l-114 295q-9 26 -12 36h-1v-332h-60v416h87l123 -331l122 331h88z" />
    <glyph glyph-name="minus" unicode="&#x2212;" horiz-adv-x="493" 
d="M37 391h419v-71h-419v71z" />
    <glyph glyph-name="notequal" unicode="&#x2260;" horiz-adv-x="493" 
d="M314 426l-57 -138h199v-71h-228l-68 -164h-72l68 164h-119v71h148l57 138h-205v72h235l61 148h72l-61 -148h112v-72h-142z" />
    <glyph glyph-name="lessequal" unicode="&#x2264;" horiz-adv-x="397" 
d="M357 471l-249 -104l249 -104v-87l-337 158v65l337 158v-86zM27 106h330v-72h-330v72z" />
    <glyph glyph-name="greaterequal" unicode="&#x2265;" horiz-adv-x="397" 
d="M377 399v-65l-337 -158v87l249 104l-249 104v86zM40 106h330v-72h-330v72z" />
    <glyph glyph-name="uniF8FF" unicode="&#xf8ff;" horiz-adv-x="820" 
d="M504 709l-9 7q-59 -43 -83 -53h-4q-22 10 -83 53l-8 -7q60 -69 85 -100h16q25 31 86 100zM565.5 539.5q71.5 -41.5 113 -112t41.5 -154.5q0 -85 -41.5 -156t-113 -112.5t-155.5 -41.5t-155.5 41.5t-113 112.5t-41.5 156q0 84 41.5 154.5t113 112t155.5 41.5t155.5 -41.5z
M498 86.5q40 30.5 40 87.5q0 42 -26.5 69t-77.5 58q-46 29 -68 50.5t-22 52.5q1 27 20 45t49 18q37 0 56 -25.5t34 -82.5l10 1q0 83 9 126l-9 2q-2 -7 -8 -12t-17 -5q-9 0 -31 4q-30 5 -45 5q-54 0 -84.5 -28.5t-31.5 -66.5q0 -43 25.5 -70.5t75.5 -58.5q46 -30 68 -52.5
t22 -55.5q1 -36 -21 -57t-53 -21q-37 0 -64.5 27.5t-27.5 75.5q0 29 11 52l-8 4q-40 -31 -40 -78q0 -44 35.5 -69.5t84.5 -25.5q54 0 94 30.5z" />
    <glyph glyph-name="A.ss01" horiz-adv-x="641" 
d="M321 728l308 -728h-617zM420 297l-99 235l-101 -235h200zM516 76l-64 147h-262l-64 -147h390z" />
    <glyph glyph-name="Aacute.ss01" horiz-adv-x="641" 
d="M321 728l308 -728h-617zM420 297l-99 235l-101 -235h200zM516 76l-64 147h-262l-64 -147h390zM345 949h88l-81 -162h-60z" />
    <glyph glyph-name="Abreve.ss01" horiz-adv-x="641" 
d="M321 728l308 -728h-617zM420 297l-99 235l-101 -235h200zM516 76l-64 147h-262l-64 -147h390zM248.5 817q-29.5 32 -29.5 82h53q0 -27 13.5 -42t35.5 -15t35.5 15t13.5 42h54q0 -50 -30 -82t-73 -32t-72.5 32z" />
    <glyph glyph-name="Acircumflex.ss01" horiz-adv-x="641" 
d="M321 728l308 -728h-617zM420 297l-99 235l-101 -235h200zM516 76l-64 147h-262l-64 -147h390zM293 920h56l84 -130h-70l-42 83l-44 -83h-69z" />
    <glyph glyph-name="Adieresis.ss01" horiz-adv-x="641" 
d="M321 728l308 -728h-617zM420 297l-99 235l-101 -235h200zM516 76l-64 147h-262l-64 -147h390zM221 808q-13 13 -13 31q0 19 13 31.5t31 12.5t30.5 -12.5t12.5 -31.5q0 -18 -12.5 -31t-30.5 -13t-31 13zM360 808q-13 13 -13 31q0 19 13 31.5t31 12.5t30.5 -12.5
t12.5 -31.5q0 -18 -12.5 -31t-30.5 -13t-31 13z" />
    <glyph glyph-name="Agrave.ss01" horiz-adv-x="641" 
d="M321 728l308 -728h-617zM420 297l-99 235l-101 -235h200zM516 76l-64 147h-262l-64 -147h390zM209 949h87l54 -162h-60z" />
    <glyph glyph-name="Amacron.ss01" horiz-adv-x="641" 
d="M321 728l308 -728h-617zM420 297l-99 235l-101 -235h200zM516 76l-64 147h-262l-64 -147h390zM499 869v-60h-355v60h355z" />
    <glyph glyph-name="Aogonek.ss01" horiz-adv-x="641" 
d="M578 -93v-48q-48 0 -76.5 19.5t-28.5 59.5q0 36 26 62h-487l309 728l308 -728h-58q-20 0 -33.5 -14.5t-13.5 -36.5q0 -42 54 -42zM220 297h200l-99 235zM126 76h390l-64 147h-262z" />
    <glyph glyph-name="Aring.ss01" horiz-adv-x="641" 
d="M321 728l308 -728h-617zM420 297l-99 235l-101 -235h200zM516 76l-64 147h-262l-64 -147h390zM251.5 793q-28.5 29 -28.5 70q0 40 28.5 69t69.5 29q40 0 69 -29t29 -69q0 -41 -29 -70t-69 -29q-41 0 -69.5 29zM357 826q15 15 15 37q0 21 -15 36t-36 15t-36 -15t-15 -36
q0 -22 15 -37t36 -15t36 15z" />
    <glyph glyph-name="Atilde.ss01" horiz-adv-x="641" 
d="M321 728l308 -728h-617zM420 297l-99 235l-101 -235h200zM516 76l-64 147h-262l-64 -147h390zM344.5 805q-16.5 6 -37.5 17q-18 10 -29 14.5t-23 4.5q-26 0 -43 -26l-54 36q36 55 97 55q21 -1 37 -6.5t38 -17.5q15 -9 26.5 -13.5t23.5 -4.5q9 0 24.5 6t28.5 24l52 -38
q-22 -32 -51.5 -44.5t-53.5 -12.5q-19 0 -35.5 6z" />
    <glyph glyph-name="M.ss01" horiz-adv-x="856" 
d="M88 705h680v-706h-78v1h-524v-1h-78v706zM429 100l198 530h-398l198 -530h2zM359 75l-193 509v-509h193zM690 75v509l-193 -509h193z" />
    <glyph glyph-name="N.ss01" horiz-adv-x="709" 
d="M88 705h533v-705h-533v705zM542 630h-323l323 -515v515zM486 75l-320 510v-510h320z" />
    <glyph glyph-name="Nacute.ss01" horiz-adv-x="709" 
d="M379 940h88l-81 -162h-60zM88 705h533v-705h-533v705zM542 630h-323l323 -515v515zM486 75l-320 510v-510h320z" />
    <glyph glyph-name="Ncaron.ss01" horiz-adv-x="709" 
d="M242 911h69l44 -83l42 83h70l-84 -130h-56zM88 705h533v-705h-533v705zM542 630h-323l323 -515v515zM486 75l-320 510v-510h320z" />
    <glyph glyph-name="uni0145.ss01" horiz-adv-x="709" 
d="M88 705h533v-705h-533v705zM542 630h-323l323 -515v515zM486 75l-320 510v-510h320zM327 -48h79l-65 -168h-53z" />
    <glyph glyph-name="Eng.ss01" horiz-adv-x="709" 
d="M88 705h533v-862h-175v71h97v86h-455v705zM542 115v515h-323zM486 75l-320 510v-510h320z" />
    <glyph glyph-name="Ntilde.ss01" horiz-adv-x="709" 
d="M533 860v-60h-355v60h355zM88 705h533v-705h-533v705zM542 630h-323l323 -515v515zM486 75l-320 510v-510h320z" />
    <glyph glyph-name="S.ss01" horiz-adv-x="606" 
d="M513.5 321q44.5 -53 44.5 -122v-9q0 -52 -25.5 -95.5t-69.5 -69t-96 -25.5h-309v322h146q-67 12 -111.5 65t-44.5 122v9q0 52 25.5 95.5t69 69t95.5 25.5h286v-322h-123q68 -12 112.5 -65zM262 634h-24q-48 0 -82 -34t-34 -82v-9q0 -48 34 -82.5t82 -34.5h24v242z
M342 460h108v174h-108v-174zM484 199q0 48 -34 82t-83 34h-25v-241h25q49 0 83 34t34 82v9zM262 248h-130v-174h130v174z" />
    <glyph glyph-name="Sacute.ss01" horiz-adv-x="606" 
d="M347 940h88l-81 -162h-60zM513.5 321q44.5 -53 44.5 -122v-9q0 -52 -25.5 -95.5t-69.5 -69t-96 -25.5h-309v322h146q-67 12 -111.5 65t-44.5 122v9q0 52 25.5 95.5t69 69t95.5 25.5h286v-322h-123q68 -12 112.5 -65zM262 634h-24q-48 0 -82 -34t-34 -82v-9
q0 -48 34 -82.5t82 -34.5h24v242zM342 460h108v174h-108v-174zM484 199q0 48 -34 82t-83 34h-25v-241h25q49 0 83 34t34 82v9zM262 248h-130v-174h130v174z" />
    <glyph glyph-name="Scaron.ss01" horiz-adv-x="606" 
d="M210 911h69l44 -83l42 83h70l-84 -130h-56zM513.5 321q44.5 -53 44.5 -122v-9q0 -52 -25.5 -95.5t-69.5 -69t-96 -25.5h-309v322h146q-67 12 -111.5 65t-44.5 122v9q0 52 25.5 95.5t69 69t95.5 25.5h286v-322h-123q68 -12 112.5 -65zM262 634h-24q-48 0 -82 -34t-34 -82
v-9q0 -48 34 -82.5t82 -34.5h24v242zM342 460h108v174h-108v-174zM484 199q0 48 -34 82t-83 34h-25v-241h25q49 0 83 34t34 82v9zM262 248h-130v-174h130v174z" />
    <glyph glyph-name="Scedilla.ss01" horiz-adv-x="606" 
d="M513.5 321q44.5 -53 44.5 -122v-9q0 -52 -25.5 -95.5t-69.5 -69t-96 -25.5h-36q48 -17 48 -68q0 -44 -27 -64t-74 -20v51q22 0 35 10.5t13 30.5q0 16 -11.5 26t-30.5 10v24h-226v322h146q-67 12 -111.5 65t-44.5 122v9q0 52 25.5 95.5t69 69t95.5 25.5h286v-322h-123
q68 -12 112.5 -65zM262 634h-24q-48 0 -82 -34t-34 -82v-9q0 -48 34 -82.5t82 -34.5h24v242zM342 460h108v174h-108v-174zM484 199q0 48 -34 82t-83 34h-25v-241h25q49 0 83 34t34 82v9zM262 248h-130v-174h130v174z" />
    <glyph glyph-name="Scircumflex.ss01" horiz-adv-x="606" 
d="M295 911h56l84 -130h-70l-42 83l-44 -83h-69zM513.5 321q44.5 -53 44.5 -122v-9q0 -52 -25.5 -95.5t-69.5 -69t-96 -25.5h-309v322h146q-67 12 -111.5 65t-44.5 122v9q0 52 25.5 95.5t69 69t95.5 25.5h286v-322h-123q68 -12 112.5 -65zM262 634h-24q-48 0 -82 -34
t-34 -82v-9q0 -48 34 -82.5t82 -34.5h24v242zM342 460h108v174h-108v-174zM484 199q0 48 -34 82t-83 34h-25v-241h25q49 0 83 34t34 82v9zM262 248h-130v-174h130v174z" />
    <glyph glyph-name="uni0218.ss01" horiz-adv-x="606" 
d="M513.5 321q44.5 -53 44.5 -122v-9q0 -52 -25.5 -95.5t-69.5 -69t-96 -25.5h-309v322h146q-67 12 -111.5 65t-44.5 122v9q0 52 25.5 95.5t69 69t95.5 25.5h286v-322h-123q68 -12 112.5 -65zM262 634h-24q-48 0 -82 -34t-34 -82v-9q0 -48 34 -82.5t82 -34.5h24v242z
M342 460h108v174h-108v-174zM484 199q0 48 -34 82t-83 34h-25v-241h25q49 0 83 34t34 82v9zM262 248h-130v-174h130v174zM275 -36h79l-65 -168h-53z" />
    <glyph glyph-name="W.ss01" horiz-adv-x="906" 
d="M5 708h896l-294 -708h-69l-85 204l-85 -204h-69zM413 300l-139 334h-159l219 -525zM552 634h-198l99 -238zM790 634h-158l-139 -334l79 -191z" />
    <glyph glyph-name="Wacute.ss01" horiz-adv-x="906" 
d="M477 948h88l-81 -162h-60zM5 708h896l-294 -708h-69l-85 204l-85 -204h-69zM413 300l-139 334h-159l219 -525zM552 634h-198l99 -238zM790 634h-158l-139 -334l79 -191z" />
    <glyph glyph-name="Wcircumflex.ss01" horiz-adv-x="906" 
d="M425 919h56l84 -130h-70l-42 83l-44 -83h-69zM5 708h896l-294 -708h-69l-85 204l-85 -204h-69zM413 300l-139 334h-159l219 -525zM552 634h-198l99 -238zM790 634h-158l-139 -334l79 -191z" />
    <glyph glyph-name="Wdieresis.ss01" horiz-adv-x="906" 
d="M353 807q-13 13 -13 31q0 19 13 31.5t31 12.5t30.5 -12.5t12.5 -31.5q0 -18 -12.5 -31t-30.5 -13t-31 13zM492 807q-13 13 -13 31q0 19 13 31.5t31 12.5t30.5 -12.5t12.5 -31.5q0 -18 -12.5 -31t-30.5 -13t-31 13zM5 708h896l-294 -708h-69l-85 204l-85 -204h-69z
M413 300l-139 334h-159l219 -525zM552 634h-198l99 -238zM790 634h-158l-139 -334l79 -191z" />
    <glyph glyph-name="Wgrave.ss01" horiz-adv-x="906" 
d="M341 948h87l54 -162h-60zM5 708h896l-294 -708h-69l-85 204l-85 -204h-69zM413 300l-139 334h-159l219 -525zM552 634h-198l99 -238zM790 634h-158l-139 -334l79 -191z" />
    <glyph glyph-name="X.ss01" horiz-adv-x="580" 
d="M248 359l-223 346h529l-222 -346l235 -359h-554zM415 630h-251l126 -203zM427 75l-137 217l-137 -217h274z" />
    <glyph glyph-name="Y.ss01" horiz-adv-x="583" 
d="M252 283l-246 422h571l-246 -422v-283h-79v283zM445 632h-308l154 -265z" />
    <glyph glyph-name="Yacute.ss01" horiz-adv-x="583" 
d="M316 940h88l-81 -162h-60zM252 283l-246 422h571l-246 -422v-283h-79v283zM445 632h-308l154 -265z" />
    <glyph glyph-name="Ycircumflex.ss01" horiz-adv-x="583" 
d="M264 911h56l84 -130h-70l-42 83l-44 -83h-69zM252 283l-246 422h571l-246 -422v-283h-79v283zM445 632h-308l154 -265z" />
    <glyph glyph-name="Ydieresis.ss01" horiz-adv-x="583" 
d="M192 799q-13 13 -13 31q0 19 13 31.5t31 12.5t30.5 -12.5t12.5 -31.5q0 -18 -12.5 -31t-30.5 -13t-31 13zM331 799q-13 13 -13 31q0 19 13 31.5t31 12.5t30.5 -12.5t12.5 -31.5q0 -18 -12.5 -31t-30.5 -13t-31 13zM252 283l-246 422h571l-246 -422v-283h-79v283zM445 632
h-308l154 -265z" />
    <glyph glyph-name="Ygrave.ss01" horiz-adv-x="583" 
d="M180 940h87l54 -162h-60zM252 283l-246 422h571l-246 -422v-283h-79v283zM445 632h-308l154 -265z" />
    <glyph glyph-name="Z.ss01" horiz-adv-x="661" 
d="M88 705h485v-705h-485v705zM470 630h-309v-449zM499 75v457l-315 -457h315z" />
    <glyph glyph-name="Zacute.ss01" horiz-adv-x="661" 
d="M355 940h88l-81 -162h-60zM88 705h485v-705h-485v705zM470 630h-309v-449zM499 75v457l-315 -457h315z" />
    <glyph glyph-name="Zcaron.ss01" horiz-adv-x="661" 
d="M218 911h69l44 -83l42 83h70l-84 -130h-56zM88 705h485v-705h-485v705zM470 630h-309v-449zM499 75v457l-315 -457h315z" />
    <glyph glyph-name="Zdotaccent.ss01" horiz-adv-x="661" 
d="M296.5 814.5q-14.5 14.5 -14.5 34.5t14.5 34.5t34.5 14.5t34.5 -14.5t14.5 -34.5t-14.5 -34.5t-34.5 -14.5t-34.5 14.5zM88 705h485v-705h-485v705zM470 630h-309v-449zM499 75v457l-315 -457h315z" />
    <glyph glyph-name="S.ss02" horiz-adv-x="579" 
d="M498.5 107q-32.5 -56 -88 -88.5t-121.5 -32.5q-91 0 -155 56t-86 157l110 105q-47 31 -75 83t-28 108q0 62 31 113.5t83.5 81t114.5 29.5q83 0 141.5 -46t84.5 -134l-103 -99q59 -34 91.5 -89.5t32.5 -122.5q0 -65 -32.5 -121zM424 560q-18 39 -56 61t-84 22
q-42 0 -77 -19.5t-55.5 -53.5t-20.5 -75q0 -44 22 -80.5t61 -56.5zM372.5 83.5q38.5 22.5 61 61t22.5 83.5q0 52 -29.5 95t-77.5 61l-218 -210q17 -50 60.5 -81.5t97.5 -31.5q45 0 83.5 22.5z" />
    <glyph glyph-name="Sacute.ss02" horiz-adv-x="579" 
d="M498.5 107q-32.5 -56 -88 -88.5t-121.5 -32.5q-91 0 -155 56t-86 157l110 105q-47 31 -75 83t-28 108q0 62 31 113.5t83.5 81t114.5 29.5q83 0 141.5 -46t84.5 -134l-103 -99q59 -34 91.5 -89.5t32.5 -122.5q0 -65 -32.5 -121zM424 560q-18 39 -56 61t-84 22
q-42 0 -77 -19.5t-55.5 -53.5t-20.5 -75q0 -44 22 -80.5t61 -56.5zM372.5 83.5q38.5 22.5 61 61t22.5 83.5q0 52 -29.5 95t-77.5 61l-218 -210q17 -50 60.5 -81.5t97.5 -31.5q45 0 83.5 22.5zM314 934h88l-81 -162h-60z" />
    <glyph glyph-name="Scaron.ss02" horiz-adv-x="579" 
d="M498.5 107q-32.5 -56 -88 -88.5t-121.5 -32.5q-91 0 -155 56t-86 157l110 105q-47 31 -75 83t-28 108q0 62 31 113.5t83.5 81t114.5 29.5q83 0 141.5 -46t84.5 -134l-103 -99q59 -34 91.5 -89.5t32.5 -122.5q0 -65 -32.5 -121zM424 560q-18 39 -56 61t-84 22
q-42 0 -77 -19.5t-55.5 -53.5t-20.5 -75q0 -44 22 -80.5t61 -56.5zM372.5 83.5q38.5 22.5 61 61t22.5 83.5q0 52 -29.5 95t-77.5 61l-218 -210q17 -50 60.5 -81.5t97.5 -31.5q45 0 83.5 22.5zM177 905h69l44 -83l42 83h70l-84 -130h-56z" />
    <glyph glyph-name="Scedilla.ss02" horiz-adv-x="579" 
d="M503 115q-28 -52 -76.5 -86t-107.5 -41q47 -17 47 -68q0 -44 -27 -64t-74 -20v51q22 0 35 10.5t13 30.5q0 16 -11.5 26t-30.5 10v23q-84 5 -143 61t-80 151l110 105q-47 31 -75 83t-28 108q0 62 31 113.5t83.5 81t114.5 29.5q83 0 141.5 -46t84.5 -134l-103 -99
q59 -34 91.5 -89.5t32.5 -122.5q0 -61 -28 -113zM153 414.5q22 -36.5 61 -56.5l210 202q-18 39 -56 61t-84 22q-42 0 -77 -19.5t-55.5 -53.5t-20.5 -75q0 -44 22 -80.5zM372.5 83.5q38.5 22.5 61 61t22.5 83.5q0 52 -29.5 95t-77.5 61l-218 -210q17 -50 60.5 -81.5
t97.5 -31.5q45 0 83.5 22.5z" />
    <glyph glyph-name="Scircumflex.ss02" horiz-adv-x="579" 
d="M498.5 107q-32.5 -56 -88 -88.5t-121.5 -32.5q-91 0 -155 56t-86 157l110 105q-47 31 -75 83t-28 108q0 62 31 113.5t83.5 81t114.5 29.5q83 0 141.5 -46t84.5 -134l-103 -99q59 -34 91.5 -89.5t32.5 -122.5q0 -65 -32.5 -121zM424 560q-18 39 -56 61t-84 22
q-42 0 -77 -19.5t-55.5 -53.5t-20.5 -75q0 -44 22 -80.5t61 -56.5zM372.5 83.5q38.5 22.5 61 61t22.5 83.5q0 52 -29.5 95t-77.5 61l-218 -210q17 -50 60.5 -81.5t97.5 -31.5q45 0 83.5 22.5zM262 905h56l84 -130h-70l-42 83l-44 -83h-69z" />
    <glyph glyph-name="uni0218.ss02" horiz-adv-x="579" 
d="M498.5 107q-32.5 -56 -88 -88.5t-121.5 -32.5q-91 0 -155 56t-86 157l110 105q-47 31 -75 83t-28 108q0 62 31 113.5t83.5 81t114.5 29.5q83 0 141.5 -46t84.5 -134l-103 -99q59 -34 91.5 -89.5t32.5 -122.5q0 -65 -32.5 -121zM424 560q-18 39 -56 61t-84 22
q-42 0 -77 -19.5t-55.5 -53.5t-20.5 -75q0 -44 22 -80.5t61 -56.5zM372.5 83.5q38.5 22.5 61 61t22.5 83.5q0 52 -29.5 95t-77.5 61l-218 -210q17 -50 60.5 -81.5t97.5 -31.5q45 0 83.5 22.5zM262 -48h79l-65 -168h-53z" />
    <glyph glyph-name="Z.ss02" horiz-adv-x="681" 
d="M193 392h-156v316h614l-162 -389h162v-319h-621zM223 465l70 169h-182v-169h112zM308 74l233 560h-168l-233 -560h168zM577 74v171h-118l-71 -171h189z" />
    <glyph glyph-name="Zacute.ss02" horiz-adv-x="681" 
d="M380 940h88l-81 -162h-60zM193 392h-156v316h614l-162 -389h162v-319h-621zM223 465l70 169h-182v-169h112zM308 74l233 560h-168l-233 -560h168zM577 74v171h-118l-71 -171h189z" />
    <glyph glyph-name="Zcaron.ss02" horiz-adv-x="681" 
d="M243 911h69l44 -83l42 83h70l-84 -130h-56zM193 392h-156v316h614l-162 -389h162v-319h-621zM223 465l70 169h-182v-169h112zM308 74l233 560h-168l-233 -560h168zM577 74v171h-118l-71 -171h189z" />
    <glyph glyph-name="Zdotaccent.ss02" horiz-adv-x="681" 
d="M321.5 814.5q-14.5 14.5 -14.5 34.5t14.5 34.5t34.5 14.5t34.5 -14.5t14.5 -34.5t-14.5 -34.5t-34.5 -14.5t-34.5 14.5zM193 392h-156v316h614l-162 -389h162v-319h-621zM223 465l70 169h-182v-169h112zM308 74l233 560h-168l-233 -560h168zM577 74v171h-118l-71 -171
h189z" />
    <glyph glyph-name="i.loclTRK" horiz-adv-x="255" 
d="M93.5 819.5q-14.5 14.5 -14.5 34.5t14.5 34.5t34.5 14.5t34.5 -14.5t14.5 -34.5t-14.5 -34.5t-34.5 -14.5t-34.5 14.5zM88 704h79v-704h-79v704z" />
    <glyph glyph-name="g.ss01" horiz-adv-x="830" 
d="M780 16h-74v133q-51 -69 -129 -109t-167 -40q-100 0 -185 50t-135 135t-50 185t50 185t135 135t185 50v-74q-74 0 -138 -34t-105.5 -93.5t-50.5 -131.5h664v-391zM548 108q64 34 105.5 93.5t50.5 131.5h-588q9 -72 50.5 -131.5t105.5 -93.5t138 -34t138 34z" />
    <glyph glyph-name="gbreve.ss01" horiz-adv-x="830" 
d="M338.5 833q-29.5 32 -29.5 82h53q0 -27 13.5 -42t35.5 -15t35.5 15t13.5 42h54q0 -50 -30 -82t-73 -32t-72.5 32zM780 16h-74v133q-51 -69 -129 -109t-167 -40q-100 0 -185 50t-135 135t-50 185t50 185t135 135t185 50v-74q-74 0 -138 -34t-105.5 -93.5t-50.5 -131.5h664
v-391zM548 108q64 34 105.5 93.5t50.5 131.5h-588q9 -72 50.5 -131.5t105.5 -93.5t138 -34t138 34z" />
    <glyph glyph-name="gcircumflex.ss01" horiz-adv-x="830" 
d="M383 936h56l84 -130h-70l-42 83l-44 -83h-69zM780 16h-74v133q-51 -69 -129 -109t-167 -40q-100 0 -185 50t-135 135t-50 185t50 185t135 135t185 50v-74q-74 0 -138 -34t-105.5 -93.5t-50.5 -131.5h664v-391zM548 108q64 34 105.5 93.5t50.5 131.5h-588
q9 -72 50.5 -131.5t105.5 -93.5t138 -34t138 34z" />
    <glyph glyph-name="uni0123.ss01" horiz-adv-x="830" 
d="M780 16h-74v133q-51 -69 -129 -109t-167 -40q-100 0 -185 50t-135 135t-50 185t50 185t135 135t185 50v-74q-74 0 -138 -34t-105.5 -93.5t-50.5 -131.5h664v-391zM548 108q64 34 105.5 93.5t50.5 131.5h-588q9 -72 50.5 -131.5t105.5 -93.5t138 -34t138 34zM386 -48h79
l-65 -168h-53z" />
    <glyph glyph-name="gdotaccent.ss01" horiz-adv-x="830" 
d="M376.5 839.5q-14.5 14.5 -14.5 34.5t14.5 34.5t34.5 14.5t34.5 -14.5t14.5 -34.5t-14.5 -34.5t-34.5 -14.5t-34.5 14.5zM780 16h-74v133q-51 -69 -129 -109t-167 -40q-100 0 -185 50t-135 135t-50 185t50 185t135 135t185 50v-74q-74 0 -138 -34t-105.5 -93.5
t-50.5 -131.5h664v-391zM548 108q64 34 105.5 93.5t50.5 131.5h-588q9 -72 50.5 -131.5t105.5 -93.5t138 -34t138 34z" />
    <glyph glyph-name="l.ss01" horiz-adv-x="547" 
d="M88 705h77v-631h322v-75h-399v706z" />
    <glyph glyph-name="t.ss01" horiz-adv-x="565" 
d="M244 632h-184v73h445v-73h-182v-633h-79v633z" />
    <glyph glyph-name="tcaron.ss01" horiz-adv-x="565" 
d="M170 907h69l44 -83l42 83h70l-84 -130h-56zM244 632h-184v73h445v-73h-182v-633h-79v633z" />
    <glyph glyph-name="uni021B.ss01" horiz-adv-x="565" 
d="M244 632h-184v73h445v-73h-182v-633h-79v633zM246 -48h79l-65 -168h-53z" />
    <glyph glyph-name="zero.ss01" horiz-adv-x="811" 
d="M221 34.5q-85 49.5 -135 133.5t-50 184q0 101 49.5 185.5t134.5 133.5t186 49q100 0 185 -49t134.5 -133.5t49.5 -185.5q0 -100 -49.5 -184t-134.5 -133.5t-185 -49.5t-185 49.5zM552 99q67 39 106 106t39 147q0 81 -39 148t-106 106t-146 39t-146 -39t-106 -106
t-39 -148q0 -80 39 -147t106 -106t146 -39t146 39z" />
    <glyph glyph-name="one.ss01" horiz-adv-x="280" 
d="M118 630h-101v75h178v-705h-77v630z" />
    <glyph glyph-name="two.ss01" horiz-adv-x="519" 
d="M32 87l282 271q39 37 58.5 72t19.5 77q0 37 -19 69t-51.5 50.5t-71.5 18.5q-62 0 -100.5 -40.5t-38.5 -101.5h-79q0 60 28 109.5t78.5 78.5t115.5 29q62 0 111.5 -29t77.5 -77.5t28 -105.5q1 -59 -25 -108.5t-77 -97.5l-235 -222v-5h342v-75h-444v87z" />
    <glyph glyph-name="three.ss01" horiz-adv-x="538" 
d="M141.5 18q-55.5 33 -88 88t-32.5 120h79q0 -46 21.5 -84t59 -60t84.5 -22q46 0 83.5 22.5t58.5 61t21 84.5q0 47 -23 84.5t-62 58.5t-86 21h-102l174 238h-246v75h381l-179 -242v-3h10q58 -4 106.5 -37t76.5 -84.5t28 -110.5q0 -66 -32.5 -122t-88.5 -88.5t-121 -32.5
q-67 0 -122.5 33z" />
    <glyph glyph-name="four.ss01" horiz-adv-x="545" 
d="M369 142h-352v62l331 501h100v-491h66v-72h-66v-142h-79v142zM371 214v387h-5l-256 -387h261z" />
    <glyph glyph-name="five.ss01" horiz-adv-x="551" 
d="M144.5 18q-56.5 33 -89.5 89t-33 123h79q0 -47 22 -86t61 -61.5t86 -22.5q46 0 84.5 22.5t61 61t22.5 84.5t-19.5 84.5t-55.5 61.5t-82 23q-88 0 -129 -44h-90l96 352h298v-75h-240l-54 -198h7q22 18 51.5 27t74.5 9q64 0 115 -32.5t79 -87.5t28 -120q0 -67 -33 -123
t-89.5 -88t-125.5 -32q-68 0 -124.5 33z" />
    <glyph glyph-name="six.ss01" horiz-adv-x="560" 
d="M154 19q-58 34 -92 91t-34 124q0 74 41 137l212 334h93l-159 -247l4 -2q36 21 80 21q64 0 117.5 -33.5t84.5 -89.5t31 -120q0 -67 -34.5 -124t-92.5 -91t-125 -34q-68 0 -126 34zM366.5 83.5q39.5 23.5 63 63t23.5 86.5q0 48 -23 88t-63 63t-88 23t-87 -23t-62 -63
t-23 -88q0 -47 23 -86.5t62 -63t87 -23.5t87.5 23.5z" />
    <glyph glyph-name="seven.ss01" horiz-adv-x="465" 
d="M336 627v3h-305v75h429l-341 -705h-88z" />
    <glyph glyph-name="eight.ss01" horiz-adv-x="539" 
d="M150.5 16.5q-54.5 31.5 -86.5 86t-32 118.5q0 65 41 122t99 81q-30 17 -52 52.5t-22 72.5q0 47 23.5 86t63 62t85.5 23t85.5 -23t62.5 -62t23 -86q0 -37 -21 -71.5t-53 -53.5q59 -25 99.5 -81.5t40.5 -121.5q0 -64 -32 -118.5t-86.5 -86t-118.5 -31.5q-65 0 -119.5 31.5z
M338.5 475.5q28.5 28.5 28.5 70.5t-28.5 70.5t-68.5 28.5q-41 0 -69.5 -28.5t-28.5 -70.5t28.5 -70.5t69.5 -28.5q40 0 68.5 28.5zM349.5 81q36.5 21 58 57.5t21.5 80.5q0 45 -21.5 81.5t-58 57.5t-79.5 21t-79.5 -21t-58 -57.5t-21.5 -81.5q0 -44 21.5 -80.5t58 -57.5
t79.5 -21t79.5 21z" />
    <glyph glyph-name="nine.ss01" horiz-adv-x="560" 
d="M406 686q58 -34 92 -91t34 -124q0 -74 -41 -137l-212 -334h-93l159 247l-4 2q-36 -21 -80 -21q-64 0 -117.5 33.5t-84.5 89.5t-31 120q0 67 34.5 124t92.5 91t125 34q68 0 126 -34zM193.5 621.5q-39.5 -23.5 -63 -63t-23.5 -86.5q0 -48 23 -88t63 -63t88 -23t87 23t62 63
t23 88q0 47 -23 86.5t-62 63t-87 23.5t-87.5 -23.5z" />
    <glyph glyph-name="exclam.ss01" horiz-adv-x="259" 
d="M91 698h78v-530h-78v530zM95 -0.5q-14 14.5 -14 34.5t14 34.5t34 14.5q21 0 35.5 -14.5t14.5 -34.5t-14.5 -34.5t-35.5 -14.5q-20 0 -34 14.5z" />
    <glyph glyph-name="exclamdown.ss01" horiz-adv-x="259" 
d="M164.5 703.5q14.5 -14.5 14.5 -34.5t-14.5 -34.5t-35.5 -14.5q-20 0 -34 14.5t-14 34.5t14 34.5t34 14.5q21 0 35.5 -14.5zM169 535v-530h-78v530h78z" />
    <glyph glyph-name="question.ss01" horiz-adv-x="481" 
d="M176 215q0 45 17 76.5t39.5 50.5t60.5 44q44 30 65 56t21 70q0 54 -40.5 90t-99.5 36q-60 0 -100 -33.5t-40 -86.5h-78q0 56 27.5 101t77.5 71t113 26t113 -26.5t78 -72t28 -101.5q0 -50 -18 -85t-41.5 -55t-64.5 -47t-60 -52t-19 -65v-42h-79v45zM180.5 3.5
q-14.5 14.5 -14.5 34.5t14.5 34.5t34.5 14.5q21 0 35 -14.5t14 -34.5t-14 -34.5t-35 -14.5q-20 0 -34.5 14.5z" />
    <glyph glyph-name="questiondown.ss01" horiz-adv-x="481" 
d="M300.5 703.5q14.5 -14.5 14.5 -34.5t-14.5 -34.5t-34.5 -14.5q-21 0 -35 14.5t-14 34.5t14 34.5t35 14.5q20 0 34.5 -14.5zM305 492q0 -45 -17 -76.5t-39.5 -50.5t-60.5 -44q-44 -30 -65 -56t-21 -70q0 -54 40.5 -90t99.5 -36q60 0 100 33.5t40 86.5h78q0 -56 -27.5 -101
t-77.5 -71t-113 -26t-113 26.5t-78 72t-28 101.5q0 50 18 85t41.5 55t64.5 47t60 52t19 65v42h79v-45z" />
    <glyph glyph-name="parenleft.ss01" horiz-adv-x="283" 
d="M65.5 67.5q-28.5 118.5 -28.5 245.5q0 126 28.5 244t83.5 208h86q-59 -87 -89.5 -206t-30.5 -247q0 -129 31 -248t90 -205h-87q-55 90 -83.5 208.5z" />
    <glyph glyph-name="parenright.ss01" horiz-adv-x="283" 
d="M47 -141q59 86 90 205t31 248q0 128 -30.5 247t-89.5 206h86q55 -90 83.5 -208t28.5 -244q0 -127 -28.5 -245.5t-83.5 -208.5h-87z" />
    <glyph glyph-name="braceleft.ss01" horiz-adv-x="290" 
d="M127 -128.5q-28 27.5 -28 67.5v305q0 11 -8 19t-19 8h-32v70h31q11 0 19 8.5t8 19.5v305q0 39 27.5 66.5t67.5 27.5h40v-70h-39q-11 0 -18.5 -7.5t-7.5 -18.5v-309q0 -16 -6.5 -31.5t-18.5 -24.5q13 -9 20 -25t7 -33v-309q0 -11 8 -18.5t18 -7.5h37v-70h-39
q-39 0 -67 27.5z" />
    <glyph glyph-name="braceright.ss01" horiz-adv-x="290" 
d="M57 -156v70h37q11 0 18.5 7.5t7.5 18.5v309q0 17 7 33t20 25q-12 9 -18.5 24.5t-6.5 31.5v309q0 11 -7.5 18.5t-18.5 7.5h-39v70h40q40 0 67.5 -27.5t27.5 -66.5v-305q0 -11 8 -19.5t19 -8.5h31v-70h-32q-11 0 -19 -8t-8 -19v-305q0 -40 -28 -67.5t-67 -27.5h-39z" />
    <glyph glyph-name="bracketleft.ss01" horiz-adv-x="302" 
d="M258 -151h-177v909h177v-72h-99v-765h99v-72z" />
    <glyph glyph-name="bracketright.ss01" horiz-adv-x="302" 
d="M143 -79v765h-99v72h177v-909h-177v72h99z" />
    <glyph glyph-name="dollar.ss01" horiz-adv-x="559" 
d="M239 -12q-83 10 -133.5 66t-50.5 133h79q0 -56 42 -92t119 -36q65 0 101.5 37t36.5 95q0 42 -21 68t-55 41t-89 30q-69 20 -110 37.5t-72 55.5t-31 102q0 76 51.5 126.5t132.5 63.5v61h79v-61q54 -7 98 -34t69.5 -68.5t25.5 -89.5h-78q0 34 -20.5 62t-54.5 44t-75 16
q-65 0 -107.5 -30t-42.5 -87q0 -39 20 -62t50.5 -35.5t88.5 -28.5q68 -19 113 -40.5t75.5 -63t30.5 -107.5q0 -80 -49.5 -134.5t-143.5 -66.5v-66h-79v64z" />
    <glyph glyph-name="Euro.ss01" horiz-adv-x="656" 
d="M162.5 577.5q51.5 66.5 128 104.5t164.5 38q90 0 166 -38l-28 -72q-65 35 -138 35q-66 0 -124.5 -27.5t-98.5 -77t-53 -112.5h355l-19 -57h-351v-18q0 -18 1 -27h335l-18 -56h-302q15 -62 55.5 -110t97.5 -74t122 -26q59 0 113 23l25 -72q-66 -26 -138 -26q-86 0 -161 37
t-127 102t-71 146h-79v56h70q-2 18 -2 27q0 13 1 18h-69v57h77q17 83 68.5 149.5z" />
    <glyph glyph-name="sterling.ss01" horiz-adv-x="499" 
d="M27 77q53 26 106.5 75.5t56.5 87.5h-121v66h105q-11 22 -45 58q-38 42 -58.5 76.5t-20.5 86.5q0 54 27 98t73 69.5t100 25.5h10q53 0 97 -27t69 -72.5t25 -99.5h-70q0 51 -34.5 88t-86.5 37h-10q-55 0 -92 -31.5t-37 -82.5q0 -39 18.5 -68.5t55.5 -69.5q27 -28 41.5 -47
t21.5 -41h113v-66h-106q-4 -44 -40.5 -89t-75.5 -76v-2h302v-73h-424v77z" />
    <glyph glyph-name="yen.ss01" horiz-adv-x="639" 
d="M280 246h-243v60h243v59h-243v60h208l-196 280h89l181 -264l180 264h89l-195 -280h209v-60h-245v-59h245v-60h-245v-246h-77v246z" />
    <glyph glyph-name="at.ss01" horiz-adv-x="811" 
d="M211.5 40q-82.5 49 -130.5 133t-48 183t48.5 183t130.5 133t178 49q97 0 179 -49t130 -133t48 -183v-84q0 -48 -33.5 -81.5t-81.5 -33.5q-28 0 -52.5 13t-38.5 31t-14 31h-4q-20 -35 -57.5 -55t-77.5 -20q-54 0 -100 27t-73 73t-27 101q0 54 27 100t73 73t100 27
q55 0 101 -27t73 -73t27 -100v-87q0 -19 13 -32t31 -13q19 0 32 13t13 32v85q0 84 -39 151.5t-105 105.5t-144 38t-143.5 -38.5t-104.5 -105.5t-39 -151q0 -82 39 -149.5t105 -106.5t143 -39v-70q-96 0 -178.5 49zM458 237.5q32 18.5 51 50.5t19 70t-19 70t-51 50.5
t-70 18.5q-37 0 -69 -18.5t-51 -50.5t-19 -70t19 -70t51 -50.5t69 -18.5q38 0 70 18.5z" />
    <glyph glyph-name="ampersand.ss01" horiz-adv-x="615" 
d="M132 16q-45 26 -71 71t-26 98q0 57 28 102t73 74l65 43l-37 38q-49 53 -49 119q0 42 22.5 78t60 57.5t80.5 21.5q42 0 80 -21.5t60.5 -57.5t22.5 -78q0 -46 -21 -82t-56 -59l-42 -28l108 -113l70 115h94l-108 -173l109 -114v-107l-150 154l-31 -53q-33 -55 -82 -83
t-102 -28t-98 26zM322 486q40 27 40 75q0 31 -25.5 54t-58.5 23t-58 -23t-25 -54q0 -36 26 -64l46 -48zM296 79q27 14 52 59l40 74l-136 137l-76 -54q-31 -22 -48.5 -47.5t-17.5 -62.5q0 -33 17 -60.5t45 -43.5t58 -16q39 0 66 14z" />
    <glyph glyph-name="ampersand.ss02" horiz-adv-x="609" 
d="M166.5 19q-56.5 34 -89 90.5t-32.5 124.5q0 74 43.5 132t110.5 80q-26 19 -41 49.5t-15 63.5q0 44 21.5 81t58.5 58.5t81 21.5q45 0 82 -22t58 -59.5t21 -83.5h-74q0 39 -25 64.5t-61 25.5q-37 0 -62.5 -25.5t-25.5 -60.5t25 -60.5t61 -25.5h23v-74h-31q-47 0 -86.5 -22
t-62.5 -60.5t-23 -85.5t22 -86t60.5 -62t85.5 -23q48 0 86.5 23t61 63t22.5 91h-84v65h239v-65h-76q0 -71 -33.5 -128.5t-90.5 -90.5t-125 -33t-124.5 34z" />
    </font>
</defs>
</svg>
