<?xml version="1.0" standalone="no"?>
<!DOCTYPE svg PUBLIC "-//W3C//DTD SVG 1.1//EN" "http://www.w3.org/Graphics/SVG/1.1/DTD/svg11.dtd" >
<svg xmlns="http://www.w3.org/2000/svg" xmlns:xlink="http://www.w3.org/1999/xlink" version="1.1">
<metadata>
Created by FontForge 20200427 at Tue Oct 30 04:28:30 2018
 By www
Copyright (c) 2018 by Designed by Alex Trochut and produced by Ale Paul for Sudtipos. All rights reserved.
</metadata>
<defs>
<font id="Dystopian-Regular" horiz-adv-x="531" >
  <font-face 
    font-family="Dystopian"
    font-weight="400"
    font-stretch="normal"
    units-per-em="1000"
    panose-1="0 0 5 0 0 0 0 0 0 0"
    ascent="844"
    descent="-156"
    x-height="549"
    cap-height="704"
    bbox="-372 -216 1268 957"
    underline-thickness="50"
    underline-position="-100"
    unicode-range="U+0020-FB02"
  />
<missing-glyph horiz-adv-x="500" 
d="M410 -156h-317v1000h317v-1000zM168 777v-33h65v-37h-66v-33h166v33h-66v37h66v33h-165zM167 648v-104h166v34h-66v70h-100zM233 578h-33v36h33v-36zM167 517v-33h66v-37h-66v-33h100v70h66v33h-166zM300 457v-66h-133v-34h166v100h-33zM233 335v-56h34v23h33v-47h-100
v80h-33v-113h166v113h-100zM167 162v-113h166v113h-166zM300 82h-100v47h100v-47zM167 26v-33h70l-70 -47v-33h166v33h-102l70 47h32v33h-166z" />
    <glyph glyph-name="fi" unicode="fi" horiz-adv-x="544" 
d="M71 705h240v-75h-162v-221h151v-74h-151v-335h-78v705zM399.5 669.5q-14.5 14.5 -14.5 34.5t14.5 34.5t34.5 14.5t34.5 -14.5t14.5 -34.5t-14.5 -34.5t-34.5 -14.5t-34.5 14.5zM395 550h78v-549h-78v549z" />
    <glyph glyph-name="fl" unicode="fl" horiz-adv-x="537" 
d="M71 705h240v-75h-162v-221h151v-74h-151v-335h-78v705zM389 705h78v-705h-78v705z" />
    <glyph glyph-name=".notdef" horiz-adv-x="500" 
d="M410 -156h-317v1000h317v-1000zM168 777v-33h65v-37h-66v-33h166v33h-66v37h66v33h-165zM167 648v-104h166v34h-66v70h-100zM233 578h-33v36h33v-36zM167 517v-33h66v-37h-66v-33h100v70h66v33h-166zM300 457v-66h-133v-34h166v100h-33zM233 335v-56h34v23h33v-47h-100
v80h-33v-113h166v113h-100zM167 162v-113h166v113h-166zM300 82h-100v47h100v-47zM167 26v-33h70l-70 -47v-33h166v33h-102l70 47h32v33h-166z" />
    <glyph glyph-name=".null" horiz-adv-x="0" 
 />
    <glyph glyph-name="nonmarkingreturn" horiz-adv-x="333" 
 />
    <glyph glyph-name="space" unicode=" " horiz-adv-x="215" 
 />
    <glyph glyph-name="exclam" unicode="!" horiz-adv-x="256" 
d="M91 705h78v-530h-78v530zM95 6.5q-14 14.5 -14 34.5t14 34.5t34 14.5q21 0 35.5 -14.5t14.5 -34.5t-14.5 -34.5t-35.5 -14.5q-20 0 -34 14.5z" />
    <glyph glyph-name="quotedbl" unicode="&#x22;" horiz-adv-x="333" 
d="M72 703h89l-74 -190h-60zM217 703h89l-74 -190h-60z" />
    <glyph glyph-name="numbersign" unicode="#" horiz-adv-x="683" 
d="M144 196h-134l20 75h133l41 159h-135l20 74h134l42 167h81l-42 -167h155l42 167h81l-43 -167h124l-20 -74h-122l-40 -159h122l-19 -75h-122l-41 -161h-81l41 161h-156l-40 -161h-82zM402 268l40 164h-159l-41 -164h160z" />
    <glyph glyph-name="dollar" unicode="$" horiz-adv-x="555" 
d="M240 -12q-56 7 -102 35t-72.5 71t-26.5 93h79q0 -35 21.5 -64.5t57.5 -46.5t79 -17q44 0 80 17t57 47.5t21 67.5q0 42 -21 68t-55 41t-89 30q-69 20 -110 37.5t-72 55.5t-31 102q0 47 24 87t66 67.5t94 35.5v61h79v-61q54 -7 98 -34t69.5 -68.5t25.5 -89.5h-78
q0 34 -20.5 62t-54.5 44t-75 16q-63 0 -106.5 -33t-43.5 -84q0 -39 20 -62t50.5 -35.5t88.5 -28.5q68 -19 113 -40.5t75.5 -63t30.5 -107.5q0 -50 -25.5 -93t-69.5 -71.5t-98 -36.5v-66h-79v64z" />
    <glyph glyph-name="percent" unicode="%" horiz-adv-x="876" 
d="M120 375.5q-43 25.5 -68 68.5t-25 94t25 93.5t68 67.5t94 25t94 -25t68.5 -67.5t25.5 -93.5t-25.5 -94t-68.5 -68.5t-94 -25.5t-94 25.5zM619 709h80l-451 -708h-81zM300.5 451.5q35.5 35.5 35.5 86.5q0 50 -35.5 85.5t-86.5 35.5q-33 0 -61 -16.5t-44.5 -44.5t-16.5 -60
q0 -51 36 -86.5t86 -35.5q51 0 86.5 35.5zM558.5 11q-44.5 26 -70.5 70.5t-26 97.5t26 97t70.5 70t96.5 26q53 0 97.5 -26t70.5 -70t26 -97t-26 -97.5t-70.5 -70.5t-97.5 -26q-52 0 -96.5 26zM745.5 88.5q37.5 37.5 37.5 90.5q0 34 -17 63.5t-46.5 46.5t-64.5 17
q-34 0 -63.5 -17t-46.5 -46.5t-17 -63.5q0 -35 17 -64.5t46.5 -46.5t63.5 -17q53 0 90.5 37.5z" />
    <glyph glyph-name="ampersand" unicode="&#x26;" horiz-adv-x="609" 
d="M166.5 19q-56.5 34 -89 90.5t-32.5 124.5q0 74 43.5 132t110.5 80q-26 19 -41 49.5t-15 63.5q0 44 21.5 81t58.5 58.5t81 21.5q45 0 82 -22t58 -59.5t21 -83.5h-74q0 39 -25 64.5t-61 25.5q-37 0 -62.5 -25.5t-25.5 -60.5t25 -60.5t61 -25.5h23v-74h-31q-47 0 -86.5 -22
t-62.5 -60.5t-23 -85.5t22 -86t60.5 -62t85.5 -23q48 0 86.5 23t61 63t22.5 91h-84v65h239v-65h-76q0 -71 -33.5 -128.5t-90.5 -90.5t-125 -33t-124.5 34z" />
    <glyph glyph-name="quotesingle" unicode="'" horiz-adv-x="185" 
d="M72 702h89l-74 -190h-60z" />
    <glyph glyph-name="parenleft" unicode="(" horiz-adv-x="283" 
d="M65.5 67.5q-28.5 118.5 -28.5 245.5q0 126 28.5 244t83.5 208h86q-59 -87 -89.5 -206t-30.5 -247q0 -129 31 -248t90 -205h-87q-55 90 -83.5 208.5z" />
    <glyph glyph-name="parenright" unicode=")" horiz-adv-x="283" 
d="M47 -141q59 87 90 206t31 247q0 129 -31 248t-90 205h87q55 -90 83.5 -208t28.5 -244q0 -127 -28.5 -245t-83.5 -209h-87z" />
    <glyph glyph-name="asterisk" unicode="*" horiz-adv-x="450" 
d="M198 451l-130 -97l-41 66l150 76l-150 76l41 67l130 -98l-12 164h78l-12 -164l130 98l41 -67l-150 -76l150 -76l-41 -66l-130 97l12 -163h-78z" />
    <glyph glyph-name="plus" unicode="+" horiz-adv-x="493" 
d="M209 320h-172v71h172v174h75v-174h172v-71h-172v-174h-75v174z" />
    <glyph glyph-name="comma" unicode="," horiz-adv-x="188" 
d="M72 88h89l-74 -190h-60z" />
    <glyph glyph-name="hyphen" unicode="-" horiz-adv-x="356" 
d="M30 304h296v-71h-296v71z" />
    <glyph glyph-name="period" unicode="." horiz-adv-x="165" 
d="M47.5 6.5q-14.5 14.5 -14.5 34.5t14.5 34.5t34.5 14.5t34.5 -14.5t14.5 -34.5t-14.5 -34.5t-34.5 -14.5t-34.5 14.5z" />
    <glyph glyph-name="slash" unicode="/" horiz-adv-x="394" 
d="M311 705h83l-312 -864h-82z" />
    <glyph glyph-name="zero" unicode="0" horiz-adv-x="811" 
d="M221 34.5q-85 49.5 -135 133.5t-50 184q0 101 49.5 185.5t134.5 133.5t186 49q100 0 185 -49t134.5 -133.5t49.5 -185.5q0 -100 -49.5 -184t-134.5 -133.5t-185 -49.5t-185 49.5zM552 99q67 39 106 106t39 147q0 81 -39 148t-106 106t-146 39t-146 -39t-106 -106
t-39 -148q0 -80 39 -147t106 -106t146 -39t146 39z" />
    <glyph glyph-name="one" unicode="1" horiz-adv-x="280" 
d="M118 630h-101v75h178v-705h-77v630z" />
    <glyph glyph-name="two" unicode="2" horiz-adv-x="519" 
d="M32 87l282 271q39 37 58.5 72t19.5 77q0 37 -18 69t-50 50.5t-71 18.5q-59 0 -98 -41t-39 -101h-79q0 60 28 109.5t78.5 78.5t113.5 29q61 0 110 -28.5t76.5 -77.5t27.5 -106q1 -59 -25 -108.5t-77 -97.5l-235 -222v-5h342v-75h-444v87z" />
    <glyph glyph-name="three" unicode="3" horiz-adv-x="538" 
d="M141.5 18q-55.5 33 -88 88t-32.5 120h79q0 -46 21.5 -84t59 -60t84.5 -22q46 0 83.5 22.5t58.5 61t21 84.5q0 47 -23 84.5t-62 58.5t-86 21h-102l174 238h-246v75h381l-179 -242v-3h10q58 -4 106.5 -37t76.5 -84.5t28 -110.5q0 -66 -32.5 -122t-88.5 -88.5t-121 -32.5
q-67 0 -122.5 33z" />
    <glyph glyph-name="four" unicode="4" horiz-adv-x="545" 
d="M369 142h-352v62l331 501h100v-491h66v-72h-66v-142h-79v142zM371 214v387h-5l-256 -387h261z" />
    <glyph glyph-name="five" unicode="5" horiz-adv-x="551" 
d="M144.5 18q-56.5 33 -89.5 89t-33 123h79q0 -47 22 -86t61 -61.5t86 -22.5q46 0 84.5 22.5t61 61t22.5 84.5t-19.5 84.5t-55.5 61.5t-82 23q-37 0 -68 -11.5t-51 -32.5h-90l96 352h288v-75h-230l-54 -198h7q44 36 116 36q64 0 115 -32.5t79 -87.5t28 -120q0 -67 -33 -123
t-89.5 -88t-125.5 -32q-68 0 -124.5 33z" />
    <glyph glyph-name="six" unicode="6" horiz-adv-x="560" 
d="M154 19q-58 34 -92 91t-34 124q0 74 41 137l212 334h93l-159 -247l4 -2q36 21 80 21q64 0 117.5 -33.5t84.5 -89.5t31 -120q0 -67 -34.5 -124t-92.5 -91t-125 -34q-68 0 -126 34zM366.5 83.5q39.5 23.5 63 63t23.5 86.5q0 48 -23 88t-63 63t-88 23t-87 -23t-62 -63
t-23 -88q0 -47 23 -86.5t62 -63t87 -23.5t87.5 23.5z" />
    <glyph glyph-name="seven" unicode="7" horiz-adv-x="465" 
d="M336 627v3h-312v75h436l-341 -705h-88z" />
    <glyph glyph-name="eight" unicode="8" horiz-adv-x="539" 
d="M150.5 16.5q-54.5 31.5 -86.5 86t-32 118.5q0 65 41 122t99 81q-30 17 -52 52.5t-22 72.5q0 47 23.5 86t63 62t85.5 23t85.5 -23t62.5 -62t23 -86q0 -37 -21 -71.5t-53 -53.5q59 -25 99.5 -81.5t40.5 -121.5q0 -64 -32 -118.5t-86.5 -86t-118.5 -31.5q-65 0 -119.5 31.5z
M338.5 475.5q28.5 28.5 28.5 70.5t-28.5 70.5t-68.5 28.5q-41 0 -69.5 -28.5t-28.5 -70.5t28.5 -70.5t69.5 -28.5q40 0 68.5 28.5zM349.5 81q36.5 21 58 57.5t21.5 80.5q0 45 -21.5 81.5t-58 57.5t-79.5 21t-79.5 -21t-58 -57.5t-21.5 -81.5q0 -44 21.5 -80.5t58 -57.5
t79.5 -21t79.5 21z" />
    <glyph glyph-name="nine" unicode="9" horiz-adv-x="560" 
d="M406.5 686q57.5 -34 91.5 -91.5t34 -124.5q0 -72 -40 -136l-213 -334h-93l160 247l-4 2q-36 -21 -81 -21q-64 0 -117 33.5t-84 89.5t-31 120q0 67 34 124t92 91t126 34t125.5 -34zM193 621q-40 -23 -63 -62.5t-23 -86.5q0 -48 23 -88t63 -63.5t88 -23.5t87 23.5t62 63.5
t23 88q0 47 -23 86.5t-62 62.5t-87 23t-88 -23z" />
    <glyph glyph-name="colon" unicode=":" horiz-adv-x="166" 
d="M117.5 544.5q14.5 -14.5 14.5 -34.5q0 -21 -14.5 -35t-34.5 -14q-21 0 -35.5 14t-14.5 35q0 20 15 34.5t35 14.5t34.5 -14.5zM117.5 76.5q14.5 -14.5 14.5 -34.5t-14.5 -34.5t-34.5 -14.5t-35 14.5t-15 34.5t15 34.5t35 14.5t34.5 -14.5z" />
    <glyph glyph-name="semicolon" unicode=";" horiz-adv-x="203" 
d="M82.5 473.5q-14.5 14.5 -14.5 34.5t14.5 35t34.5 15t34.5 -15t14.5 -35t-14.5 -34.5t-34.5 -14.5t-34.5 14.5zM72 87h89l-74 -190h-60z" />
    <glyph glyph-name="less" unicode="&#x3c;" horiz-adv-x="394" 
d="M357 464l-248 -112l248 -113v-83l-337 158v75l337 158v-83z" />
    <glyph glyph-name="equal" unicode="=" horiz-adv-x="493" 
d="M37 499h419v-71h-419v71zM37 287h419v-72h-419v72z" />
    <glyph glyph-name="greater" unicode="&#x3e;" horiz-adv-x="394" 
d="M374 389v-75l-337 -158v83l248 113l-248 112v83z" />
    <glyph glyph-name="question" unicode="?" horiz-adv-x="481" 
d="M172 218q0 45 17 77t40.5 51.5t59.5 42.5q44 30 65 56t21 70q0 54 -40.5 90t-99.5 36q-60 0 -100 -33.5t-40 -86.5h-78q0 56 27.5 101t77.5 71t113 26t113 -26.5t78 -72t28 -101.5q0 -50 -18 -85.5t-42.5 -56t-63.5 -45.5q-41 -27 -60 -52t-19 -65v-42h-79v45zM176.5 6.5
q-14.5 14.5 -14.5 34.5t14.5 34.5t34.5 14.5q21 0 35 -14.5t14 -34.5t-14 -34.5t-35 -14.5q-20 0 -34.5 14.5z" />
    <glyph glyph-name="at" unicode="@" horiz-adv-x="811" 
d="M211.5 40q-82.5 49 -130.5 133t-48 183t48.5 183t130.5 133t178 49q97 0 179 -49t130 -133t48 -183v-213h-220v89h-4q-20 -35 -57.5 -55t-77.5 -20q-54 0 -100 27t-73 73t-27 101q0 54 27 100t73 73t100 27q55 0 101 -27t73 -73t27 -100v-146h89v144q0 84 -39 151.5
t-105 105.5t-144 38t-143.5 -38.5t-104.5 -105.5t-39 -151q0 -82 39 -149.5t105 -106.5t143 -39v-70q-96 0 -178.5 49zM458 237.5q32 18.5 51 50.5t19 70t-19 70t-51 50.5t-70 18.5q-37 0 -69 -18.5t-51 -50.5t-19 -70t19 -70t51 -50.5t69 -18.5q38 0 70 18.5z" />
    <glyph glyph-name="A" unicode="A" horiz-adv-x="622" 
d="M262 705h97l251 -705h-84l-45 127h-340l-45 -127h-84zM454 201l-131 375q-6 18 -13 41h-2q-4 -18 -12 -41l-130 -375h288z" />
    <glyph glyph-name="B" unicode="B" horiz-adv-x="631" 
d="M88 705h282q53 0 98 -26.5t71 -70.5t26 -94q0 -51 -26.5 -93.5t-72.5 -62.5q55 -19 86 -64.5t31 -103.5q0 -50 -26 -93.5t-71 -70t-100 -26.5h-298v705zM364 390q51 0 85.5 35.5t34.5 84.5t-34.5 84.5t-85.5 35.5h-198v-240h198zM381 74q51 0 86 35t35 85q0 53 -35 87.5
t-98 34.5h-203v-242h215z" />
    <glyph glyph-name="C" unicode="C" horiz-adv-x="688" 
d="M223 34.5q-84 49.5 -133.5 134t-49.5 186.5q0 100 49.5 184t133.5 132.5t185 48.5q74 0 142.5 -29.5t118.5 -81.5l-47 -51q-42 41 -96.5 63.5t-117.5 22.5q-79 0 -144.5 -38t-103.5 -104t-38 -147q0 -83 38 -150t103.5 -105.5t144.5 -38.5q61 0 114 22t93 61l49 -52
q-50 -50 -116.5 -78.5t-139.5 -28.5q-101 0 -185 49.5z" />
    <glyph glyph-name="D" unicode="D" horiz-adv-x="699" 
d="M88 705h218q96 0 177 -47.5t128.5 -128.5t47.5 -177t-47.5 -176.5t-128.5 -128t-177 -47.5h-218v705zM306 74q74 0 137 37t100 101t37 140t-37 140t-100 101.5t-137 37.5h-140v-557h140z" />
    <glyph glyph-name="E" unicode="E" horiz-adv-x="570" 
d="M88 705h445v-74h-367v-241h310v-74h-310v-242h367v-74h-445v705z" />
    <glyph glyph-name="F" unicode="F" horiz-adv-x="553" 
d="M88 705h446v-74h-368v-241h312v-74h-312v-316h-78v705z" />
    <glyph glyph-name="G" unicode="G" horiz-adv-x="748" 
d="M223 34.5q-84 49.5 -133.5 134t-49.5 183.5q0 101 49.5 185.5t133.5 133.5t184 49q77 0 150 -30.5t122 -86.5l-50 -51q-49 48 -101.5 71.5t-120.5 23.5q-78 0 -144.5 -39.5t-105 -107t-38.5 -148.5q0 -80 38.5 -147.5t105 -106.5t144.5 -39q63 0 115 20t95 64v171h-164
v74h243v-267q-42 -53 -115 -94.5t-174 -41.5q-100 0 -184 49.5z" />
    <glyph glyph-name="H" unicode="H" horiz-adv-x="713" 
d="M88 704h79v-315h381v315h77v-704h-77v315h-381v-315h-79v704z" />
    <glyph glyph-name="I" unicode="I" horiz-adv-x="255" 
d="M88 704h79v-704h-79v704z" />
    <glyph glyph-name="J" unicode="J" horiz-adv-x="528" 
d="M123 13.5q-49 28.5 -76.5 77.5t-27.5 107h78q0 -58 38.5 -98t97.5 -40q60 0 99 37.5t39 97.5v510h78v-507q0 -61 -29 -109.5t-78.5 -76t-108.5 -27.5q-61 0 -110 28.5z" />
    <glyph glyph-name="K" unicode="K" horiz-adv-x="592" 
d="M88 705h78v-325h147l189 325h87l-210 -359l200 -346h-87l-179 306h-147v-306h-78v705z" />
    <glyph glyph-name="L" unicode="L" horiz-adv-x="500" 
d="M88 705h77v-631h322v-75h-399v706z" />
    <glyph glyph-name="M" unicode="M" horiz-adv-x="856" 
d="M88 705h113l226 -605h2l226 605h113v-706h-78v585h-3q-9 -32 -20 -63l-199 -521h-80l-199 521q-11 31 -20 63h-3v-585h-78v706z" />
    <glyph glyph-name="N" unicode="N" horiz-adv-x="709" 
d="M88 705h84l334 -526q13 -20 24 -44l10 -20h2v588h79v-703h-88l-339 534q-16 26 -26 51h-2v-585h-78v705z" />
    <glyph glyph-name="O" unicode="O" horiz-adv-x="814" 
d="M223.5 33.5q-84.5 49.5 -134 134t-49.5 184.5t49.5 184t134 133t183.5 49q100 0 184.5 -49t133.5 -133t49 -184t-49 -184.5t-133.5 -134t-184.5 -49.5q-99 0 -183.5 49.5zM553.5 99q66.5 39 105 106t38.5 147t-38.5 147t-105 106t-146.5 39t-146 -39t-104 -106t-38 -147
t38 -147t104 -106t146 -39t146.5 39z" />
    <glyph glyph-name="P" unicode="P" horiz-adv-x="571" 
d="M88 705h205q67 0 123.5 -32.5t89.5 -89t33 -124.5q0 -66 -33 -122.5t-89.5 -89.5t-123.5 -33h-126v-214h-79v705zM293 288q46 0 84.5 22.5t61 62t22.5 86.5q0 48 -22.5 87.5t-61 62.5t-84.5 23h-126v-344h126z" />
    <glyph glyph-name="Q" unicode="Q" horiz-adv-x="826" 
d="M223 34.5q-84 49.5 -133.5 134t-49.5 184.5q0 99 49.5 183.5t133.5 134t184 49.5q101 0 186 -49.5t134.5 -134t49.5 -183.5q0 -70 -25.5 -132.5t-71.5 -111.5l85 -110h-99l-43 57q-99 -71 -216 -71q-100 0 -184 49.5zM556.5 100q66.5 40 104 107.5t37.5 145.5
q0 80 -38.5 147.5t-105 106.5t-147.5 39t-147 -39t-104 -106.5t-38 -147.5q0 -81 38 -148t104 -106t147 -39q83 0 149.5 40z" />
    <glyph glyph-name="R" unicode="R" horiz-adv-x="583" 
d="M88 705h207q68 0 124 -32.5t89 -88.5t33 -124q0 -81 -49 -144t-124 -84l158 -232h-92l-147 214h-119v-214h-79zM295 289q45 0 83.5 22.5t61 62t22.5 86.5q0 48 -22.5 87.5t-61 62.5t-83.5 23h-127v-344h127z" />
    <glyph glyph-name="S" unicode="S" horiz-adv-x="558" 
d="M156 12.5q-54 27.5 -85.5 74t-31.5 102.5h78q0 -35 21.5 -64.5t58 -46.5t78.5 -17q44 0 80.5 17t57 45.5t20.5 62.5q0 45 -19.5 71t-51.5 40t-94 32q-66 19 -106.5 37.5t-71 56.5t-30.5 102q0 53 30.5 98t83.5 71t115 26t114.5 -26.5t82.5 -71.5t30 -98h-78q0 52 -43 87
t-107 35q-42 0 -75.5 -15.5t-53 -42.5t-19.5 -59q0 -36 17 -58.5t47.5 -37t85.5 -30.5q72 -21 114 -39.5t74.5 -60t32.5 -113.5q0 -57 -32 -104t-86 -74t-119 -27q-64 0 -118 27.5z" />
    <glyph glyph-name="T" unicode="T" horiz-adv-x="471" 
d="M197 632h-184v73h445v-73h-182v-633h-79v633z" />
    <glyph glyph-name="U" unicode="U" horiz-adv-x="671" 
d="M203.5 19q-59.5 34 -94 93t-34.5 130v463h79v-467q0 -50 23.5 -91t65 -64t93.5 -23t93.5 23t65 64t23.5 91v467h78v-463q0 -72 -34 -130.5t-93.5 -92.5t-132.5 -34t-132.5 34z" />
    <glyph glyph-name="V" unicode="V" horiz-adv-x="618" 
d="M12 705h83l197 -557q7 -20 16 -54h2q4 21 16 54l196 557h83l-251 -705h-90z" />
    <glyph glyph-name="W" unicode="W" horiz-adv-x="956" 
d="M33 705h81l147 -541l16 -69h4q7 34 10 46l5 23l147 541h69l148 -541q12 -46 16 -69h3l15 67l148 543h81l-194 -705h-96l-141 520q-5 18 -13 56h-3l-15 -57l-140 -519h-94z" />
    <glyph glyph-name="X" unicode="X" horiz-adv-x="579" 
d="M248 359l-223 346h93l172 -278l171 278h93l-222 -346l235 -359h-93l-184 292l-184 -292h-93z" />
    <glyph glyph-name="Y" unicode="Y" horiz-adv-x="583" 
d="M252 283l-246 422h89l186 -318q3 -5 9 -20h2l10 20l186 318h89l-246 -422v-283h-79v283z" />
    <glyph glyph-name="Z" unicode="Z" horiz-adv-x="539" 
d="M31 76l379 554h-371v75h461v-83l-375 -547h382v-75h-476v76z" />
    <glyph glyph-name="bracketleft" unicode="[" horiz-adv-x="302" 
d="M258 -151h-177v909h177v-72h-99v-765h99v-72z" />
    <glyph glyph-name="backslash" unicode="\" horiz-adv-x="394" 
d="M312 -159l-312 864h83l311 -864h-82z" />
    <glyph glyph-name="bracketright" unicode="]" horiz-adv-x="302" 
d="M143 -79v765h-99v72h177v-909h-177v72h99z" />
    <glyph glyph-name="underscore" unicode="_" horiz-adv-x="563" 
d="M0 -22h564v-71h-564v71z" />
    <glyph glyph-name="grave" unicode="`" horiz-adv-x="175" 
d="M17 790h87l54 -162h-60z" />
    <glyph glyph-name="a" unicode="a" horiz-adv-x="695" 
d="M167.5 24q-64.5 39 -101.5 105.5t-37 145.5q0 80 37 146.5t101 105t142 38.5q81 0 142.5 -41.5t91.5 -109.5h4v136h77v-549h-77v136h-4q-33 -74 -94.5 -113t-139.5 -39q-77 0 -141.5 39zM430.5 88.5q48.5 28.5 76 78t27.5 108.5q0 60 -27.5 109.5t-76 78t-107.5 28.5
q-60 0 -108.5 -28.5t-76.5 -78t-28 -109.5q0 -59 28 -108.5t76.5 -78t108.5 -28.5q59 0 107.5 28.5z" />
    <glyph glyph-name="b" unicode="b" horiz-adv-x="694" 
d="M247 24q-63 39 -96 113h-3v-136h-77v704h78v-291h4q30 68 92 109.5t143 41.5q77 0 140.5 -38.5t100 -105t36.5 -146.5q0 -79 -36.5 -145.5t-100.5 -105.5t-140 -39q-78 0 -141 39zM479.5 88.5q48.5 28.5 76.5 78t28 108.5q0 60 -28 109.5t-76.5 78t-108.5 28.5
q-59 0 -107.5 -28.5t-76 -78t-27.5 -109.5q0 -59 27.5 -108.5t76 -78t107.5 -28.5q60 0 108.5 28.5z" />
    <glyph glyph-name="c" unicode="c" horiz-adv-x="543" 
d="M175 22.5q-67 39.5 -106.5 106.5t-39.5 146t39.5 146t106.5 106.5t146 39.5q62 0 117.5 -24.5t96.5 -68.5l-53 -52q-30 33 -71.5 51.5t-89.5 18.5q-58 0 -107 -29t-78 -79t-29 -109q0 -60 29 -109.5t78 -78.5t107 -29q45 0 84.5 16.5t69.5 45.5l53 -52q-41 -41 -94 -63
t-113 -22q-79 0 -146 39.5z" />
    <glyph glyph-name="d" unicode="d" horiz-adv-x="694" 
d="M166 24q-64 39 -100.5 105.5t-36.5 145.5q0 80 36.5 146.5t100 105t140.5 38.5q81 0 143 -41.5t92 -109.5h4v291h78v-704h-77v136h-3q-33 -74 -96 -113t-141 -39q-76 0 -140 39zM430.5 88.5q48.5 28.5 76 78t27.5 108.5q0 60 -27.5 109.5t-76 78t-107.5 28.5
q-60 0 -108.5 -28.5t-76.5 -78t-28 -109.5q0 -59 28 -108.5t76.5 -78t108.5 -28.5q59 0 107.5 28.5z" />
    <glyph glyph-name="e" unicode="e" horiz-adv-x="648" 
d="M175.5 25q-67.5 39 -107 106t-39.5 147q0 79 39.5 145t107 104t148.5 38t149 -38t107 -104.5t39 -146.5q0 -16 -1 -26h-506q4 -52 34 -95.5t77 -69t102 -25.5q63 0 114.5 32.5t76.5 86.5h86q-30 -86 -106 -139.5t-172 -53.5q-81 0 -148.5 39zM534 314q-5 49 -34.5 89.5
t-75.5 63.5t-101 23t-101 -23t-75 -63.5t-34 -89.5h421z" />
    <glyph glyph-name="f" unicode="f" horiz-adv-x="324" 
d="M71 705h240v-75h-162v-221h151v-74h-151v-335h-78v705z" />
    <glyph glyph-name="g" unicode="g" horiz-adv-x="632" 
d="M65 -12h76v-78h375v20q-7 1 -50 12l-231 68q-102 32 -154 104.5t-52 162.5q0 76 37 138.5t101 98.5t143 36h260v-59h-77q-15 0 -23 2h-5q53 -35 84.5 -92.5t31.5 -123.5q0 -61 -25 -112.5t-69.5 -86.5t-100.5 -46v-5q38 -6 55 -11l139 -38v-136h-515v146zM404.5 105.5
q45.5 26.5 72 71.5t26.5 100q0 54 -25.5 98.5t-70 71.5t-97.5 28q-59 -1 -105.5 -27.5t-72 -71t-25.5 -99.5t26.5 -100t72 -71.5t99.5 -26.5t99.5 26.5z" />
    <glyph glyph-name="h" unicode="h" horiz-adv-x="625" 
d="M554 550v-550h-78v474h-327v-474h-78v705h78v-155h405z" />
    <glyph glyph-name="i" unicode="i" horiz-adv-x="220" 
d="M75.5 669.5q-14.5 14.5 -14.5 34.5t14.5 34.5t34.5 14.5t34.5 -14.5t14.5 -34.5t-14.5 -34.5t-34.5 -14.5t-34.5 14.5zM71 550h78v-549h-78v549z" />
    <glyph glyph-name="j" unicode="j" horiz-adv-x="220" 
d="M146 701q0 -16 -11 -26t-25 -10q-10 0 -17 4q-9 5 -14 14t-5 18q0 10 4 17q12 20 33 20q7 0 17 -5q18 -10 18 -32zM71 550h79v-707h-175v71h96v636z" />
    <glyph glyph-name="k" unicode="k" horiz-adv-x="559" 
d="M71 708h78v-379h122l139 221h85l-140 -221h157v-329h-78v255h-285v-255h-78v708z" />
    <glyph glyph-name="l" unicode="l" horiz-adv-x="220" 
d="M71 705h78v-705h-78v705z" />
    <glyph glyph-name="m" unicode="m" horiz-adv-x="1030" 
d="M959 0h-78v474h-327v-474h-78v474h-327v-474h-78v550h888v-550z" />
    <glyph glyph-name="n" unicode="n" horiz-adv-x="625" 
d="M71 550h483v-550h-78v474h-327v-474h-78v550z" />
    <glyph glyph-name="o" unicode="o" horiz-adv-x="641" 
d="M175 24q-67 39 -106.5 105.5t-39.5 144.5q0 79 39.5 145.5t106.5 105t146 38.5t146 -38.5t106.5 -105t39.5 -145.5q0 -78 -39.5 -144.5t-106.5 -105.5t-146 -39t-146 39zM428 88.5q49 28.5 77.5 77.5t28.5 108q0 61 -28.5 110t-77.5 76.5t-107 27.5q-59 0 -108 -27.5
t-77.5 -76.5t-28.5 -110q0 -59 29 -108t78 -77.5t107 -28.5t107 28.5z" />
    <glyph glyph-name="p" unicode="p" horiz-adv-x="695" 
d="M71 549h77v-139h4q28 71 92 112t145 41q76 0 139.5 -39t100.5 -105t37 -145q0 -80 -37 -146.5t-100.5 -105t-139.5 -38.5q-80 0 -140.5 39t-94.5 110h-4v-290h-79v706zM480 86q49 28 77.5 77.5t28.5 110.5t-28.5 110t-77.5 76.5t-108 27.5q-58 0 -106.5 -27.5
t-76.5 -76.5t-28 -110t28 -110.5t76.5 -77.5t106.5 -28q59 0 108 28z" />
    <glyph glyph-name="q" unicode="q" horiz-adv-x="695" 
d="M545 -157v290h-3q-34 -71 -94.5 -110t-140.5 -39q-76 0 -140 38.5t-101 105t-37 146.5q0 79 37 145t101 105t140 39q80 0 144.5 -41t91.5 -112h4v139h78v-706h-80zM429.5 86q48.5 28 77 77.5t28.5 110.5t-28.5 110t-77 76.5t-106.5 27.5t-107 -27.5t-77.5 -76.5
t-28.5 -110t28.5 -110.5t77.5 -77.5t107 -28t106.5 28z" />
    <glyph glyph-name="r" unicode="r" horiz-adv-x="405" 
d="M71 550h329v-75h-251v-475h-78v550z" />
    <glyph glyph-name="s" unicode="s" horiz-adv-x="463" 
d="M126 7.5q-45 22.5 -70.5 60t-25.5 81.5h78q0 -37 35 -63.5t87 -26.5q51 0 85 25.5t34 63.5q0 31 -17 50.5t-43 29.5t-69 20q-89 22 -134.5 58t-45.5 102q0 44 26 80t70 56.5t96 20.5t96 -21t69.5 -57.5t25.5 -80.5h-78q0 37 -33 61.5t-80 24.5q-46 0 -80 -23.5t-34 -59.5
q0 -28 17 -45t40.5 -25.5t71.5 -21.5q58 -15 92.5 -29.5t61 -48t26.5 -90.5q0 -45 -26.5 -82.5t-72.5 -59.5t-100 -22q-57 0 -102 22.5z" />
    <glyph glyph-name="t" unicode="t" horiz-adv-x="305" 
d="M102 475h-94v75h94v155h78v-155h102v-75h-102v-400h95v-75h-173v475z" />
    <glyph glyph-name="u" unicode="u" horiz-adv-x="573" 
d="M169 12.5q-52 27.5 -82 79t-30 119.5v339h79v-343q0 -70 42 -108.5t108 -38.5q67 0 109 39t42 108v343h78v-339q0 -68 -30 -119.5t-82 -79t-117 -27.5t-117 27.5z" />
    <glyph glyph-name="v" unicode="v" horiz-adv-x="515" 
d="M2 550h83l173 -442l172 442h84l-214 -550h-85z" />
    <glyph glyph-name="w" unicode="w" horiz-adv-x="753" 
d="M8 549h82l133 -443l119 444h70l119 -444l133 444l81 -1l-165 -549h-87l-116 435l-116 -435h-87z" />
    <glyph glyph-name="x" unicode="x" horiz-adv-x="471" 
d="M192 281l-181 269h95l129 -206l129 206h94l-181 -269l190 -281h-93l-139 216l-138 -215h-94z" />
    <glyph glyph-name="y" unicode="y" 
d="M228 78l-226 472h85l185 -384l172 384h85l-329 -707h-85z" />
    <glyph glyph-name="z" unicode="z" horiz-adv-x="457" 
d="M21 72l311 404h-298v73h392v-77l-307 -399h316v-73h-414v72z" />
    <glyph glyph-name="braceleft" unicode="{" horiz-adv-x="290" 
d="M127 -128.5q-28 27.5 -28 67.5v305q0 11 -8 19t-19 8h-32v70h31q11 0 19 8.5t8 19.5v305q0 39 27.5 66.5t67.5 27.5h40v-70h-39q-11 0 -18.5 -7.5t-7.5 -18.5v-309q0 -16 -6.5 -31.5t-18.5 -24.5q13 -9 20 -25t7 -33v-309q0 -11 8 -18.5t18 -7.5h37v-70h-39
q-39 0 -67 27.5z" />
    <glyph glyph-name="bar" unicode="|" horiz-adv-x="247" 
d="M88 805h71v-906h-71v906z" />
    <glyph glyph-name="braceright" unicode="}" horiz-adv-x="290" 
d="M57 -156v70h37q11 0 18.5 7.5t7.5 18.5v309q0 17 7 33t20 25q-13 8 -19.5 24t-6.5 32v309q0 11 -7.5 18.5t-18.5 7.5h-38v70h40q39 0 67 -27.5t28 -66.5v-305q0 -11 8 -19.5t19 -8.5h30v-70h-31q-11 0 -19.5 -8t-8.5 -19v-305q0 -40 -27.5 -67.5t-67.5 -27.5h-38z" />
    <glyph glyph-name="exclamdown" unicode="&#xa1;" horiz-adv-x="259" 
d="M164.5 541.5q14.5 -14.5 14.5 -34.5t-14.5 -34.5t-35.5 -14.5q-20 0 -34 14.5t-14 34.5t14 34.5t34 14.5q21 0 35.5 -14.5zM169 372v-529h-78v529h78z" />
    <glyph glyph-name="cent" unicode="&#xa2;" horiz-adv-x="500" 
d="M142 185q-40 27 -62.5 70t-22.5 93q0 55 27 101t73 73t101 27q40 0 73 -13l22 41h50l-33 -62q53 -36 73 -96h-72q-13 21 -34 35l-122 -227q24 -9 48 -8q32 1 59.5 16.5t45.5 41.5h75q-20 -57 -70.5 -93t-114.5 -36q-42 0 -78 15l-30 -55h-49zM295 471q-18 6 -37 6
q-36 0 -66 -17t-47.5 -46.5t-17.5 -65.5q0 -30 13.5 -56t36.5 -43z" />
    <glyph glyph-name="sterling" unicode="&#xa3;" horiz-adv-x="499" 
d="M27 77q53 26 106.5 75.5t56.5 87.5h-121v66h105q-11 22 -45 58q-38 42 -58.5 76.5t-20.5 86.5q0 54 27 98t73 69.5t100 25.5h10q54 0 99.5 -27t72 -72.5t26.5 -99.5h-70q0 33 -17.5 62t-47 46t-63.5 17h-10q-53 0 -91 -36t-38 -88q0 -39 18.5 -67t55.5 -64
q26 -26 41 -44.5t22 -40.5h113v-66h-106q-4 -44 -40.5 -89t-75.5 -76v-2h302v-73h-424v77z" />
    <glyph glyph-name="yen" unicode="&#xa5;" horiz-adv-x="639" 
d="M280 246h-243v60h243v59h-243v60h208l-196 280h89l181 -264l180 264h89l-195 -280h209v-60h-245v-59h245v-60h-245v-246h-77v246z" />
    <glyph glyph-name="brokenbar" unicode="&#xa6;" horiz-adv-x="247" 
d="M88 805h71v-386h-71v386zM88 286h71v-387h-71v387z" />
    <glyph glyph-name="section" unicode="&#xa7;" horiz-adv-x="553" 
d="M470 148q41 -43 41 -112q0 -57 -32 -103.5t-86 -73.5t-119 -27q-63 0 -117 27.5t-86 74t-32 101.5h78q0 -35 21.5 -64t57.5 -46t78 -17q44 0 80.5 17t57.5 46.5t21 64.5q0 42 -23.5 66t-57.5 35t-93 23q-68 14 -108 28.5t-68 46.5t-28 89q0 52 45 91q-45 40 -45 110
q0 53 30.5 98t83.5 71t115 26t114.5 -26.5t82.5 -71.5t30 -98h-78q0 34 -20 62.5t-54.5 44.5t-74.5 16q-42 0 -76 -15.5t-53.5 -43t-19.5 -60.5q0 -37 22 -59t55 -33t89 -23q68 -14 110 -29t71 -49.5t29 -94.5q0 -55 -41 -92zM156.5 273.5q21.5 -21.5 53 -32t88.5 -23.5
q45 -10 71 -17t50 -18q14 22 14 47q0 41 -23 65t-57 35.5t-92 23.5q-28 6 -57.5 13.5t-51.5 16.5q-17 -23 -17 -52q0 -37 21.5 -58.5z" />
    <glyph glyph-name="dieresis" unicode="&#xa8;" horiz-adv-x="260" 
d="M30 649q-13 13 -13 31q0 19 13 31.5t31 12.5t30.5 -12.5t12.5 -31.5q0 -18 -12.5 -31t-30.5 -13t-31 13zM169 649q-13 13 -13 31q0 19 13 31.5t31 12.5t30.5 -12.5t12.5 -31.5q0 -18 -12.5 -31t-30.5 -13t-31 13z" />
    <glyph glyph-name="copyright" unicode="&#xa9;" 
d="M151.5 294q-52.5 31 -83.5 83.5t-31 114.5q0 61 31 113.5t83.5 83.5t113.5 31q62 0 114.5 -31t83.5 -83.5t31 -113.5q0 -62 -31 -114.5t-83.5 -83.5t-114.5 -31q-61 0 -113.5 31zM357.5 332q42.5 25 67 67.5t24.5 92.5t-24.5 92t-67 66.5t-92.5 24.5t-92 -24.5
t-66.5 -66.5t-24.5 -92t24.5 -92.5t66.5 -67.5t92 -25t92.5 25zM184.5 405.5q-34.5 34.5 -34.5 83.5t34.5 83.5t83.5 34.5q41 0 72 -24.5t40 -60.5h-46q-7 18 -25 30.5t-41 12.5q-31 0 -53.5 -22t-22.5 -54t22 -54t54 -22q41 0 64 36h47q-12 -33 -42 -55.5t-69 -22.5
q-49 0 -83.5 34.5z" />
    <glyph glyph-name="ordfeminine" unicode="&#xaa;" horiz-adv-x="456" 
d="M409 712v-352h-72v78q-19 -41 -54 -64t-82 -23q-49 0 -89 25t-62.5 68t-22.5 94t22.5 93.5t62.5 67t89 24.5q47 0 82 -23t54 -63v75h72zM298.5 452q34.5 35 34.5 86q0 50 -34.5 84.5t-84.5 34.5q-49 0 -83.5 -35t-34.5 -84q0 -51 34.5 -86t83.5 -35q50 0 84.5 35z" />
    <glyph glyph-name="guillemotleft" unicode="&#xab;" horiz-adv-x="414" 
d="M27 267l90 171h89l-96 -171l96 -172h-89zM205 267l90 171h89l-96 -171l96 -172h-89z" />
    <glyph glyph-name="registered" unicode="&#xae;" 
d="M150.5 294q-52.5 31 -83 83.5t-30.5 114.5t30.5 114t83 83t114.5 31t114.5 -31t83.5 -83.5t31 -113.5q0 -62 -31 -114.5t-83.5 -83.5t-114.5 -31t-114.5 31zM357.5 332q42.5 25 67 67.5t24.5 92.5t-24.5 92t-67 66.5t-92.5 24.5t-92 -24.5t-66.5 -66.5t-24.5 -92
t24.5 -92.5t66.5 -67.5t92 -25t92.5 25zM193 609h79q37 0 61 -22t24 -62q0 -31 -15.5 -49t-39.5 -25l48 -79h-48l-45 76h-24v-76h-40v237zM273 481q20 0 32 11t12 34t-12 34t-32 12h-40v-91h40z" />
    <glyph glyph-name="macron" unicode="&#xaf;" horiz-adv-x="389" 
d="M372 710v-60h-355v60h355z" />
    <glyph glyph-name="degree" unicode="&#xb0;" horiz-adv-x="357" 
d="M107.5 453.5q-32.5 18.5 -51.5 51t-19 72.5q0 60 40.5 100t101.5 40q60 0 100.5 -40t40.5 -100q0 -61 -40.5 -101.5t-100.5 -40.5q-39 0 -71.5 18.5zM235 520.5q22 22.5 22 56.5q0 33 -22 55t-56 22t-56.5 -22t-22.5 -55q0 -34 22.5 -56.5t56.5 -22.5t56 22.5z" />
    <glyph glyph-name="plusminus" unicode="&#xb1;" horiz-adv-x="493" 
d="M209 329h-172v72h172v151h75v-151h172v-72h-172v-146h-75v146zM37 107h419v-72h-419v72z" />
    <glyph glyph-name="uni00B2" unicode="&#xb2;" horiz-adv-x="343" 
d="M32 385l152 127q23 21 34 39t11 41q0 31 -17 47t-48 16q-64 0 -64 -65h-65q0 58 35.5 94t99.5 36q58 0 93.5 -33.5t35.5 -89.5q0 -67 -65 -117l-118 -101v-3h185v-65h-269v74z" />
    <glyph glyph-name="uni00B3" unicode="&#xb3;" horiz-adv-x="345" 
d="M293 362.5q-20 -31.5 -53 -49t-71 -17.5q-65 0 -106.5 41t-41.5 103l68 1q0 -34 21.5 -56t57.5 -22q34 0 55 22t21 55q-1 38 -21 59t-57 21h-79l96 124h-130v62h240l-108 -137v-1h7q55 -4 88 -40.5t33 -92.5q0 -41 -20 -72.5z" />
    <glyph glyph-name="acute" unicode="&#xb4;" horiz-adv-x="175" 
d="M70 790h88l-81 -162h-60z" />
    <glyph glyph-name="paragraph" unicode="&#xb6;" horiz-adv-x="652" 
d="M300 262h-49q-61 0 -111.5 28t-79.5 78.5t-29 116.5q0 67 29 117t79 76.5t112 26.5h125v-866h-76v423zM488 705h76v-866h-76v866zM300 338v293h-49q-63 0 -103.5 -39t-40.5 -107t40.5 -107.5t103.5 -39.5h49z" />
    <glyph glyph-name="periodcentered" unicode="&#xb7;" horiz-adv-x="165" 
d="M47.5 291.5q-14.5 14.5 -14.5 34.5t14.5 34.5t34.5 14.5t34.5 -14.5t14.5 -34.5t-14.5 -34.5t-34.5 -14.5t-34.5 14.5z" />
    <glyph glyph-name="cedilla" unicode="&#xb8;" horiz-adv-x="135" 
d="M17 -106q22 0 35 10.5t13 30.5q0 16 -11.5 26t-30.5 10v31q42 0 68.5 -18t26.5 -57q0 -44 -27 -64t-74 -20v51z" />
    <glyph glyph-name="uni00B9" unicode="&#xb9;" horiz-adv-x="230" 
d="M74 641h-57v64l128 1v-401h-71v336z" />
    <glyph glyph-name="ordmasculine" unicode="&#xba;" horiz-adv-x="428" 
d="M120 375.5q-43 25.5 -68 68.5t-25 94t25 93.5t68 67.5t94 25t94 -25t68.5 -67.5t25.5 -93.5t-25.5 -94t-68.5 -68.5t-94 -25.5t-94 25.5zM298.5 452q34.5 35 34.5 86q0 50 -34.5 84.5t-84.5 34.5t-84 -34.5t-34 -84.5q0 -51 34 -86t84 -35t84.5 35z" />
    <glyph glyph-name="guillemotright" unicode="&#xbb;" horiz-adv-x="414" 
d="M30 95l96 172l-96 171h89l90 -171l-90 -172h-89zM208 95l96 172l-96 171h89l90 -171l-90 -172h-89z" />
    <glyph glyph-name="onequarter" unicode="&#xbc;" horiz-adv-x="644" 
d="M482 709h77l-452 -708h-77zM84 641h-57v65h128v-401h-71v336zM512 82h-208v54l175 265h101v-259h37v-60h-37v-82h-68v82zM513 142v203h-3l-139 -203h142z" />
    <glyph glyph-name="onehalf" unicode="&#xbd;" horiz-adv-x="679" 
d="M482 709h77l-452 -708h-77zM84 641h-57v65h128v-401h-71v336zM383 74l152 128q23 20 33.5 38t10.5 42q0 31 -16.5 47t-47.5 16q-32 0 -48.5 -16.5t-16.5 -48.5h-64q0 58 35.5 93.5t99.5 35.5q58 0 93 -33.5t35 -89.5q0 -35 -16 -63t-49 -54l-117 -100v-4h185v-64h-269v73
z" />
    <glyph glyph-name="threequarters" unicode="&#xbe;" horiz-adv-x="741" 
d="M659 709l-452 -708h-77l452 708h77zM293.5 363q-19.5 -32 -52.5 -49.5t-72 -17.5q-63 0 -104 41t-41 103l68 1q0 -34 21.5 -56t57.5 -22q34 0 55 22t21 55q-1 38 -21 58.5t-57 20.5h-79l94 125h-138v62h250l-108 -137v-1h7q53 -3 85.5 -40t32.5 -94q0 -39 -19.5 -71z
M714 142v-60h-37v-82h-68v82h-208v54l175 265h101v-259h37zM609 345h-2l-140 -203h142v203z" />
    <glyph glyph-name="questiondown" unicode="&#xbf;" horiz-adv-x="481" 
d="M301 543.5q15 -14.5 15 -34.5t-15 -34.5t-35 -14.5t-34.5 14.5t-14.5 34.5t14.5 34.5t34.5 14.5t35 -14.5zM305 331q0 -44 -17 -76t-40 -52t-60 -43q-44 -29 -65 -55.5t-21 -70.5q0 -35 19 -63.5t51 -45t70 -16.5q60 0 100 33.5t40 86.5h79q0 -56 -28 -101t-78 -71
t-113 -26q-62 0 -112 26.5t-78.5 72.5t-28.5 101q0 50 18 85.5t42.5 56t63.5 45.5q41 27 60.5 52t19.5 65v42h78v-46z" />
    <glyph glyph-name="Agrave" unicode="&#xc0;" horiz-adv-x="622" 
d="M262 705h97l251 -705h-84l-45 127h-340l-45 -127h-84zM454 201l-131 375q-6 18 -13 41h-2q-4 -18 -12 -41l-130 -375h288zM199 945h87l54 -162h-60z" />
    <glyph glyph-name="Aacute" unicode="&#xc1;" horiz-adv-x="622" 
d="M262 705h97l251 -705h-84l-45 127h-340l-45 -127h-84zM454 201l-131 375q-6 18 -13 41h-2q-4 -18 -12 -41l-130 -375h288zM335 945h88l-81 -162h-60z" />
    <glyph glyph-name="Acircumflex" unicode="&#xc2;" horiz-adv-x="622" 
d="M262 705h97l251 -705h-84l-45 127h-340l-45 -127h-84zM454 201l-131 375q-6 18 -13 41h-2q-4 -18 -12 -41l-130 -375h288zM284 916h56l84 -130h-70l-42 83l-44 -83h-69z" />
    <glyph glyph-name="Atilde" unicode="&#xc3;" horiz-adv-x="622" 
d="M262 705h97l251 -705h-84l-45 127h-340l-45 -127h-84zM454 201l-131 375q-6 18 -13 41h-2q-4 -18 -12 -41l-130 -375h288zM334.5 801q-16.5 6 -37.5 17q-18 10 -29 14.5t-23 4.5q-26 0 -43 -26l-54 36q36 55 97 55q21 -1 37 -6.5t38 -17.5q15 -9 26.5 -13.5t23.5 -4.5
q9 0 24.5 6t28.5 24l52 -38q-22 -32 -51.5 -44.5t-53.5 -12.5q-19 0 -35.5 6z" />
    <glyph glyph-name="Adieresis" unicode="&#xc4;" horiz-adv-x="622" 
d="M262 705h97l251 -705h-84l-45 127h-340l-45 -127h-84zM454 201l-131 375q-6 18 -13 41h-2q-4 -18 -12 -41l-130 -375h288zM211 804q-13 13 -13 31q0 19 13 31.5t31 12.5t30.5 -12.5t12.5 -31.5q0 -18 -12.5 -31t-30.5 -13t-31 13zM350 804q-13 13 -13 31q0 19 13 31.5
t31 12.5t30.5 -12.5t12.5 -31.5q0 -18 -12.5 -31t-30.5 -13t-31 13z" />
    <glyph glyph-name="Aring" unicode="&#xc5;" horiz-adv-x="622" 
d="M262 705h97l251 -705h-84l-45 127h-340l-45 -127h-84zM454 201l-131 375q-6 18 -13 41h-2q-4 -18 -12 -41l-130 -375h288zM241.5 789q-28.5 29 -28.5 70q0 40 28.5 69t69.5 29q40 0 69 -29t29 -69q0 -41 -29 -70t-69 -29q-41 0 -69.5 29zM347 822q15 15 15 37
q0 21 -15 36t-36 15t-36 -15t-15 -36q0 -22 15 -37t36 -15t36 15z" />
    <glyph glyph-name="AE" unicode="&#xc6;" horiz-adv-x="903" 
d="M415 705h451v-75h-334l2 -238h259v-75h-258l2 -242h329v-75h-406l-2 161h-263l-91 -161h-92zM458 236l-4 375h-2l-217 -375h223z" />
    <glyph glyph-name="Ccedilla" unicode="&#xc7;" horiz-adv-x="688" 
d="M664 92q-49 -49 -113 -77.5t-135 -29.5q41 -19 41 -65q0 -44 -27 -64t-74 -20v51q22 0 35 10.5t13 29.5q0 16 -11.5 26.5t-30.5 10.5v24q-90 11 -163.5 62t-116 131t-42.5 174q0 100 49.5 184t133.5 132.5t185 48.5q74 0 142.5 -29.5t118.5 -81.5l-47 -51
q-42 41 -96.5 63.5t-117.5 22.5q-79 0 -144.5 -38t-103.5 -104t-38 -147q0 -83 38 -150t103.5 -105.5t144.5 -38.5q61 0 114 22t93 61z" />
    <glyph glyph-name="Egrave" unicode="&#xc8;" horiz-adv-x="570" 
d="M88 705h445v-74h-367v-241h310v-74h-310v-242h367v-74h-445v705zM204 945h87l54 -162h-60z" />
    <glyph glyph-name="Eacute" unicode="&#xc9;" horiz-adv-x="570" 
d="M88 705h445v-74h-367v-241h310v-74h-310v-242h367v-74h-445v705zM340 945h88l-81 -162h-60z" />
    <glyph glyph-name="Ecircumflex" unicode="&#xca;" horiz-adv-x="570" 
d="M88 705h445v-74h-367v-241h310v-74h-310v-242h367v-74h-445v705zM289 916h56l84 -130h-70l-42 83l-44 -83h-69z" />
    <glyph glyph-name="Edieresis" unicode="&#xcb;" horiz-adv-x="570" 
d="M88 705h445v-74h-367v-241h310v-74h-310v-242h367v-74h-445v705zM216 804q-13 13 -13 31q0 19 13 31.5t31 12.5t30.5 -12.5t12.5 -31.5q0 -18 -12.5 -31t-30.5 -13t-31 13zM355 804q-13 13 -13 31q0 19 13 31.5t31 12.5t30.5 -12.5t12.5 -31.5q0 -18 -12.5 -31t-30.5 -13
t-31 13z" />
    <glyph glyph-name="Igrave" unicode="&#xcc;" horiz-adv-x="255" 
d="M88 704h79v-704h-79v704zM15 945h87l54 -162h-60z" />
    <glyph glyph-name="Iacute" unicode="&#xcd;" horiz-adv-x="255" 
d="M88 704h79v-704h-79v704zM151 945h88l-81 -162h-60z" />
    <glyph glyph-name="Icircumflex" unicode="&#xce;" horiz-adv-x="255" 
d="M88 704h79v-704h-79v704zM100 916h56l84 -130h-70l-42 83l-44 -83h-69z" />
    <glyph glyph-name="Idieresis" unicode="&#xcf;" horiz-adv-x="255" 
d="M88 704h79v-704h-79v704zM27 804q-13 13 -13 31q0 19 13 31.5t31 12.5t30.5 -12.5t12.5 -31.5q0 -18 -12.5 -31t-30.5 -13t-31 13zM166 804q-13 13 -13 31q0 19 13 31.5t31 12.5t30.5 -12.5t12.5 -31.5q0 -18 -12.5 -31t-30.5 -13t-31 13z" />
    <glyph glyph-name="Eth" unicode="&#xd0;" horiz-adv-x="699" 
d="M483 657.5q81 -47.5 128.5 -128.5t47.5 -177t-47.5 -176.5t-128.5 -128t-177 -47.5h-218v705h218q96 0 177 -47.5zM443 111q63 37 100 101t37 140t-37 140t-100 101.5t-137 37.5h-140v-236h189v-74h-189v-247h140q74 0 137 37z" />
    <glyph glyph-name="Ntilde" unicode="&#xd1;" horiz-adv-x="709" 
d="M88 705h84l334 -526q13 -20 24 -44l10 -20h2v588h79v-703h-88l-339 534q-16 26 -26 51h-2v-585h-78v705zM383.5 801q-16.5 6 -37.5 17q-18 10 -29 14.5t-23 4.5q-26 0 -43 -26l-54 36q36 55 97 55q21 -1 37 -6.5t38 -17.5q15 -9 26.5 -13.5t23.5 -4.5q9 0 24.5 6t28.5 24
l52 -38q-22 -32 -51.5 -44.5t-53.5 -12.5q-19 0 -35.5 6z" />
    <glyph glyph-name="Ograve" unicode="&#xd2;" horiz-adv-x="814" 
d="M223.5 33.5q-84.5 49.5 -134 134t-49.5 184.5t49.5 184t134 133t183.5 49q100 0 184.5 -49t133.5 -133t49 -184t-49 -184.5t-133.5 -134t-184.5 -49.5q-99 0 -183.5 49.5zM553.5 99q66.5 39 105 106t38.5 147t-38.5 147t-105 106t-146.5 39t-146 -39t-104 -106t-38 -147
t38 -147t104 -106t146 -39t146.5 39zM295 945h87l54 -162h-60z" />
    <glyph glyph-name="Oacute" unicode="&#xd3;" horiz-adv-x="814" 
d="M223.5 33.5q-84.5 49.5 -134 134t-49.5 184.5t49.5 184t134 133t183.5 49q100 0 184.5 -49t133.5 -133t49 -184t-49 -184.5t-133.5 -134t-184.5 -49.5q-99 0 -183.5 49.5zM553.5 99q66.5 39 105 106t38.5 147t-38.5 147t-105 106t-146.5 39t-146 -39t-104 -106t-38 -147
t38 -147t104 -106t146 -39t146.5 39zM431 945h88l-81 -162h-60z" />
    <glyph glyph-name="Ocircumflex" unicode="&#xd4;" horiz-adv-x="814" 
d="M223.5 33.5q-84.5 49.5 -134 134t-49.5 184.5t49.5 184t134 133t183.5 49q100 0 184.5 -49t133.5 -133t49 -184t-49 -184.5t-133.5 -134t-184.5 -49.5q-99 0 -183.5 49.5zM553.5 99q66.5 39 105 106t38.5 147t-38.5 147t-105 106t-146.5 39t-146 -39t-104 -106t-38 -147
t38 -147t104 -106t146 -39t146.5 39zM380 916h56l84 -130h-70l-42 83l-44 -83h-69z" />
    <glyph glyph-name="Otilde" unicode="&#xd5;" horiz-adv-x="814" 
d="M223.5 33.5q-84.5 49.5 -134 134t-49.5 184.5t49.5 184t134 133t183.5 49q100 0 184.5 -49t133.5 -133t49 -184t-49 -184.5t-133.5 -134t-184.5 -49.5q-99 0 -183.5 49.5zM553.5 99q66.5 39 105 106t38.5 147t-38.5 147t-105 106t-146.5 39t-146 -39t-104 -106t-38 -147
t38 -147t104 -106t146 -39t146.5 39zM430.5 801q-16.5 6 -37.5 17q-18 10 -29 14.5t-23 4.5q-26 0 -43 -26l-54 36q36 55 97 55q21 -1 37 -6.5t38 -17.5q15 -9 26.5 -13.5t23.5 -4.5q9 0 24.5 6t28.5 24l52 -38q-22 -32 -51.5 -44.5t-53.5 -12.5q-19 0 -35.5 6z" />
    <glyph glyph-name="Odieresis" unicode="&#xd6;" horiz-adv-x="814" 
d="M223.5 33.5q-84.5 49.5 -134 134t-49.5 184.5t49.5 184t134 133t183.5 49q100 0 184.5 -49t133.5 -133t49 -184t-49 -184.5t-133.5 -134t-184.5 -49.5q-99 0 -183.5 49.5zM553.5 99q66.5 39 105 106t38.5 147t-38.5 147t-105 106t-146.5 39t-146 -39t-104 -106t-38 -147
t38 -147t104 -106t146 -39t146.5 39zM307 804q-13 13 -13 31q0 19 13 31.5t31 12.5t30.5 -12.5t12.5 -31.5q0 -18 -12.5 -31t-30.5 -13t-31 13zM446 804q-13 13 -13 31q0 19 13 31.5t31 12.5t30.5 -12.5t12.5 -31.5q0 -18 -12.5 -31t-30.5 -13t-31 13z" />
    <glyph glyph-name="multiply" unicode="&#xd7;" horiz-adv-x="425" 
d="M37 240l120 121l-120 120l55 55l120 -119l121 119l56 -55l-121 -120l121 -121l-56 -55l-121 120l-120 -120z" />
    <glyph glyph-name="Oslash" unicode="&#xd8;" horiz-adv-x="814" 
d="M741.5 503q32.5 -71 32.5 -151q0 -100 -49 -184.5t-133.5 -134t-184.5 -49.5q-105 0 -193 55l-38 -50l-50 40l37 49q-58 51 -90.5 122t-32.5 152q0 100 49.5 184t134 133t183.5 49q105 0 194 -54l38 51l50 -41l-37 -49q57 -51 89.5 -122zM142.5 234.5
q23.5 -54.5 65.5 -95.5l348 465q-69 40 -149 40t-146 -39t-104 -106t-38 -147q0 -63 23.5 -117.5zM553.5 99q66.5 39 105 106t38.5 147q0 62 -23.5 117.5t-66.5 95.5l-348 -465q69 -40 148 -40q80 0 146.5 39z" />
    <glyph glyph-name="Ugrave" unicode="&#xd9;" horiz-adv-x="671" 
d="M203.5 19q-59.5 34 -94 93t-34.5 130v463h79v-467q0 -50 23.5 -91t65 -64t93.5 -23t93.5 23t65 64t23.5 91v467h78v-463q0 -72 -34 -130.5t-93.5 -92.5t-132.5 -34t-132.5 34zM223 943h87l54 -162h-60z" />
    <glyph glyph-name="Uacute" unicode="&#xda;" horiz-adv-x="671" 
d="M203.5 19q-59.5 34 -94 93t-34.5 130v463h79v-467q0 -50 23.5 -91t65 -64t93.5 -23t93.5 23t65 64t23.5 91v467h78v-463q0 -72 -34 -130.5t-93.5 -92.5t-132.5 -34t-132.5 34zM360 943h88l-81 -162h-60z" />
    <glyph glyph-name="Ucircumflex" unicode="&#xdb;" horiz-adv-x="671" 
d="M203.5 19q-59.5 34 -94 93t-34.5 130v463h79v-467q0 -50 23.5 -91t65 -64t93.5 -23t93.5 23t65 64t23.5 91v467h78v-463q0 -72 -34 -130.5t-93.5 -92.5t-132.5 -34t-132.5 34zM309 914h56l84 -130h-70l-42 83l-44 -83h-69z" />
    <glyph glyph-name="Udieresis" unicode="&#xdc;" horiz-adv-x="671" 
d="M203.5 19q-59.5 34 -94 93t-34.5 130v463h79v-467q0 -50 23.5 -91t65 -64t93.5 -23t93.5 23t65 64t23.5 91v467h78v-463q0 -72 -34 -130.5t-93.5 -92.5t-132.5 -34t-132.5 34zM236 802q-13 13 -13 31q0 19 13 31.5t31 12.5t30.5 -12.5t12.5 -31.5q0 -18 -12.5 -31
t-30.5 -13t-31 13zM375 802q-13 13 -13 31q0 19 13 31.5t31 12.5t30.5 -12.5t12.5 -31.5q0 -18 -12.5 -31t-30.5 -13t-31 13z" />
    <glyph glyph-name="Yacute" unicode="&#xdd;" horiz-adv-x="583" 
d="M252 283l-246 422h89l186 -318q3 -5 9 -20h2l10 20l186 318h89l-246 -422v-283h-79v283zM316 945h88l-81 -162h-60z" />
    <glyph glyph-name="Thorn" unicode="&#xde;" horiz-adv-x="571" 
d="M472 523.5q67 -59.5 67 -161.5q0 -67 -30.5 -117t-86 -77.5t-129.5 -27.5h-126v-140h-79v705h79v-122h126q112 0 179 -59.5zM416.5 254q44.5 39 44.5 108q0 70 -44.5 109.5t-123.5 39.5h-126v-296h126q79 0 123.5 39z" />
    <glyph glyph-name="germandbls" unicode="&#xdf;" horiz-adv-x="515" 
d="M67 560q1 46 22.5 82.5t58 57t80.5 20.5t81 -21.5t58.5 -58.5t21.5 -81q0 -33 -15 -63.5t-41 -49.5q66 -22 105 -74.5t40 -126.5q0 -68 -31 -123.5t-85 -88.5t-121 -33v75q46 0 82 22t56.5 61t20.5 87q-1 69 -46 111.5t-115 42.5h-31v71h23q35 0 61 25.5t26 63.5
t-26 63.5t-63 25.5t-62.5 -25.5t-25.5 -67.5v-555h-74v560z" />
    <glyph glyph-name="agrave" unicode="&#xe0;" horiz-adv-x="695" 
d="M167.5 24q-64.5 39 -101.5 105.5t-37 145.5q0 80 37 146.5t101 105t142 38.5q81 0 142.5 -41.5t91.5 -109.5h4v136h77v-549h-77v136h-4q-33 -74 -94.5 -113t-139.5 -39q-77 0 -141.5 39zM430.5 88.5q48.5 28.5 76 78t27.5 108.5q0 60 -27.5 109.5t-76 78t-107.5 28.5
q-60 0 -108.5 -28.5t-76.5 -78t-28 -109.5q0 -59 28 -108.5t76.5 -78t108.5 -28.5q59 0 107.5 28.5zM236 790h87l54 -162h-60z" />
    <glyph glyph-name="aacute" unicode="&#xe1;" horiz-adv-x="695" 
d="M167.5 24q-64.5 39 -101.5 105.5t-37 145.5q0 80 37 146.5t101 105t142 38.5q81 0 142.5 -41.5t91.5 -109.5h4v136h77v-549h-77v136h-4q-33 -74 -94.5 -113t-139.5 -39q-77 0 -141.5 39zM430.5 88.5q48.5 28.5 76 78t27.5 108.5q0 60 -27.5 109.5t-76 78t-107.5 28.5
q-60 0 -108.5 -28.5t-76.5 -78t-28 -109.5q0 -59 28 -108.5t76.5 -78t108.5 -28.5q59 0 107.5 28.5zM373 790h88l-81 -162h-60z" />
    <glyph glyph-name="acircumflex" unicode="&#xe2;" horiz-adv-x="695" 
d="M167.5 24q-64.5 39 -101.5 105.5t-37 145.5q0 80 37 146.5t101 105t142 38.5q81 0 142.5 -41.5t91.5 -109.5h4v136h77v-549h-77v136h-4q-33 -74 -94.5 -113t-139.5 -39q-77 0 -141.5 39zM430.5 88.5q48.5 28.5 76 78t27.5 108.5q0 60 -27.5 109.5t-76 78t-107.5 28.5
q-60 0 -108.5 -28.5t-76.5 -78t-28 -109.5q0 -59 28 -108.5t76.5 -78t108.5 -28.5q59 0 107.5 28.5zM322 761h56l84 -130h-70l-42 83l-44 -83h-69z" />
    <glyph glyph-name="atilde" unicode="&#xe3;" horiz-adv-x="695" 
d="M167.5 24q-64.5 39 -101.5 105.5t-37 145.5q0 80 37 146.5t101 105t142 38.5q81 0 142.5 -41.5t91.5 -109.5h4v136h77v-549h-77v136h-4q-33 -74 -94.5 -113t-139.5 -39q-77 0 -141.5 39zM430.5 88.5q48.5 28.5 76 78t27.5 108.5q0 60 -27.5 109.5t-76 78t-107.5 28.5
q-60 0 -108.5 -28.5t-76.5 -78t-28 -109.5q0 -59 28 -108.5t76.5 -78t108.5 -28.5q59 0 107.5 28.5zM372.5 646q-16.5 6 -37.5 17q-18 10 -29 14.5t-23 4.5q-26 0 -43 -26l-54 36q36 55 97 55q21 -1 37 -6.5t38 -17.5q15 -9 26.5 -13.5t23.5 -4.5q9 0 24.5 6t28.5 24l52 -38
q-22 -32 -51.5 -44.5t-53.5 -12.5q-19 0 -35.5 6z" />
    <glyph glyph-name="adieresis" unicode="&#xe4;" horiz-adv-x="695" 
d="M167.5 24q-64.5 39 -101.5 105.5t-37 145.5q0 80 37 146.5t101 105t142 38.5q81 0 142.5 -41.5t91.5 -109.5h4v136h77v-549h-77v136h-4q-33 -74 -94.5 -113t-139.5 -39q-77 0 -141.5 39zM430.5 88.5q48.5 28.5 76 78t27.5 108.5q0 60 -27.5 109.5t-76 78t-107.5 28.5
q-60 0 -108.5 -28.5t-76.5 -78t-28 -109.5q0 -59 28 -108.5t76.5 -78t108.5 -28.5q59 0 107.5 28.5zM249 649q-13 13 -13 31q0 19 13 31.5t31 12.5t30.5 -12.5t12.5 -31.5q0 -18 -12.5 -31t-30.5 -13t-31 13zM388 649q-13 13 -13 31q0 19 13 31.5t31 12.5t30.5 -12.5
t12.5 -31.5q0 -18 -12.5 -31t-30.5 -13t-31 13z" />
    <glyph glyph-name="aring" unicode="&#xe5;" horiz-adv-x="695" 
d="M167.5 24q-64.5 39 -101.5 105.5t-37 145.5q0 80 37 146.5t101 105t142 38.5q81 0 142.5 -41.5t91.5 -109.5h4v136h77v-549h-77v136h-4q-33 -74 -94.5 -113t-139.5 -39q-77 0 -141.5 39zM430.5 88.5q48.5 28.5 76 78t27.5 108.5q0 60 -27.5 109.5t-76 78t-107.5 28.5
q-60 0 -108.5 -28.5t-76.5 -78t-28 -109.5q0 -59 28 -108.5t76.5 -78t108.5 -28.5q59 0 107.5 28.5zM279.5 634q-28.5 29 -28.5 70q0 40 28.5 69t69.5 29q40 0 69 -29t29 -69q0 -41 -29 -70t-69 -29q-41 0 -69.5 29zM385 667q15 15 15 37q0 21 -15 36t-36 15t-36 -15
t-15 -36q0 -22 15 -37t36 -15t36 15z" />
    <glyph glyph-name="ae" unicode="&#xe6;" horiz-adv-x="1185" 
d="M1154 250h-506q5 -53 34.5 -96.5t77 -68.5t102.5 -25q63 0 114 32t77 87h86q-31 -86 -104.5 -139.5t-167.5 -53.5q-86 0 -148.5 42t-94.5 115v-142h-77v136h-2q-33 -74 -96.5 -113t-142.5 -39q-76 0 -139.5 39t-100.5 106t-37 145q0 80 37 146.5t100.5 105t139.5 38.5
q81 0 145 -41.5t94 -109.5h2v136h77v-138q32 71 94.5 112t148.5 41q80 0 146 -38t104.5 -104.5t38.5 -146.5q0 -16 -2 -26zM430.5 88.5q48.5 28.5 76 78t27.5 108.5q0 60 -27.5 109.5t-76 78t-107.5 28.5q-60 0 -109 -28.5t-77.5 -78t-28.5 -109.5q0 -59 28.5 -108.5
t77.5 -78t109 -28.5q59 0 107.5 28.5zM1071 314q-5 49 -34.5 89.5t-75.5 63.5t-101 23t-101 -23t-75 -63.5t-34 -89.5h421z" />
    <glyph glyph-name="ccedilla" unicode="&#xe7;" horiz-adv-x="543" 
d="M528 68q-38 -37 -86.5 -59t-103.5 -26q38 -18 38 -63q0 -44 -27 -64t-74 -20v51q22 0 35 10.5t13 29.5q0 16 -11.5 26.5t-30.5 10.5v22q-70 9 -128 50t-91 104t-33 135q0 79 39.5 146t106.5 106.5t146 39.5q62 0 117.5 -24.5t96.5 -68.5l-53 -52q-30 33 -71.5 51.5
t-89.5 18.5q-58 0 -107 -29t-78 -79t-29 -109q0 -60 29 -109.5t78 -78.5t107 -29q45 0 84.5 16.5t69.5 45.5z" />
    <glyph glyph-name="egrave" unicode="&#xe8;" horiz-adv-x="648" 
d="M175.5 25q-67.5 39 -107 106t-39.5 147q0 79 39.5 145t107 104t148.5 38t149 -38t107 -104.5t39 -146.5q0 -16 -1 -26h-506q4 -52 34 -95.5t77 -69t102 -25.5q63 0 114.5 32.5t76.5 86.5h86q-30 -86 -106 -139.5t-172 -53.5q-81 0 -148.5 39zM534 314q-5 49 -34.5 89.5
t-75.5 63.5t-101 23t-101 -23t-75 -63.5t-34 -89.5h421zM209 790h87l54 -162h-60z" />
    <glyph glyph-name="eacute" unicode="&#xe9;" horiz-adv-x="648" 
d="M175.5 25q-67.5 39 -107 106t-39.5 147q0 79 39.5 145t107 104t148.5 38t149 -38t107 -104.5t39 -146.5q0 -16 -1 -26h-506q4 -52 34 -95.5t77 -69t102 -25.5q63 0 114.5 32.5t76.5 86.5h86q-30 -86 -106 -139.5t-172 -53.5q-81 0 -148.5 39zM534 314q-5 49 -34.5 89.5
t-75.5 63.5t-101 23t-101 -23t-75 -63.5t-34 -89.5h421zM346 790h88l-81 -162h-60z" />
    <glyph glyph-name="ecircumflex" unicode="&#xea;" horiz-adv-x="648" 
d="M175.5 25q-67.5 39 -107 106t-39.5 147q0 79 39.5 145t107 104t148.5 38t149 -38t107 -104.5t39 -146.5q0 -16 -1 -26h-506q4 -52 34 -95.5t77 -69t102 -25.5q63 0 114.5 32.5t76.5 86.5h86q-30 -86 -106 -139.5t-172 -53.5q-81 0 -148.5 39zM534 314q-5 49 -34.5 89.5
t-75.5 63.5t-101 23t-101 -23t-75 -63.5t-34 -89.5h421zM295 761h56l84 -130h-70l-42 83l-44 -83h-69z" />
    <glyph glyph-name="edieresis" unicode="&#xeb;" horiz-adv-x="648" 
d="M175.5 25q-67.5 39 -107 106t-39.5 147q0 79 39.5 145t107 104t148.5 38t149 -38t107 -104.5t39 -146.5q0 -16 -1 -26h-506q4 -52 34 -95.5t77 -69t102 -25.5q63 0 114.5 32.5t76.5 86.5h86q-30 -86 -106 -139.5t-172 -53.5q-81 0 -148.5 39zM534 314q-5 49 -34.5 89.5
t-75.5 63.5t-101 23t-101 -23t-75 -63.5t-34 -89.5h421zM222 649q-13 13 -13 31q0 19 13 31.5t31 12.5t30.5 -12.5t12.5 -31.5q0 -18 -12.5 -31t-30.5 -13t-31 13zM361 649q-13 13 -13 31q0 19 13 31.5t31 12.5t30.5 -12.5t12.5 -31.5q0 -18 -12.5 -31t-30.5 -13t-31 13z
" />
    <glyph glyph-name="igrave" unicode="&#xec;" horiz-adv-x="220" 
d="M71 550h78v-549h-78v549zM-3 790h87l54 -162h-60z" />
    <glyph glyph-name="iacute" unicode="&#xed;" horiz-adv-x="220" 
d="M71 550h78v-549h-78v549zM134 790h88l-81 -162h-60z" />
    <glyph glyph-name="icircumflex" unicode="&#xee;" horiz-adv-x="220" 
d="M71 550h78v-549h-78v549zM83 761h56l84 -130h-70l-42 83l-44 -83h-69z" />
    <glyph glyph-name="idieresis" unicode="&#xef;" horiz-adv-x="220" 
d="M71 550h78v-549h-78v549zM10 649q-13 13 -13 31q0 19 13 31.5t31 12.5t30.5 -12.5t12.5 -31.5q0 -18 -12.5 -31t-30.5 -13t-31 13zM149 649q-13 13 -13 31q0 19 13 31.5t31 12.5t30.5 -12.5t12.5 -31.5q0 -18 -12.5 -31t-30.5 -13t-31 13z" />
    <glyph glyph-name="eth" unicode="&#xf0;" horiz-adv-x="560" 
d="M532 234q0 -67 -34 -124t-92 -91t-126 -34q-67 0 -125 34t-92.5 91t-34.5 124q0 64 31 120t84.5 89.5t117.5 33.5q44 0 80 -21l4 2l-66 103l-81 -28l-36 52l83 29l-59 91h93l41 -65l76 27l36 -52l-78 -27l137 -217q41 -63 41 -137zM367.5 87q39.5 23 62.5 62t23 85
q0 47 -23 87t-62.5 63t-86.5 23t-87 -23t-63.5 -63t-23.5 -87q0 -46 23.5 -85t63.5 -62t87 -23t86.5 23z" />
    <glyph glyph-name="ntilde" unicode="&#xf1;" horiz-adv-x="625" 
d="M71 550h483v-550h-78v474h-327v-474h-78v550zM490 710v-60h-355v60h355z" />
    <glyph glyph-name="ograve" unicode="&#xf2;" horiz-adv-x="641" 
d="M175 24q-67 39 -106.5 105.5t-39.5 144.5q0 79 39.5 145.5t106.5 105t146 38.5t146 -38.5t106.5 -105t39.5 -145.5q0 -78 -39.5 -144.5t-106.5 -105.5t-146 -39t-146 39zM428 88.5q49 28.5 77.5 77.5t28.5 108q0 61 -28.5 110t-77.5 76.5t-107 27.5q-59 0 -108 -27.5
t-77.5 -76.5t-28.5 -110q0 -59 29 -108t78 -77.5t107 -28.5t107 28.5zM208 790h87l54 -162h-60z" />
    <glyph glyph-name="oacute" unicode="&#xf3;" horiz-adv-x="641" 
d="M175 24q-67 39 -106.5 105.5t-39.5 144.5q0 79 39.5 145.5t106.5 105t146 38.5t146 -38.5t106.5 -105t39.5 -145.5q0 -78 -39.5 -144.5t-106.5 -105.5t-146 -39t-146 39zM428 88.5q49 28.5 77.5 77.5t28.5 108q0 61 -28.5 110t-77.5 76.5t-107 27.5q-59 0 -108 -27.5
t-77.5 -76.5t-28.5 -110q0 -59 29 -108t78 -77.5t107 -28.5t107 28.5zM344 790h88l-81 -162h-60z" />
    <glyph glyph-name="ocircumflex" unicode="&#xf4;" horiz-adv-x="641" 
d="M175 24q-67 39 -106.5 105.5t-39.5 144.5q0 79 39.5 145.5t106.5 105t146 38.5t146 -38.5t106.5 -105t39.5 -145.5q0 -78 -39.5 -144.5t-106.5 -105.5t-146 -39t-146 39zM428 88.5q49 28.5 77.5 77.5t28.5 108q0 61 -28.5 110t-77.5 76.5t-107 27.5q-59 0 -108 -27.5
t-77.5 -76.5t-28.5 -110q0 -59 29 -108t78 -77.5t107 -28.5t107 28.5zM293 761h56l84 -130h-70l-42 83l-44 -83h-69z" />
    <glyph glyph-name="otilde" unicode="&#xf5;" horiz-adv-x="641" 
d="M175 24q-67 39 -106.5 105.5t-39.5 144.5q0 79 39.5 145.5t106.5 105t146 38.5t146 -38.5t106.5 -105t39.5 -145.5q0 -78 -39.5 -144.5t-106.5 -105.5t-146 -39t-146 39zM428 88.5q49 28.5 77.5 77.5t28.5 108q0 61 -28.5 110t-77.5 76.5t-107 27.5q-59 0 -108 -27.5
t-77.5 -76.5t-28.5 -110q0 -59 29 -108t78 -77.5t107 -28.5t107 28.5zM343.5 646q-16.5 6 -37.5 17q-18 10 -29 14.5t-23 4.5q-26 0 -43 -26l-54 36q36 55 97 55q21 -1 37 -6.5t38 -17.5q15 -9 26.5 -13.5t23.5 -4.5q9 0 24.5 6t28.5 24l52 -38q-22 -32 -51.5 -44.5
t-53.5 -12.5q-19 0 -35.5 6z" />
    <glyph glyph-name="odieresis" unicode="&#xf6;" horiz-adv-x="641" 
d="M175 24q-67 39 -106.5 105.5t-39.5 144.5q0 79 39.5 145.5t106.5 105t146 38.5t146 -38.5t106.5 -105t39.5 -145.5q0 -78 -39.5 -144.5t-106.5 -105.5t-146 -39t-146 39zM428 88.5q49 28.5 77.5 77.5t28.5 108q0 61 -28.5 110t-77.5 76.5t-107 27.5q-59 0 -108 -27.5
t-77.5 -76.5t-28.5 -110q0 -59 29 -108t78 -77.5t107 -28.5t107 28.5zM220 649q-13 13 -13 31q0 19 13 31.5t31 12.5t30.5 -12.5t12.5 -31.5q0 -18 -12.5 -31t-30.5 -13t-31 13zM359 649q-13 13 -13 31q0 19 13 31.5t31 12.5t30.5 -12.5t12.5 -31.5q0 -18 -12.5 -31
t-30.5 -13t-31 13z" />
    <glyph glyph-name="divide" unicode="&#xf7;" horiz-adv-x="493" 
d="M214 506.5q-14 14.5 -14 34.5t14 34.5t35 14.5q20 0 34 -14.5t14 -34.5t-14 -34.5t-34 -14.5q-21 0 -35 14.5zM37 391h419v-71h-419v71zM214 123.5q-14 14.5 -14 34.5t14 34.5t35 14.5q20 0 34 -14.5t14 -34.5t-14 -34.5t-34 -14.5q-21 0 -35 14.5z" />
    <glyph glyph-name="oslash" unicode="&#xf8;" horiz-adv-x="641" 
d="M595.5 372.5q17.5 -46.5 17.5 -98.5q0 -78 -39.5 -144.5t-106.5 -105.5t-146 -39q-101 0 -180 62l-41 -42l-45 46l40 41q-31 38 -48.5 84.5t-17.5 97.5q0 79 39.5 145.5t106.5 105t146 38.5q50 0 96.5 -16t83.5 -45l41 41l45 -45l-40 -41q31 -38 48.5 -84.5zM146 143
l305 308q-57 41 -130 41q-61 0 -111 -28.5t-78.5 -78.5t-28.5 -111q0 -74 43 -131zM431 85.5q50 29.5 78.5 79.5t28.5 109q0 76 -42 132l-305 -308q56 -42 130 -42q60 0 110 29.5z" />
    <glyph glyph-name="ugrave" unicode="&#xf9;" horiz-adv-x="573" 
d="M169 12.5q-52 27.5 -82 79t-30 119.5v339h79v-343q0 -70 42 -108.5t108 -38.5q67 0 109 39t42 108v343h78v-339q0 -68 -30 -119.5t-82 -79t-117 -27.5t-117 27.5zM174 790h87l54 -162h-60z" />
    <glyph glyph-name="uacute" unicode="&#xfa;" horiz-adv-x="573" 
d="M169 12.5q-52 27.5 -82 79t-30 119.5v339h79v-343q0 -70 42 -108.5t108 -38.5q67 0 109 39t42 108v343h78v-339q0 -68 -30 -119.5t-82 -79t-117 -27.5t-117 27.5zM310 790h88l-81 -162h-60z" />
    <glyph glyph-name="ucircumflex" unicode="&#xfb;" horiz-adv-x="573" 
d="M169 12.5q-52 27.5 -82 79t-30 119.5v339h79v-343q0 -70 42 -108.5t108 -38.5q67 0 109 39t42 108v343h78v-339q0 -68 -30 -119.5t-82 -79t-117 -27.5t-117 27.5zM259 761h56l84 -130h-70l-42 83l-44 -83h-69z" />
    <glyph glyph-name="udieresis" unicode="&#xfc;" horiz-adv-x="573" 
d="M169 12.5q-52 27.5 -82 79t-30 119.5v339h79v-343q0 -70 42 -108.5t108 -38.5q67 0 109 39t42 108v343h78v-339q0 -68 -30 -119.5t-82 -79t-117 -27.5t-117 27.5zM186 649q-13 13 -13 31q0 19 13 31.5t31 12.5t30.5 -12.5t12.5 -31.5q0 -18 -12.5 -31t-30.5 -13t-31 13z
M325 649q-13 13 -13 31q0 19 13 31.5t31 12.5t30.5 -12.5t12.5 -31.5q0 -18 -12.5 -31t-30.5 -13t-31 13z" />
    <glyph glyph-name="yacute" unicode="&#xfd;" 
d="M228 78l-226 472h85l185 -384l172 384h85l-329 -707h-85zM289 790h88l-81 -162h-60z" />
    <glyph glyph-name="thorn" unicode="&#xfe;" horiz-adv-x="695" 
d="M71 705h79v-295h4q28 71 91 112t144 41q76 0 139.5 -39t100.5 -105t37 -145q0 -80 -37 -146.5t-100.5 -105t-139.5 -38.5q-80 0 -140.5 39t-94.5 110h-4v-290h-79v862zM480 86q49 28 77.5 77.5t28.5 110.5t-28.5 110t-77.5 76.5t-108 27.5q-58 0 -106.5 -27.5
t-76.5 -76.5t-28 -110t28 -110.5t76.5 -77.5t106.5 -28q59 0 108 28z" />
    <glyph glyph-name="ydieresis" unicode="&#xff;" 
d="M228 78l-226 472h85l185 -384l172 384h85l-329 -707h-85zM165 649q-13 13 -13 31q0 19 13 31.5t31 12.5t30.5 -12.5t12.5 -31.5q0 -18 -12.5 -31t-30.5 -13t-31 13zM304 649q-13 13 -13 31q0 19 13 31.5t31 12.5t30.5 -12.5t12.5 -31.5q0 -18 -12.5 -31t-30.5 -13t-31 13
z" />
    <glyph glyph-name="Amacron" unicode="&#x100;" horiz-adv-x="622" 
d="M262 705h97l251 -705h-84l-45 127h-340l-45 -127h-84zM454 201l-131 375q-6 18 -13 41h-2q-4 -18 -12 -41l-130 -375h288zM489 865v-60h-355v60h355z" />
    <glyph glyph-name="amacron" unicode="&#x101;" horiz-adv-x="695" 
d="M167.5 24q-64.5 39 -101.5 105.5t-37 145.5q0 80 37 146.5t101 105t142 38.5q81 0 142.5 -41.5t91.5 -109.5h4v136h77v-549h-77v136h-4q-33 -74 -94.5 -113t-139.5 -39q-77 0 -141.5 39zM430.5 88.5q48.5 28.5 76 78t27.5 108.5q0 60 -27.5 109.5t-76 78t-107.5 28.5
q-60 0 -108.5 -28.5t-76.5 -78t-28 -109.5q0 -59 28 -108.5t76.5 -78t108.5 -28.5q59 0 107.5 28.5zM526 710v-60h-355v60h355z" />
    <glyph glyph-name="Abreve" unicode="&#x102;" horiz-adv-x="622" 
d="M262 705h97l251 -705h-84l-45 127h-340l-45 -127h-84zM454 201l-131 375q-6 18 -13 41h-2q-4 -18 -12 -41l-130 -375h288zM238.5 813q-29.5 32 -29.5 82h53q0 -27 13.5 -42t35.5 -15t35.5 15t13.5 42h54q0 -50 -30 -82t-73 -32t-72.5 32z" />
    <glyph glyph-name="abreve" unicode="&#x103;" horiz-adv-x="695" 
d="M167.5 24q-64.5 39 -101.5 105.5t-37 145.5q0 80 37 146.5t101 105t142 38.5q81 0 142.5 -41.5t91.5 -109.5h4v136h77v-549h-77v136h-4q-33 -74 -94.5 -113t-139.5 -39q-77 0 -141.5 39zM430.5 88.5q48.5 28.5 76 78t27.5 108.5q0 60 -27.5 109.5t-76 78t-107.5 28.5
q-60 0 -108.5 -28.5t-76.5 -78t-28 -109.5q0 -59 28 -108.5t76.5 -78t108.5 -28.5q59 0 107.5 28.5zM276.5 658q-29.5 32 -29.5 82h53q0 -27 13.5 -42t35.5 -15t35.5 15t13.5 42h54q0 -50 -30 -82t-73 -32t-72.5 32z" />
    <glyph glyph-name="Aogonek" unicode="&#x104;" horiz-adv-x="622" 
d="M604 -93v-48q-48 0 -76 19.5t-28 59.5q0 37 26 63l-45 126h-340l-45 -127h-84l250 705h97l251 -705h-13q-20 0 -33 -14.5t-13 -36.5q0 -42 53 -42zM454 201l-131 375q-6 18 -13 41h-2q-4 -18 -12 -41l-130 -375h288z" />
    <glyph glyph-name="aogonek" unicode="&#x105;" horiz-adv-x="695" 
d="M624 1h-7v-1q-20 0 -33.5 -14.5t-13.5 -36.5q0 -42 54 -42v-48q-48 0 -76.5 19.5t-28.5 59.5q0 19 7.5 35.5t20.5 28.5v135h-4q-33 -74 -94.5 -113t-139.5 -39q-77 0 -141.5 39t-101.5 105.5t-37 145.5q0 80 37 146.5t101 105t142 38.5q81 0 142.5 -41.5t91.5 -109.5h4
v136h77v-549zM430.5 88.5q48.5 28.5 76 78t27.5 108.5q0 60 -27.5 109.5t-76 78t-107.5 28.5q-60 0 -108.5 -28.5t-76.5 -78t-28 -109.5q0 -59 28 -108.5t76.5 -78t108.5 -28.5q59 0 107.5 28.5z" />
    <glyph glyph-name="Cacute" unicode="&#x106;" horiz-adv-x="688" 
d="M223 34.5q-84 49.5 -133.5 134t-49.5 186.5q0 100 49.5 184t133.5 132.5t185 48.5q74 0 142.5 -29.5t118.5 -81.5l-47 -51q-42 41 -96.5 63.5t-117.5 22.5q-79 0 -144.5 -38t-103.5 -104t-38 -147q0 -83 38 -150t103.5 -105.5t144.5 -38.5q61 0 114 22t93 61l49 -52
q-50 -50 -116.5 -78.5t-139.5 -28.5q-101 0 -185 49.5zM425 945h88l-81 -162h-60z" />
    <glyph glyph-name="cacute" unicode="&#x107;" horiz-adv-x="543" 
d="M175 22.5q-67 39.5 -106.5 106.5t-39.5 146t39.5 146t106.5 106.5t146 39.5q62 0 117.5 -24.5t96.5 -68.5l-53 -52q-30 33 -71.5 51.5t-89.5 18.5q-58 0 -107 -29t-78 -79t-29 -109q0 -60 29 -109.5t78 -78.5t107 -29q45 0 84.5 16.5t69.5 45.5l53 -52q-41 -41 -94 -63
t-113 -22q-79 0 -146 39.5zM345 790h88l-81 -162h-60z" />
    <glyph glyph-name="Ccircumflex" unicode="&#x108;" horiz-adv-x="688" 
d="M223 34.5q-84 49.5 -133.5 134t-49.5 186.5q0 100 49.5 184t133.5 132.5t185 48.5q74 0 142.5 -29.5t118.5 -81.5l-47 -51q-42 41 -96.5 63.5t-117.5 22.5q-79 0 -144.5 -38t-103.5 -104t-38 -147q0 -83 38 -150t103.5 -105.5t144.5 -38.5q61 0 114 22t93 61l49 -52
q-50 -50 -116.5 -78.5t-139.5 -28.5q-101 0 -185 49.5zM374 916h56l84 -130h-70l-42 83l-44 -83h-69z" />
    <glyph glyph-name="ccircumflex" unicode="&#x109;" horiz-adv-x="543" 
d="M175 22.5q-67 39.5 -106.5 106.5t-39.5 146t39.5 146t106.5 106.5t146 39.5q62 0 117.5 -24.5t96.5 -68.5l-53 -52q-30 33 -71.5 51.5t-89.5 18.5q-58 0 -107 -29t-78 -79t-29 -109q0 -60 29 -109.5t78 -78.5t107 -29q45 0 84.5 16.5t69.5 45.5l53 -52q-41 -41 -94 -63
t-113 -22q-79 0 -146 39.5zM294 761h56l84 -130h-70l-42 83l-44 -83h-69z" />
    <glyph glyph-name="Cdotaccent" unicode="&#x10a;" horiz-adv-x="688" 
d="M223 34.5q-84 49.5 -133.5 134t-49.5 186.5q0 100 49.5 184t133.5 132.5t185 48.5q74 0 142.5 -29.5t118.5 -81.5l-47 -51q-42 41 -96.5 63.5t-117.5 22.5q-79 0 -144.5 -38t-103.5 -104t-38 -147q0 -83 38 -150t103.5 -105.5t144.5 -38.5q61 0 114 22t93 61l49 -52
q-50 -50 -116.5 -78.5t-139.5 -28.5q-101 0 -185 49.5zM366.5 819.5q-14.5 14.5 -14.5 34.5t14.5 34.5t34.5 14.5t34.5 -14.5t14.5 -34.5t-14.5 -34.5t-34.5 -14.5t-34.5 14.5z" />
    <glyph glyph-name="cdotaccent" unicode="&#x10b;" horiz-adv-x="543" 
d="M175 22.5q-67 39.5 -106.5 106.5t-39.5 146t39.5 146t106.5 106.5t146 39.5q62 0 117.5 -24.5t96.5 -68.5l-53 -52q-30 33 -71.5 51.5t-89.5 18.5q-58 0 -107 -29t-78 -79t-29 -109q0 -60 29 -109.5t78 -78.5t107 -29q45 0 84.5 16.5t69.5 45.5l53 -52q-41 -41 -94 -63
t-113 -22q-79 0 -146 39.5zM286.5 664.5q-14.5 14.5 -14.5 34.5t14.5 34.5t34.5 14.5t34.5 -14.5t14.5 -34.5t-14.5 -34.5t-34.5 -14.5t-34.5 14.5z" />
    <glyph glyph-name="Ccaron" unicode="&#x10c;" horiz-adv-x="688" 
d="M223 34.5q-84 49.5 -133.5 134t-49.5 186.5q0 100 49.5 184t133.5 132.5t185 48.5q74 0 142.5 -29.5t118.5 -81.5l-47 -51q-42 41 -96.5 63.5t-117.5 22.5q-79 0 -144.5 -38t-103.5 -104t-38 -147q0 -83 38 -150t103.5 -105.5t144.5 -38.5q61 0 114 22t93 61l49 -52
q-50 -50 -116.5 -78.5t-139.5 -28.5q-101 0 -185 49.5zM289 916h69l44 -83l42 83h70l-84 -130h-56z" />
    <glyph glyph-name="ccaron" unicode="&#x10d;" horiz-adv-x="543" 
d="M175 22.5q-67 39.5 -106.5 106.5t-39.5 146t39.5 146t106.5 106.5t146 39.5q62 0 117.5 -24.5t96.5 -68.5l-53 -52q-30 33 -71.5 51.5t-89.5 18.5q-58 0 -107 -29t-78 -79t-29 -109q0 -60 29 -109.5t78 -78.5t107 -29q45 0 84.5 16.5t69.5 45.5l53 -52q-41 -41 -94 -63
t-113 -22q-79 0 -146 39.5zM209 761h69l44 -83l42 83h70l-84 -130h-56z" />
    <glyph glyph-name="Dcaron" unicode="&#x10e;" horiz-adv-x="699" 
d="M88 705h218q96 0 177 -47.5t128.5 -128.5t47.5 -177t-47.5 -176.5t-128.5 -128t-177 -47.5h-218v705zM306 74q74 0 137 37t100 101t37 140t-37 140t-100 101.5t-137 37.5h-140v-557h140zM193 916h69l44 -83l42 83h70l-84 -130h-56z" />
    <glyph glyph-name="dcaron" unicode="&#x10f;" horiz-adv-x="812" 
d="M166 24q-64 39 -100.5 105.5t-36.5 145.5q0 80 36.5 146.5t100 105t140.5 38.5q81 0 143 -41.5t92 -109.5h4v291h78v-704h-77v136h-3q-33 -74 -96 -113t-141 -39q-76 0 -140 39zM430.5 88.5q48.5 28.5 76 78t27.5 108.5q0 60 -27.5 109.5t-76 78t-107.5 28.5
q-60 0 -108.5 -28.5t-76.5 -78t-28 -109.5q0 -59 28 -108.5t76.5 -78t108.5 -28.5q59 0 107.5 28.5zM735 617q-10 6 -15.5 16.5t-5.5 22.5q0 20 14.5 35t34.5 15t34.5 -15t14.5 -35q0 -10 -5 -22l-43 -118h-50z" />
    <glyph glyph-name="Dcroat" unicode="&#x110;" horiz-adv-x="699" 
d="M483 657.5q81 -47.5 128.5 -128.5t47.5 -177t-47.5 -176.5t-128.5 -128t-177 -47.5h-218v705h218q96 0 177 -47.5zM443 111q63 37 100 101t37 140t-37 140t-100 101.5t-137 37.5h-140v-236h189v-74h-189v-247h140q74 0 137 37z" />
    <glyph glyph-name="dcroat" unicode="&#x111;" horiz-adv-x="694" 
d="M681 570h-58v-569h-77v129h-3q-33 -69 -96 -107t-141 -38q-76 0 -139.5 38.5t-100.5 103t-37 140.5t36.5 140t100 101t140.5 37q83 0 147 -40.5t88 -106.5h4v172h-111v65h111v70h78v-70h58v-65zM429 87q48 27 76.5 76t28.5 111q0 53 -28.5 99t-77 73.5t-105.5 27.5
q-59 0 -107.5 -27.5t-77 -75t-28.5 -104.5q0 -56 28.5 -103.5t77.5 -75.5t107 -28t106 27z" />
    <glyph glyph-name="Emacron" unicode="&#x112;" horiz-adv-x="570" 
d="M88 705h445v-74h-367v-241h310v-74h-310v-242h367v-74h-445v705zM494 865v-60h-355v60h355z" />
    <glyph glyph-name="emacron" unicode="&#x113;" horiz-adv-x="648" 
d="M175.5 25q-67.5 39 -107 106t-39.5 147q0 79 39.5 145t107 104t148.5 38t149 -38t107 -104.5t39 -146.5q0 -16 -1 -26h-506q4 -52 34 -95.5t77 -69t102 -25.5q63 0 114.5 32.5t76.5 86.5h86q-30 -86 -106 -139.5t-172 -53.5q-81 0 -148.5 39zM534 314q-5 49 -34.5 89.5
t-75.5 63.5t-101 23t-101 -23t-75 -63.5t-34 -89.5h421zM499 710v-60h-355v60h355z" />
    <glyph glyph-name="Ebreve" unicode="&#x114;" horiz-adv-x="570" 
d="M88 705h445v-74h-367v-241h310v-74h-310v-242h367v-74h-445v705zM244.5 813q-29.5 32 -29.5 82h53q0 -27 13.5 -42t35.5 -15t35.5 15t13.5 42h54q0 -50 -30 -82t-73 -32t-72.5 32z" />
    <glyph glyph-name="ebreve" unicode="&#x115;" horiz-adv-x="648" 
d="M175.5 25q-67.5 39 -107 106t-39.5 147q0 79 39.5 145t107 104t148.5 38t149 -38t107 -104.5t39 -146.5q0 -16 -1 -26h-506q4 -52 34 -95.5t77 -69t102 -25.5q63 0 114.5 32.5t76.5 86.5h86q-30 -86 -106 -139.5t-172 -53.5q-81 0 -148.5 39zM534 314q-5 49 -34.5 89.5
t-75.5 63.5t-101 23t-101 -23t-75 -63.5t-34 -89.5h421zM249.5 658q-29.5 32 -29.5 82h53q0 -27 13.5 -42t35.5 -15t35.5 15t13.5 42h54q0 -50 -30 -82t-73 -32t-72.5 32z" />
    <glyph glyph-name="Edotaccent" unicode="&#x116;" horiz-adv-x="570" 
d="M88 705h445v-74h-367v-241h310v-74h-310v-242h367v-74h-445v705zM281.5 819.5q-14.5 14.5 -14.5 34.5t14.5 34.5t34.5 14.5t34.5 -14.5t14.5 -34.5t-14.5 -34.5t-34.5 -14.5t-34.5 14.5z" />
    <glyph glyph-name="edotaccent" unicode="&#x117;" horiz-adv-x="648" 
d="M175.5 25q-67.5 39 -107 106t-39.5 147q0 79 39.5 145t107 104t148.5 38t149 -38t107 -104.5t39 -146.5q0 -16 -1 -26h-506q4 -52 34 -95.5t77 -69t102 -25.5q63 0 114.5 32.5t76.5 86.5h86q-30 -86 -106 -139.5t-172 -53.5q-81 0 -148.5 39zM534 314q-5 49 -34.5 89.5
t-75.5 63.5t-101 23t-101 -23t-75 -63.5t-34 -89.5h421zM287.5 664.5q-14.5 14.5 -14.5 34.5t14.5 34.5t34.5 14.5t34.5 -14.5t14.5 -34.5t-14.5 -34.5t-34.5 -14.5t-34.5 14.5z" />
    <glyph glyph-name="Eogonek" unicode="&#x118;" horiz-adv-x="570" 
d="M166 631v-241h310v-74h-310v-242h367v-74h-26q-20 0 -33 -14.5t-13 -36.5q0 -42 53 -42v-48q-48 0 -76 19.5t-28 59.5q0 35 25 62h-347v705h445v-74h-367z" />
    <glyph glyph-name="eogonek" unicode="&#x119;" horiz-adv-x="648" 
d="M618 250h-506q4 -52 34 -95.5t77 -69t102 -25.5q63 0 114.5 32.5t76.5 86.5h86q-25 -71 -82 -120.5t-132 -65.5q-10 -7 -16 -18.5t-6 -25.5q0 -42 54 -42v-48q-48 0 -76.5 19.5t-28.5 59.5q0 26 14 48h-5q-81 0 -148.5 39t-107 106t-39.5 147q0 79 39.5 145t107 104
t148.5 38t149 -38t107 -104.5t39 -146.5q0 -16 -1 -26zM534 314q-5 49 -34.5 89.5t-75.5 63.5t-101 23t-101 -23t-75 -63.5t-34 -89.5h421z" />
    <glyph glyph-name="Ecaron" unicode="&#x11a;" horiz-adv-x="570" 
d="M88 705h445v-74h-367v-241h310v-74h-310v-242h367v-74h-445v705zM204 916h69l44 -83l42 83h70l-84 -130h-56z" />
    <glyph glyph-name="ecaron" unicode="&#x11b;" horiz-adv-x="648" 
d="M175.5 25q-67.5 39 -107 106t-39.5 147q0 79 39.5 145t107 104t148.5 38t149 -38t107 -104.5t39 -146.5q0 -16 -1 -26h-506q4 -52 34 -95.5t77 -69t102 -25.5q63 0 114.5 32.5t76.5 86.5h86q-30 -86 -106 -139.5t-172 -53.5q-81 0 -148.5 39zM534 314q-5 49 -34.5 89.5
t-75.5 63.5t-101 23t-101 -23t-75 -63.5t-34 -89.5h421zM210 761h69l44 -83l42 83h70l-84 -130h-56z" />
    <glyph glyph-name="Gcircumflex" unicode="&#x11c;" horiz-adv-x="748" 
d="M223 34.5q-84 49.5 -133.5 134t-49.5 183.5q0 101 49.5 185.5t133.5 133.5t184 49q77 0 150 -30.5t122 -86.5l-50 -51q-49 48 -101.5 71.5t-120.5 23.5q-78 0 -144.5 -39.5t-105 -107t-38.5 -148.5q0 -80 38.5 -147.5t105 -106.5t144.5 -39q63 0 115 20t95 64v171h-164
v74h243v-267q-42 -53 -115 -94.5t-174 -41.5q-100 0 -184 49.5zM383 916h56l84 -130h-70l-42 83l-44 -83h-69z" />
    <glyph glyph-name="gcircumflex" unicode="&#x11d;" horiz-adv-x="632" 
d="M65 -12h76v-78h375v20q-7 1 -50 12l-231 68q-102 32 -154 104.5t-52 162.5q0 76 37 138.5t101 98.5t143 36h260v-59h-77q-15 0 -23 2h-5q53 -35 84.5 -92.5t31.5 -123.5q0 -61 -25 -112.5t-69.5 -86.5t-100.5 -46v-5q38 -6 55 -11l139 -38v-136h-515v146zM404.5 105.5
q45.5 26.5 72 71.5t26.5 100q0 54 -25.5 98.5t-70 71.5t-97.5 28q-59 -1 -105.5 -27.5t-72 -71t-25.5 -99.5t26.5 -100t72 -71.5t99.5 -26.5t99.5 26.5zM309 761h56l84 -130h-70l-42 83l-44 -83h-69z" />
    <glyph glyph-name="Gbreve" unicode="&#x11e;" horiz-adv-x="748" 
d="M223 34.5q-84 49.5 -133.5 134t-49.5 183.5q0 101 49.5 185.5t133.5 133.5t184 49q77 0 150 -30.5t122 -86.5l-50 -51q-49 48 -101.5 71.5t-120.5 23.5q-78 0 -144.5 -39.5t-105 -107t-38.5 -148.5q0 -80 38.5 -147.5t105 -106.5t144.5 -39q63 0 115 20t95 64v171h-164
v74h243v-267q-42 -53 -115 -94.5t-174 -41.5q-100 0 -184 49.5zM338.5 813q-29.5 32 -29.5 82h53q0 -27 13.5 -42t35.5 -15t35.5 15t13.5 42h54q0 -50 -30 -82t-73 -32t-72.5 32z" />
    <glyph glyph-name="gbreve" unicode="&#x11f;" horiz-adv-x="632" 
d="M65 -12h76v-78h375v20q-7 1 -50 12l-231 68q-102 32 -154 104.5t-52 162.5q0 76 37 138.5t101 98.5t143 36h260v-59h-77q-15 0 -23 2h-5q53 -35 84.5 -92.5t31.5 -123.5q0 -61 -25 -112.5t-69.5 -86.5t-100.5 -46v-5q38 -6 55 -11l139 -38v-136h-515v146zM404.5 105.5
q45.5 26.5 72 71.5t26.5 100q0 54 -25.5 98.5t-70 71.5t-97.5 28q-59 -1 -105.5 -27.5t-72 -71t-25.5 -99.5t26.5 -100t72 -71.5t99.5 -26.5t99.5 26.5zM263.5 658q-29.5 32 -29.5 82h53q0 -27 13.5 -42t35.5 -15t35.5 15t13.5 42h54q0 -50 -30 -82t-73 -32t-72.5 32z" />
    <glyph glyph-name="Gdotaccent" unicode="&#x120;" horiz-adv-x="748" 
d="M223 34.5q-84 49.5 -133.5 134t-49.5 183.5q0 101 49.5 185.5t133.5 133.5t184 49q77 0 150 -30.5t122 -86.5l-50 -51q-49 48 -101.5 71.5t-120.5 23.5q-78 0 -144.5 -39.5t-105 -107t-38.5 -148.5q0 -80 38.5 -147.5t105 -106.5t144.5 -39q63 0 115 20t95 64v171h-164
v74h243v-267q-42 -53 -115 -94.5t-174 -41.5q-100 0 -184 49.5zM375.5 819.5q-14.5 14.5 -14.5 34.5t14.5 34.5t34.5 14.5t34.5 -14.5t14.5 -34.5t-14.5 -34.5t-34.5 -14.5t-34.5 14.5z" />
    <glyph glyph-name="gdotaccent" unicode="&#x121;" horiz-adv-x="632" 
d="M65 -12h76v-78h375v20q-7 1 -50 12l-231 68q-102 32 -154 104.5t-52 162.5q0 76 37 138.5t101 98.5t143 36h260v-59h-77q-15 0 -23 2h-5q53 -35 84.5 -92.5t31.5 -123.5q0 -61 -25 -112.5t-69.5 -86.5t-100.5 -46v-5q38 -6 55 -11l139 -38v-136h-515v146zM404.5 105.5
q45.5 26.5 72 71.5t26.5 100q0 54 -25.5 98.5t-70 71.5t-97.5 28q-59 -1 -105.5 -27.5t-72 -71t-25.5 -99.5t26.5 -100t72 -71.5t99.5 -26.5t99.5 26.5zM301.5 664.5q-14.5 14.5 -14.5 34.5t14.5 34.5t34.5 14.5t34.5 -14.5t14.5 -34.5t-14.5 -34.5t-34.5 -14.5t-34.5 14.5z
" />
    <glyph glyph-name="uni0122" unicode="&#x122;" horiz-adv-x="748" 
d="M223 34.5q-84 49.5 -133.5 134t-49.5 183.5q0 101 49.5 185.5t133.5 133.5t184 49q77 0 150 -30.5t122 -86.5l-50 -51q-49 48 -101.5 71.5t-120.5 23.5q-78 0 -144.5 -39.5t-105 -107t-38.5 -148.5q0 -80 38.5 -147.5t105 -106.5t144.5 -39q63 0 115 20t95 64v171h-164
v74h243v-267q-42 -53 -115 -94.5t-174 -41.5q-100 0 -184 49.5zM376 -48h79l-66 -168h-52z" />
    <glyph glyph-name="uni0123" unicode="&#x123;" horiz-adv-x="632" 
d="M65 -12h76v-78h375v20q-7 1 -50 12l-231 68q-102 32 -154 104.5t-52 162.5q0 76 37 138.5t101 98.5t143 36h260v-59h-77q-15 0 -23 2h-5q53 -35 84.5 -92.5t31.5 -123.5q0 -61 -25 -112.5t-69.5 -86.5t-100.5 -46v-5q38 -6 55 -11l139 -38v-136h-515v146zM404.5 105.5
q45.5 26.5 72 71.5t26.5 100q0 54 -25.5 98.5t-70 71.5t-97.5 28q-59 -1 -105.5 -27.5t-72 -71t-25.5 -99.5t26.5 -100t72 -71.5t99.5 -26.5t99.5 26.5zM351 616h-73l61 158h50z" />
    <glyph glyph-name="Hcircumflex" unicode="&#x124;" horiz-adv-x="713" 
d="M88 704h79v-315h381v315h77v-704h-77v315h-381v-315h-79v704zM330 913h56l84 -130h-70l-42 83l-44 -83h-69z" />
    <glyph glyph-name="hcircumflex" unicode="&#x125;" horiz-adv-x="625" 
d="M554 550v-550h-78v474h-327v-474h-78v705h78v-155h405zM81 906h56l84 -130h-70l-42 83l-44 -83h-69z" />
    <glyph glyph-name="Hbar" unicode="&#x126;" horiz-adv-x="713" 
d="M688 514h-63v-514h-77v284h-381v-284h-79v514h-61v70h61v120h79v-120h381v120h77v-120h63v-70zM548 514h-381v-156h381v156z" />
    <glyph glyph-name="hbar" unicode="&#x127;" horiz-adv-x="625" 
d="M554 503v-503h-78v428h-327v-428h-78v575h-59v65h59v65h78v-65h111v-65h-111v-72h405z" />
    <glyph glyph-name="Itilde" unicode="&#x128;" horiz-adv-x="255" 
d="M151.5 801q-15.5 6 -35.5 17q-18 10 -29 14.5t-22 4.5q-12 0 -22 -5.5t-20 -20.5l-52 36q35 55 95 55q21 -1 37 -7t35 -17q16 -9 26.5 -13.5t21.5 -4.5q9 0 23.5 6t27.5 24l51 -38q-22 -32 -50.5 -44.5t-51.5 -12.5q-19 0 -34.5 6zM88 704h79v-704h-79v704z" />
    <glyph glyph-name="itilde" unicode="&#x129;" horiz-adv-x="220" 
d="M128.5 646q-13.5 6 -30.5 17q-15 10 -24 14.5t-19 4.5t-19 -5.5t-17 -20.5l-44 36q30 55 80 55q17 -1 30 -7t31 -17q2 -1 10.5 -7t16 -8.5t14.5 -2.5t19.5 6t23.5 24l43 -38q-18 -32 -42.5 -44.5t-43.5 -12.5q-15 0 -28.5 6zM71 550h78v-549h-78v549z" />
    <glyph glyph-name="Imacron" unicode="&#x12a;" horiz-adv-x="255" 
d="M300 865v-60h-344v60h344zM88 704h79v-704h-79v704z" />
    <glyph glyph-name="imacron" unicode="&#x12b;" horiz-adv-x="220" 
d="M237 710v-60h-255v60h255zM71 550h78v-549h-78v549z" />
    <glyph glyph-name="Ibreve" unicode="&#x12c;" horiz-adv-x="255" 
d="M88 704h79v-704h-79v704zM55.5 813q-29.5 32 -29.5 82h53q0 -27 13.5 -42t35.5 -15t35.5 15t13.5 42h54q0 -50 -30 -82t-73 -32t-72.5 32z" />
    <glyph glyph-name="Iogonek" unicode="&#x12e;" horiz-adv-x="255" 
d="M125 -14.5q-13 -14.5 -13 -36.5q0 -42 53 -42v-48q-48 0 -76 19.5t-28 59.5q0 37 27 64v702h79v-704h-8q-21 0 -34 -14.5z" />
    <glyph glyph-name="iogonek" unicode="&#x12f;" horiz-adv-x="220" 
d="M75.5 664.5q-14.5 14.5 -14.5 34.5t14.5 34.5t34.5 14.5t34.5 -14.5t14.5 -34.5t-14.5 -34.5t-34.5 -14.5t-34.5 14.5zM71 550h78v-549h-8q-20 0 -33.5 -14.5t-13.5 -36.5t14.5 -32.5t39.5 -10.5v-48q-48 0 -76.5 19.5t-28.5 59.5q0 39 28 65v547z" />
    <glyph glyph-name="Idotaccent" unicode="&#x130;" horiz-adv-x="255" 
d="M88 704h79v-704h-79v704zM92.5 819.5q-14.5 14.5 -14.5 34.5t14.5 34.5t34.5 14.5t34.5 -14.5t14.5 -34.5t-14.5 -34.5t-34.5 -14.5t-34.5 14.5z" />
    <glyph glyph-name="dotlessi" unicode="&#x131;" horiz-adv-x="220" 
d="M71 550h78v-549h-78v549z" />
    <glyph glyph-name="IJ" unicode="&#x132;" horiz-adv-x="783" 
d="M88 704h79v-704h-79v704zM378 13.5q-49 28.5 -76.5 77.5t-27.5 107h78q0 -58 38.5 -98t97.5 -40q60 0 99 37.5t39 97.5v510h78v-507q0 -61 -29 -109.5t-78.5 -76t-108.5 -27.5q-61 0 -110 28.5z" />
    <glyph glyph-name="ij" unicode="&#x133;" horiz-adv-x="440" 
d="M75.5 669.5q-14.5 14.5 -14.5 34.5t14.5 34.5t34.5 14.5t34.5 -14.5t14.5 -34.5t-14.5 -34.5t-34.5 -14.5t-34.5 14.5zM71 550h78v-549h-78v549zM366 701q0 -16 -11 -26t-25 -10q-10 0 -17 4q-9 5 -14 14t-5 18q0 10 4 17q12 20 33 20q7 0 17 -5q18 -10 18 -32zM291 550
h79v-707h-175v71h96v636z" />
    <glyph glyph-name="Jcircumflex" unicode="&#x134;" horiz-adv-x="528" 
d="M123 13.5q-49 28.5 -76.5 77.5t-27.5 107h78q0 -58 38.5 -98t97.5 -40q60 0 99 37.5t39 97.5v510h78v-507q0 -61 -29 -109.5t-78.5 -76t-108.5 -27.5q-61 0 -110 28.5zM380 916h56l84 -130h-70l-42 83l-44 -83h-69z" />
    <glyph glyph-name="jcircumflex" unicode="&#x135;" horiz-adv-x="220" 
d="M71 550h79v-707h-175v71h96v636zM83 761h56l84 -130h-70l-42 83l-44 -83h-69z" />
    <glyph glyph-name="uni0136" unicode="&#x136;" horiz-adv-x="592" 
d="M88 705h78v-325h147l189 325h87l-210 -359l200 -346h-87l-179 306h-147v-306h-78v705zM254 -48h79l-66 -168h-52z" />
    <glyph glyph-name="uni0137" unicode="&#x137;" horiz-adv-x="559" 
d="M71 708h78v-379h122l139 221h85l-140 -221h157v-329h-78v255h-285v-255h-78v708zM262 -48h79l-66 -168h-52z" />
    <glyph glyph-name="kgreenlandic" unicode="&#x138;" horiz-adv-x="559" 
d="M71 550h78v-221h122l139 221h85l-140 -221h157v-329h-78v254h-285v-254h-78v550z" />
    <glyph glyph-name="Lacute" unicode="&#x139;" horiz-adv-x="500" 
d="M88 705h77v-631h322v-75h-399v706zM152 945h88l-81 -162h-60z" />
    <glyph glyph-name="lacute" unicode="&#x13a;" horiz-adv-x="220" 
d="M71 705h78v-705h-78v705zM133 942h88l-81 -162h-60z" />
    <glyph glyph-name="uni013B" unicode="&#x13b;" horiz-adv-x="500" 
d="M88 705h77v-631h322v-75h-399v706zM246 -48h79l-66 -168h-52z" />
    <glyph glyph-name="uni013C" unicode="&#x13c;" horiz-adv-x="220" 
d="M71 705h78v-705h-78v705zM75 -48h79l-66 -168h-52z" />
    <glyph glyph-name="Lcaron" unicode="&#x13d;" horiz-adv-x="552" 
d="M88 705h77v-631h322v-75h-399v706zM417 624q-10 6 -15.5 16.5t-5.5 22.5q0 20 14.5 35t34.5 15t34.5 -15t14.5 -35q0 -10 -5 -22l-43 -118h-50z" />
    <glyph glyph-name="lcaron" unicode="&#x13e;" horiz-adv-x="322" 
d="M71 705h78v-705h-78v705zM244 618q-10 6 -15.5 16.5t-5.5 22.5q0 20 14.5 35t34.5 15t34.5 -15t14.5 -35q0 -10 -5 -22l-43 -118h-50z" />
    <glyph glyph-name="Ldot" unicode="&#x13f;" horiz-adv-x="500" 
d="M88 705h77v-631h322v-75h-399v706zM356.5 328.5q-14.5 14.5 -14.5 34.5t14.5 34.5t34.5 14.5t34.5 -14.5t14.5 -34.5t-14.5 -34.5t-34.5 -14.5t-34.5 14.5z" />
    <glyph glyph-name="ldot" unicode="&#x140;" horiz-adv-x="308" 
d="M71 705h78v-705h-78v705zM227.5 291.5q-14.5 14.5 -14.5 34.5t14.5 34.5t34.5 14.5t34.5 -14.5t14.5 -34.5t-14.5 -34.5t-34.5 -14.5t-34.5 14.5z" />
    <glyph glyph-name="Lslash" unicode="&#x141;" horiz-adv-x="500" 
d="M487 74v-75h-399v248l-78 -55v74l78 55v384h77v-330l119 84v-74l-119 -84v-227h322z" />
    <glyph glyph-name="lslash" unicode="&#x142;" horiz-adv-x="226" 
d="M216 370l-64 -52v-318h-78v255l-64 -52v76l64 52v374h78v-311l64 52v-76z" />
    <glyph glyph-name="Nacute" unicode="&#x143;" horiz-adv-x="709" 
d="M88 705h84l334 -526q13 -20 24 -44l10 -20h2v588h79v-703h-88l-339 534q-16 26 -26 51h-2v-585h-78v705zM384 945h88l-81 -162h-60z" />
    <glyph glyph-name="nacute" unicode="&#x144;" horiz-adv-x="625" 
d="M71 550h483v-550h-78v474h-327v-474h-78v550zM336 790h88l-81 -162h-60z" />
    <glyph glyph-name="uni0145" unicode="&#x145;" horiz-adv-x="709" 
d="M88 705h84l334 -526q13 -20 24 -44l10 -20h2v588h79v-703h-88l-339 534q-16 26 -26 51h-2v-585h-78v705zM327 -48h79l-66 -168h-52z" />
    <glyph glyph-name="uni0146" unicode="&#x146;" horiz-adv-x="625" 
d="M71 550h483v-550h-78v474h-327v-474h-78v550zM286 -48h79l-66 -168h-52z" />
    <glyph glyph-name="Ncaron" unicode="&#x147;" horiz-adv-x="709" 
d="M88 705h84l334 -526q13 -20 24 -44l10 -20h2v588h79v-703h-88l-339 534q-16 26 -26 51h-2v-585h-78v705zM248 916h69l44 -83l42 83h70l-84 -130h-56z" />
    <glyph glyph-name="ncaron" unicode="&#x148;" horiz-adv-x="625" 
d="M71 550h483v-550h-78v474h-327v-474h-78v550zM200 761h69l44 -83l42 83h70l-84 -130h-56z" />
    <glyph glyph-name="napostrophe" unicode="&#x149;" horiz-adv-x="625" 
d="M71 550h483v-550h-78v474h-327v-474h-78v550zM98 736q-10 6 -15.5 16.5t-5.5 22.5q0 20 14.5 35t34.5 15t34.5 -15t14.5 -35q0 -10 -5 -22l-43 -118h-50z" />
    <glyph glyph-name="Eng" unicode="&#x14a;" horiz-adv-x="709" 
d="M88 705h84l334 -516q13 -20 24 -44l10 -20h2v578h79v-860h-175v71h97v80l-349 540q-14 21 -26 51h-2v-585h-78v705z" />
    <glyph glyph-name="eng" unicode="&#x14b;" horiz-adv-x="625" 
d="M71 550h483v-707h-175v71h96v560h-326v-474h-78v550z" />
    <glyph glyph-name="Omacron" unicode="&#x14c;" horiz-adv-x="814" 
d="M223.5 33.5q-84.5 49.5 -134 134t-49.5 184.5t49.5 184t134 133t183.5 49q100 0 184.5 -49t133.5 -133t49 -184t-49 -184.5t-133.5 -134t-184.5 -49.5q-99 0 -183.5 49.5zM553.5 99q66.5 39 105 106t38.5 147t-38.5 147t-105 106t-146.5 39t-146 -39t-104 -106t-38 -147
t38 -147t104 -106t146 -39t146.5 39zM585 865v-60h-355v60h355z" />
    <glyph glyph-name="omacron" unicode="&#x14d;" horiz-adv-x="641" 
d="M175 24q-67 39 -106.5 105.5t-39.5 144.5q0 79 39.5 145.5t106.5 105t146 38.5t146 -38.5t106.5 -105t39.5 -145.5q0 -78 -39.5 -144.5t-106.5 -105.5t-146 -39t-146 39zM428 88.5q49 28.5 77.5 77.5t28.5 108q0 61 -28.5 110t-77.5 76.5t-107 27.5q-59 0 -108 -27.5
t-77.5 -76.5t-28.5 -110q0 -59 29 -108t78 -77.5t107 -28.5t107 28.5zM498 710v-60h-355v60h355z" />
    <glyph glyph-name="Obreve" unicode="&#x14e;" horiz-adv-x="814" 
d="M223.5 33.5q-84.5 49.5 -134 134t-49.5 184.5t49.5 184t134 133t183.5 49q100 0 184.5 -49t133.5 -133t49 -184t-49 -184.5t-133.5 -134t-184.5 -49.5q-99 0 -183.5 49.5zM553.5 99q66.5 39 105 106t38.5 147t-38.5 147t-105 106t-146.5 39t-146 -39t-104 -106t-38 -147
t38 -147t104 -106t146 -39t146.5 39zM334.5 813q-29.5 32 -29.5 82h53q0 -27 13.5 -42t35.5 -15t35.5 15t13.5 42h54q0 -50 -30 -82t-73 -32t-72.5 32z" />
    <glyph glyph-name="obreve" unicode="&#x14f;" horiz-adv-x="641" 
d="M175 24q-67 39 -106.5 105.5t-39.5 144.5q0 79 39.5 145.5t106.5 105t146 38.5t146 -38.5t106.5 -105t39.5 -145.5q0 -78 -39.5 -144.5t-106.5 -105.5t-146 -39t-146 39zM428 88.5q49 28.5 77.5 77.5t28.5 108q0 61 -28.5 110t-77.5 76.5t-107 27.5q-59 0 -108 -27.5
t-77.5 -76.5t-28.5 -110q0 -59 29 -108t78 -77.5t107 -28.5t107 28.5zM248.5 658q-29.5 32 -29.5 82h53q0 -27 13.5 -42t35.5 -15t35.5 15t13.5 42h54q0 -50 -30 -82t-73 -32t-72.5 32z" />
    <glyph glyph-name="Ohungarumlaut" unicode="&#x150;" horiz-adv-x="814" 
d="M223.5 33.5q-84.5 49.5 -134 134t-49.5 184.5t49.5 184t134 133t183.5 49q100 0 184.5 -49t133.5 -133t49 -184t-49 -184.5t-133.5 -134t-184.5 -49.5q-99 0 -183.5 49.5zM553.5 99q66.5 39 105 106t38.5 147t-38.5 147t-105 106t-146.5 39t-146 -39t-104 -106t-38 -147
t38 -147t104 -106t146 -39t146.5 39zM333 945h78l-75 -162h-56zM465 945h84l-82 -162h-60z" />
    <glyph glyph-name="ohungarumlaut" unicode="&#x151;" horiz-adv-x="641" 
d="M175 24q-67 39 -106.5 105.5t-39.5 144.5q0 79 39.5 145.5t106.5 105t146 38.5t146 -38.5t106.5 -105t39.5 -145.5q0 -78 -39.5 -144.5t-106.5 -105.5t-146 -39t-146 39zM428 88.5q49 28.5 77.5 77.5t28.5 108q0 61 -28.5 110t-77.5 76.5t-107 27.5q-59 0 -108 -27.5
t-77.5 -76.5t-28.5 -110q0 -59 29 -108t78 -77.5t107 -28.5t107 28.5zM246 790h78l-75 -162h-56zM378 790h84l-82 -162h-60z" />
    <glyph glyph-name="OE" unicode="&#x152;" horiz-adv-x="1169" 
d="M765 631v-241h310v-74h-310v-242h367v-74h-445v153q-42 -78 -116 -123.5t-171 -45.5q-98 0 -180.5 48.5t-131 133t-48.5 186.5q0 103 48.5 186.5t131 131.5t180.5 48q97 0 171 -45t116 -123v155h445v-74h-367zM548.5 99q63.5 39 99.5 105.5t36 147.5q0 80 -36 147
t-99.5 106t-141.5 39q-79 0 -144.5 -39t-103.5 -106t-38 -147t38 -147t103.5 -106t144.5 -39q78 0 141.5 39z" />
    <glyph glyph-name="oe" unicode="&#x153;" horiz-adv-x="1160" 
d="M1130 249h-506q4 -53 33.5 -96t77 -68t102.5 -25q63 0 114.5 32.5t76.5 86.5h86q-30 -86 -106 -139.5t-172 -53.5q-86 0 -155 44.5t-103 118.5q-34 -74 -103 -119t-154 -45q-79 0 -146 39t-106.5 105.5t-39.5 144.5q0 79 39.5 145.5t106.5 105t146 38.5q84 0 152.5 -43.5
t103.5 -116.5q34 74 103 118t156 44q81 0 149 -38t107 -104.5t39 -146.5q0 -18 -1 -27zM1046 315q-5 49 -34.5 89t-76 63t-100.5 23q-55 0 -101 -23t-75 -63t-34 -89h421zM428 88.5q49 28.5 77.5 77.5t28.5 108q0 61 -28.5 110t-77.5 76.5t-107 27.5q-59 0 -108 -27.5
t-77.5 -76.5t-28.5 -110q0 -59 29 -108t78 -77.5t107 -28.5t107 28.5z" />
    <glyph glyph-name="Racute" unicode="&#x154;" horiz-adv-x="583" 
d="M88 705h207q68 0 124 -32.5t89 -88.5t33 -124q0 -81 -49 -144t-124 -84l158 -232h-92l-147 214h-119v-214h-79zM295 289q45 0 83.5 22.5t61 62t22.5 86.5q0 48 -22.5 87.5t-61 62.5t-83.5 23h-127v-344h127zM294 942h88l-81 -162h-60z" />
    <glyph glyph-name="racute" unicode="&#x155;" horiz-adv-x="405" 
d="M71 550h329v-75h-251v-475h-78v550zM263 790h88l-81 -162h-60z" />
    <glyph glyph-name="uni0156" unicode="&#x156;" horiz-adv-x="583" 
d="M88 705h207q68 0 124 -32.5t89 -88.5t33 -124q0 -81 -49 -144t-124 -84l158 -232h-92l-147 214h-119v-214h-79zM295 289q45 0 83.5 22.5t61 62t22.5 86.5q0 48 -22.5 87.5t-61 62.5t-83.5 23h-127v-344h127zM267 -48h79l-66 -168h-52z" />
    <glyph glyph-name="uni0157" unicode="&#x157;" horiz-adv-x="405" 
d="M71 550h329v-75h-251v-475h-78v550zM78 -48h79l-66 -168h-52z" />
    <glyph glyph-name="Rcaron" unicode="&#x158;" horiz-adv-x="583" 
d="M88 705h207q68 0 124 -32.5t89 -88.5t33 -124q0 -81 -49 -144t-124 -84l158 -232h-92l-147 214h-119v-214h-79zM295 289q45 0 83.5 22.5t61 62t22.5 86.5q0 48 -22.5 87.5t-61 62.5t-83.5 23h-127v-344h127zM158 913h69l44 -83l42 83h70l-84 -130h-56z" />
    <glyph glyph-name="rcaron" unicode="&#x159;" horiz-adv-x="405" 
d="M71 550h329v-75h-251v-475h-78v550zM127 761h69l44 -83l42 83h70l-84 -130h-56z" />
    <glyph glyph-name="Sacute" unicode="&#x15a;" horiz-adv-x="558" 
d="M156 12.5q-54 27.5 -85.5 74t-31.5 102.5h78q0 -35 21.5 -64.5t58 -46.5t78.5 -17q44 0 80.5 17t57 45.5t20.5 62.5q0 45 -19.5 71t-51.5 40t-94 32q-66 19 -106.5 37.5t-71 56.5t-30.5 102q0 53 30.5 98t83.5 71t115 26t114.5 -26.5t82.5 -71.5t30 -98h-78q0 52 -43 87
t-107 35q-42 0 -75.5 -15.5t-53 -42.5t-19.5 -59q0 -36 17 -58.5t47.5 -37t85.5 -30.5q72 -21 114 -39.5t74.5 -60t32.5 -113.5q0 -57 -32 -104t-86 -74t-119 -27q-64 0 -118 27.5zM313 945h88l-81 -162h-60z" />
    <glyph glyph-name="sacute" unicode="&#x15b;" horiz-adv-x="463" 
d="M126 7.5q-45 22.5 -70.5 60t-25.5 81.5h78q0 -37 35 -63.5t87 -26.5q51 0 85 25.5t34 63.5q0 31 -17 50.5t-43 29.5t-69 20q-89 22 -134.5 58t-45.5 102q0 44 26 80t70 56.5t96 20.5t96 -21t69.5 -57.5t25.5 -80.5h-78q0 37 -33 61.5t-80 24.5q-46 0 -80 -23.5t-34 -59.5
q0 -28 17 -45t40.5 -25.5t71.5 -21.5q58 -15 92.5 -29.5t61 -48t26.5 -90.5q0 -45 -26.5 -82.5t-72.5 -59.5t-100 -22q-57 0 -102 22.5zM261 790h88l-81 -162h-60z" />
    <glyph glyph-name="Scircumflex" unicode="&#x15c;" horiz-adv-x="558" 
d="M156 12.5q-54 27.5 -85.5 74t-31.5 102.5h78q0 -35 21.5 -64.5t58 -46.5t78.5 -17q44 0 80.5 17t57 45.5t20.5 62.5q0 45 -19.5 71t-51.5 40t-94 32q-66 19 -106.5 37.5t-71 56.5t-30.5 102q0 53 30.5 98t83.5 71t115 26t114.5 -26.5t82.5 -71.5t30 -98h-78q0 52 -43 87
t-107 35q-42 0 -75.5 -15.5t-53 -42.5t-19.5 -59q0 -36 17 -58.5t47.5 -37t85.5 -30.5q72 -21 114 -39.5t74.5 -60t32.5 -113.5q0 -57 -32 -104t-86 -74t-119 -27q-64 0 -118 27.5zM262 916h56l84 -130h-70l-42 83l-44 -83h-69z" />
    <glyph glyph-name="scircumflex" unicode="&#x15d;" horiz-adv-x="463" 
d="M126 7.5q-45 22.5 -70.5 60t-25.5 81.5h78q0 -37 35 -63.5t87 -26.5q51 0 85 25.5t34 63.5q0 31 -17 50.5t-43 29.5t-69 20q-89 22 -134.5 58t-45.5 102q0 44 26 80t70 56.5t96 20.5t96 -21t69.5 -57.5t25.5 -80.5h-78q0 37 -33 61.5t-80 24.5q-46 0 -80 -23.5t-34 -59.5
q0 -28 17 -45t40.5 -25.5t71.5 -21.5q58 -15 92.5 -29.5t61 -48t26.5 -90.5q0 -45 -26.5 -82.5t-72.5 -59.5t-100 -22q-57 0 -102 22.5zM210 761h56l84 -130h-70l-42 83l-44 -83h-69z" />
    <glyph glyph-name="Scedilla" unicode="&#x15e;" horiz-adv-x="558" 
d="M404 363.5q42 -18.5 74.5 -60t32.5 -113.5q0 -51 -25.5 -94t-70 -71.5t-100.5 -36.5q47 -17 47 -68q0 -43 -27 -63t-74 -20v50q22 0 35 10.5t13 30.5q0 16 -11.5 26.5t-30.5 10.5v20q-62 1 -114.5 29t-83 74t-30.5 101h78q0 -35 21.5 -64.5t58 -46.5t78.5 -17
q44 0 80.5 17t57 45.5t20.5 62.5q0 45 -19.5 71t-51.5 40t-94 32q-66 19 -106.5 37.5t-71 56.5t-30.5 102q0 53 30.5 98t83.5 71t115 26t114.5 -26.5t82.5 -71.5t30 -98h-78q0 52 -43 87t-107 35q-42 0 -75.5 -15.5t-53 -42.5t-19.5 -59q0 -36 17 -58.5t47.5 -37t85.5 -30.5
q72 -21 114 -39.5z" />
    <glyph glyph-name="scedilla" unicode="&#x15f;" horiz-adv-x="463" 
d="M380 43.5q-47 -45.5 -117 -56.5q45 -17 45 -67q0 -43 -27 -63t-74 -20v50q22 0 35 10.5t13 30.5q0 16 -11.5 26.5t-30.5 10.5v20q-53 3 -95 26.5t-65 60t-23 77.5h78q0 -37 35 -63.5t87 -26.5q51 0 85 25.5t34 63.5q0 31 -17 50.5t-43 29.5t-69 20q-89 22 -134.5 58
t-45.5 102q0 44 26 80t70 56.5t96 20.5t96 -21t69.5 -57.5t25.5 -80.5h-78q0 37 -33 61.5t-80 24.5q-46 0 -80 -23.5t-34 -59.5q0 -28 17 -45t40.5 -25.5t71.5 -21.5q58 -15 92.5 -29.5t61 -48t26.5 -90.5q0 -60 -47 -105.5z" />
    <glyph glyph-name="Scaron" unicode="&#x160;" horiz-adv-x="558" 
d="M156 12.5q-54 27.5 -85.5 74t-31.5 102.5h78q0 -35 21.5 -64.5t58 -46.5t78.5 -17q44 0 80.5 17t57 45.5t20.5 62.5q0 45 -19.5 71t-51.5 40t-94 32q-66 19 -106.5 37.5t-71 56.5t-30.5 102q0 53 30.5 98t83.5 71t115 26t114.5 -26.5t82.5 -71.5t30 -98h-78q0 52 -43 87
t-107 35q-42 0 -75.5 -15.5t-53 -42.5t-19.5 -59q0 -36 17 -58.5t47.5 -37t85.5 -30.5q72 -21 114 -39.5t74.5 -60t32.5 -113.5q0 -57 -32 -104t-86 -74t-119 -27q-64 0 -118 27.5zM177 916h69l44 -83l42 83h70l-84 -130h-56z" />
    <glyph glyph-name="scaron" unicode="&#x161;" horiz-adv-x="463" 
d="M126 7.5q-45 22.5 -70.5 60t-25.5 81.5h78q0 -37 35 -63.5t87 -26.5q51 0 85 25.5t34 63.5q0 31 -17 50.5t-43 29.5t-69 20q-89 22 -134.5 58t-45.5 102q0 44 26 80t70 56.5t96 20.5t96 -21t69.5 -57.5t25.5 -80.5h-78q0 37 -33 61.5t-80 24.5q-46 0 -80 -23.5t-34 -59.5
q0 -28 17 -45t40.5 -25.5t71.5 -21.5q58 -15 92.5 -29.5t61 -48t26.5 -90.5q0 -45 -26.5 -82.5t-72.5 -59.5t-100 -22q-57 0 -102 22.5zM125 761h69l44 -83l42 83h70l-84 -130h-56z" />
    <glyph glyph-name="Tcaron" unicode="&#x164;" horiz-adv-x="471" 
d="M197 632h-184v73h445v-73h-182v-633h-79v633zM124 907h69l44 -83l42 83h70l-84 -130h-56z" />
    <glyph glyph-name="tcaron" unicode="&#x165;" horiz-adv-x="411" 
d="M102 475h-94v75h94v155h78v-155h102v-75h-102v-400h95v-75h-173v475zM337 626q-10 6 -15.5 16.5t-5.5 22.5q0 20 14.5 35t34.5 15t34.5 -15t14.5 -35q0 -10 -5 -22l-43 -118h-50z" />
    <glyph glyph-name="Tbar" unicode="&#x166;" horiz-adv-x="471" 
d="M276 632v-250h123v-66h-123v-317h-79v317h-125v66h125v250h-184v73h445v-73h-182z" />
    <glyph glyph-name="tbar" unicode="&#x167;" horiz-adv-x="305" 
d="M180 478v-150h102v-68h-102v-189h95v-71h-173v260h-94v68h94v150h-94v72h94v155h78v-155h102v-72h-102z" />
    <glyph glyph-name="Utilde" unicode="&#x168;" horiz-adv-x="671" 
d="M203.5 19q-59.5 34 -94 93t-34.5 130v463h79v-467q0 -50 23.5 -91t65 -64t93.5 -23t93.5 23t65 64t23.5 91v467h78v-463q0 -72 -34 -130.5t-93.5 -92.5t-132.5 -34t-132.5 34zM359.5 799q-16.5 6 -37.5 17q-18 10 -29 14.5t-23 4.5q-26 0 -43 -26l-54 36q36 55 97 55
q21 -1 37 -6.5t38 -17.5q15 -9 26.5 -13.5t23.5 -4.5q9 0 24.5 6t28.5 24l52 -38q-22 -32 -51.5 -44.5t-53.5 -12.5q-19 0 -35.5 6z" />
    <glyph glyph-name="utilde" unicode="&#x169;" horiz-adv-x="573" 
d="M169 12.5q-52 27.5 -82 79t-30 119.5v339h79v-343q0 -70 42 -108.5t108 -38.5q67 0 109 39t42 108v343h78v-339q0 -68 -30 -119.5t-82 -79t-117 -27.5t-117 27.5zM309.5 646q-16.5 6 -37.5 17q-18 10 -29 14.5t-23 4.5q-26 0 -43 -26l-54 36q36 55 97 55q21 -1 37 -6.5
t38 -17.5q15 -9 26.5 -13.5t23.5 -4.5q9 0 24.5 6t28.5 24l52 -38q-22 -32 -51.5 -44.5t-53.5 -12.5q-19 0 -35.5 6z" />
    <glyph glyph-name="Umacron" unicode="&#x16a;" horiz-adv-x="671" 
d="M203.5 19q-59.5 34 -94 93t-34.5 130v463h79v-467q0 -50 23.5 -91t65 -64t93.5 -23t93.5 23t65 64t23.5 91v467h78v-463q0 -72 -34 -130.5t-93.5 -92.5t-132.5 -34t-132.5 34zM513 863v-60h-355v60h355z" />
    <glyph glyph-name="umacron" unicode="&#x16b;" horiz-adv-x="573" 
d="M169 12.5q-52 27.5 -82 79t-30 119.5v339h79v-343q0 -70 42 -108.5t108 -38.5q67 0 109 39t42 108v343h78v-339q0 -68 -30 -119.5t-82 -79t-117 -27.5t-117 27.5zM464 710v-60h-355v60h355z" />
    <glyph glyph-name="Ubreve" unicode="&#x16c;" horiz-adv-x="671" 
d="M203.5 19q-59.5 34 -94 93t-34.5 130v463h79v-467q0 -50 23.5 -91t65 -64t93.5 -23t93.5 23t65 64t23.5 91v467h78v-463q0 -72 -34 -130.5t-93.5 -92.5t-132.5 -34t-132.5 34zM263.5 811q-29.5 32 -29.5 82h53q0 -27 13.5 -42t35.5 -15t35.5 15t13.5 42h54q0 -50 -30 -82
t-73 -32t-72.5 32z" />
    <glyph glyph-name="ubreve" unicode="&#x16d;" horiz-adv-x="573" 
d="M169 12.5q-52 27.5 -82 79t-30 119.5v339h79v-343q0 -70 42 -108.5t108 -38.5q67 0 109 39t42 108v343h78v-339q0 -68 -30 -119.5t-82 -79t-117 -27.5t-117 27.5zM213.5 658q-29.5 32 -29.5 82h53q0 -27 13.5 -42t35.5 -15t35.5 15t13.5 42h54q0 -50 -30 -82t-73 -32
t-72.5 32z" />
    <glyph glyph-name="Uring" unicode="&#x16e;" horiz-adv-x="671" 
d="M203.5 19q-59.5 34 -94 93t-34.5 130v463h79v-467q0 -50 23.5 -91t65 -64t93.5 -23t93.5 23t65 64t23.5 91v467h78v-463q0 -72 -34 -130.5t-93.5 -92.5t-132.5 -34t-132.5 34zM266.5 787q-28.5 29 -28.5 70q0 40 28.5 69t69.5 29q40 0 69 -29t29 -69q0 -41 -29 -70
t-69 -29q-41 0 -69.5 29zM372 820q15 15 15 37q0 21 -15 36t-36 15t-36 -15t-15 -36q0 -22 15 -37t36 -15t36 15z" />
    <glyph glyph-name="uring" unicode="&#x16f;" horiz-adv-x="573" 
d="M169 12.5q-52 27.5 -82 79t-30 119.5v339h79v-343q0 -70 42 -108.5t108 -38.5q67 0 109 39t42 108v343h78v-339q0 -68 -30 -119.5t-82 -79t-117 -27.5t-117 27.5zM216.5 634q-28.5 29 -28.5 70q0 40 28.5 69t69.5 29q40 0 69 -29t29 -69q0 -41 -29 -70t-69 -29
q-41 0 -69.5 29zM322 667q15 15 15 37q0 21 -15 36t-36 15t-36 -15t-15 -36q0 -22 15 -37t36 -15t36 15z" />
    <glyph glyph-name="Uhungarumlaut" unicode="&#x170;" horiz-adv-x="671" 
d="M203.5 19q-59.5 34 -94 93t-34.5 130v463h79v-467q0 -50 23.5 -91t65 -64t93.5 -23t93.5 23t65 64t23.5 91v467h78v-463q0 -72 -34 -130.5t-93.5 -92.5t-132.5 -34t-132.5 34zM262 943h78l-75 -162h-56zM394 943h84l-82 -162h-60z" />
    <glyph glyph-name="uhungarumlaut" unicode="&#x171;" horiz-adv-x="573" 
d="M169 12.5q-52 27.5 -82 79t-30 119.5v339h79v-343q0 -70 42 -108.5t108 -38.5q67 0 109 39t42 108v343h78v-339q0 -68 -30 -119.5t-82 -79t-117 -27.5t-117 27.5zM212 790h78l-75 -162h-56zM344 790h84l-82 -162h-60z" />
    <glyph glyph-name="Uogonek" unicode="&#x172;" horiz-adv-x="671" 
d="M596 705v-463q0 -84 -46.5 -150t-122.5 -92h-1q-7 -3 -23 -7q-22 -14 -22 -44q0 -42 53 -42v-48q-48 0 -76 19.5t-28 59.5q0 26 13 47h-7q-73 0 -132.5 34t-94 93t-34.5 130v463h79v-467q0 -50 23.5 -91t65 -64t93.5 -23t93.5 23t65 64t23.5 91v467h78z" />
    <glyph glyph-name="uogonek" unicode="&#x173;" horiz-adv-x="573" 
d="M515 550v-339q0 -87 -46.5 -145t-123.5 -75q-20 -15 -20 -42q0 -42 54 -42v-48q-48 0 -76.5 19.5t-28.5 59.5q0 27 14 47h-2q-65 0 -117 27.5t-82 79t-30 119.5v339h79v-343q0 -70 42 -108.5t108 -38.5q67 0 109 39t42 108v343h78z" />
    <glyph glyph-name="Wcircumflex" unicode="&#x174;" horiz-adv-x="956" 
d="M33 705h81l147 -541l16 -69h4q7 34 10 46l5 23l147 541h69l148 -541q12 -46 16 -69h3l15 67l148 543h81l-194 -705h-96l-141 520q-5 18 -13 56h-3l-15 -57l-140 -519h-94zM451 916h56l84 -130h-70l-42 83l-44 -83h-69z" />
    <glyph glyph-name="wcircumflex" unicode="&#x175;" horiz-adv-x="753" 
d="M8 549h82l133 -443l119 444h70l119 -444l133 444l81 -1l-165 -549h-87l-116 435l-116 -435h-87zM349 761h56l84 -130h-70l-42 83l-44 -83h-69z" />
    <glyph glyph-name="Ycircumflex" unicode="&#x176;" horiz-adv-x="583" 
d="M252 283l-246 422h89l186 -318q3 -5 9 -20h2l10 20l186 318h89l-246 -422v-283h-79v283zM265 916h56l84 -130h-70l-42 83l-44 -83h-69z" />
    <glyph glyph-name="ycircumflex" unicode="&#x177;" 
d="M228 78l-226 472h85l185 -384l172 384h85l-329 -707h-85zM238 761h56l84 -130h-70l-42 83l-44 -83h-69z" />
    <glyph glyph-name="Ydieresis" unicode="&#x178;" horiz-adv-x="583" 
d="M252 283l-246 422h89l186 -318q3 -5 9 -20h2l10 20l186 318h89l-246 -422v-283h-79v283zM192 804q-13 13 -13 31q0 19 13 31.5t31 12.5t30.5 -12.5t12.5 -31.5q0 -18 -12.5 -31t-30.5 -13t-31 13zM331 804q-13 13 -13 31q0 19 13 31.5t31 12.5t30.5 -12.5t12.5 -31.5
q0 -18 -12.5 -31t-30.5 -13t-31 13z" />
    <glyph glyph-name="Zacute" unicode="&#x179;" horiz-adv-x="539" 
d="M31 76l379 554h-371v75h461v-83l-375 -547h382v-75h-476v76zM295 945h88l-81 -162h-60z" />
    <glyph glyph-name="zacute" unicode="&#x17a;" horiz-adv-x="457" 
d="M21 72l311 404h-298v73h392v-77l-307 -399h316v-73h-414v72zM249 790h88l-81 -162h-60z" />
    <glyph glyph-name="Zdotaccent" unicode="&#x17b;" horiz-adv-x="539" 
d="M31 76l379 554h-371v75h461v-83l-375 -547h382v-75h-476v76zM236.5 819.5q-14.5 14.5 -14.5 34.5t14.5 34.5t34.5 14.5t34.5 -14.5t14.5 -34.5t-14.5 -34.5t-34.5 -14.5t-34.5 14.5z" />
    <glyph glyph-name="zdotaccent" unicode="&#x17c;" horiz-adv-x="457" 
d="M21 72l311 404h-298v73h392v-77l-307 -399h316v-73h-414v72zM190.5 664.5q-14.5 14.5 -14.5 34.5t14.5 34.5t34.5 14.5t34.5 -14.5t14.5 -34.5t-14.5 -34.5t-34.5 -14.5t-34.5 14.5z" />
    <glyph glyph-name="Zcaron" unicode="&#x17d;" horiz-adv-x="539" 
d="M31 76l379 554h-371v75h461v-83l-375 -547h382v-75h-476v76zM159 916h69l44 -83l42 83h70l-84 -130h-56z" />
    <glyph glyph-name="zcaron" unicode="&#x17e;" horiz-adv-x="457" 
d="M21 72l311 404h-298v73h392v-77l-307 -399h316v-73h-414v72zM113 761h69l44 -83l42 83h70l-84 -130h-56z" />
    <glyph glyph-name="uni01EA" unicode="&#x1ea;" horiz-adv-x="814" 
d="M741 199q-33 -72 -91 -123.5t-133 -74.5v-1h-2l-21 -6q-11 -6 -17.5 -18t-6.5 -27q0 -42 53 -42v-48q-48 0 -76 19.5t-28 59.5q0 26 13 47q-8 -1 -25 -1q-99 0 -183.5 49.5t-134 134t-49.5 184.5t49.5 184t134 133t183.5 49q100 0 184.5 -49t133.5 -133t49 -184
q0 -81 -33 -153zM553.5 99q66.5 39 105 106t38.5 147t-38.5 147t-105 106t-146.5 39t-146 -39t-104 -106t-38 -147t38 -147t104 -106t146 -39t146.5 39z" />
    <glyph glyph-name="uni01EB" unicode="&#x1eb;" horiz-adv-x="641" 
d="M366 -51q0 -42 53 -42v-48q-48 0 -76 19.5t-28 59.5q0 26 13 47h-7q-79 0 -146 39t-106.5 105.5t-39.5 144.5q0 79 39.5 145.5t106.5 105t146 38.5t146 -38.5t106.5 -105t39.5 -145.5q0 -67 -29 -126t-80.5 -99.5t-116.5 -55.5q-21 -15 -21 -44zM136 166q29 -49 78 -77.5
t107 -28.5t107 28.5t77.5 77.5t28.5 108q0 61 -28.5 110t-77.5 76.5t-107 27.5q-59 0 -108 -27.5t-77.5 -76.5t-28.5 -110q0 -59 29 -108z" />
    <glyph glyph-name="AEacute" unicode="&#x1fc;" horiz-adv-x="903" 
d="M415 705h451v-75h-334l2 -238h259v-75h-258l2 -242h329v-75h-406l-2 161h-263l-91 -161h-92zM458 236l-4 375h-2l-217 -375h223zM652 945h88l-81 -162h-60z" />
    <glyph glyph-name="aeacute" unicode="&#x1fd;" horiz-adv-x="1185" 
d="M1154 250h-506q5 -53 34.5 -96.5t77 -68.5t102.5 -25q63 0 114 32t77 87h86q-31 -86 -104.5 -139.5t-167.5 -53.5q-86 0 -148.5 42t-94.5 115v-142h-77v136h-2q-33 -74 -96.5 -113t-142.5 -39q-76 0 -139.5 39t-100.5 106t-37 145q0 80 37 146.5t100.5 105t139.5 38.5
q81 0 145 -41.5t94 -109.5h2v136h77v-138q32 71 94.5 112t148.5 41q80 0 146 -38t104.5 -104.5t38.5 -146.5q0 -16 -2 -26zM430.5 88.5q48.5 28.5 76 78t27.5 108.5q0 60 -27.5 109.5t-76 78t-107.5 28.5q-60 0 -109 -28.5t-77.5 -78t-28.5 -109.5q0 -59 28.5 -108.5
t77.5 -78t109 -28.5q59 0 107.5 28.5zM1071 314q-5 49 -34.5 89.5t-75.5 63.5t-101 23t-101 -23t-75 -63.5t-34 -89.5h421zM607 790h88l-81 -162h-60z" />
    <glyph glyph-name="Oslashacute" unicode="&#x1fe;" horiz-adv-x="814" 
d="M741.5 503q32.5 -71 32.5 -151q0 -100 -49 -184.5t-133.5 -134t-184.5 -49.5q-105 0 -193 55l-38 -50l-50 40l37 49q-58 51 -90.5 122t-32.5 152q0 100 49.5 184t134 133t183.5 49q105 0 194 -54l38 51l50 -41l-37 -49q57 -51 89.5 -122zM142.5 234.5
q23.5 -54.5 65.5 -95.5l348 465q-69 40 -149 40t-146 -39t-104 -106t-38 -147q0 -63 23.5 -117.5zM553.5 99q66.5 39 105 106t38.5 147q0 62 -23.5 117.5t-66.5 95.5l-348 -465q69 -40 148 -40q80 0 146.5 39zM431 944h88l-81 -162h-60z" />
    <glyph glyph-name="oslashacute" unicode="&#x1ff;" horiz-adv-x="641" 
d="M595.5 372.5q17.5 -46.5 17.5 -98.5q0 -78 -39.5 -144.5t-106.5 -105.5t-146 -39q-101 0 -180 62l-41 -42l-45 46l40 41q-31 38 -48.5 84.5t-17.5 97.5q0 79 39.5 145.5t106.5 105t146 38.5q50 0 96.5 -16t83.5 -45l41 41l45 -45l-40 -41q31 -38 48.5 -84.5zM146 143
l305 308q-57 41 -130 41q-61 0 -111 -28.5t-78.5 -78.5t-28.5 -111q0 -74 43 -131zM431 85.5q50 29.5 78.5 79.5t28.5 109q0 76 -42 132l-305 -308q56 -42 130 -42q60 0 110 29.5zM344 788h88l-81 -162h-60z" />
    <glyph glyph-name="uni0218" unicode="&#x218;" horiz-adv-x="558" 
d="M156 12.5q-54 27.5 -85.5 74t-31.5 102.5h78q0 -35 21.5 -64.5t58 -46.5t78.5 -17q44 0 80.5 17t57 45.5t20.5 62.5q0 45 -19.5 71t-51.5 40t-94 32q-66 19 -106.5 37.5t-71 56.5t-30.5 102q0 53 30.5 98t83.5 71t115 26t114.5 -26.5t82.5 -71.5t30 -98h-78q0 52 -43 87
t-107 35q-42 0 -75.5 -15.5t-53 -42.5t-19.5 -59q0 -36 17 -58.5t47.5 -37t85.5 -30.5q72 -21 114 -39.5t74.5 -60t32.5 -113.5q0 -57 -32 -104t-86 -74t-119 -27q-64 0 -118 27.5zM258 -48h79l-66 -168h-52z" />
    <glyph glyph-name="uni0219" unicode="&#x219;" horiz-adv-x="463" 
d="M126 7.5q-45 22.5 -70.5 60t-25.5 81.5h78q0 -37 35 -63.5t87 -26.5q51 0 85 25.5t34 63.5q0 31 -17 50.5t-43 29.5t-69 20q-89 22 -134.5 58t-45.5 102q0 44 26 80t70 56.5t96 20.5t96 -21t69.5 -57.5t25.5 -80.5h-78q0 37 -33 61.5t-80 24.5q-46 0 -80 -23.5t-34 -59.5
q0 -28 17 -45t40.5 -25.5t71.5 -21.5q58 -15 92.5 -29.5t61 -48t26.5 -90.5q0 -45 -26.5 -82.5t-72.5 -59.5t-100 -22q-57 0 -102 22.5zM204 -48h79l-66 -168h-52z" />
    <glyph glyph-name="uni021A" unicode="&#x21a;" horiz-adv-x="471" 
d="M197 632h-184v73h445v-73h-182v-633h-79v633zM199 -48h79l-66 -168h-52z" />
    <glyph glyph-name="uni021B" unicode="&#x21b;" horiz-adv-x="305" 
d="M102 475h-94v75h94v155h78v-155h102v-75h-102v-400h95v-75h-173v475zM144 -48h79l-66 -168h-52z" />
    <glyph glyph-name="uni0237" unicode="&#x237;" horiz-adv-x="220" 
d="M71 550h79v-707h-175v71h96v636z" />
    <glyph glyph-name="circumflex" unicode="&#x2c6;" horiz-adv-x="258" 
d="M102 761h56l84 -130h-70l-42 83l-44 -83h-69z" />
    <glyph glyph-name="caron" unicode="&#x2c7;" horiz-adv-x="258" 
d="M17 761h69l44 -83l42 83h70l-84 -130h-56z" />
    <glyph glyph-name="breve" unicode="&#x2d8;" horiz-adv-x="238" 
d="M46.5 654q-29.5 32 -29.5 82h53q0 -27 13.5 -42t35.5 -15t35.5 15t13.5 42h54q0 -50 -30 -82t-73 -32t-72.5 32z" />
    <glyph glyph-name="dotaccent" unicode="&#x2d9;" horiz-adv-x="132" 
d="M31.5 664.5q-14.5 14.5 -14.5 34.5t14.5 34.5t34.5 14.5t34.5 -14.5t14.5 -34.5t-14.5 -34.5t-34.5 -14.5t-34.5 14.5z" />
    <glyph glyph-name="ring" unicode="&#x2da;" horiz-adv-x="230" 
d="M45.5 634q-28.5 29 -28.5 70q0 40 28.5 69t69.5 29q40 0 69 -29t29 -69q0 -41 -29 -70t-69 -29q-41 0 -69.5 29zM151 667q15 15 15 37q0 21 -15 36t-36 15t-36 -15t-15 -36q0 -22 15 -37t36 -15t36 15z" />
    <glyph glyph-name="ogonek" unicode="&#x2db;" horiz-adv-x="135" 
d="M43.5 -121.5q-28.5 19.5 -28.5 59.5q0 39 28 64.5t65 25.5l5 -28q-20 0 -33.5 -14.5t-13.5 -36.5q0 -42 54 -42v-48q-48 0 -76.5 19.5z" />
    <glyph glyph-name="tilde" unicode="&#x2dc;" horiz-adv-x="361" 
d="M203.5 646q-16.5 6 -37.5 17q-18 10 -29 14.5t-23 4.5q-26 0 -43 -26l-54 36q36 55 97 55q21 -1 37 -6.5t38 -17.5q15 -9 26.5 -13.5t23.5 -4.5q9 0 24.5 6t28.5 24l52 -38q-22 -32 -51.5 -44.5t-53.5 -12.5q-19 0 -35.5 6z" />
    <glyph glyph-name="hungarumlaut" unicode="&#x2dd;" horiz-adv-x="302" 
d="M70 790h78l-75 -162h-56zM202 790h84l-82 -162h-60z" />
    <glyph glyph-name="gravecomb" unicode="&#x300;" horiz-adv-x="0" 
d="M-158 790h87l54 -162h-60z" />
    <glyph glyph-name="acutecomb" unicode="&#x301;" horiz-adv-x="0" 
d="M-105 790h88l-81 -162h-60z" />
    <glyph glyph-name="uni0302" unicode="&#x302;" horiz-adv-x="0" 
d="M-156 761h56l84 -130h-70l-42 83l-44 -83h-69z" />
    <glyph glyph-name="tildecomb" unicode="&#x303;" horiz-adv-x="0" 
d="M-157.5 646q-16.5 6 -37.5 17q-18 10 -29 14.5t-23 4.5q-26 0 -43 -26l-54 36q36 55 97 55q21 -1 37 -6.5t38 -17.5q15 -9 26.5 -13.5t23.5 -4.5q9 0 24.5 6t28.5 24l52 -38q-22 -32 -51.5 -44.5t-53.5 -12.5q-19 0 -35.5 6z" />
    <glyph glyph-name="uni0304" unicode="&#x304;" horiz-adv-x="0" 
d="M-17 710v-60h-355v60h355z" />
    <glyph glyph-name="uni0306" unicode="&#x306;" horiz-adv-x="0" 
d="M-191.5 654q-29.5 32 -29.5 82h53q0 -27 13.5 -42t35.5 -15t35.5 15t13.5 42h54q0 -50 -30 -82t-73 -32t-72.5 32z" />
    <glyph glyph-name="uni0307" unicode="&#x307;" horiz-adv-x="0" 
d="M-100.5 664.5q-14.5 14.5 -14.5 34.5t14.5 34.5t34.5 14.5t34.5 -14.5t14.5 -34.5t-14.5 -34.5t-34.5 -14.5t-34.5 14.5z" />
    <glyph glyph-name="uni0308" unicode="&#x308;" horiz-adv-x="0" 
d="M-230 649q-13 13 -13 31q0 19 13 31.5t31 12.5t30.5 -12.5t12.5 -31.5q0 -18 -12.5 -31t-30.5 -13t-31 13zM-91 649q-13 13 -13 31q0 19 13 31.5t31 12.5t30.5 -12.5t12.5 -31.5q0 -18 -12.5 -31t-30.5 -13t-31 13z" />
    <glyph glyph-name="uni030A" unicode="&#x30a;" horiz-adv-x="0" 
d="M-184.5 634q-28.5 29 -28.5 70q0 40 28.5 69t69.5 29q40 0 69 -29t29 -69q0 -41 -29 -70t-69 -29q-41 0 -69.5 29zM-79 667q15 15 15 37q0 21 -15 36t-36 15t-36 -15t-15 -36q0 -22 15 -37t36 -15t36 15z" />
    <glyph glyph-name="uni030B" unicode="&#x30b;" horiz-adv-x="0" 
d="M-232 790h78l-75 -162h-56zM-100 790h84l-82 -162h-60z" />
    <glyph glyph-name="uni030C" unicode="&#x30c;" horiz-adv-x="0" 
d="M-241 761h69l44 -83l42 83h70l-84 -130h-56z" />
    <glyph glyph-name="uni0312" unicode="&#x312;" horiz-adv-x="0" 
d="M-50 616h-73l61 158h50z" />
    <glyph glyph-name="uni0326" unicode="&#x326;" horiz-adv-x="0" 
d="M-92 -48h79l-66 -168h-52z" />
    <glyph glyph-name="uni0327" unicode="&#x327;" horiz-adv-x="0" 
d="M-111 -106q22 0 35 10.5t13 30.5q0 16 -11.5 26t-30.5 10v31q42 0 68.5 -18t26.5 -57q0 -44 -27 -64t-74 -20v51z" />
    <glyph glyph-name="uni0328" unicode="&#x328;" horiz-adv-x="0" 
d="M-91.5 -121.5q-28.5 19.5 -28.5 59.5q0 39 28 64.5t65 25.5l5 -28q-20 0 -33.5 -14.5t-13.5 -36.5q0 -42 54 -42v-48q-48 0 -76.5 19.5z" />
    <glyph glyph-name="Wgrave" unicode="&#x1e80;" horiz-adv-x="956" 
d="M33 705h81l147 -541l16 -69h4q7 34 10 46l5 23l147 541h69l148 -541q12 -46 16 -69h3l15 67l148 543h81l-194 -705h-96l-141 520q-5 18 -13 56h-3l-15 -57l-140 -519h-94zM366 945h87l54 -162h-60z" />
    <glyph glyph-name="wgrave" unicode="&#x1e81;" horiz-adv-x="753" 
d="M8 549h82l133 -443l119 444h70l119 -444l133 444l81 -1l-165 -549h-87l-116 435l-116 -435h-87zM264 790h87l54 -162h-60z" />
    <glyph glyph-name="Wacute" unicode="&#x1e82;" horiz-adv-x="956" 
d="M33 705h81l147 -541l16 -69h4q7 34 10 46l5 23l147 541h69l148 -541q12 -46 16 -69h3l15 67l148 543h81l-194 -705h-96l-141 520q-5 18 -13 56h-3l-15 -57l-140 -519h-94zM502 945h88l-81 -162h-60z" />
    <glyph glyph-name="wacute" unicode="&#x1e83;" horiz-adv-x="753" 
d="M8 549h82l133 -443l119 444h70l119 -444l133 444l81 -1l-165 -549h-87l-116 435l-116 -435h-87zM400 790h88l-81 -162h-60z" />
    <glyph glyph-name="Wdieresis" unicode="&#x1e84;" horiz-adv-x="956" 
d="M33 705h81l147 -541l16 -69h4q7 34 10 46l5 23l147 541h69l148 -541q12 -46 16 -69h3l15 67l148 543h81l-194 -705h-96l-141 520q-5 18 -13 56h-3l-15 -57l-140 -519h-94zM378 804q-13 13 -13 31q0 19 13 31.5t31 12.5t30.5 -12.5t12.5 -31.5q0 -18 -12.5 -31t-30.5 -13
t-31 13zM517 804q-13 13 -13 31q0 19 13 31.5t31 12.5t30.5 -12.5t12.5 -31.5q0 -18 -12.5 -31t-30.5 -13t-31 13z" />
    <glyph glyph-name="wdieresis" unicode="&#x1e85;" horiz-adv-x="753" 
d="M8 549h82l133 -443l119 444h70l119 -444l133 444l81 -1l-165 -549h-87l-116 435l-116 -435h-87zM276 649q-13 13 -13 31q0 19 13 31.5t31 12.5t30.5 -12.5t12.5 -31.5q0 -18 -12.5 -31t-30.5 -13t-31 13zM415 649q-13 13 -13 31q0 19 13 31.5t31 12.5t30.5 -12.5
t12.5 -31.5q0 -18 -12.5 -31t-30.5 -13t-31 13z" />
    <glyph glyph-name="Ygrave" unicode="&#x1ef2;" horiz-adv-x="583" 
d="M252 283l-246 422h89l186 -318q3 -5 9 -20h2l10 20l186 318h89l-246 -422v-283h-79v283zM179 945h87l54 -162h-60z" />
    <glyph glyph-name="ygrave" unicode="&#x1ef3;" 
d="M228 78l-226 472h85l185 -384l172 384h85l-329 -707h-85zM153 790h87l54 -162h-60z" />
    <glyph glyph-name="endash" unicode="&#x2013;" horiz-adv-x="550" 
d="M37 304h477v-71h-477v71z" />
    <glyph glyph-name="emdash" unicode="&#x2014;" horiz-adv-x="919" 
d="M37 304h845v-71h-845v71z" />
    <glyph glyph-name="quoteleft" unicode="&#x2018;" horiz-adv-x="168" 
d="M111 610q10 -6 15.5 -16.5t5.5 -22.5q0 -20 -14.5 -34.5t-34.5 -14.5t-34.5 14.5t-14.5 34.5q0 10 5 23l43 117h50z" />
    <glyph glyph-name="quoteright" unicode="&#x2019;" horiz-adv-x="168" 
d="M57 626q-10 6 -15.5 16.5t-5.5 22.5q0 20 14.5 35t34.5 15t34.5 -15t14.5 -35q0 -10 -5 -22l-43 -118h-50z" />
    <glyph glyph-name="quotesinglbase" unicode="&#x201a;" horiz-adv-x="168" 
d="M57 -3q-10 6 -15.5 16.5t-5.5 22.5q0 20 14.5 35t34.5 15t34.5 -15t14.5 -35q0 -10 -5 -22l-43 -118h-50z" />
    <glyph glyph-name="quotedblleft" unicode="&#x201c;" horiz-adv-x="319" 
d="M111 609q10 -6 15.5 -16.5t5.5 -22.5q0 -20 -14.5 -34.5t-34.5 -14.5t-34.5 14.5t-14.5 34.5q0 10 5 23l43 117h50zM262 609q10 -6 15.5 -16.5t5.5 -22.5q0 -20 -14 -34.5t-35 -14.5q-20 0 -34.5 14.5t-14.5 34.5q0 11 6 23l42 117h51z" />
    <glyph glyph-name="quotedblright" unicode="&#x201d;" horiz-adv-x="319" 
d="M57 627q-10 6 -15.5 16.5t-5.5 22.5q0 20 14.5 35t34.5 15t34.5 -15t14.5 -35q0 -10 -5 -22l-43 -118h-50zM208 627q-10 6 -15.5 16.5t-5.5 22.5q0 20 14.5 35t34.5 15t34.5 -15t14.5 -35q0 -10 -5 -22l-43 -118h-50z" />
    <glyph glyph-name="quotedblbase" unicode="&#x201e;" horiz-adv-x="319" 
d="M57 -3q-10 6 -15.5 16.5t-5.5 22.5q0 20 14.5 35t34.5 15t34.5 -15t14.5 -35q0 -10 -5 -22l-43 -118h-50zM208 -3q-10 6 -15.5 16.5t-5.5 22.5q0 20 14.5 35t34.5 15t34.5 -15t14.5 -35q0 -10 -5 -22l-43 -118h-50z" />
    <glyph glyph-name="bullet" unicode="&#x2022;" horiz-adv-x="268" 
d="M83.5 232q-28.5 17 -45 45.5t-16.5 61.5q0 52 36 88.5t88 36.5q51 0 87 -36.5t36 -88.5q0 -33 -16.5 -61.5t-45 -45.5t-61.5 -17q-34 0 -62.5 17z" />
    <glyph glyph-name="ellipsis" unicode="&#x2026;" horiz-adv-x="561" 
d="M444.5 6.5q-14.5 14.5 -14.5 34.5t14.5 34.5t34.5 14.5t34.5 -14.5t14.5 -34.5t-14.5 -34.5t-34.5 -14.5t-34.5 14.5zM246.5 6.5q-14.5 14.5 -14.5 34.5t14.5 34.5t34.5 14.5t34.5 -14.5t14.5 -34.5t-14.5 -34.5t-34.5 -14.5t-34.5 14.5zM47.5 6.5q-14.5 14.5 -14.5 34.5
t14.5 34.5t34.5 14.5t34.5 -14.5t14.5 -34.5t-14.5 -34.5t-34.5 -14.5t-34.5 14.5z" />
    <glyph glyph-name="perthousand" unicode="&#x2030;" horiz-adv-x="1295" 
d="M120 375.5q-43 25.5 -68 68.5t-25 94t25 93.5t68 67.5t94 25t94 -25t68.5 -67.5t25.5 -93.5t-25.5 -94t-68.5 -68.5t-94 -25.5t-94 25.5zM619 709h80l-451 -708h-81zM299 452.5q35 35.5 35 85.5q0 49 -35 84t-85 35q-49 0 -84.5 -35t-35.5 -84q0 -50 35 -85.5t85 -35.5
t85 35.5zM558.5 11q-44.5 26 -70.5 70.5t-26 97.5t26 97t70.5 70t96.5 26q53 0 97.5 -26t70.5 -70t26 -97t-26 -97.5t-70.5 -70.5t-97.5 -26q-52 0 -96.5 26zM977.5 11q-44.5 26 -70.5 70.5t-26 97.5t26 97t70.5 70t97.5 26t97 -26t70 -70t26 -97t-26 -97.5t-70 -70.5
t-97 -26t-97.5 26zM745 90q37 37 37 89q0 34 -17 63t-46.5 46t-63.5 17t-63 -17t-46 -46t-17 -63t17 -63t46 -46t63 -17q53 0 90 37zM1138 70q29 17 46 46t17 63t-17 63t-46 46t-63 17t-63 -17t-46 -46t-17 -63q0 -52 37 -89t89 -37q34 0 63 17z" />
    <glyph glyph-name="guilsinglleft" unicode="&#x2039;" horiz-adv-x="236" 
d="M27 267l90 171h89l-96 -171l96 -172h-89z" />
    <glyph glyph-name="guilsinglright" unicode="&#x203a;" horiz-adv-x="236" 
d="M30 95l96 172l-96 171h89l90 -171l-90 -172h-89z" />
    <glyph glyph-name="fraction" unicode="&#x2044;" horiz-adv-x="532" 
d="M452 709h80l-452 -708h-80z" />
    <glyph glyph-name="Euro" unicode="&#x20ac;" horiz-adv-x="656" 
d="M162.5 577.5q51.5 66.5 128 104.5t164.5 38q87 0 163 -38l-25 -72q-65 35 -138 35q-66 0 -124.5 -27.5t-98.5 -77t-53 -112.5h355l-19 -57h-351v-18q0 -18 1 -27h335l-18 -56h-302q15 -62 55.5 -110t97.5 -74t122 -26q59 0 113 23l25 -72q-66 -26 -138 -26q-86 0 -161 37
t-127 102t-71 146h-79v56h70q-2 18 -2 27q0 13 1 18h-69v57h77q17 83 68.5 149.5z" />
    <glyph glyph-name="trademark" unicode="&#x2122;" horiz-adv-x="787" 
d="M10 705h260v-52h-99v-364h-60v364h-101v52zM750 705v-416h-59v332h-2q-6 -22 -11 -36l-115 -295h-46l-114 295q-9 26 -12 36h-1v-332h-60v416h87l123 -331l122 331h88z" />
    <glyph glyph-name="minus" unicode="&#x2212;" horiz-adv-x="493" 
d="M37 391h419v-71h-419v71z" />
    <glyph glyph-name="notequal" unicode="&#x2260;" horiz-adv-x="493" 
d="M314 426l-57 -138h199v-71h-228l-68 -164h-72l68 164h-119v71h148l57 138h-205v72h235l61 148h72l-61 -148h112v-72h-142z" />
    <glyph glyph-name="lessequal" unicode="&#x2264;" horiz-adv-x="397" 
d="M357 471l-249 -104l249 -104v-87l-337 158v65l337 158v-86zM27 106h330v-72h-330v72z" />
    <glyph glyph-name="greaterequal" unicode="&#x2265;" horiz-adv-x="397" 
d="M377 399v-65l-337 -158v87l249 104l-249 104v86zM40 106h330v-72h-330v72z" />
    <glyph glyph-name="uniF8FF" unicode="&#xf8ff;" horiz-adv-x="820" 
d="M504 709l-9 7q-59 -43 -83 -53h-4q-22 10 -83 53l-8 -7q60 -69 85 -100h16q25 31 86 100zM565.5 539.5q71.5 -41.5 113 -112t41.5 -154.5q0 -85 -41.5 -156t-113 -112.5t-155.5 -41.5t-155.5 41.5t-113 112.5t-41.5 156q0 84 41.5 154.5t113 112t155.5 41.5t155.5 -41.5z
M498 86.5q40 30.5 40 87.5q0 42 -26.5 69t-77.5 58q-46 29 -68 50.5t-22 52.5q1 27 20 45t49 18q37 0 56 -25.5t34 -82.5l10 1q0 83 9 126l-9 2q-2 -7 -8 -12t-17 -5q-9 0 -31 4q-30 5 -45 5q-54 0 -84.5 -28.5t-31.5 -66.5q0 -43 25.5 -70.5t75.5 -58.5q46 -30 68 -52.5
t22 -55.5q1 -36 -21 -57t-53 -21q-37 0 -64.5 27.5t-27.5 75.5q0 29 11 52l-8 4q-40 -31 -40 -78q0 -44 35.5 -69.5t84.5 -25.5q54 0 94 30.5z" />
    <glyph glyph-name="a.ss01" horiz-adv-x="526" 
d="M118.5 11q-44.5 26 -70.5 70.5t-26 97.5t26 97.5t70.5 70.5t96.5 26q51 0 94.5 -26t66.5 -74h3v207h-239v70h313l2 -550h-76v84h-3q-20 -48 -63.5 -73.5t-97.5 -25.5q-52 0 -96.5 26zM286.5 67.5q29.5 17.5 47 47t17.5 64.5t-17.5 64.5t-47 47t-64.5 17.5
q-34 0 -63.5 -17.5t-47 -47t-17.5 -64.5t17.5 -64.5t47 -47t63.5 -17.5q35 0 64.5 17.5z" />
    <glyph glyph-name="aacute.ss01" horiz-adv-x="526" 
d="M118.5 11q-44.5 26 -70.5 70.5t-26 97.5t26 97.5t70.5 70.5t96.5 26q51 0 94.5 -26t66.5 -74h3v207h-239v70h313l2 -550h-76v84h-3q-20 -48 -63.5 -73.5t-97.5 -25.5q-52 0 -96.5 26zM286.5 67.5q29.5 17.5 47 47t17.5 64.5t-17.5 64.5t-47 47t-64.5 17.5
q-34 0 -63.5 -17.5t-47 -47t-17.5 -64.5t17.5 -64.5t47 -47t63.5 -17.5q35 0 64.5 17.5zM334 789h88l-81 -162h-60z" />
    <glyph glyph-name="abreve.ss01" horiz-adv-x="526" 
d="M118.5 11q-44.5 26 -70.5 70.5t-26 97.5t26 97.5t70.5 70.5t96.5 26q51 0 94.5 -26t66.5 -74h3v207h-239v70h313l2 -550h-76v84h-3q-20 -48 -63.5 -73.5t-97.5 -25.5q-52 0 -96.5 26zM286.5 67.5q29.5 17.5 47 47t17.5 64.5t-17.5 64.5t-47 47t-64.5 17.5
q-34 0 -63.5 -17.5t-47 -47t-17.5 -64.5t17.5 -64.5t47 -47t63.5 -17.5q35 0 64.5 17.5zM238.5 656q-29.5 32 -29.5 82h53q0 -27 13.5 -42t35.5 -15t35.5 15t13.5 42h54q0 -50 -30 -82t-73 -32t-72.5 32z" />
    <glyph glyph-name="acircumflex.ss01" horiz-adv-x="526" 
d="M118.5 11q-44.5 26 -70.5 70.5t-26 97.5t26 97.5t70.5 70.5t96.5 26q51 0 94.5 -26t66.5 -74h3v207h-239v70h313l2 -550h-76v84h-3q-20 -48 -63.5 -73.5t-97.5 -25.5q-52 0 -96.5 26zM286.5 67.5q29.5 17.5 47 47t17.5 64.5t-17.5 64.5t-47 47t-64.5 17.5
q-34 0 -63.5 -17.5t-47 -47t-17.5 -64.5t17.5 -64.5t47 -47t63.5 -17.5q35 0 64.5 17.5zM283 760h56l84 -130h-70l-42 83l-44 -83h-69z" />
    <glyph glyph-name="adieresis.ss01" horiz-adv-x="526" 
d="M118.5 11q-44.5 26 -70.5 70.5t-26 97.5t26 97.5t70.5 70.5t96.5 26q51 0 94.5 -26t66.5 -74h3v207h-239v70h313l2 -550h-76v84h-3q-20 -48 -63.5 -73.5t-97.5 -25.5q-52 0 -96.5 26zM286.5 67.5q29.5 17.5 47 47t17.5 64.5t-17.5 64.5t-47 47t-64.5 17.5
q-34 0 -63.5 -17.5t-47 -47t-17.5 -64.5t17.5 -64.5t47 -47t63.5 -17.5q35 0 64.5 17.5zM210 648q-13 13 -13 31q0 19 13 31.5t31 12.5t30.5 -12.5t12.5 -31.5q0 -18 -12.5 -31t-30.5 -13t-31 13zM349 648q-13 13 -13 31q0 19 13 31.5t31 12.5t30.5 -12.5t12.5 -31.5
q0 -18 -12.5 -31t-30.5 -13t-31 13z" />
    <glyph glyph-name="agrave.ss01" horiz-adv-x="526" 
d="M118.5 11q-44.5 26 -70.5 70.5t-26 97.5t26 97.5t70.5 70.5t96.5 26q51 0 94.5 -26t66.5 -74h3v207h-239v70h313l2 -550h-76v84h-3q-20 -48 -63.5 -73.5t-97.5 -25.5q-52 0 -96.5 26zM286.5 67.5q29.5 17.5 47 47t17.5 64.5t-17.5 64.5t-47 47t-64.5 17.5
q-34 0 -63.5 -17.5t-47 -47t-17.5 -64.5t17.5 -64.5t47 -47t63.5 -17.5q35 0 64.5 17.5zM198 789h87l54 -162h-60z" />
    <glyph glyph-name="amacron.ss01" horiz-adv-x="526" 
d="M476 708v-60h-331v60h331zM118.5 11q-44.5 26 -70.5 70.5t-26 97.5t26 97.5t70.5 70.5t96.5 26q51 0 94.5 -26t66.5 -74h3v207h-239v70h313l2 -550h-76v84h-3q-20 -48 -63.5 -73.5t-97.5 -25.5q-52 0 -96.5 26zM286.5 67.5q29.5 17.5 47 47t17.5 64.5t-17.5 64.5t-47 47
t-64.5 17.5q-34 0 -63.5 -17.5t-47 -47t-17.5 -64.5t17.5 -64.5t47 -47t63.5 -17.5q35 0 64.5 17.5z" />
    <glyph glyph-name="aogonek.ss01" horiz-adv-x="526" 
d="M452 -93v-48q-48 0 -76 19.5t-28 59.5q0 42 31 68v78h-3q-20 -48 -63.5 -73.5t-97.5 -25.5q-52 0 -96.5 26t-70.5 70.5t-26 97.5t26 97.5t70.5 70.5t96.5 26q51 0 94.5 -26t66.5 -74h3v207h-239v70h313l2 -550h-10q-20 0 -33 -14.5t-13 -36.5q0 -42 53 -42zM286.5 67.5
q29.5 17.5 47 47t17.5 64.5t-17.5 64.5t-47 47t-64.5 17.5q-34 0 -63.5 -17.5t-47 -47t-17.5 -64.5t17.5 -64.5t47 -47t63.5 -17.5q35 0 64.5 17.5z" />
    <glyph glyph-name="aring.ss01" horiz-adv-x="526" 
d="M118.5 11q-44.5 26 -70.5 70.5t-26 97.5t26 97.5t70.5 70.5t96.5 26q51 0 94.5 -26t66.5 -74h3v207h-239v70h313l2 -550h-76v84h-3q-20 -48 -63.5 -73.5t-97.5 -25.5q-52 0 -96.5 26zM286.5 67.5q29.5 17.5 47 47t17.5 64.5t-17.5 64.5t-47 47t-64.5 17.5
q-34 0 -63.5 -17.5t-47 -47t-17.5 -64.5t17.5 -64.5t47 -47t63.5 -17.5q35 0 64.5 17.5zM240.5 633q-28.5 29 -28.5 70q0 40 28.5 69t69.5 29q40 0 69 -29t29 -69q0 -41 -29 -70t-69 -29q-41 0 -69.5 29zM346 666q15 15 15 37q0 21 -15 36t-36 15t-36 -15t-15 -36
q0 -22 15 -37t36 -15t36 15z" />
    <glyph glyph-name="atilde.ss01" horiz-adv-x="526" 
d="M118.5 11q-44.5 26 -70.5 70.5t-26 97.5t26 97.5t70.5 70.5t96.5 26q51 0 94.5 -26t66.5 -74h3v207h-239v70h313l2 -550h-76v84h-3q-20 -48 -63.5 -73.5t-97.5 -25.5q-52 0 -96.5 26zM286.5 67.5q29.5 17.5 47 47t17.5 64.5t-17.5 64.5t-47 47t-64.5 17.5
q-34 0 -63.5 -17.5t-47 -47t-17.5 -64.5t17.5 -64.5t47 -47t63.5 -17.5q35 0 64.5 17.5zM333.5 645q-16.5 6 -37.5 17q-18 10 -29 14.5t-23 4.5q-26 0 -43 -26l-54 36q36 55 97 55q21 -1 37 -6.5t38 -17.5q15 -9 26.5 -13.5t23.5 -4.5q9 0 24.5 6t28.5 24l52 -38
q-22 -32 -51.5 -44.5t-53.5 -12.5q-19 0 -35.5 6z" />
    <glyph glyph-name="f.ss01" horiz-adv-x="344" 
d="M207 618.5q-21 -26.5 -21 -72.5v-82h145v-75h-145v-389h-79v389h-91v75h91v94q0 75 44 118t116 43q55 0 103 -27l-33 -63q-28 16 -63 16q-46 0 -67 -26.5z" />
    <glyph glyph-name="g.ss01" horiz-adv-x="597" 
d="M47 -70h77v-51h353v5q-27 5 -31 6l-400 115v99h66q15 0 30 -3l22 -2v3q-56 31 -88 84.5t-32 121.5t33.5 124t91.5 88.5t128 32.5h261v-59h-69q-23 0 -35 2l-1 -1q49 -36 74.5 -85t25.5 -109q0 -68 -34 -124.5t-93 -89.5t-131 -33h-154v-9q2 0 29 -7l369 -105v-119h-492
v116zM387.5 149q40.5 23 63.5 63.5t23 88.5t-23 88.5t-63 64.5t-90 24q-48 0 -88.5 -23.5t-64 -64t-23.5 -89.5q0 -48 23.5 -88t63.5 -63.5t88 -23.5q50 0 90.5 23z" />
    <glyph glyph-name="gbreve.ss01" horiz-adv-x="597" 
d="M47 -70h77v-51h353v5q-27 5 -31 6l-400 115v99h66q15 0 30 -3l22 -2v3q-56 31 -88 84.5t-32 121.5t33.5 124t91.5 88.5t128 32.5h261v-59h-69q-23 0 -35 2l-1 -1q49 -36 74.5 -85t25.5 -109q0 -68 -34 -124.5t-93 -89.5t-131 -33h-154v-9q2 0 29 -7l369 -105v-119h-492
v116zM387.5 149q40.5 23 63.5 63.5t23 88.5t-23 88.5t-63 64.5t-90 24q-48 0 -88.5 -23.5t-64 -64t-23.5 -89.5q0 -48 23.5 -88t63.5 -63.5t88 -23.5q50 0 90.5 23zM253.5 658q-29.5 32 -29.5 82h53q0 -27 13.5 -42t35.5 -15t35.5 15t13.5 42h54q0 -50 -30 -82t-73 -32
t-72.5 32z" />
    <glyph glyph-name="gcircumflex.ss01" horiz-adv-x="597" 
d="M47 -70h77v-51h353v5q-27 5 -31 6l-400 115v99h66q15 0 30 -3l22 -2v3q-56 31 -88 84.5t-32 121.5t33.5 124t91.5 88.5t128 32.5h261v-59h-69q-23 0 -35 2l-1 -1q49 -36 74.5 -85t25.5 -109q0 -68 -34 -124.5t-93 -89.5t-131 -33h-154v-9q2 0 29 -7l369 -105v-119h-492
v116zM387.5 149q40.5 23 63.5 63.5t23 88.5t-23 88.5t-63 64.5t-90 24q-48 0 -88.5 -23.5t-64 -64t-23.5 -89.5q0 -48 23.5 -88t63.5 -63.5t88 -23.5q50 0 90.5 23zM299 761h56l84 -130h-70l-42 83l-44 -83h-69z" />
    <glyph glyph-name="uni0123.ss01" horiz-adv-x="597" 
d="M47 -70h77v-51h353v5q-27 5 -31 6l-400 115v99h66q15 0 30 -3l22 -2v3q-56 31 -88 84.5t-32 121.5t33.5 124t91.5 88.5t128 32.5h261v-59h-69q-23 0 -35 2l-1 -1q49 -36 74.5 -85t25.5 -109q0 -68 -34 -124.5t-93 -89.5t-131 -33h-154v-9q2 0 29 -7l369 -105v-119h-492
v116zM387.5 149q40.5 23 63.5 63.5t23 88.5t-23 88.5t-63 64.5t-90 24q-48 0 -88.5 -23.5t-64 -64t-23.5 -89.5q0 -48 23.5 -88t63.5 -63.5t88 -23.5q50 0 90.5 23zM341 616h-73l61 158h50z" />
    <glyph glyph-name="gdotaccent.ss01" horiz-adv-x="597" 
d="M47 -70h77v-51h353v5q-27 5 -31 6l-400 115v99h66q15 0 30 -3l22 -2v3q-56 31 -88 84.5t-32 121.5t33.5 124t91.5 88.5t128 32.5h261v-59h-69q-23 0 -35 2l-1 -1q49 -36 74.5 -85t25.5 -109q0 -68 -34 -124.5t-93 -89.5t-131 -33h-154v-9q2 0 29 -7l369 -105v-119h-492
v116zM387.5 149q40.5 23 63.5 63.5t23 88.5t-23 88.5t-63 64.5t-90 24q-48 0 -88.5 -23.5t-64 -64t-23.5 -89.5q0 -48 23.5 -88t63.5 -63.5t88 -23.5q50 0 90.5 23zM291.5 664.5q-14.5 14.5 -14.5 34.5t14.5 34.5t34.5 14.5t34.5 -14.5t14.5 -34.5t-14.5 -34.5t-34.5 -14.5
t-34.5 14.5z" />
    <glyph glyph-name="h.ss01" horiz-adv-x="624" 
d="M71 704h76v-262h3q28 57 76.5 91t114.5 34q67 0 114.5 -29.5t72.5 -81t25 -115.5v-341h-78v325q0 74 -40.5 121.5t-112.5 47.5q-52 0 -91.5 -27.5t-61 -71.5t-21.5 -92v-303h-77v704z" />
    <glyph glyph-name="hbar.ss01" horiz-adv-x="617" 
d="M455 507q48 -30 73 -81.5t25 -115.5v-310h-78v294q0 74 -40.5 121.5t-113.5 47.5q-52 0 -91.5 -27t-60.5 -71t-21 -92v-273h-77v575h-59v65h59v64h76v-64h113v-65h-113v-163h3q28 57 76.5 91t114.5 34t114 -30z" />
    <glyph glyph-name="hcircumflex.ss01" horiz-adv-x="624" 
d="M71 704h76v-262h3q28 57 76.5 91t114.5 34q67 0 114.5 -29.5t72.5 -81t25 -115.5v-341h-78v325q0 74 -40.5 121.5t-112.5 47.5q-52 0 -91.5 -27.5t-61 -71.5t-21.5 -92v-303h-77v704zM82 906h56l84 -130h-70l-42 83l-44 -83h-69z" />
    <glyph glyph-name="m.ss01" horiz-adv-x="1023" 
d="M861.5 536.5q47.5 -30.5 72.5 -82t25 -114.5v-340h-78v323q0 77 -41 123.5t-114 46.5q-52 0 -91.5 -27.5t-60.5 -71.5t-21 -92v-302h-78v324q0 74 -40.5 121.5t-112.5 47.5q-52 0 -91.5 -27t-61 -71t-21.5 -92v-303h-77v551h76v-108h3q28 57 76.5 90.5t114.5 33.5
q73 0 123.5 -36t72.5 -97h10q28 59 79 96t123 37q65 0 112.5 -30.5z" />
    <glyph glyph-name="n.ss01" horiz-adv-x="617" 
d="M71 551h76v-108h3q28 57 76.5 90.5t114.5 33.5q67 0 114.5 -29.5t72.5 -81t25 -115.5v-341h-78v324q0 74 -40.5 121.5t-112.5 47.5q-52 0 -91.5 -27t-61 -71t-21.5 -92v-303h-77v551z" />
    <glyph glyph-name="nacute.ss01" horiz-adv-x="617" 
d="M71 551h76v-108h3q28 57 76.5 90.5t114.5 33.5q67 0 114.5 -29.5t72.5 -81t25 -115.5v-341h-78v324q0 74 -40.5 121.5t-112.5 47.5q-52 0 -91.5 -27t-61 -71t-21.5 -92v-303h-77v551zM339 790h88l-81 -162h-60z" />
    <glyph glyph-name="napostrophe.ss01" horiz-adv-x="625" 
d="M71 551h76v-108h3q28 57 76.5 90.5t114.5 33.5q67 0 114.5 -29.5t72.5 -81t25 -115.5v-341h-78v324q0 74 -40.5 121.5t-112.5 47.5q-52 0 -91.5 -27t-61 -71t-21.5 -92v-303h-77v551zM98 736q-10 6 -15.5 16.5t-5.5 22.5q0 20 14.5 35t34.5 15t34.5 -15t14.5 -35
q0 -10 -5 -22l-43 -118h-50z" />
    <glyph glyph-name="ncaron.ss01" horiz-adv-x="617" 
d="M71 551h76v-108h3q28 57 76.5 90.5t114.5 33.5q67 0 114.5 -29.5t72.5 -81t25 -115.5v-341h-78v324q0 74 -40.5 121.5t-112.5 47.5q-52 0 -91.5 -27t-61 -71t-21.5 -92v-303h-77v551zM203 761h69l44 -83l42 83h70l-84 -130h-56z" />
    <glyph glyph-name="uni0146.ss01" horiz-adv-x="617" 
d="M71 551h76v-108h3q28 57 76.5 90.5t114.5 33.5q67 0 114.5 -29.5t72.5 -81t25 -115.5v-341h-78v324q0 74 -40.5 121.5t-112.5 47.5q-52 0 -91.5 -27t-61 -71t-21.5 -92v-303h-77v551zM284 -48h79l-66 -168h-52z" />
    <glyph glyph-name="eng.ss01" horiz-adv-x="617" 
d="M455.5 537.5q47.5 -29.5 72.5 -81t25 -115.5v-497h-175v70h97v410q0 74 -40.5 121.5t-112.5 47.5q-52 0 -91.5 -27t-61 -71t-21.5 -92v-303h-77v551h76v-108h3q28 57 76.5 90.5t114.5 33.5q67 0 114.5 -29.5z" />
    <glyph glyph-name="ntilde.ss01" horiz-adv-x="617" 
d="M71 551h76v-108h3q28 57 76.5 90.5t114.5 33.5q67 0 114.5 -29.5t72.5 -81t25 -115.5v-341h-78v324q0 74 -40.5 121.5t-112.5 47.5q-52 0 -91.5 -27t-61 -71t-21.5 -92v-303h-77v551zM338.5 646q-16.5 6 -37.5 17q-18 10 -29 14.5t-23 4.5q-26 0 -43 -26l-54 36
q36 55 97 55q21 -1 37 -6.5t38 -17.5q15 -9 26.5 -13.5t23.5 -4.5q9 0 24.5 6t28.5 24l52 -38q-22 -32 -51.5 -44.5t-53.5 -12.5q-19 0 -35.5 6z" />
    <glyph glyph-name="r.ss01" horiz-adv-x="373" 
d="M71 550h77v-122h3q28 60 81.5 98.5t135.5 38.5v-78q-103 0 -161 -56.5t-58 -155.5v-274h-78v549z" />
    <glyph glyph-name="racute.ss01" horiz-adv-x="373" 
d="M71 550h77v-122h3q28 60 81.5 98.5t135.5 38.5v-78q-103 0 -161 -56.5t-58 -155.5v-274h-78v549zM250 790h88l-81 -162h-60z" />
    <glyph glyph-name="rcaron.ss01" horiz-adv-x="373" 
d="M71 550h77v-122h3q28 60 81.5 98.5t135.5 38.5v-78q-103 0 -161 -56.5t-58 -155.5v-274h-78v549zM114 761h69l44 -83l42 83h70l-84 -130h-56z" />
    <glyph glyph-name="uni0157.ss01" horiz-adv-x="373" 
d="M71 550h77v-122h3q28 60 81.5 98.5t135.5 38.5v-78q-103 0 -161 -56.5t-58 -155.5v-274h-78v549zM78 -48h79l-66 -168h-52z" />
    <glyph glyph-name="u.ss01" horiz-adv-x="598" 
d="M71 550h78v-475h300v475h78v-550h-456v550z" />
    <glyph glyph-name="uacute.ss01" horiz-adv-x="598" 
d="M71 550h78v-475h300v475h78v-550h-456v550zM331 788h88l-81 -162h-60z" />
    <glyph glyph-name="ubreve.ss01" horiz-adv-x="598" 
d="M71 550h78v-475h300v475h78v-550h-456v550zM235.5 656q-29.5 32 -29.5 82h53q0 -27 13.5 -42t35.5 -15t35.5 15t13.5 42h54q0 -50 -30 -82t-73 -32t-72.5 32z" />
    <glyph glyph-name="ucircumflex.ss01" horiz-adv-x="598" 
d="M71 550h78v-475h300v475h78v-550h-456v550zM280 759h56l84 -130h-70l-42 83l-44 -83h-69z" />
    <glyph glyph-name="udieresis.ss01" horiz-adv-x="598" 
d="M71 550h78v-475h300v475h78v-550h-456v550zM207 647q-13 13 -13 31q0 19 13 31.5t31 12.5t30.5 -12.5t12.5 -31.5q0 -18 -12.5 -31t-30.5 -13t-31 13zM346 647q-13 13 -13 31q0 19 13 31.5t31 12.5t30.5 -12.5t12.5 -31.5q0 -18 -12.5 -31t-30.5 -13t-31 13z" />
    <glyph glyph-name="ugrave.ss01" horiz-adv-x="598" 
d="M71 550h78v-475h300v475h78v-550h-456v550zM195 788h87l54 -162h-60z" />
    <glyph glyph-name="uhungarumlaut.ss01" horiz-adv-x="598" 
d="M71 550h78v-475h300v475h78v-550h-456v550zM233 788h78l-75 -162h-56zM365 788h84l-82 -162h-60z" />
    <glyph glyph-name="umacron.ss01" horiz-adv-x="598" 
d="M71 550h78v-475h300v475h78v-550h-456v550zM485 708v-60h-355v60h355z" />
    <glyph glyph-name="uogonek.ss01" horiz-adv-x="598" 
d="M401.5 -14.5q-13.5 -14.5 -13.5 -36.5q0 -42 54 -42v-48q-48 0 -76.5 19.5t-28.5 59.5q0 36 26 62h-292v550h78v-475h300v475h78v-550h-92q-20 0 -33.5 -14.5z" />
    <glyph glyph-name="uring.ss01" horiz-adv-x="598" 
d="M71 550h78v-475h300v475h78v-550h-456v550zM237.5 632q-28.5 29 -28.5 70q0 40 28.5 69t69.5 29q40 0 69 -29t29 -69q0 -41 -29 -70t-69 -29q-41 0 -69.5 29zM343 665q15 15 15 37q0 21 -15 36t-36 15t-36 -15t-15 -36q0 -22 15 -37t36 -15t36 15z" />
    <glyph glyph-name="utilde.ss01" horiz-adv-x="598" 
d="M71 550h78v-475h300v475h78v-550h-456v550zM330.5 644q-16.5 6 -37.5 17q-18 10 -29 14.5t-23 4.5q-26 0 -43 -26l-54 36q36 55 97 55q21 -1 37 -6.5t38 -17.5q15 -9 26.5 -13.5t23.5 -4.5q9 0 24.5 6t28.5 24l52 -38q-22 -32 -51.5 -44.5t-53.5 -12.5q-19 0 -35.5 6z
" />
    <glyph glyph-name="y.ss01" horiz-adv-x="558" 
d="M235 -81h239v-75h-363l116 231l-225 475h85l184 -395l200 395h85z" />
    <glyph glyph-name="yacute.ss01" horiz-adv-x="558" 
d="M235 -81h239v-75h-363l116 231l-225 475h85l184 -395l200 395h85zM306 790h88l-81 -162h-60z" />
    <glyph glyph-name="ycircumflex.ss01" horiz-adv-x="558" 
d="M235 -81h239v-75h-363l116 231l-225 475h85l184 -395l200 395h85zM255 761h56l84 -130h-70l-42 83l-44 -83h-69z" />
    <glyph glyph-name="ydieresis.ss01" horiz-adv-x="558" 
d="M235 -81h239v-75h-363l116 231l-225 475h85l184 -395l200 395h85zM182 649q-13 13 -13 31q0 19 13 31.5t31 12.5t30.5 -12.5t12.5 -31.5q0 -18 -12.5 -31t-30.5 -13t-31 13zM321 649q-13 13 -13 31q0 19 13 31.5t31 12.5t30.5 -12.5t12.5 -31.5q0 -18 -12.5 -31
t-30.5 -13t-31 13z" />
    <glyph glyph-name="ygrave.ss01" horiz-adv-x="558" 
d="M235 -81h239v-75h-363l116 231l-225 475h85l184 -395l200 395h85zM170 790h87l54 -162h-60z" />
    <glyph glyph-name="a.ss02" 
d="M119 11q-44 26 -70.5 70.5t-26.5 97.5q0 54 26.5 98.5t70.5 70t94 25.5q41 0 76 -18t55 -49h2v174h-220v70h289v-314h57v-236h-75v132h-3q-13 -67 -62.5 -107t-117.5 -40q-51 0 -95 26zM287.5 67.5q29.5 17.5 47 47t17.5 64.5t-17.5 64.5t-47 47t-64.5 17.5t-64.5 -17.5
t-47 -47t-17.5 -64.5t17.5 -64.5t47 -47t64.5 -17.5t64.5 17.5z" />
    <glyph glyph-name="aacute.ss02" 
d="M119 11q-44 26 -70.5 70.5t-26.5 97.5q0 54 26.5 98.5t70.5 70t94 25.5q41 0 76 -18t55 -49h2v174h-220v70h289v-314h57v-236h-75v132h-3q-13 -67 -62.5 -107t-117.5 -40q-51 0 -95 26zM287.5 67.5q29.5 17.5 47 47t17.5 64.5t-17.5 64.5t-47 47t-64.5 17.5t-64.5 -17.5
t-47 -47t-17.5 -64.5t17.5 -64.5t47 -47t64.5 -17.5t64.5 17.5zM307 790h88l-81 -162h-60z" />
    <glyph glyph-name="abreve.ss02" 
d="M119 11q-44 26 -70.5 70.5t-26.5 97.5q0 54 26.5 98.5t70.5 70t94 25.5q41 0 76 -18t55 -49h2v174h-220v70h289v-314h57v-236h-75v132h-3q-13 -67 -62.5 -107t-117.5 -40q-51 0 -95 26zM287.5 67.5q29.5 17.5 47 47t17.5 64.5t-17.5 64.5t-47 47t-64.5 17.5t-64.5 -17.5
t-47 -47t-17.5 -64.5t17.5 -64.5t47 -47t64.5 -17.5t64.5 17.5zM210.5 658q-29.5 32 -29.5 82h53q0 -27 13.5 -42t35.5 -15t35.5 15t13.5 42h54q0 -50 -30 -82t-73 -32t-72.5 32z" />
    <glyph glyph-name="acircumflex.ss02" 
d="M119 11q-44 26 -70.5 70.5t-26.5 97.5q0 54 26.5 98.5t70.5 70t94 25.5q41 0 76 -18t55 -49h2v174h-220v70h289v-314h57v-236h-75v132h-3q-13 -67 -62.5 -107t-117.5 -40q-51 0 -95 26zM287.5 67.5q29.5 17.5 47 47t17.5 64.5t-17.5 64.5t-47 47t-64.5 17.5t-64.5 -17.5
t-47 -47t-17.5 -64.5t17.5 -64.5t47 -47t64.5 -17.5t64.5 17.5zM256 761h56l84 -130h-70l-42 83l-44 -83h-69z" />
    <glyph glyph-name="adieresis.ss02" 
d="M119 11q-44 26 -70.5 70.5t-26.5 97.5q0 54 26.5 98.5t70.5 70t94 25.5q41 0 76 -18t55 -49h2v174h-220v70h289v-314h57v-236h-75v132h-3q-13 -67 -62.5 -107t-117.5 -40q-51 0 -95 26zM287.5 67.5q29.5 17.5 47 47t17.5 64.5t-17.5 64.5t-47 47t-64.5 17.5t-64.5 -17.5
t-47 -47t-17.5 -64.5t17.5 -64.5t47 -47t64.5 -17.5t64.5 17.5zM183 649q-13 13 -13 31q0 19 13 31.5t31 12.5t30.5 -12.5t12.5 -31.5q0 -18 -12.5 -31t-30.5 -13t-31 13zM322 649q-13 13 -13 31q0 19 13 31.5t31 12.5t30.5 -12.5t12.5 -31.5q0 -18 -12.5 -31t-30.5 -13
t-31 13z" />
    <glyph glyph-name="agrave.ss02" 
d="M119 11q-44 26 -70.5 70.5t-26.5 97.5q0 54 26.5 98.5t70.5 70t94 25.5q41 0 76 -18t55 -49h2v174h-220v70h289v-314h57v-236h-75v132h-3q-13 -67 -62.5 -107t-117.5 -40q-51 0 -95 26zM287.5 67.5q29.5 17.5 47 47t17.5 64.5t-17.5 64.5t-47 47t-64.5 17.5t-64.5 -17.5
t-47 -47t-17.5 -64.5t17.5 -64.5t47 -47t64.5 -17.5t64.5 17.5zM171 790h87l54 -162h-60z" />
    <glyph glyph-name="amacron.ss02" 
d="M437 710v-60h-308v60h308zM119 11q-44 26 -70.5 70.5t-26.5 97.5q0 54 26.5 98.5t70.5 70t94 25.5q41 0 76 -18t55 -49h2v174h-220v70h289v-314h57v-236h-75v132h-3q-13 -67 -62.5 -107t-117.5 -40q-51 0 -95 26zM287.5 67.5q29.5 17.5 47 47t17.5 64.5t-17.5 64.5
t-47 47t-64.5 17.5t-64.5 -17.5t-47 -47t-17.5 -64.5t17.5 -64.5t47 -47t64.5 -17.5t64.5 17.5z" />
    <glyph glyph-name="aogonek.ss02" 
d="M473 -93v-48q-48 0 -76.5 19.5t-28.5 59.5q0 39 29 65v129h-3q-13 -67 -62.5 -107t-117.5 -40q-51 0 -95 26t-70.5 70.5t-26.5 97.5q0 54 26.5 98.5t70.5 70t94 25.5q41 0 76 -18t55 -49h2v174h-220v70h289v-314h57v-236h-6q-20 0 -33.5 -14.5t-13.5 -36.5q0 -42 54 -42z
M287.5 67.5q29.5 17.5 47 47t17.5 64.5t-17.5 64.5t-47 47t-64.5 17.5t-64.5 -17.5t-47 -47t-17.5 -64.5t17.5 -64.5t47 -47t64.5 -17.5t64.5 17.5z" />
    <glyph glyph-name="aring.ss02" 
d="M119 11q-44 26 -70.5 70.5t-26.5 97.5q0 54 26.5 98.5t70.5 70t94 25.5q41 0 76 -18t55 -49h2v174h-220v70h289v-314h57v-236h-75v132h-3q-13 -67 -62.5 -107t-117.5 -40q-51 0 -95 26zM287.5 67.5q29.5 17.5 47 47t17.5 64.5t-17.5 64.5t-47 47t-64.5 17.5t-64.5 -17.5
t-47 -47t-17.5 -64.5t17.5 -64.5t47 -47t64.5 -17.5t64.5 17.5zM213.5 634q-28.5 29 -28.5 70q0 40 28.5 69t69.5 29q40 0 69 -29t29 -69q0 -41 -29 -70t-69 -29q-41 0 -69.5 29zM319 667q15 15 15 37q0 21 -15 36t-36 15t-36 -15t-15 -36q0 -22 15 -37t36 -15t36 15z" />
    <glyph glyph-name="atilde.ss02" 
d="M119 11q-44 26 -70.5 70.5t-26.5 97.5q0 54 26.5 98.5t70.5 70t94 25.5q41 0 76 -18t55 -49h2v174h-220v70h289v-314h57v-236h-75v132h-3q-13 -67 -62.5 -107t-117.5 -40q-51 0 -95 26zM287.5 67.5q29.5 17.5 47 47t17.5 64.5t-17.5 64.5t-47 47t-64.5 17.5t-64.5 -17.5
t-47 -47t-17.5 -64.5t17.5 -64.5t47 -47t64.5 -17.5t64.5 17.5zM306.5 646q-16.5 6 -37.5 17q-18 10 -29 14.5t-23 4.5q-26 0 -43 -26l-54 36q36 55 97 55q21 -1 37 -6.5t38 -17.5q15 -9 26.5 -13.5t23.5 -4.5q9 0 24.5 6t28.5 24l52 -38q-22 -32 -51.5 -44.5t-53.5 -12.5
q-19 0 -35.5 6z" />
    <glyph glyph-name="f.ss02" horiz-adv-x="351" 
d="M186 630v-166h145v-75h-145v-389h-79v389h-91v75h91v241h234v-75h-155z" />
    <glyph glyph-name="g.ss02" horiz-adv-x="601" 
d="M51 -89h423v113h-423v66h78q24 0 52 -3v4q-65 28 -104.5 85.5t-39.5 132.5q0 68 33.5 124t91.5 88t128 32h265v-59h-77q-10 0 -30 2l-2 -1q46 -34 73 -81.5t27 -104.5q0 -74 -39 -132t-104 -86v-3q30 2 50 2h85v-244h-487v65zM380.5 149.5q40.5 23.5 64 63.5t23.5 89
q0 48 -23.5 88.5t-64 64t-88.5 23.5q-49 0 -89.5 -23.5t-64 -64t-23.5 -88.5q0 -49 23.5 -89t64 -63.5t89.5 -23.5q48 0 88.5 23.5z" />
    <glyph glyph-name="gbreve.ss02" horiz-adv-x="601" 
d="M51 -89h423v113h-423v66h78q24 0 52 -3v4q-65 28 -104.5 85.5t-39.5 132.5q0 68 33.5 124t91.5 88t128 32h265v-59h-77q-10 0 -30 2l-2 -1q46 -34 73 -81.5t27 -104.5q0 -74 -39 -132t-104 -86v-3q30 2 50 2h85v-244h-487v65zM380.5 149.5q40.5 23.5 64 63.5t23.5 89
q0 48 -23.5 88.5t-64 64t-88.5 23.5q-49 0 -89.5 -23.5t-64 -64t-23.5 -88.5q0 -49 23.5 -89t64 -63.5t89.5 -23.5q48 0 88.5 23.5zM250.5 658q-29.5 32 -29.5 82h53q0 -27 13.5 -42t35.5 -15t35.5 15t13.5 42h54q0 -50 -30 -82t-73 -32t-72.5 32z" />
    <glyph glyph-name="gcircumflex.ss02" horiz-adv-x="601" 
d="M51 -89h423v113h-423v66h78q24 0 52 -3v4q-65 28 -104.5 85.5t-39.5 132.5q0 68 33.5 124t91.5 88t128 32h265v-59h-77q-10 0 -30 2l-2 -1q46 -34 73 -81.5t27 -104.5q0 -74 -39 -132t-104 -86v-3q30 2 50 2h85v-244h-487v65zM380.5 149.5q40.5 23.5 64 63.5t23.5 89
q0 48 -23.5 88.5t-64 64t-88.5 23.5q-49 0 -89.5 -23.5t-64 -64t-23.5 -88.5q0 -49 23.5 -89t64 -63.5t89.5 -23.5q48 0 88.5 23.5zM296 761h56l84 -130h-70l-42 83l-44 -83h-69z" />
    <glyph glyph-name="uni0123.ss02" horiz-adv-x="601" 
d="M51 -89h423v113h-423v66h78q24 0 52 -3v4q-65 28 -104.5 85.5t-39.5 132.5q0 68 33.5 124t91.5 88t128 32h265v-59h-77q-10 0 -30 2l-2 -1q46 -34 73 -81.5t27 -104.5q0 -74 -39 -132t-104 -86v-3q30 2 50 2h85v-244h-487v65zM380.5 149.5q40.5 23.5 64 63.5t23.5 89
q0 48 -23.5 88.5t-64 64t-88.5 23.5q-49 0 -89.5 -23.5t-64 -64t-23.5 -88.5q0 -49 23.5 -89t64 -63.5t89.5 -23.5q48 0 88.5 23.5zM338 616h-73l61 158h50z" />
    <glyph glyph-name="gdotaccent.ss02" horiz-adv-x="601" 
d="M51 -89h423v113h-423v66h78q24 0 52 -3v4q-65 28 -104.5 85.5t-39.5 132.5q0 68 33.5 124t91.5 88t128 32h265v-59h-77q-10 0 -30 2l-2 -1q46 -34 73 -81.5t27 -104.5q0 -74 -39 -132t-104 -86v-3q30 2 50 2h85v-244h-487v65zM380.5 149.5q40.5 23.5 64 63.5t23.5 89
q0 48 -23.5 88.5t-64 64t-88.5 23.5q-49 0 -89.5 -23.5t-64 -64t-23.5 -88.5q0 -49 23.5 -89t64 -63.5t89.5 -23.5q48 0 88.5 23.5zM288.5 664.5q-14.5 14.5 -14.5 34.5t14.5 34.5t34.5 14.5t34.5 -14.5t14.5 -34.5t-14.5 -34.5t-34.5 -14.5t-34.5 14.5z" />
    <glyph glyph-name="y.ss02" horiz-adv-x="598" 
d="M527 550v-706h-420v76h343v117h-379v513h78v-438h300v438h78z" />
    <glyph glyph-name="yacute.ss02" horiz-adv-x="598" 
d="M527 550v-706h-420v76h343v117h-379v513h78v-438h300v438h78zM323 789h88l-81 -162h-60z" />
    <glyph glyph-name="ycircumflex.ss02" horiz-adv-x="598" 
d="M527 550v-706h-420v76h343v117h-379v513h78v-438h300v438h78zM272 760h56l84 -130h-70l-42 83l-44 -83h-69z" />
    <glyph glyph-name="ydieresis.ss02" horiz-adv-x="598" 
d="M527 550v-706h-420v76h343v117h-379v513h78v-438h300v438h78zM199 648q-13 13 -13 31q0 19 13 31.5t31 12.5t30.5 -12.5t12.5 -31.5q0 -18 -12.5 -31t-30.5 -13t-31 13zM338 648q-13 13 -13 31q0 19 13 31.5t31 12.5t30.5 -12.5t12.5 -31.5q0 -18 -12.5 -31t-30.5 -13
t-31 13z" />
    <glyph glyph-name="ygrave.ss02" horiz-adv-x="598" 
d="M527 550v-706h-420v76h343v117h-379v513h78v-438h300v438h78zM187 789h87l54 -162h-60z" />
    <glyph glyph-name="a.ss03" horiz-adv-x="547" 
d="M118.5 11q-44.5 26 -70.5 70.5t-26 97.5q0 55 26 99t69.5 69.5t94.5 25.5q42 0 78 -17.5t57 -48.5h4l-60 173h-203v70h256l189 -550h-81l-53 155h-4q3 -44 -22 -83.5t-67.5 -63t-89.5 -23.5q-53 0 -97.5 26zM286.5 67.5q29.5 17.5 47 47t17.5 64.5t-17.5 64.5t-47 47
t-63.5 17.5q-35 0 -64.5 -17.5t-47 -47t-17.5 -64.5t17.5 -64.5t47 -47t64.5 -17.5q34 0 63.5 17.5z" />
    <glyph glyph-name="aacute.ss03" horiz-adv-x="547" 
d="M118.5 11q-44.5 26 -70.5 70.5t-26 97.5q0 55 26 99t69.5 69.5t94.5 25.5q42 0 78 -17.5t57 -48.5h4l-60 173h-203v70h256l189 -550h-81l-53 155h-4q3 -44 -22 -83.5t-67.5 -63t-89.5 -23.5q-53 0 -97.5 26zM286.5 67.5q29.5 17.5 47 47t17.5 64.5t-17.5 64.5t-47 47
t-63.5 17.5q-35 0 -64.5 -17.5t-47 -47t-17.5 -64.5t17.5 -64.5t47 -47t64.5 -17.5q34 0 63.5 17.5zM251 790h88l-81 -162h-60z" />
    <glyph glyph-name="abreve.ss03" horiz-adv-x="547" 
d="M118.5 11q-44.5 26 -70.5 70.5t-26 97.5q0 55 26 99t69.5 69.5t94.5 25.5q42 0 78 -17.5t57 -48.5h4l-60 173h-203v70h256l189 -550h-81l-53 155h-4q3 -44 -22 -83.5t-67.5 -63t-89.5 -23.5q-53 0 -97.5 26zM286.5 67.5q29.5 17.5 47 47t17.5 64.5t-17.5 64.5t-47 47
t-63.5 17.5q-35 0 -64.5 -17.5t-47 -47t-17.5 -64.5t17.5 -64.5t47 -47t64.5 -17.5q34 0 63.5 17.5zM155.5 658q-29.5 32 -29.5 82h53q0 -27 13.5 -42t35.5 -15t35.5 15t13.5 42h54q0 -50 -30 -82t-73 -32t-72.5 32z" />
    <glyph glyph-name="acircumflex.ss03" horiz-adv-x="547" 
d="M118.5 11q-44.5 26 -70.5 70.5t-26 97.5q0 55 26 99t69.5 69.5t94.5 25.5q42 0 78 -17.5t57 -48.5h4l-60 173h-203v70h256l189 -550h-81l-53 155h-4q3 -44 -22 -83.5t-67.5 -63t-89.5 -23.5q-53 0 -97.5 26zM286.5 67.5q29.5 17.5 47 47t17.5 64.5t-17.5 64.5t-47 47
t-63.5 17.5q-35 0 -64.5 -17.5t-47 -47t-17.5 -64.5t17.5 -64.5t47 -47t64.5 -17.5q34 0 63.5 17.5zM200 761h56l84 -130h-70l-42 83l-44 -83h-69z" />
    <glyph glyph-name="adieresis.ss03" horiz-adv-x="547" 
d="M118.5 11q-44.5 26 -70.5 70.5t-26 97.5q0 55 26 99t69.5 69.5t94.5 25.5q42 0 78 -17.5t57 -48.5h4l-60 173h-203v70h256l189 -550h-81l-53 155h-4q3 -44 -22 -83.5t-67.5 -63t-89.5 -23.5q-53 0 -97.5 26zM286.5 67.5q29.5 17.5 47 47t17.5 64.5t-17.5 64.5t-47 47
t-63.5 17.5q-35 0 -64.5 -17.5t-47 -47t-17.5 -64.5t17.5 -64.5t47 -47t64.5 -17.5q34 0 63.5 17.5zM127 649q-13 13 -13 31q0 19 13 31.5t31 12.5t30.5 -12.5t12.5 -31.5q0 -18 -12.5 -31t-30.5 -13t-31 13zM266 649q-13 13 -13 31q0 19 13 31.5t31 12.5t30.5 -12.5
t12.5 -31.5q0 -18 -12.5 -31t-30.5 -13t-31 13z" />
    <glyph glyph-name="agrave.ss03" horiz-adv-x="547" 
d="M118.5 11q-44.5 26 -70.5 70.5t-26 97.5q0 55 26 99t69.5 69.5t94.5 25.5q42 0 78 -17.5t57 -48.5h4l-60 173h-203v70h256l189 -550h-81l-53 155h-4q3 -44 -22 -83.5t-67.5 -63t-89.5 -23.5q-53 0 -97.5 26zM286.5 67.5q29.5 17.5 47 47t17.5 64.5t-17.5 64.5t-47 47
t-63.5 17.5q-35 0 -64.5 -17.5t-47 -47t-17.5 -64.5t17.5 -64.5t47 -47t64.5 -17.5q34 0 63.5 17.5zM115 790h87l54 -162h-60z" />
    <glyph glyph-name="amacron.ss03" horiz-adv-x="547" 
d="M387 710v-60h-320v60h320zM118.5 11q-44.5 26 -70.5 70.5t-26 97.5q0 55 26 99t69.5 69.5t94.5 25.5q42 0 78 -17.5t57 -48.5h4l-60 173h-203v70h256l189 -550h-81l-53 155h-4q3 -44 -22 -83.5t-67.5 -63t-89.5 -23.5q-53 0 -97.5 26zM286.5 67.5q29.5 17.5 47 47
t17.5 64.5t-17.5 64.5t-47 47t-63.5 17.5q-35 0 -64.5 -17.5t-47 -47t-17.5 -64.5t17.5 -64.5t47 -47t64.5 -17.5q34 0 63.5 17.5z" />
    <glyph glyph-name="aogonek.ss03" horiz-adv-x="547" 
d="M529 -93v-48q-48 0 -76.5 19.5t-28.5 59.5q0 37 27 64l-52 153h-4q3 -44 -22 -83.5t-67.5 -63t-89.5 -23.5q-53 0 -97.5 26t-70.5 70.5t-26 97.5q0 55 26 99t69.5 69.5t94.5 25.5q42 0 78 -17.5t57 -48.5h4l-60 173h-203v70h256l189 -550h-11q-20 0 -33.5 -14.5
t-13.5 -36.5q0 -42 54 -42zM286.5 67.5q29.5 17.5 47 47t17.5 64.5t-17.5 64.5t-47 47t-63.5 17.5q-35 0 -64.5 -17.5t-47 -47t-17.5 -64.5t17.5 -64.5t47 -47t64.5 -17.5q34 0 63.5 17.5z" />
    <glyph glyph-name="aring.ss03" horiz-adv-x="547" 
d="M118.5 11q-44.5 26 -70.5 70.5t-26 97.5q0 55 26 99t69.5 69.5t94.5 25.5q42 0 78 -17.5t57 -48.5h4l-60 173h-203v70h256l189 -550h-81l-53 155h-4q3 -44 -22 -83.5t-67.5 -63t-89.5 -23.5q-53 0 -97.5 26zM286.5 67.5q29.5 17.5 47 47t17.5 64.5t-17.5 64.5t-47 47
t-63.5 17.5q-35 0 -64.5 -17.5t-47 -47t-17.5 -64.5t17.5 -64.5t47 -47t64.5 -17.5q34 0 63.5 17.5zM157.5 634q-28.5 29 -28.5 70q0 40 28.5 69t69.5 29q40 0 69 -29t29 -69q0 -41 -29 -70t-69 -29q-41 0 -69.5 29zM263 667q15 15 15 37q0 21 -15 36t-36 15t-36 -15
t-15 -36q0 -22 15 -37t36 -15t36 15z" />
    <glyph glyph-name="atilde.ss03" horiz-adv-x="547" 
d="M118.5 11q-44.5 26 -70.5 70.5t-26 97.5q0 55 26 99t69.5 69.5t94.5 25.5q42 0 78 -17.5t57 -48.5h4l-60 173h-203v70h256l189 -550h-81l-53 155h-4q3 -44 -22 -83.5t-67.5 -63t-89.5 -23.5q-53 0 -97.5 26zM286.5 67.5q29.5 17.5 47 47t17.5 64.5t-17.5 64.5t-47 47
t-63.5 17.5q-35 0 -64.5 -17.5t-47 -47t-17.5 -64.5t17.5 -64.5t47 -47t64.5 -17.5q34 0 63.5 17.5zM250.5 646q-16.5 6 -37.5 17q-18 10 -29 14.5t-23 4.5q-26 0 -43 -26l-54 36q36 55 97 55q21 -1 37 -6.5t38 -17.5q15 -9 26.5 -13.5t23.5 -4.5q9 0 24.5 6t28.5 24l52 -38
q-22 -32 -51.5 -44.5t-53.5 -12.5q-19 0 -35.5 6z" />
    <glyph glyph-name="g.ss03" horiz-adv-x="678" 
d="M607 550v-706h-496v76h419v250h-4q-33 -72 -94 -110t-139 -38q-75 0 -135 36t-94.5 98t-34.5 136q0 75 34.5 137.5t95 99t134.5 36.5q81 0 142 -41.5t91 -109.5h4v136h77zM414 121q48 27 76 72.5t28 98.5t-28 99t-76 73t-105 27q-56 0 -101.5 -27t-71.5 -72.5t-26 -99.5
q0 -53 26 -98.5t71.5 -72.5t101.5 -27q57 0 105 27z" />
    <glyph glyph-name="gbreve.ss03" horiz-adv-x="678" 
d="M607 550v-706h-496v76h419v250h-4q-33 -72 -94 -110t-139 -38q-75 0 -135 36t-94.5 98t-34.5 136q0 75 34.5 137.5t95 99t134.5 36.5q81 0 142 -41.5t91 -109.5h4v136h77zM414 121q48 27 76 72.5t28 98.5t-28 99t-76 73t-105 27q-56 0 -101.5 -27t-71.5 -72.5t-26 -99.5
q0 -53 26 -98.5t71.5 -72.5t101.5 -27q57 0 105 27zM258.5 654q-29.5 32 -29.5 82h53q0 -27 13.5 -42t35.5 -15t35.5 15t13.5 42h54q0 -50 -30 -82t-73 -32t-72.5 32z" />
    <glyph glyph-name="gcircumflex.ss03" horiz-adv-x="678" 
d="M607 550v-706h-496v76h419v250h-4q-33 -72 -94 -110t-139 -38q-75 0 -135 36t-94.5 98t-34.5 136q0 75 34.5 137.5t95 99t134.5 36.5q81 0 142 -41.5t91 -109.5h4v136h77zM414 121q48 27 76 72.5t28 98.5t-28 99t-76 73t-105 27q-56 0 -101.5 -27t-71.5 -72.5t-26 -99.5
q0 -53 26 -98.5t71.5 -72.5t101.5 -27q57 0 105 27zM304 757h56l84 -130h-70l-42 83l-44 -83h-69z" />
    <glyph glyph-name="uni0123.ss03" horiz-adv-x="678" 
d="M607 550v-706h-496v76h419v250h-4q-33 -72 -94 -110t-139 -38q-75 0 -135 36t-94.5 98t-34.5 136q0 75 34.5 137.5t95 99t134.5 36.5q81 0 142 -41.5t91 -109.5h4v136h77zM414 121q48 27 76 72.5t28 98.5t-28 99t-76 73t-105 27q-56 0 -101.5 -27t-71.5 -72.5t-26 -99.5
q0 -53 26 -98.5t71.5 -72.5t101.5 -27q57 0 105 27zM346 612h-73l61 158h50z" />
    <glyph glyph-name="gdotaccent.ss03" horiz-adv-x="678" 
d="M607 550v-706h-496v76h419v250h-4q-33 -72 -94 -110t-139 -38q-75 0 -135 36t-94.5 98t-34.5 136q0 75 34.5 137.5t95 99t134.5 36.5q81 0 142 -41.5t91 -109.5h4v136h77zM414 121q48 27 76 72.5t28 98.5t-28 99t-76 73t-105 27q-56 0 -101.5 -27t-71.5 -72.5t-26 -99.5
q0 -53 26 -98.5t71.5 -72.5t101.5 -27q57 0 105 27zM296.5 660.5q-14.5 14.5 -14.5 34.5t14.5 34.5t34.5 14.5t34.5 -14.5t14.5 -34.5t-14.5 -34.5t-34.5 -14.5t-34.5 14.5z" />
    <glyph glyph-name="a.ss04" horiz-adv-x="739" 
d="M668 550v-549h-77v187q-26 -90 -99 -146.5t-173 -56.5q-79 0 -145.5 39t-105.5 105.5t-39 144.5q0 79 39 145.5t105.5 105t145.5 38.5q100 0 173 -56t99 -146v189h77zM428 88.5q49 28.5 77.5 77.5t28.5 108q0 61 -28.5 110t-77.5 76.5t-107 27.5q-59 0 -108 -27.5
t-77.5 -76.5t-28.5 -110q0 -59 29 -108t78 -77.5t107 -28.5t107 28.5z" />
    <glyph glyph-name="aacute.ss04" horiz-adv-x="739" 
d="M668 550v-549h-77v187q-26 -90 -99 -146.5t-173 -56.5q-79 0 -145.5 39t-105.5 105.5t-39 144.5q0 79 39 145.5t105.5 105t145.5 38.5q100 0 173 -56t99 -146v189h77zM428 88.5q49 28.5 77.5 77.5t28.5 108q0 61 -28.5 110t-77.5 76.5t-107 27.5q-59 0 -108 -27.5
t-77.5 -76.5t-28.5 -110q0 -59 29 -108t78 -77.5t107 -28.5t107 28.5zM387 790h88l-81 -162h-60z" />
    <glyph glyph-name="abreve.ss04" horiz-adv-x="739" 
d="M668 550v-549h-77v187q-26 -90 -99 -146.5t-173 -56.5q-79 0 -145.5 39t-105.5 105.5t-39 144.5q0 79 39 145.5t105.5 105t145.5 38.5q100 0 173 -56t99 -146v189h77zM428 88.5q49 28.5 77.5 77.5t28.5 108q0 61 -28.5 110t-77.5 76.5t-107 27.5q-59 0 -108 -27.5
t-77.5 -76.5t-28.5 -110q0 -59 29 -108t78 -77.5t107 -28.5t107 28.5zM291.5 658q-29.5 32 -29.5 82h53q0 -27 13.5 -42t35.5 -15t35.5 15t13.5 42h54q0 -50 -30 -82t-73 -32t-72.5 32z" />
    <glyph glyph-name="acircumflex.ss04" horiz-adv-x="739" 
d="M668 550v-549h-77v187q-26 -90 -99 -146.5t-173 -56.5q-79 0 -145.5 39t-105.5 105.5t-39 144.5q0 79 39 145.5t105.5 105t145.5 38.5q100 0 173 -56t99 -146v189h77zM428 88.5q49 28.5 77.5 77.5t28.5 108q0 61 -28.5 110t-77.5 76.5t-107 27.5q-59 0 -108 -27.5
t-77.5 -76.5t-28.5 -110q0 -59 29 -108t78 -77.5t107 -28.5t107 28.5zM336 761h56l84 -130h-70l-42 83l-44 -83h-69z" />
    <glyph glyph-name="adieresis.ss04" horiz-adv-x="739" 
d="M668 550v-549h-77v187q-26 -90 -99 -146.5t-173 -56.5q-79 0 -145.5 39t-105.5 105.5t-39 144.5q0 79 39 145.5t105.5 105t145.5 38.5q100 0 173 -56t99 -146v189h77zM428 88.5q49 28.5 77.5 77.5t28.5 108q0 61 -28.5 110t-77.5 76.5t-107 27.5q-59 0 -108 -27.5
t-77.5 -76.5t-28.5 -110q0 -59 29 -108t78 -77.5t107 -28.5t107 28.5zM263 649q-13 13 -13 31q0 19 13 31.5t31 12.5t30.5 -12.5t12.5 -31.5q0 -18 -12.5 -31t-30.5 -13t-31 13zM402 649q-13 13 -13 31q0 19 13 31.5t31 12.5t30.5 -12.5t12.5 -31.5q0 -18 -12.5 -31
t-30.5 -13t-31 13z" />
    <glyph glyph-name="agrave.ss04" horiz-adv-x="739" 
d="M668 550v-549h-77v187q-26 -90 -99 -146.5t-173 -56.5q-79 0 -145.5 39t-105.5 105.5t-39 144.5q0 79 39 145.5t105.5 105t145.5 38.5q100 0 173 -56t99 -146v189h77zM428 88.5q49 28.5 77.5 77.5t28.5 108q0 61 -28.5 110t-77.5 76.5t-107 27.5q-59 0 -108 -27.5
t-77.5 -76.5t-28.5 -110q0 -59 29 -108t78 -77.5t107 -28.5t107 28.5zM251 790h87l54 -162h-60z" />
    <glyph glyph-name="amacron.ss04" horiz-adv-x="739" 
d="M668 550v-549h-77v187q-26 -90 -99 -146.5t-173 -56.5q-79 0 -145.5 39t-105.5 105.5t-39 144.5q0 79 39 145.5t105.5 105t145.5 38.5q100 0 173 -56t99 -146v189h77zM428 88.5q49 28.5 77.5 77.5t28.5 108q0 61 -28.5 110t-77.5 76.5t-107 27.5q-59 0 -108 -27.5
t-77.5 -76.5t-28.5 -110q0 -59 29 -108t78 -77.5t107 -28.5t107 28.5zM541 710v-60h-355v60h355z" />
    <glyph glyph-name="aogonek.ss04" horiz-adv-x="739" 
d="M668 1h-6v-1q-21 0 -34 -14.5t-13 -36.5q0 -42 53 -42v-48q-48 0 -76 19.5t-28 59.5q0 37 27 64v186q-26 -90 -99 -146.5t-173 -56.5q-79 0 -145.5 39t-105.5 105.5t-39 144.5q0 79 39 145.5t105.5 105t145.5 38.5q100 0 173 -56t99 -146v189h77v-549zM428 88.5
q49 28.5 77.5 77.5t28.5 108q0 61 -28.5 110t-77.5 76.5t-107 27.5q-59 0 -108 -27.5t-77.5 -76.5t-28.5 -110q0 -59 29 -108t78 -77.5t107 -28.5t107 28.5z" />
    <glyph glyph-name="aring.ss04" horiz-adv-x="739" 
d="M668 550v-549h-77v187q-26 -90 -99 -146.5t-173 -56.5q-79 0 -145.5 39t-105.5 105.5t-39 144.5q0 79 39 145.5t105.5 105t145.5 38.5q100 0 173 -56t99 -146v189h77zM428 88.5q49 28.5 77.5 77.5t28.5 108q0 61 -28.5 110t-77.5 76.5t-107 27.5q-59 0 -108 -27.5
t-77.5 -76.5t-28.5 -110q0 -59 29 -108t78 -77.5t107 -28.5t107 28.5zM293.5 634q-28.5 29 -28.5 70q0 40 28.5 69t69.5 29q40 0 69 -29t29 -69q0 -41 -29 -70t-69 -29q-41 0 -69.5 29zM399 667q15 15 15 37q0 21 -15 36t-36 15t-36 -15t-15 -36q0 -22 15 -37t36 -15t36 15z
" />
    <glyph glyph-name="atilde.ss04" horiz-adv-x="739" 
d="M668 550v-549h-77v187q-26 -90 -99 -146.5t-173 -56.5q-79 0 -145.5 39t-105.5 105.5t-39 144.5q0 79 39 145.5t105.5 105t145.5 38.5q100 0 173 -56t99 -146v189h77zM428 88.5q49 28.5 77.5 77.5t28.5 108q0 61 -28.5 110t-77.5 76.5t-107 27.5q-59 0 -108 -27.5
t-77.5 -76.5t-28.5 -110q0 -59 29 -108t78 -77.5t107 -28.5t107 28.5zM386.5 646q-16.5 6 -37.5 17q-18 10 -29 14.5t-23 4.5q-26 0 -43 -26l-54 36q36 55 97 55q21 -1 37 -6.5t38 -17.5q15 -9 26.5 -13.5t23.5 -4.5q9 0 24.5 6t28.5 24l52 -38q-22 -32 -51.5 -44.5
t-53.5 -12.5q-19 0 -35.5 6z" />
    <glyph glyph-name="b.ss04" horiz-adv-x="739" 
d="M567 524.5q66 -38.5 104.5 -105t38.5 -145.5q0 -78 -38.5 -144.5t-105 -105.5t-145.5 -39q-100 0 -173.5 56.5t-99.5 146.5v-187h-77v704h77v-344q26 90 99.5 146t173.5 56q80 0 146 -38.5zM525 88.5q49 28.5 78 77.5t29 108q0 61 -28.5 110t-77.5 76.5t-108 27.5
q-58 0 -107 -27.5t-77.5 -76.5t-28.5 -110q0 -59 28.5 -108t77.5 -77.5t107 -28.5t107 28.5z" />
    <glyph glyph-name="d.ss04" horiz-adv-x="739" 
d="M668 705v-704h-77v187q-26 -90 -99.5 -146.5t-173.5 -56.5q-79 0 -145.5 39t-105 105.5t-38.5 144.5q0 79 38.5 145.5t104.5 105t146 38.5q100 0 173.5 -56t99.5 -146v344h77zM428 88.5q49 28.5 77.5 77.5t28.5 108q0 61 -28.5 110t-77.5 76.5t-107 27.5
q-59 0 -108 -27.5t-77.5 -76.5t-28.5 -110q0 -59 29 -108t78 -77.5t107 -28.5t107 28.5z" />
    <glyph glyph-name="dcaron.ss04" horiz-adv-x="845" 
d="M668 705v-704h-77v187q-26 -90 -99.5 -146.5t-173.5 -56.5q-79 0 -145.5 39t-105 105.5t-38.5 144.5q0 79 38.5 145.5t104.5 105t146 38.5q100 0 173.5 -56t99.5 -146v344h77zM428 88.5q49 28.5 77.5 77.5t28.5 108q0 61 -28.5 110t-77.5 76.5t-107 27.5
q-59 0 -108 -27.5t-77.5 -76.5t-28.5 -110q0 -59 29 -108t78 -77.5t107 -28.5t107 28.5zM768 617q-10 6 -15.5 16.5t-5.5 22.5q0 20 14.5 35t34.5 15t34.5 -15t14.5 -35q0 -10 -5 -22l-43 -118h-50z" />
    <glyph glyph-name="dcroat.ss04" horiz-adv-x="728" 
d="M716 570h-58v-569h-77v178q-26 -87 -98.5 -140.5t-172.5 -53.5q-79 0 -143 36.5t-101 100.5t-37 142q0 79 37 142.5t101 99.5t143 36q100 0 172.5 -52.5t98.5 -139.5v220h-113v65h113v70h77v-70h58v-65zM418.5 86q48.5 26 77 72.5t28.5 105.5q0 61 -28.5 107t-77 71
t-106.5 25t-104.5 -25t-73.5 -71t-27 -107q0 -59 27 -105.5t73.5 -72.5t104.5 -26t106.5 26z" />
    <glyph glyph-name="g.ss04" horiz-adv-x="709" 
d="M638 550v-706h-516v76h439v291q-26 -84 -96.5 -138t-161.5 -54q-72 0 -135.5 37.5t-101 100t-37.5 135.5q0 74 37.5 136t100.5 98.5t136 36.5q92 0 162 -52.5t96 -136.5v176h77zM402.5 120.5q45.5 26.5 73.5 72t28 99.5q0 56 -28 100.5t-73.5 70t-96.5 25.5
q-52 0 -97.5 -25.5t-73.5 -70t-28 -100.5q0 -54 28 -99.5t74 -72t97 -26.5t96.5 26.5z" />
    <glyph glyph-name="gbreve.ss04" horiz-adv-x="709" 
d="M638 550v-706h-516v76h439v291q-26 -84 -96.5 -138t-161.5 -54q-72 0 -135.5 37.5t-101 100t-37.5 135.5q0 74 37.5 136t100.5 98.5t136 36.5q92 0 162 -52.5t96 -136.5v176h77zM402.5 120.5q45.5 26.5 73.5 72t28 99.5q0 56 -28 100.5t-73.5 70t-96.5 25.5
q-52 0 -97.5 -25.5t-73.5 -70t-28 -100.5q0 -54 28 -99.5t74 -72t97 -26.5t96.5 26.5zM271.5 654q-29.5 32 -29.5 82h53q0 -27 13.5 -42t35.5 -15t35.5 15t13.5 42h54q0 -50 -30 -82t-73 -32t-72.5 32z" />
    <glyph glyph-name="gcircumflex.ss04" horiz-adv-x="709" 
d="M638 550v-706h-516v76h439v291q-26 -84 -96.5 -138t-161.5 -54q-72 0 -135.5 37.5t-101 100t-37.5 135.5q0 74 37.5 136t100.5 98.5t136 36.5q92 0 162 -52.5t96 -136.5v176h77zM402.5 120.5q45.5 26.5 73.5 72t28 99.5q0 56 -28 100.5t-73.5 70t-96.5 25.5
q-52 0 -97.5 -25.5t-73.5 -70t-28 -100.5q0 -54 28 -99.5t74 -72t97 -26.5t96.5 26.5zM316 757h56l84 -130h-70l-42 83l-44 -83h-69z" />
    <glyph glyph-name="uni0123.ss04" horiz-adv-x="709" 
d="M638 550v-706h-516v76h439v291q-26 -84 -96.5 -138t-161.5 -54q-72 0 -135.5 37.5t-101 100t-37.5 135.5q0 74 37.5 136t100.5 98.5t136 36.5q92 0 162 -52.5t96 -136.5v176h77zM402.5 120.5q45.5 26.5 73.5 72t28 99.5q0 56 -28 100.5t-73.5 70t-96.5 25.5
q-52 0 -97.5 -25.5t-73.5 -70t-28 -100.5q0 -54 28 -99.5t74 -72t97 -26.5t96.5 26.5zM358 612h-73l61 158h50z" />
    <glyph glyph-name="gdotaccent.ss04" horiz-adv-x="709" 
d="M638 550v-706h-516v76h439v291q-26 -84 -96.5 -138t-161.5 -54q-72 0 -135.5 37.5t-101 100t-37.5 135.5q0 74 37.5 136t100.5 98.5t136 36.5q92 0 162 -52.5t96 -136.5v176h77zM402.5 120.5q45.5 26.5 73.5 72t28 99.5q0 56 -28 100.5t-73.5 70t-96.5 25.5
q-52 0 -97.5 -25.5t-73.5 -70t-28 -100.5q0 -54 28 -99.5t74 -72t97 -26.5t96.5 26.5zM308.5 660.5q-14.5 14.5 -14.5 34.5t14.5 34.5t34.5 14.5t34.5 -14.5t14.5 -34.5t-14.5 -34.5t-34.5 -14.5t-34.5 14.5z" />
    <glyph glyph-name="p.ss04" horiz-adv-x="739" 
d="M565.5 524.5q66.5 -38.5 105.5 -105t39 -145.5q0 -78 -39 -144.5t-105.5 -105.5t-145.5 -39q-100 0 -173 56.5t-99 146.5v-346h-77v708h77v-189q26 90 99 146t173 56q79 0 145.5 -38.5zM525 88.5q49 28.5 78 77.5t29 108q0 61 -28.5 110t-77.5 76.5t-108 27.5
q-58 0 -107 -27.5t-77.5 -76.5t-28.5 -110q0 -59 28.5 -108t77.5 -77.5t107 -28.5t107 28.5z" />
    <glyph glyph-name="thorn.ss04" horiz-adv-x="726" 
d="M565.5 524.5q66.5 -38.5 105.5 -105t39 -145.5q0 -78 -39 -144.5t-105.5 -105.5t-145.5 -39q-100 0 -173 56.5t-99 146.5v-346h-77v863h77v-344q26 90 99 146t173 56q79 0 145.5 -38.5zM525 88.5q49 28.5 78 77.5t29 108q0 61 -28.5 110t-77.5 76.5t-108 27.5
q-58 0 -107 -27.5t-77.5 -76.5t-28.5 -110q0 -59 28.5 -108t77.5 -77.5t107 -28.5t107 28.5z" />
    <glyph glyph-name="q.ss04" horiz-adv-x="739" 
d="M668 550v-708h-77v346q-26 -90 -99 -146.5t-173 -56.5q-79 0 -145.5 39t-105.5 105.5t-39 144.5q0 79 39 145.5t105.5 105t145.5 38.5q100 0 173 -56t99 -146v189h77zM428 88.5q49 28.5 77.5 77.5t28.5 108q0 61 -28.5 110t-77.5 76.5t-107 27.5q-59 0 -108 -27.5
t-77.5 -76.5t-28.5 -110q0 -59 29 -108t78 -77.5t107 -28.5t107 28.5z" />
    </font>
</defs>
</svg>
